G04 #@! TF.GenerationSoftware,KiCad,Pcbnew,(5.1.6)-1*
G04 #@! TF.CreationDate,2021-03-08T10:10:15+01:00*
G04 #@! TF.ProjectId,P_sensor v10.0,505f7365-6e73-46f7-9220-7631302e302e,rev?*
G04 #@! TF.SameCoordinates,Original*
G04 #@! TF.FileFunction,Copper,L16,Bot*
G04 #@! TF.FilePolarity,Positive*
%FSLAX46Y46*%
G04 Gerber Fmt 4.6, Leading zero omitted, Abs format (unit mm)*
G04 Created by KiCad (PCBNEW (5.1.6)-1) date 2021-03-08 10:10:15*
%MOMM*%
%LPD*%
G01*
G04 APERTURE LIST*
G04 #@! TA.AperFunction,NonConductor*
%ADD10C,0.300000*%
G04 #@! TD*
G04 #@! TA.AperFunction,EtchedComponent*
%ADD11C,0.500000*%
G04 #@! TD*
G04 #@! TA.AperFunction,EtchedComponent*
%ADD12C,0.150000*%
G04 #@! TD*
G04 #@! TA.AperFunction,ComponentPad*
%ADD13R,2.895600X2.895600*%
G04 #@! TD*
G04 #@! TA.AperFunction,ComponentPad*
%ADD14O,1.219200X2.438400*%
G04 #@! TD*
G04 #@! TA.AperFunction,ComponentPad*
%ADD15O,2.834636X1.417318*%
G04 #@! TD*
G04 #@! TA.AperFunction,ComponentPad*
%ADD16C,1.417318*%
G04 #@! TD*
G04 #@! TA.AperFunction,ViaPad*
%ADD17C,0.800000*%
G04 #@! TD*
G04 #@! TA.AperFunction,ViaPad*
%ADD18C,0.651318*%
G04 #@! TD*
G04 #@! TA.AperFunction,ViaPad*
%ADD19C,0.751318*%
G04 #@! TD*
G04 #@! TA.AperFunction,Conductor*
%ADD20C,0.812800*%
G04 #@! TD*
G04 #@! TA.AperFunction,Conductor*
%ADD21C,0.150000*%
G04 #@! TD*
G04 #@! TA.AperFunction,Conductor*
%ADD22C,0.500000*%
G04 #@! TD*
G04 #@! TA.AperFunction,Conductor*
%ADD23C,0.250000*%
G04 #@! TD*
G04 APERTURE END LIST*
D10*
X153421428Y-103778571D02*
X154921428Y-103778571D01*
X154921428Y-103207142D01*
X154850000Y-103064285D01*
X154778571Y-102992857D01*
X154635714Y-102921428D01*
X154421428Y-102921428D01*
X154278571Y-102992857D01*
X154207142Y-103064285D01*
X154135714Y-103207142D01*
X154135714Y-103778571D01*
X153564285Y-101421428D02*
X153492857Y-101492857D01*
X153421428Y-101707142D01*
X153421428Y-101850000D01*
X153492857Y-102064285D01*
X153635714Y-102207142D01*
X153778571Y-102278571D01*
X154064285Y-102350000D01*
X154278571Y-102350000D01*
X154564285Y-102278571D01*
X154707142Y-102207142D01*
X154850000Y-102064285D01*
X154921428Y-101850000D01*
X154921428Y-101707142D01*
X154850000Y-101492857D01*
X154778571Y-101421428D01*
X154207142Y-100278571D02*
X154135714Y-100064285D01*
X154064285Y-99992857D01*
X153921428Y-99921428D01*
X153707142Y-99921428D01*
X153564285Y-99992857D01*
X153492857Y-100064285D01*
X153421428Y-100207142D01*
X153421428Y-100778571D01*
X154921428Y-100778571D01*
X154921428Y-100278571D01*
X154850000Y-100135714D01*
X154778571Y-100064285D01*
X154635714Y-99992857D01*
X154492857Y-99992857D01*
X154350000Y-100064285D01*
X154278571Y-100135714D01*
X154207142Y-100278571D01*
X154207142Y-100778571D01*
X153421428Y-98492857D02*
X153421428Y-99350000D01*
X153421428Y-98921428D02*
X154921428Y-98921428D01*
X154707142Y-99064285D01*
X154564285Y-99207142D01*
X154492857Y-99350000D01*
X154921428Y-97564285D02*
X154921428Y-97421428D01*
X154850000Y-97278571D01*
X154778571Y-97207142D01*
X154635714Y-97135714D01*
X154350000Y-97064285D01*
X153992857Y-97064285D01*
X153707142Y-97135714D01*
X153564285Y-97207142D01*
X153492857Y-97278571D01*
X153421428Y-97421428D01*
X153421428Y-97564285D01*
X153492857Y-97707142D01*
X153564285Y-97778571D01*
X153707142Y-97850000D01*
X153992857Y-97921428D01*
X154350000Y-97921428D01*
X154635714Y-97850000D01*
X154778571Y-97778571D01*
X154850000Y-97707142D01*
X154921428Y-97564285D01*
X153421428Y-95635714D02*
X153421428Y-96492857D01*
X153421428Y-96064285D02*
X154921428Y-96064285D01*
X154707142Y-96207142D01*
X154564285Y-96350000D01*
X154492857Y-96492857D01*
X154778571Y-95064285D02*
X154850000Y-94992857D01*
X154921428Y-94850000D01*
X154921428Y-94492857D01*
X154850000Y-94350000D01*
X154778571Y-94278571D01*
X154635714Y-94207142D01*
X154492857Y-94207142D01*
X154278571Y-94278571D01*
X153421428Y-95135714D01*
X153421428Y-94207142D01*
X154921428Y-92635714D02*
X153421428Y-92135714D01*
X154921428Y-91635714D01*
X153421428Y-90350000D02*
X153421428Y-91207142D01*
X153421428Y-90778571D02*
X154921428Y-90778571D01*
X154707142Y-90921428D01*
X154564285Y-91064285D01*
X154492857Y-91207142D01*
D11*
X185351100Y-103103600D02*
G75*
G03*
X185351100Y-103103600I-250000J0D01*
G01*
D12*
X186101100Y-103103600D02*
G75*
G03*
X186101100Y-103103600I-1000000J0D01*
G01*
D11*
X164451100Y-44403600D02*
G75*
G03*
X164451100Y-44403600I-250000J0D01*
G01*
D12*
X165201100Y-44403600D02*
G75*
G03*
X165201100Y-44403600I-1000000J0D01*
G01*
D11*
X191951100Y-44603600D02*
G75*
G03*
X191951100Y-44603600I-250000J0D01*
G01*
D12*
X192701100Y-44603600D02*
G75*
G03*
X192701100Y-44603600I-1000000J0D01*
G01*
D13*
X175749320Y-45238480D03*
X168850680Y-45238480D03*
D14*
X170702340Y-50897600D03*
X171502440Y-48479520D03*
X172300000Y-50897600D03*
X173097560Y-48479520D03*
X173897660Y-50897600D03*
D15*
X190001100Y-100583600D03*
X190001100Y-103123600D03*
D16*
X176131100Y-96023600D03*
X173591100Y-96023600D03*
X171051100Y-96023600D03*
X168511100Y-96023600D03*
X176131100Y-103903600D03*
X173591100Y-103903600D03*
X171051100Y-103903600D03*
X168511100Y-103903600D03*
D15*
X153501100Y-46123600D03*
X153501100Y-48663600D03*
X153501100Y-51203600D03*
X153501100Y-53743600D03*
X153501100Y-56283600D03*
D17*
X159766000Y-50292000D03*
X192601100Y-53524900D03*
D18*
X177801100Y-78403600D03*
X188601100Y-78403600D03*
X184101100Y-78403600D03*
X169301100Y-78403600D03*
X153501100Y-78403600D03*
X162701100Y-78403600D03*
X168401100Y-94503600D03*
X178601100Y-94503600D03*
X184601100Y-79603600D03*
X177101100Y-79603600D03*
D17*
X177101100Y-55880000D03*
X157734000Y-55880000D03*
D18*
X186601100Y-75903600D03*
X159401100Y-75903600D03*
X180901100Y-75203600D03*
X155201100Y-76903600D03*
X178401100Y-77003600D03*
X171001100Y-81903600D03*
X186701100Y-82303600D03*
X186001100Y-83203600D03*
X160401100Y-83203600D03*
X185401100Y-82503600D03*
X151801100Y-82503600D03*
X188001100Y-72403600D03*
X172101100Y-72403600D03*
X172101100Y-97503600D03*
X187301100Y-70803600D03*
X166901100Y-70803600D03*
X176401100Y-77803600D03*
X184701100Y-77803600D03*
X185301100Y-79003600D03*
X157501100Y-79003600D03*
X182601100Y-100103600D03*
X188701100Y-83403600D03*
X181801100Y-74603600D03*
X186401100Y-71803600D03*
X190801100Y-77003600D03*
X184801100Y-92703600D03*
D19*
X185401100Y-95303600D03*
D18*
X182201100Y-85903600D03*
D17*
X183388000Y-45212000D03*
X183896000Y-47498000D03*
X185674000Y-50038000D03*
X161798000Y-48006000D03*
X161290000Y-72898000D03*
X179070000Y-50292000D03*
X165608000Y-72644000D03*
X170942000Y-72644000D03*
X188614900Y-71481100D03*
X167894000Y-71428459D03*
X187600000Y-82200000D03*
X161798000Y-81026000D03*
D20*
X162998900Y-53524900D02*
X192601100Y-53524900D01*
X159766000Y-50292000D02*
X162998900Y-53524900D01*
D21*
X188601100Y-78403600D02*
X184101100Y-78403600D01*
X184101100Y-78403600D02*
X177801100Y-78403600D01*
X169301100Y-78403600D02*
X177801100Y-78403600D01*
X153501100Y-78403600D02*
X162701100Y-78403600D01*
X162701100Y-78403600D02*
X169301100Y-78403600D01*
X168401100Y-94503600D02*
X178601100Y-94503600D01*
X184601100Y-79603600D02*
X177101100Y-79603600D01*
D22*
X157734000Y-55880000D02*
X177101100Y-55880000D01*
D21*
X159401100Y-75903600D02*
X186601100Y-75903600D01*
X153501100Y-48663600D02*
X153461100Y-48703600D01*
X153461100Y-48703600D02*
X152401100Y-48703600D01*
X152401100Y-48703600D02*
X151801100Y-49303600D01*
X151801100Y-49303600D02*
X151801100Y-74603600D01*
X151801100Y-74603600D02*
X152401100Y-75203600D01*
X152401100Y-75203600D02*
X180901100Y-75203600D01*
X155201100Y-76903600D02*
X155301100Y-77003600D01*
X155301100Y-77003600D02*
X178401100Y-77003600D01*
X171001100Y-81903600D02*
X186301100Y-81903600D01*
X186301100Y-81903600D02*
X186701100Y-82303600D01*
X186001100Y-83203600D02*
X160401100Y-83203600D01*
X185401100Y-82503600D02*
X151801100Y-82503600D01*
X188001100Y-72403600D02*
X172101100Y-72403600D01*
X172101100Y-97503600D02*
X174651100Y-97503600D01*
X174651100Y-97503600D02*
X176131100Y-96023600D01*
X187301100Y-70803600D02*
X166901100Y-70803600D01*
X176401100Y-77803600D02*
X184701100Y-77803600D01*
X157501100Y-79003600D02*
X185301100Y-79003600D01*
X182601100Y-100103600D02*
X182901100Y-100103600D01*
X188701100Y-83403600D02*
X188701100Y-83103600D01*
X181801100Y-74603600D02*
X181801100Y-74703600D01*
X186401100Y-71803600D02*
X186701100Y-71803600D01*
X190801100Y-77003600D02*
X190801100Y-76803600D01*
X184801100Y-92703600D02*
X184601100Y-92703600D01*
D20*
X185401100Y-95303600D02*
X184901100Y-95303600D01*
D21*
X182201100Y-85903600D02*
X183001100Y-85903600D01*
X183001100Y-85903600D02*
X183101100Y-86003600D01*
D22*
X179066000Y-50288000D02*
X179070000Y-50292000D01*
D20*
X173897660Y-50288000D02*
X179066000Y-50288000D01*
D23*
X165608000Y-72644000D02*
X170942000Y-72644000D01*
D21*
X168069378Y-71253081D02*
X167894000Y-71428459D01*
X186665350Y-71253081D02*
X168069378Y-71253081D01*
X186893369Y-71481100D02*
X186665350Y-71253081D01*
X188614900Y-71481100D02*
X186893369Y-71481100D01*
D23*
X186500000Y-81100000D02*
X171400000Y-81100000D01*
X187600000Y-82200000D02*
X186500000Y-81100000D01*
X161872000Y-81100000D02*
X161798000Y-81026000D01*
X171400000Y-81100000D02*
X161872000Y-81100000D01*
D21*
G36*
X163817965Y-43140574D02*
G01*
X163578923Y-43239588D01*
X163363790Y-43383335D01*
X163180835Y-43566290D01*
X163037088Y-43781423D01*
X162938074Y-44020465D01*
X162887596Y-44274231D01*
X162887596Y-44532969D01*
X162938074Y-44786735D01*
X163037088Y-45025777D01*
X163180835Y-45240910D01*
X163363790Y-45423865D01*
X163578923Y-45567612D01*
X163817965Y-45666626D01*
X164071731Y-45717104D01*
X164330469Y-45717104D01*
X164584235Y-45666626D01*
X164823277Y-45567612D01*
X165038410Y-45423865D01*
X165221365Y-45240910D01*
X165365112Y-45025777D01*
X165464126Y-44786735D01*
X165514604Y-44532969D01*
X165514604Y-44274231D01*
X165464126Y-44020465D01*
X165368947Y-43790680D01*
X167176934Y-43790680D01*
X167176934Y-46686280D01*
X167181275Y-46730360D01*
X167194133Y-46772746D01*
X167215013Y-46811809D01*
X167243112Y-46846048D01*
X167277351Y-46874147D01*
X167316414Y-46895027D01*
X167358800Y-46907885D01*
X167402880Y-46912226D01*
X170298480Y-46912226D01*
X170342560Y-46907885D01*
X170384946Y-46895027D01*
X170424009Y-46874147D01*
X170458248Y-46846048D01*
X170486347Y-46811809D01*
X170507227Y-46772746D01*
X170520085Y-46730360D01*
X170524426Y-46686280D01*
X170524426Y-43790680D01*
X174075574Y-43790680D01*
X174075574Y-46686280D01*
X174079915Y-46730360D01*
X174092773Y-46772746D01*
X174113653Y-46811809D01*
X174141752Y-46846048D01*
X174175991Y-46874147D01*
X174215054Y-46895027D01*
X174257440Y-46907885D01*
X174301520Y-46912226D01*
X177197120Y-46912226D01*
X177241200Y-46907885D01*
X177283586Y-46895027D01*
X177322649Y-46874147D01*
X177356888Y-46846048D01*
X177384987Y-46811809D01*
X177405867Y-46772746D01*
X177418725Y-46730360D01*
X177423066Y-46686280D01*
X177423066Y-44474231D01*
X190387596Y-44474231D01*
X190387596Y-44732969D01*
X190438074Y-44986735D01*
X190537088Y-45225777D01*
X190680835Y-45440910D01*
X190863790Y-45623865D01*
X191078923Y-45767612D01*
X191317965Y-45866626D01*
X191571731Y-45917104D01*
X191830469Y-45917104D01*
X192084235Y-45866626D01*
X192323277Y-45767612D01*
X192538410Y-45623865D01*
X192721365Y-45440910D01*
X192865112Y-45225777D01*
X192964126Y-44986735D01*
X193014604Y-44732969D01*
X193014604Y-44474231D01*
X192964126Y-44220465D01*
X192865112Y-43981423D01*
X192721365Y-43766290D01*
X192538410Y-43583335D01*
X192323277Y-43439588D01*
X192084235Y-43340574D01*
X191830469Y-43290096D01*
X191571731Y-43290096D01*
X191317965Y-43340574D01*
X191078923Y-43439588D01*
X190863790Y-43583335D01*
X190680835Y-43766290D01*
X190537088Y-43981423D01*
X190438074Y-44220465D01*
X190387596Y-44474231D01*
X177423066Y-44474231D01*
X177423066Y-43790680D01*
X177418725Y-43746600D01*
X177405867Y-43704214D01*
X177384987Y-43665151D01*
X177356888Y-43630912D01*
X177322649Y-43602813D01*
X177283586Y-43581933D01*
X177241200Y-43569075D01*
X177197120Y-43564734D01*
X174301520Y-43564734D01*
X174257440Y-43569075D01*
X174215054Y-43581933D01*
X174175991Y-43602813D01*
X174141752Y-43630912D01*
X174113653Y-43665151D01*
X174092773Y-43704214D01*
X174079915Y-43746600D01*
X174075574Y-43790680D01*
X170524426Y-43790680D01*
X170520085Y-43746600D01*
X170507227Y-43704214D01*
X170486347Y-43665151D01*
X170458248Y-43630912D01*
X170424009Y-43602813D01*
X170384946Y-43581933D01*
X170342560Y-43569075D01*
X170298480Y-43564734D01*
X167402880Y-43564734D01*
X167358800Y-43569075D01*
X167316414Y-43581933D01*
X167277351Y-43602813D01*
X167243112Y-43630912D01*
X167215013Y-43665151D01*
X167194133Y-43704214D01*
X167181275Y-43746600D01*
X167176934Y-43790680D01*
X165368947Y-43790680D01*
X165365112Y-43781423D01*
X165221365Y-43566290D01*
X165038410Y-43383335D01*
X164823277Y-43239588D01*
X164584235Y-43140574D01*
X164398362Y-43103601D01*
X193617260Y-43103601D01*
X192527406Y-104828960D01*
X177301080Y-104903599D01*
X151995162Y-104903599D01*
X151851887Y-102564842D01*
X151729070Y-89689427D01*
X152480141Y-89689427D01*
X152480141Y-104510574D01*
X155479859Y-104510574D01*
X155479859Y-103811656D01*
X167577582Y-103811656D01*
X167577582Y-103995544D01*
X167613456Y-104175897D01*
X167683827Y-104345787D01*
X167785989Y-104498683D01*
X167916017Y-104628711D01*
X168068913Y-104730873D01*
X168238803Y-104801244D01*
X168419156Y-104837118D01*
X168603044Y-104837118D01*
X168783397Y-104801244D01*
X168953287Y-104730873D01*
X169106183Y-104628711D01*
X169236211Y-104498683D01*
X169338373Y-104345787D01*
X169408744Y-104175897D01*
X169444618Y-103995544D01*
X169444618Y-103811656D01*
X170117582Y-103811656D01*
X170117582Y-103995544D01*
X170153456Y-104175897D01*
X170223827Y-104345787D01*
X170325989Y-104498683D01*
X170456017Y-104628711D01*
X170608913Y-104730873D01*
X170778803Y-104801244D01*
X170959156Y-104837118D01*
X171143044Y-104837118D01*
X171323397Y-104801244D01*
X171493287Y-104730873D01*
X171646183Y-104628711D01*
X171776211Y-104498683D01*
X171878373Y-104345787D01*
X171948744Y-104175897D01*
X171984618Y-103995544D01*
X171984618Y-103811656D01*
X172657582Y-103811656D01*
X172657582Y-103995544D01*
X172693456Y-104175897D01*
X172763827Y-104345787D01*
X172865989Y-104498683D01*
X172996017Y-104628711D01*
X173148913Y-104730873D01*
X173318803Y-104801244D01*
X173499156Y-104837118D01*
X173683044Y-104837118D01*
X173863397Y-104801244D01*
X174033287Y-104730873D01*
X174186183Y-104628711D01*
X174316211Y-104498683D01*
X174418373Y-104345787D01*
X174488744Y-104175897D01*
X174524618Y-103995544D01*
X174524618Y-103811656D01*
X175197582Y-103811656D01*
X175197582Y-103995544D01*
X175233456Y-104175897D01*
X175303827Y-104345787D01*
X175405989Y-104498683D01*
X175536017Y-104628711D01*
X175688913Y-104730873D01*
X175858803Y-104801244D01*
X176039156Y-104837118D01*
X176223044Y-104837118D01*
X176403397Y-104801244D01*
X176573287Y-104730873D01*
X176726183Y-104628711D01*
X176856211Y-104498683D01*
X176958373Y-104345787D01*
X177028744Y-104175897D01*
X177064618Y-103995544D01*
X177064618Y-103811656D01*
X177028744Y-103631303D01*
X176958373Y-103461413D01*
X176856211Y-103308517D01*
X176726183Y-103178489D01*
X176573287Y-103076327D01*
X176403397Y-103005956D01*
X176243903Y-102974231D01*
X183787596Y-102974231D01*
X183787596Y-103232969D01*
X183838074Y-103486735D01*
X183937088Y-103725777D01*
X184080835Y-103940910D01*
X184263790Y-104123865D01*
X184478923Y-104267612D01*
X184717965Y-104366626D01*
X184971731Y-104417104D01*
X185230469Y-104417104D01*
X185484235Y-104366626D01*
X185723277Y-104267612D01*
X185938410Y-104123865D01*
X186121365Y-103940910D01*
X186265112Y-103725777D01*
X186364126Y-103486735D01*
X186414604Y-103232969D01*
X186414604Y-103123600D01*
X188354407Y-103123600D01*
X188372431Y-103306601D01*
X188425811Y-103482570D01*
X188512494Y-103644744D01*
X188629151Y-103786890D01*
X188771297Y-103903547D01*
X188933471Y-103990230D01*
X189109440Y-104043610D01*
X189246589Y-104057118D01*
X190755611Y-104057118D01*
X190892760Y-104043610D01*
X191068729Y-103990230D01*
X191230903Y-103903547D01*
X191373049Y-103786890D01*
X191489706Y-103644744D01*
X191576389Y-103482570D01*
X191629769Y-103306601D01*
X191647793Y-103123600D01*
X191629769Y-102940599D01*
X191576389Y-102764630D01*
X191489706Y-102602456D01*
X191373049Y-102460310D01*
X191230903Y-102343653D01*
X191068729Y-102256970D01*
X190892760Y-102203590D01*
X190755611Y-102190082D01*
X189246589Y-102190082D01*
X189109440Y-102203590D01*
X188933471Y-102256970D01*
X188771297Y-102343653D01*
X188629151Y-102460310D01*
X188512494Y-102602456D01*
X188425811Y-102764630D01*
X188372431Y-102940599D01*
X188354407Y-103123600D01*
X186414604Y-103123600D01*
X186414604Y-102974231D01*
X186364126Y-102720465D01*
X186265112Y-102481423D01*
X186121365Y-102266290D01*
X185938410Y-102083335D01*
X185723277Y-101939588D01*
X185484235Y-101840574D01*
X185230469Y-101790096D01*
X184971731Y-101790096D01*
X184717965Y-101840574D01*
X184478923Y-101939588D01*
X184263790Y-102083335D01*
X184080835Y-102266290D01*
X183937088Y-102481423D01*
X183838074Y-102720465D01*
X183787596Y-102974231D01*
X176243903Y-102974231D01*
X176223044Y-102970082D01*
X176039156Y-102970082D01*
X175858803Y-103005956D01*
X175688913Y-103076327D01*
X175536017Y-103178489D01*
X175405989Y-103308517D01*
X175303827Y-103461413D01*
X175233456Y-103631303D01*
X175197582Y-103811656D01*
X174524618Y-103811656D01*
X174488744Y-103631303D01*
X174418373Y-103461413D01*
X174316211Y-103308517D01*
X174186183Y-103178489D01*
X174033287Y-103076327D01*
X173863397Y-103005956D01*
X173683044Y-102970082D01*
X173499156Y-102970082D01*
X173318803Y-103005956D01*
X173148913Y-103076327D01*
X172996017Y-103178489D01*
X172865989Y-103308517D01*
X172763827Y-103461413D01*
X172693456Y-103631303D01*
X172657582Y-103811656D01*
X171984618Y-103811656D01*
X171948744Y-103631303D01*
X171878373Y-103461413D01*
X171776211Y-103308517D01*
X171646183Y-103178489D01*
X171493287Y-103076327D01*
X171323397Y-103005956D01*
X171143044Y-102970082D01*
X170959156Y-102970082D01*
X170778803Y-103005956D01*
X170608913Y-103076327D01*
X170456017Y-103178489D01*
X170325989Y-103308517D01*
X170223827Y-103461413D01*
X170153456Y-103631303D01*
X170117582Y-103811656D01*
X169444618Y-103811656D01*
X169408744Y-103631303D01*
X169338373Y-103461413D01*
X169236211Y-103308517D01*
X169106183Y-103178489D01*
X168953287Y-103076327D01*
X168783397Y-103005956D01*
X168603044Y-102970082D01*
X168419156Y-102970082D01*
X168238803Y-103005956D01*
X168068913Y-103076327D01*
X167916017Y-103178489D01*
X167785989Y-103308517D01*
X167683827Y-103461413D01*
X167613456Y-103631303D01*
X167577582Y-103811656D01*
X155479859Y-103811656D01*
X155479859Y-100762121D01*
X188325117Y-100762121D01*
X188374092Y-100936933D01*
X188460670Y-101109305D01*
X188579212Y-101261474D01*
X188725163Y-101387593D01*
X188892914Y-101482815D01*
X189076019Y-101543481D01*
X189267441Y-101567259D01*
X189976100Y-101567259D01*
X189976100Y-100608600D01*
X190026100Y-100608600D01*
X190026100Y-101567259D01*
X190734759Y-101567259D01*
X190926181Y-101543481D01*
X191109286Y-101482815D01*
X191277037Y-101387593D01*
X191422988Y-101261474D01*
X191541530Y-101109305D01*
X191628108Y-100936933D01*
X191677083Y-100762121D01*
X191624326Y-100608600D01*
X190026100Y-100608600D01*
X189976100Y-100608600D01*
X188377874Y-100608600D01*
X188325117Y-100762121D01*
X155479859Y-100762121D01*
X155479859Y-100405079D01*
X188325117Y-100405079D01*
X188377874Y-100558600D01*
X189976100Y-100558600D01*
X189976100Y-99599941D01*
X190026100Y-99599941D01*
X190026100Y-100558600D01*
X191624326Y-100558600D01*
X191677083Y-100405079D01*
X191628108Y-100230267D01*
X191541530Y-100057895D01*
X191422988Y-99905726D01*
X191277037Y-99779607D01*
X191109286Y-99684385D01*
X190926181Y-99623719D01*
X190734759Y-99599941D01*
X190026100Y-99599941D01*
X189976100Y-99599941D01*
X189267441Y-99599941D01*
X189076019Y-99623719D01*
X188892914Y-99684385D01*
X188725163Y-99779607D01*
X188579212Y-99905726D01*
X188460670Y-100057895D01*
X188374092Y-100230267D01*
X188325117Y-100405079D01*
X155479859Y-100405079D01*
X155479859Y-97449379D01*
X171550582Y-97449379D01*
X171550582Y-97557821D01*
X171571738Y-97664180D01*
X171613237Y-97764368D01*
X171673485Y-97854535D01*
X171750165Y-97931215D01*
X171840332Y-97991463D01*
X171940520Y-98032962D01*
X172046879Y-98054118D01*
X172155321Y-98054118D01*
X172261680Y-98032962D01*
X172361868Y-97991463D01*
X172452035Y-97931215D01*
X172528715Y-97854535D01*
X172562843Y-97803459D01*
X174636379Y-97803459D01*
X174651100Y-97804909D01*
X174709882Y-97799119D01*
X174766406Y-97781973D01*
X174818498Y-97754129D01*
X174864158Y-97716658D01*
X174873547Y-97705217D01*
X175716475Y-96862290D01*
X175858803Y-96921244D01*
X176039156Y-96957118D01*
X176223044Y-96957118D01*
X176403397Y-96921244D01*
X176573287Y-96850873D01*
X176726183Y-96748711D01*
X176856211Y-96618683D01*
X176958373Y-96465787D01*
X177028744Y-96295897D01*
X177064618Y-96115544D01*
X177064618Y-95931656D01*
X177028744Y-95751303D01*
X176958373Y-95581413D01*
X176856211Y-95428517D01*
X176726183Y-95298489D01*
X176573287Y-95196327D01*
X176403397Y-95125956D01*
X176223044Y-95090082D01*
X176039156Y-95090082D01*
X175858803Y-95125956D01*
X175688913Y-95196327D01*
X175536017Y-95298489D01*
X175405989Y-95428517D01*
X175303827Y-95581413D01*
X175233456Y-95751303D01*
X175197582Y-95931656D01*
X175197582Y-96115544D01*
X175233456Y-96295897D01*
X175292410Y-96438225D01*
X174526895Y-97203741D01*
X172562843Y-97203741D01*
X172528715Y-97152665D01*
X172452035Y-97075985D01*
X172361868Y-97015737D01*
X172261680Y-96974238D01*
X172155321Y-96953082D01*
X172046879Y-96953082D01*
X171940520Y-96974238D01*
X171840332Y-97015737D01*
X171750165Y-97075985D01*
X171673485Y-97152665D01*
X171613237Y-97242832D01*
X171571738Y-97343020D01*
X171550582Y-97449379D01*
X155479859Y-97449379D01*
X155479859Y-95931656D01*
X167577582Y-95931656D01*
X167577582Y-96115544D01*
X167613456Y-96295897D01*
X167683827Y-96465787D01*
X167785989Y-96618683D01*
X167916017Y-96748711D01*
X168068913Y-96850873D01*
X168238803Y-96921244D01*
X168419156Y-96957118D01*
X168603044Y-96957118D01*
X168783397Y-96921244D01*
X168953287Y-96850873D01*
X169106183Y-96748711D01*
X169236211Y-96618683D01*
X169338373Y-96465787D01*
X169408744Y-96295897D01*
X169444618Y-96115544D01*
X169444618Y-95931656D01*
X170117582Y-95931656D01*
X170117582Y-96115544D01*
X170153456Y-96295897D01*
X170223827Y-96465787D01*
X170325989Y-96618683D01*
X170456017Y-96748711D01*
X170608913Y-96850873D01*
X170778803Y-96921244D01*
X170959156Y-96957118D01*
X171143044Y-96957118D01*
X171323397Y-96921244D01*
X171493287Y-96850873D01*
X171646183Y-96748711D01*
X171703553Y-96691341D01*
X172958714Y-96691341D01*
X173030533Y-96837687D01*
X173200125Y-96931406D01*
X173384741Y-96990238D01*
X173577289Y-97011923D01*
X173770366Y-96995628D01*
X173956555Y-96941978D01*
X174128700Y-96853034D01*
X174151667Y-96837687D01*
X174223486Y-96691341D01*
X173591100Y-96058955D01*
X172958714Y-96691341D01*
X171703553Y-96691341D01*
X171776211Y-96618683D01*
X171878373Y-96465787D01*
X171948744Y-96295897D01*
X171984618Y-96115544D01*
X171984618Y-96009789D01*
X172602777Y-96009789D01*
X172619072Y-96202866D01*
X172672722Y-96389055D01*
X172761666Y-96561200D01*
X172777013Y-96584167D01*
X172923359Y-96655986D01*
X173555745Y-96023600D01*
X173626455Y-96023600D01*
X174258841Y-96655986D01*
X174405187Y-96584167D01*
X174498906Y-96414575D01*
X174557738Y-96229959D01*
X174579423Y-96037411D01*
X174563128Y-95844334D01*
X174509478Y-95658145D01*
X174420534Y-95486000D01*
X174405187Y-95463033D01*
X174258841Y-95391214D01*
X173626455Y-96023600D01*
X173555745Y-96023600D01*
X172923359Y-95391214D01*
X172777013Y-95463033D01*
X172683294Y-95632625D01*
X172624462Y-95817241D01*
X172602777Y-96009789D01*
X171984618Y-96009789D01*
X171984618Y-95931656D01*
X171948744Y-95751303D01*
X171878373Y-95581413D01*
X171776211Y-95428517D01*
X171703553Y-95355859D01*
X172958714Y-95355859D01*
X173591100Y-95988245D01*
X174223486Y-95355859D01*
X174151667Y-95209513D01*
X173982075Y-95115794D01*
X173797459Y-95056962D01*
X173604911Y-95035277D01*
X173411834Y-95051572D01*
X173225645Y-95105222D01*
X173053500Y-95194166D01*
X173030533Y-95209513D01*
X172958714Y-95355859D01*
X171703553Y-95355859D01*
X171646183Y-95298489D01*
X171493287Y-95196327D01*
X171323397Y-95125956D01*
X171143044Y-95090082D01*
X170959156Y-95090082D01*
X170778803Y-95125956D01*
X170608913Y-95196327D01*
X170456017Y-95298489D01*
X170325989Y-95428517D01*
X170223827Y-95581413D01*
X170153456Y-95751303D01*
X170117582Y-95931656D01*
X169444618Y-95931656D01*
X169408744Y-95751303D01*
X169338373Y-95581413D01*
X169236211Y-95428517D01*
X169106183Y-95298489D01*
X168953287Y-95196327D01*
X168783397Y-95125956D01*
X168603044Y-95090082D01*
X168419156Y-95090082D01*
X168238803Y-95125956D01*
X168068913Y-95196327D01*
X167916017Y-95298489D01*
X167785989Y-95428517D01*
X167683827Y-95581413D01*
X167613456Y-95751303D01*
X167577582Y-95931656D01*
X155479859Y-95931656D01*
X155479859Y-94449379D01*
X167850582Y-94449379D01*
X167850582Y-94557821D01*
X167871738Y-94664180D01*
X167913237Y-94764368D01*
X167973485Y-94854535D01*
X168050165Y-94931215D01*
X168140332Y-94991463D01*
X168240520Y-95032962D01*
X168346879Y-95054118D01*
X168455321Y-95054118D01*
X168561680Y-95032962D01*
X168661868Y-94991463D01*
X168752035Y-94931215D01*
X168828715Y-94854535D01*
X168862843Y-94803459D01*
X178139357Y-94803459D01*
X178173485Y-94854535D01*
X178250165Y-94931215D01*
X178340332Y-94991463D01*
X178440520Y-95032962D01*
X178546879Y-95054118D01*
X178655321Y-95054118D01*
X178761680Y-95032962D01*
X178861868Y-94991463D01*
X178952035Y-94931215D01*
X179028715Y-94854535D01*
X179088963Y-94764368D01*
X179130462Y-94664180D01*
X179151618Y-94557821D01*
X179151618Y-94449379D01*
X179130462Y-94343020D01*
X179088963Y-94242832D01*
X179028715Y-94152665D01*
X178952035Y-94075985D01*
X178861868Y-94015737D01*
X178761680Y-93974238D01*
X178655321Y-93953082D01*
X178546879Y-93953082D01*
X178440520Y-93974238D01*
X178340332Y-94015737D01*
X178250165Y-94075985D01*
X178173485Y-94152665D01*
X178139357Y-94203741D01*
X168862843Y-94203741D01*
X168828715Y-94152665D01*
X168752035Y-94075985D01*
X168661868Y-94015737D01*
X168561680Y-93974238D01*
X168455321Y-93953082D01*
X168346879Y-93953082D01*
X168240520Y-93974238D01*
X168140332Y-94015737D01*
X168050165Y-94075985D01*
X167973485Y-94152665D01*
X167913237Y-94242832D01*
X167871738Y-94343020D01*
X167850582Y-94449379D01*
X155479859Y-94449379D01*
X155479859Y-89689427D01*
X152480141Y-89689427D01*
X151729070Y-89689427D01*
X151715028Y-88217283D01*
X178636241Y-88217283D01*
X178636241Y-88369917D01*
X178666019Y-88519618D01*
X178724429Y-88660633D01*
X178809228Y-88787544D01*
X178917156Y-88895472D01*
X179044067Y-88980271D01*
X179185082Y-89038681D01*
X179334783Y-89068459D01*
X179487417Y-89068459D01*
X179637118Y-89038681D01*
X179778133Y-88980271D01*
X179905044Y-88895472D01*
X180012972Y-88787544D01*
X180097771Y-88660633D01*
X180156181Y-88519618D01*
X180185959Y-88369917D01*
X180185959Y-88217283D01*
X182416241Y-88217283D01*
X182416241Y-88369917D01*
X182446019Y-88519618D01*
X182504429Y-88660633D01*
X182589228Y-88787544D01*
X182697156Y-88895472D01*
X182824067Y-88980271D01*
X182965082Y-89038681D01*
X183114783Y-89068459D01*
X183267417Y-89068459D01*
X183417118Y-89038681D01*
X183558133Y-88980271D01*
X183685044Y-88895472D01*
X183792972Y-88787544D01*
X183877771Y-88660633D01*
X183936181Y-88519618D01*
X183965959Y-88369917D01*
X183965959Y-88227283D01*
X185606241Y-88227283D01*
X185606241Y-88379917D01*
X185636019Y-88529618D01*
X185694429Y-88670633D01*
X185779228Y-88797544D01*
X185887156Y-88905472D01*
X186014067Y-88990271D01*
X186155082Y-89048681D01*
X186304783Y-89078459D01*
X186457417Y-89078459D01*
X186607118Y-89048681D01*
X186748133Y-88990271D01*
X186875044Y-88905472D01*
X186982972Y-88797544D01*
X187067771Y-88670633D01*
X187126181Y-88529618D01*
X187155959Y-88379917D01*
X187155959Y-88227283D01*
X189386241Y-88227283D01*
X189386241Y-88379917D01*
X189416019Y-88529618D01*
X189474429Y-88670633D01*
X189559228Y-88797544D01*
X189667156Y-88905472D01*
X189794067Y-88990271D01*
X189935082Y-89048681D01*
X190084783Y-89078459D01*
X190237417Y-89078459D01*
X190387118Y-89048681D01*
X190528133Y-88990271D01*
X190655044Y-88905472D01*
X190762972Y-88797544D01*
X190847771Y-88670633D01*
X190906181Y-88529618D01*
X190935959Y-88379917D01*
X190935959Y-88227283D01*
X190906181Y-88077582D01*
X190847771Y-87936567D01*
X190762972Y-87809656D01*
X190655044Y-87701728D01*
X190528133Y-87616929D01*
X190387118Y-87558519D01*
X190237417Y-87528741D01*
X190084783Y-87528741D01*
X189935082Y-87558519D01*
X189794067Y-87616929D01*
X189667156Y-87701728D01*
X189559228Y-87809656D01*
X189474429Y-87936567D01*
X189416019Y-88077582D01*
X189386241Y-88227283D01*
X187155959Y-88227283D01*
X187126181Y-88077582D01*
X187067771Y-87936567D01*
X186982972Y-87809656D01*
X186875044Y-87701728D01*
X186748133Y-87616929D01*
X186607118Y-87558519D01*
X186457417Y-87528741D01*
X186304783Y-87528741D01*
X186155082Y-87558519D01*
X186014067Y-87616929D01*
X185887156Y-87701728D01*
X185779228Y-87809656D01*
X185694429Y-87936567D01*
X185636019Y-88077582D01*
X185606241Y-88227283D01*
X183965959Y-88227283D01*
X183965959Y-88217283D01*
X183936181Y-88067582D01*
X183877771Y-87926567D01*
X183792972Y-87799656D01*
X183685044Y-87691728D01*
X183558133Y-87606929D01*
X183417118Y-87548519D01*
X183267417Y-87518741D01*
X183114783Y-87518741D01*
X182965082Y-87548519D01*
X182824067Y-87606929D01*
X182697156Y-87691728D01*
X182589228Y-87799656D01*
X182504429Y-87926567D01*
X182446019Y-88067582D01*
X182416241Y-88217283D01*
X180185959Y-88217283D01*
X180156181Y-88067582D01*
X180097771Y-87926567D01*
X180012972Y-87799656D01*
X179905044Y-87691728D01*
X179778133Y-87606929D01*
X179637118Y-87548519D01*
X179487417Y-87518741D01*
X179334783Y-87518741D01*
X179185082Y-87548519D01*
X179044067Y-87606929D01*
X178917156Y-87691728D01*
X178809228Y-87799656D01*
X178724429Y-87926567D01*
X178666019Y-88067582D01*
X178636241Y-88217283D01*
X151715028Y-88217283D01*
X151678970Y-84437283D01*
X178636241Y-84437283D01*
X178636241Y-84589917D01*
X178666019Y-84739618D01*
X178724429Y-84880633D01*
X178809228Y-85007544D01*
X178917156Y-85115472D01*
X179044067Y-85200271D01*
X179185082Y-85258681D01*
X179334783Y-85288459D01*
X179487417Y-85288459D01*
X179637118Y-85258681D01*
X179778133Y-85200271D01*
X179905044Y-85115472D01*
X180012972Y-85007544D01*
X180097771Y-84880633D01*
X180156181Y-84739618D01*
X180185959Y-84589917D01*
X180185959Y-84437283D01*
X182416241Y-84437283D01*
X182416241Y-84589917D01*
X182446019Y-84739618D01*
X182504429Y-84880633D01*
X182589228Y-85007544D01*
X182697156Y-85115472D01*
X182824067Y-85200271D01*
X182965082Y-85258681D01*
X183114783Y-85288459D01*
X183267417Y-85288459D01*
X183417118Y-85258681D01*
X183558133Y-85200271D01*
X183685044Y-85115472D01*
X183792972Y-85007544D01*
X183877771Y-84880633D01*
X183936181Y-84739618D01*
X183965959Y-84589917D01*
X183965959Y-84447283D01*
X185606241Y-84447283D01*
X185606241Y-84599917D01*
X185636019Y-84749618D01*
X185694429Y-84890633D01*
X185779228Y-85017544D01*
X185887156Y-85125472D01*
X186014067Y-85210271D01*
X186155082Y-85268681D01*
X186304783Y-85298459D01*
X186457417Y-85298459D01*
X186607118Y-85268681D01*
X186748133Y-85210271D01*
X186875044Y-85125472D01*
X186982972Y-85017544D01*
X187067771Y-84890633D01*
X187126181Y-84749618D01*
X187155959Y-84599917D01*
X187155959Y-84447283D01*
X189386241Y-84447283D01*
X189386241Y-84599917D01*
X189416019Y-84749618D01*
X189474429Y-84890633D01*
X189559228Y-85017544D01*
X189667156Y-85125472D01*
X189794067Y-85210271D01*
X189935082Y-85268681D01*
X190084783Y-85298459D01*
X190237417Y-85298459D01*
X190387118Y-85268681D01*
X190528133Y-85210271D01*
X190655044Y-85125472D01*
X190762972Y-85017544D01*
X190847771Y-84890633D01*
X190906181Y-84749618D01*
X190935959Y-84599917D01*
X190935959Y-84447283D01*
X190906181Y-84297582D01*
X190847771Y-84156567D01*
X190762972Y-84029656D01*
X190655044Y-83921728D01*
X190528133Y-83836929D01*
X190387118Y-83778519D01*
X190237417Y-83748741D01*
X190084783Y-83748741D01*
X189935082Y-83778519D01*
X189794067Y-83836929D01*
X189667156Y-83921728D01*
X189559228Y-84029656D01*
X189474429Y-84156567D01*
X189416019Y-84297582D01*
X189386241Y-84447283D01*
X187155959Y-84447283D01*
X187126181Y-84297582D01*
X187067771Y-84156567D01*
X186982972Y-84029656D01*
X186875044Y-83921728D01*
X186748133Y-83836929D01*
X186607118Y-83778519D01*
X186457417Y-83748741D01*
X186304783Y-83748741D01*
X186155082Y-83778519D01*
X186014067Y-83836929D01*
X185887156Y-83921728D01*
X185779228Y-84029656D01*
X185694429Y-84156567D01*
X185636019Y-84297582D01*
X185606241Y-84447283D01*
X183965959Y-84447283D01*
X183965959Y-84437283D01*
X183936181Y-84287582D01*
X183877771Y-84146567D01*
X183792972Y-84019656D01*
X183685044Y-83911728D01*
X183558133Y-83826929D01*
X183417118Y-83768519D01*
X183267417Y-83738741D01*
X183114783Y-83738741D01*
X182965082Y-83768519D01*
X182824067Y-83826929D01*
X182697156Y-83911728D01*
X182589228Y-84019656D01*
X182504429Y-84146567D01*
X182446019Y-84287582D01*
X182416241Y-84437283D01*
X180185959Y-84437283D01*
X180156181Y-84287582D01*
X180097771Y-84146567D01*
X180012972Y-84019656D01*
X179905044Y-83911728D01*
X179778133Y-83826929D01*
X179637118Y-83768519D01*
X179487417Y-83738741D01*
X179334783Y-83738741D01*
X179185082Y-83768519D01*
X179044067Y-83826929D01*
X178917156Y-83911728D01*
X178809228Y-84019656D01*
X178724429Y-84146567D01*
X178666019Y-84287582D01*
X178636241Y-84437283D01*
X151678970Y-84437283D01*
X151665621Y-83037955D01*
X151746879Y-83054118D01*
X151855321Y-83054118D01*
X151961680Y-83032962D01*
X152061868Y-82991463D01*
X152152035Y-82931215D01*
X152228715Y-82854535D01*
X152262843Y-82803459D01*
X160022691Y-82803459D01*
X159973485Y-82852665D01*
X159913237Y-82942832D01*
X159871738Y-83043020D01*
X159850582Y-83149379D01*
X159850582Y-83257821D01*
X159871738Y-83364180D01*
X159913237Y-83464368D01*
X159973485Y-83554535D01*
X160050165Y-83631215D01*
X160140332Y-83691463D01*
X160240520Y-83732962D01*
X160346879Y-83754118D01*
X160455321Y-83754118D01*
X160561680Y-83732962D01*
X160661868Y-83691463D01*
X160752035Y-83631215D01*
X160828715Y-83554535D01*
X160862843Y-83503459D01*
X185539357Y-83503459D01*
X185573485Y-83554535D01*
X185650165Y-83631215D01*
X185740332Y-83691463D01*
X185840520Y-83732962D01*
X185946879Y-83754118D01*
X186055321Y-83754118D01*
X186161680Y-83732962D01*
X186261868Y-83691463D01*
X186352035Y-83631215D01*
X186428715Y-83554535D01*
X186488963Y-83464368D01*
X186530462Y-83364180D01*
X186551618Y-83257821D01*
X186551618Y-83149379D01*
X186530462Y-83043020D01*
X186488963Y-82942832D01*
X186428715Y-82852665D01*
X186352035Y-82775985D01*
X186261868Y-82715737D01*
X186161680Y-82674238D01*
X186055321Y-82653082D01*
X185946879Y-82653082D01*
X185932084Y-82656025D01*
X185951618Y-82557821D01*
X185951618Y-82449379D01*
X185930462Y-82343020D01*
X185888963Y-82242832D01*
X185862655Y-82203459D01*
X186159716Y-82203459D01*
X186150582Y-82249379D01*
X186150582Y-82357821D01*
X186171738Y-82464180D01*
X186213237Y-82564368D01*
X186273485Y-82654535D01*
X186350165Y-82731215D01*
X186440332Y-82791463D01*
X186540520Y-82832962D01*
X186646879Y-82854118D01*
X186755321Y-82854118D01*
X186861680Y-82832962D01*
X186961868Y-82791463D01*
X187052035Y-82731215D01*
X187128715Y-82654535D01*
X187145593Y-82629276D01*
X187201676Y-82685359D01*
X187304018Y-82753742D01*
X187417735Y-82800846D01*
X187538457Y-82824859D01*
X187661543Y-82824859D01*
X187782265Y-82800846D01*
X187895982Y-82753742D01*
X187998324Y-82685359D01*
X188085359Y-82598324D01*
X188153742Y-82495982D01*
X188200846Y-82382265D01*
X188224859Y-82261543D01*
X188224859Y-82138457D01*
X188200846Y-82017735D01*
X188153742Y-81904018D01*
X188085359Y-81801676D01*
X187998324Y-81714641D01*
X187895982Y-81646258D01*
X187782265Y-81599154D01*
X187661543Y-81575141D01*
X187538457Y-81575141D01*
X187481288Y-81586513D01*
X186759535Y-80864760D01*
X186748584Y-80851416D01*
X186695311Y-80807696D01*
X186634533Y-80775209D01*
X186568584Y-80755204D01*
X186517179Y-80750141D01*
X186517169Y-80750141D01*
X186500000Y-80748450D01*
X186482831Y-80750141D01*
X162360077Y-80750141D01*
X162351742Y-80730018D01*
X162283359Y-80627676D01*
X162196324Y-80540641D01*
X162093982Y-80472258D01*
X161980265Y-80425154D01*
X161859543Y-80401141D01*
X161736457Y-80401141D01*
X161615735Y-80425154D01*
X161502018Y-80472258D01*
X161399676Y-80540641D01*
X161312641Y-80627676D01*
X161244258Y-80730018D01*
X161197154Y-80843735D01*
X161173141Y-80964457D01*
X161173141Y-81087543D01*
X161197154Y-81208265D01*
X161244258Y-81321982D01*
X161312641Y-81424324D01*
X161399676Y-81511359D01*
X161502018Y-81579742D01*
X161615735Y-81626846D01*
X161736457Y-81650859D01*
X161859543Y-81650859D01*
X161980265Y-81626846D01*
X162093982Y-81579742D01*
X162196324Y-81511359D01*
X162257824Y-81449859D01*
X170689265Y-81449859D01*
X170650165Y-81475985D01*
X170573485Y-81552665D01*
X170513237Y-81642832D01*
X170471738Y-81743020D01*
X170450582Y-81849379D01*
X170450582Y-81957821D01*
X170471738Y-82064180D01*
X170513237Y-82164368D01*
X170539545Y-82203741D01*
X152262843Y-82203741D01*
X152228715Y-82152665D01*
X152152035Y-82075985D01*
X152061868Y-82015737D01*
X151961680Y-81974238D01*
X151855321Y-81953082D01*
X151746879Y-81953082D01*
X151655446Y-81971269D01*
X151620897Y-78349379D01*
X152950582Y-78349379D01*
X152950582Y-78457821D01*
X152971738Y-78564180D01*
X153013237Y-78664368D01*
X153073485Y-78754535D01*
X153150165Y-78831215D01*
X153240332Y-78891463D01*
X153340520Y-78932962D01*
X153446879Y-78954118D01*
X153555321Y-78954118D01*
X153661680Y-78932962D01*
X153761868Y-78891463D01*
X153852035Y-78831215D01*
X153928715Y-78754535D01*
X153962843Y-78703459D01*
X157039545Y-78703459D01*
X157013237Y-78742832D01*
X156971738Y-78843020D01*
X156950582Y-78949379D01*
X156950582Y-79057821D01*
X156971738Y-79164180D01*
X157013237Y-79264368D01*
X157073485Y-79354535D01*
X157150165Y-79431215D01*
X157240332Y-79491463D01*
X157340520Y-79532962D01*
X157446879Y-79554118D01*
X157555321Y-79554118D01*
X157661680Y-79532962D01*
X157761868Y-79491463D01*
X157852035Y-79431215D01*
X157928715Y-79354535D01*
X157962843Y-79303459D01*
X176639545Y-79303459D01*
X176613237Y-79342832D01*
X176571738Y-79443020D01*
X176550582Y-79549379D01*
X176550582Y-79657821D01*
X176571738Y-79764180D01*
X176613237Y-79864368D01*
X176673485Y-79954535D01*
X176750165Y-80031215D01*
X176840332Y-80091463D01*
X176940520Y-80132962D01*
X177046879Y-80154118D01*
X177155321Y-80154118D01*
X177261680Y-80132962D01*
X177361868Y-80091463D01*
X177452035Y-80031215D01*
X177528715Y-79954535D01*
X177562843Y-79903459D01*
X184139357Y-79903459D01*
X184173485Y-79954535D01*
X184250165Y-80031215D01*
X184340332Y-80091463D01*
X184440520Y-80132962D01*
X184546879Y-80154118D01*
X184655321Y-80154118D01*
X184761680Y-80132962D01*
X184861868Y-80091463D01*
X184952035Y-80031215D01*
X185028715Y-79954535D01*
X185088963Y-79864368D01*
X185130462Y-79764180D01*
X185151618Y-79657821D01*
X185151618Y-79549379D01*
X185148675Y-79534584D01*
X185246879Y-79554118D01*
X185355321Y-79554118D01*
X185461680Y-79532962D01*
X185561868Y-79491463D01*
X185652035Y-79431215D01*
X185728715Y-79354535D01*
X185788963Y-79264368D01*
X185830462Y-79164180D01*
X185851618Y-79057821D01*
X185851618Y-78949379D01*
X185830462Y-78843020D01*
X185788963Y-78742832D01*
X185762655Y-78703459D01*
X188139357Y-78703459D01*
X188173485Y-78754535D01*
X188250165Y-78831215D01*
X188340332Y-78891463D01*
X188440520Y-78932962D01*
X188546879Y-78954118D01*
X188655321Y-78954118D01*
X188761680Y-78932962D01*
X188861868Y-78891463D01*
X188952035Y-78831215D01*
X189028715Y-78754535D01*
X189088963Y-78664368D01*
X189130462Y-78564180D01*
X189151618Y-78457821D01*
X189151618Y-78349379D01*
X189130462Y-78243020D01*
X189088963Y-78142832D01*
X189028715Y-78052665D01*
X188952035Y-77975985D01*
X188861868Y-77915737D01*
X188761680Y-77874238D01*
X188655321Y-77853082D01*
X188546879Y-77853082D01*
X188440520Y-77874238D01*
X188340332Y-77915737D01*
X188250165Y-77975985D01*
X188173485Y-78052665D01*
X188139357Y-78103741D01*
X185162655Y-78103741D01*
X185188963Y-78064368D01*
X185230462Y-77964180D01*
X185251618Y-77857821D01*
X185251618Y-77749379D01*
X185230462Y-77643020D01*
X185188963Y-77542832D01*
X185128715Y-77452665D01*
X185052035Y-77375985D01*
X184961868Y-77315737D01*
X184861680Y-77274238D01*
X184755321Y-77253082D01*
X184646879Y-77253082D01*
X184540520Y-77274238D01*
X184440332Y-77315737D01*
X184350165Y-77375985D01*
X184273485Y-77452665D01*
X184239357Y-77503741D01*
X178632226Y-77503741D01*
X178661868Y-77491463D01*
X178752035Y-77431215D01*
X178828715Y-77354535D01*
X178888963Y-77264368D01*
X178930462Y-77164180D01*
X178951618Y-77057821D01*
X178951618Y-76949379D01*
X178930462Y-76843020D01*
X178888963Y-76742832D01*
X178828715Y-76652665D01*
X178752035Y-76575985D01*
X178661868Y-76515737D01*
X178561680Y-76474238D01*
X178455321Y-76453082D01*
X178346879Y-76453082D01*
X178240520Y-76474238D01*
X178140332Y-76515737D01*
X178050165Y-76575985D01*
X177973485Y-76652665D01*
X177939357Y-76703741D01*
X155714192Y-76703741D01*
X155688963Y-76642832D01*
X155628715Y-76552665D01*
X155552035Y-76475985D01*
X155461868Y-76415737D01*
X155361680Y-76374238D01*
X155255321Y-76353082D01*
X155146879Y-76353082D01*
X155040520Y-76374238D01*
X154940332Y-76415737D01*
X154850165Y-76475985D01*
X154773485Y-76552665D01*
X154713237Y-76642832D01*
X154671738Y-76743020D01*
X154650582Y-76849379D01*
X154650582Y-76957821D01*
X154671738Y-77064180D01*
X154713237Y-77164368D01*
X154773485Y-77254535D01*
X154850165Y-77331215D01*
X154940332Y-77391463D01*
X155040520Y-77432962D01*
X155146879Y-77454118D01*
X155255321Y-77454118D01*
X155361680Y-77432962D01*
X155461868Y-77391463D01*
X155552035Y-77331215D01*
X155579791Y-77303459D01*
X176169974Y-77303459D01*
X176140332Y-77315737D01*
X176050165Y-77375985D01*
X175973485Y-77452665D01*
X175913237Y-77542832D01*
X175871738Y-77643020D01*
X175850582Y-77749379D01*
X175850582Y-77857821D01*
X175871738Y-77964180D01*
X175913237Y-78064368D01*
X175939545Y-78103741D01*
X169762843Y-78103741D01*
X169728715Y-78052665D01*
X169652035Y-77975985D01*
X169561868Y-77915737D01*
X169461680Y-77874238D01*
X169355321Y-77853082D01*
X169246879Y-77853082D01*
X169140520Y-77874238D01*
X169040332Y-77915737D01*
X168950165Y-77975985D01*
X168873485Y-78052665D01*
X168839357Y-78103741D01*
X163162843Y-78103741D01*
X163128715Y-78052665D01*
X163052035Y-77975985D01*
X162961868Y-77915737D01*
X162861680Y-77874238D01*
X162755321Y-77853082D01*
X162646879Y-77853082D01*
X162540520Y-77874238D01*
X162440332Y-77915737D01*
X162350165Y-77975985D01*
X162273485Y-78052665D01*
X162239357Y-78103741D01*
X153962843Y-78103741D01*
X153928715Y-78052665D01*
X153852035Y-77975985D01*
X153761868Y-77915737D01*
X153661680Y-77874238D01*
X153555321Y-77853082D01*
X153446879Y-77853082D01*
X153340520Y-77874238D01*
X153240332Y-77915737D01*
X153150165Y-77975985D01*
X153073485Y-78052665D01*
X153013237Y-78142832D01*
X152971738Y-78243020D01*
X152950582Y-78349379D01*
X151620897Y-78349379D01*
X151587188Y-74815616D01*
X151588043Y-74816658D01*
X151599479Y-74826043D01*
X152178657Y-75405222D01*
X152188042Y-75416658D01*
X152233702Y-75454129D01*
X152285794Y-75481973D01*
X152342318Y-75499119D01*
X152386379Y-75503459D01*
X152386381Y-75503459D01*
X152401099Y-75504909D01*
X152415818Y-75503459D01*
X159022691Y-75503459D01*
X158973485Y-75552665D01*
X158913237Y-75642832D01*
X158871738Y-75743020D01*
X158850582Y-75849379D01*
X158850582Y-75957821D01*
X158871738Y-76064180D01*
X158913237Y-76164368D01*
X158973485Y-76254535D01*
X159050165Y-76331215D01*
X159140332Y-76391463D01*
X159240520Y-76432962D01*
X159346879Y-76454118D01*
X159455321Y-76454118D01*
X159561680Y-76432962D01*
X159661868Y-76391463D01*
X159752035Y-76331215D01*
X159828715Y-76254535D01*
X159862843Y-76203459D01*
X186139357Y-76203459D01*
X186173485Y-76254535D01*
X186250165Y-76331215D01*
X186340332Y-76391463D01*
X186440520Y-76432962D01*
X186546879Y-76454118D01*
X186655321Y-76454118D01*
X186761680Y-76432962D01*
X186861868Y-76391463D01*
X186952035Y-76331215D01*
X187028715Y-76254535D01*
X187088963Y-76164368D01*
X187130462Y-76064180D01*
X187151618Y-75957821D01*
X187151618Y-75849379D01*
X187130462Y-75743020D01*
X187088963Y-75642832D01*
X187028715Y-75552665D01*
X186952035Y-75475985D01*
X186861868Y-75415737D01*
X186761680Y-75374238D01*
X186655321Y-75353082D01*
X186546879Y-75353082D01*
X186440520Y-75374238D01*
X186340332Y-75415737D01*
X186250165Y-75475985D01*
X186173485Y-75552665D01*
X186139357Y-75603741D01*
X181279509Y-75603741D01*
X181328715Y-75554535D01*
X181388963Y-75464368D01*
X181430462Y-75364180D01*
X181451618Y-75257821D01*
X181451618Y-75149379D01*
X181430462Y-75043020D01*
X181388963Y-74942832D01*
X181328715Y-74852665D01*
X181252035Y-74775985D01*
X181161868Y-74715737D01*
X181061680Y-74674238D01*
X180955321Y-74653082D01*
X180846879Y-74653082D01*
X180740520Y-74674238D01*
X180640332Y-74715737D01*
X180550165Y-74775985D01*
X180473485Y-74852665D01*
X180439357Y-74903741D01*
X152525306Y-74903741D01*
X152100959Y-74479395D01*
X152100959Y-72582457D01*
X164983141Y-72582457D01*
X164983141Y-72705543D01*
X165007154Y-72826265D01*
X165054258Y-72939982D01*
X165122641Y-73042324D01*
X165209676Y-73129359D01*
X165312018Y-73197742D01*
X165425735Y-73244846D01*
X165546457Y-73268859D01*
X165669543Y-73268859D01*
X165790265Y-73244846D01*
X165903982Y-73197742D01*
X166006324Y-73129359D01*
X166093359Y-73042324D01*
X166125742Y-72993859D01*
X170424258Y-72993859D01*
X170456641Y-73042324D01*
X170543676Y-73129359D01*
X170646018Y-73197742D01*
X170759735Y-73244846D01*
X170880457Y-73268859D01*
X171003543Y-73268859D01*
X171124265Y-73244846D01*
X171237982Y-73197742D01*
X171340324Y-73129359D01*
X171427359Y-73042324D01*
X171495742Y-72939982D01*
X171542846Y-72826265D01*
X171566859Y-72705543D01*
X171566859Y-72582457D01*
X171542846Y-72461735D01*
X171495742Y-72348018D01*
X171427359Y-72245676D01*
X171340324Y-72158641D01*
X171237982Y-72090258D01*
X171124265Y-72043154D01*
X171003543Y-72019141D01*
X170880457Y-72019141D01*
X170759735Y-72043154D01*
X170646018Y-72090258D01*
X170543676Y-72158641D01*
X170456641Y-72245676D01*
X170424258Y-72294141D01*
X166125742Y-72294141D01*
X166093359Y-72245676D01*
X166006324Y-72158641D01*
X165903982Y-72090258D01*
X165790265Y-72043154D01*
X165669543Y-72019141D01*
X165546457Y-72019141D01*
X165425735Y-72043154D01*
X165312018Y-72090258D01*
X165209676Y-72158641D01*
X165122641Y-72245676D01*
X165054258Y-72348018D01*
X165007154Y-72461735D01*
X164983141Y-72582457D01*
X152100959Y-72582457D01*
X152100959Y-70749379D01*
X166350582Y-70749379D01*
X166350582Y-70857821D01*
X166371738Y-70964180D01*
X166413237Y-71064368D01*
X166473485Y-71154535D01*
X166550165Y-71231215D01*
X166640332Y-71291463D01*
X166740520Y-71332962D01*
X166846879Y-71354118D01*
X166955321Y-71354118D01*
X167061680Y-71332962D01*
X167161868Y-71291463D01*
X167252035Y-71231215D01*
X167328715Y-71154535D01*
X167335046Y-71145061D01*
X167293154Y-71246194D01*
X167269141Y-71366916D01*
X167269141Y-71490002D01*
X167293154Y-71610724D01*
X167340258Y-71724441D01*
X167408641Y-71826783D01*
X167495676Y-71913818D01*
X167598018Y-71982201D01*
X167711735Y-72029305D01*
X167832457Y-72053318D01*
X167955543Y-72053318D01*
X168076265Y-72029305D01*
X168189982Y-71982201D01*
X168292324Y-71913818D01*
X168379359Y-71826783D01*
X168447742Y-71724441D01*
X168494846Y-71610724D01*
X168506340Y-71552940D01*
X186541145Y-71552940D01*
X186670922Y-71682717D01*
X186680311Y-71694158D01*
X186725971Y-71731629D01*
X186778063Y-71759473D01*
X186834586Y-71776619D01*
X186893369Y-71782409D01*
X186908090Y-71780959D01*
X188063749Y-71780959D01*
X188120618Y-71866070D01*
X188055321Y-71853082D01*
X187946879Y-71853082D01*
X187840520Y-71874238D01*
X187740332Y-71915737D01*
X187650165Y-71975985D01*
X187573485Y-72052665D01*
X187539357Y-72103741D01*
X172562843Y-72103741D01*
X172528715Y-72052665D01*
X172452035Y-71975985D01*
X172361868Y-71915737D01*
X172261680Y-71874238D01*
X172155321Y-71853082D01*
X172046879Y-71853082D01*
X171940520Y-71874238D01*
X171840332Y-71915737D01*
X171750165Y-71975985D01*
X171673485Y-72052665D01*
X171613237Y-72142832D01*
X171571738Y-72243020D01*
X171550582Y-72349379D01*
X171550582Y-72457821D01*
X171571738Y-72564180D01*
X171613237Y-72664368D01*
X171673485Y-72754535D01*
X171750165Y-72831215D01*
X171840332Y-72891463D01*
X171940520Y-72932962D01*
X172046879Y-72954118D01*
X172155321Y-72954118D01*
X172261680Y-72932962D01*
X172361868Y-72891463D01*
X172452035Y-72831215D01*
X172528715Y-72754535D01*
X172562843Y-72703459D01*
X187539357Y-72703459D01*
X187573485Y-72754535D01*
X187650165Y-72831215D01*
X187740332Y-72891463D01*
X187840520Y-72932962D01*
X187946879Y-72954118D01*
X188055321Y-72954118D01*
X188161680Y-72932962D01*
X188261868Y-72891463D01*
X188352035Y-72831215D01*
X188428715Y-72754535D01*
X188488963Y-72664368D01*
X188530462Y-72564180D01*
X188551618Y-72457821D01*
X188551618Y-72349379D01*
X188530462Y-72243020D01*
X188488963Y-72142832D01*
X188450678Y-72085535D01*
X188553357Y-72105959D01*
X188676443Y-72105959D01*
X188797165Y-72081946D01*
X188910882Y-72034842D01*
X189013224Y-71966459D01*
X189100259Y-71879424D01*
X189168642Y-71777082D01*
X189215746Y-71663365D01*
X189239759Y-71542643D01*
X189239759Y-71419557D01*
X189215746Y-71298835D01*
X189168642Y-71185118D01*
X189100259Y-71082776D01*
X189013224Y-70995741D01*
X188910882Y-70927358D01*
X188797165Y-70880254D01*
X188676443Y-70856241D01*
X188553357Y-70856241D01*
X188432635Y-70880254D01*
X188318918Y-70927358D01*
X188216576Y-70995741D01*
X188129541Y-71082776D01*
X188063749Y-71181241D01*
X187702009Y-71181241D01*
X187728715Y-71154535D01*
X187788963Y-71064368D01*
X187830462Y-70964180D01*
X187851618Y-70857821D01*
X187851618Y-70749379D01*
X187830462Y-70643020D01*
X187788963Y-70542832D01*
X187728715Y-70452665D01*
X187652035Y-70375985D01*
X187561868Y-70315737D01*
X187461680Y-70274238D01*
X187355321Y-70253082D01*
X187246879Y-70253082D01*
X187140520Y-70274238D01*
X187040332Y-70315737D01*
X186950165Y-70375985D01*
X186873485Y-70452665D01*
X186839357Y-70503741D01*
X167362843Y-70503741D01*
X167328715Y-70452665D01*
X167252035Y-70375985D01*
X167161868Y-70315737D01*
X167061680Y-70274238D01*
X166955321Y-70253082D01*
X166846879Y-70253082D01*
X166740520Y-70274238D01*
X166640332Y-70315737D01*
X166550165Y-70375985D01*
X166473485Y-70452665D01*
X166413237Y-70542832D01*
X166371738Y-70643020D01*
X166350582Y-70749379D01*
X152100959Y-70749379D01*
X152100959Y-56912538D01*
X152129151Y-56946890D01*
X152271297Y-57063547D01*
X152433471Y-57150230D01*
X152609440Y-57203610D01*
X152746589Y-57217118D01*
X154255611Y-57217118D01*
X154392760Y-57203610D01*
X154568729Y-57150230D01*
X154730903Y-57063547D01*
X154873049Y-56946890D01*
X154989706Y-56804744D01*
X155076389Y-56642570D01*
X155129769Y-56466601D01*
X155147793Y-56283600D01*
X155129769Y-56100599D01*
X155076389Y-55924630D01*
X155019639Y-55818457D01*
X157109141Y-55818457D01*
X157109141Y-55941543D01*
X157133154Y-56062265D01*
X157180258Y-56175982D01*
X157248641Y-56278324D01*
X157335676Y-56365359D01*
X157438018Y-56433742D01*
X157551735Y-56480846D01*
X157672457Y-56504859D01*
X157795543Y-56504859D01*
X157916265Y-56480846D01*
X158029982Y-56433742D01*
X158132324Y-56365359D01*
X158142824Y-56354859D01*
X176692276Y-56354859D01*
X176702776Y-56365359D01*
X176805118Y-56433742D01*
X176918835Y-56480846D01*
X177039557Y-56504859D01*
X177162643Y-56504859D01*
X177283365Y-56480846D01*
X177397082Y-56433742D01*
X177499424Y-56365359D01*
X177586459Y-56278324D01*
X177654842Y-56175982D01*
X177701946Y-56062265D01*
X177725959Y-55941543D01*
X177725959Y-55818457D01*
X177701946Y-55697735D01*
X177654842Y-55584018D01*
X177586459Y-55481676D01*
X177499424Y-55394641D01*
X177397082Y-55326258D01*
X177283365Y-55279154D01*
X177162643Y-55255141D01*
X177039557Y-55255141D01*
X176918835Y-55279154D01*
X176805118Y-55326258D01*
X176702776Y-55394641D01*
X176692276Y-55405141D01*
X158142824Y-55405141D01*
X158132324Y-55394641D01*
X158029982Y-55326258D01*
X157916265Y-55279154D01*
X157795543Y-55255141D01*
X157672457Y-55255141D01*
X157551735Y-55279154D01*
X157438018Y-55326258D01*
X157335676Y-55394641D01*
X157248641Y-55481676D01*
X157180258Y-55584018D01*
X157133154Y-55697735D01*
X157109141Y-55818457D01*
X155019639Y-55818457D01*
X154989706Y-55762456D01*
X154873049Y-55620310D01*
X154730903Y-55503653D01*
X154568729Y-55416970D01*
X154392760Y-55363590D01*
X154255611Y-55350082D01*
X152746589Y-55350082D01*
X152609440Y-55363590D01*
X152433471Y-55416970D01*
X152271297Y-55503653D01*
X152129151Y-55620310D01*
X152100959Y-55654662D01*
X152100959Y-54440266D01*
X152225163Y-54547593D01*
X152392914Y-54642815D01*
X152576019Y-54703481D01*
X152767441Y-54727259D01*
X153476100Y-54727259D01*
X153476100Y-53768600D01*
X153526100Y-53768600D01*
X153526100Y-54727259D01*
X154234759Y-54727259D01*
X154426181Y-54703481D01*
X154609286Y-54642815D01*
X154777037Y-54547593D01*
X154922988Y-54421474D01*
X155041530Y-54269305D01*
X155128108Y-54096933D01*
X155177083Y-53922121D01*
X155124326Y-53768600D01*
X153526100Y-53768600D01*
X153476100Y-53768600D01*
X153456100Y-53768600D01*
X153456100Y-53718600D01*
X153476100Y-53718600D01*
X153476100Y-52759941D01*
X153526100Y-52759941D01*
X153526100Y-53718600D01*
X155124326Y-53718600D01*
X155177083Y-53565079D01*
X155128108Y-53390267D01*
X155041530Y-53217895D01*
X154922988Y-53065726D01*
X154777037Y-52939607D01*
X154609286Y-52844385D01*
X154426181Y-52783719D01*
X154234759Y-52759941D01*
X153526100Y-52759941D01*
X153476100Y-52759941D01*
X152767441Y-52759941D01*
X152576019Y-52783719D01*
X152392914Y-52844385D01*
X152225163Y-52939607D01*
X152100959Y-53046934D01*
X152100959Y-51832538D01*
X152129151Y-51866890D01*
X152271297Y-51983547D01*
X152433471Y-52070230D01*
X152609440Y-52123610D01*
X152746589Y-52137118D01*
X154255611Y-52137118D01*
X154392760Y-52123610D01*
X154568729Y-52070230D01*
X154730903Y-51983547D01*
X154873049Y-51866890D01*
X154989706Y-51724744D01*
X155076389Y-51562570D01*
X155129769Y-51386601D01*
X155147793Y-51203600D01*
X155129769Y-51020599D01*
X155076389Y-50844630D01*
X154989706Y-50682456D01*
X154873049Y-50540310D01*
X154730903Y-50423653D01*
X154568729Y-50336970D01*
X154420484Y-50292000D01*
X159131688Y-50292000D01*
X159143876Y-50415748D01*
X159179972Y-50534741D01*
X159238589Y-50644405D01*
X159297707Y-50716441D01*
X162530607Y-53949342D01*
X162550373Y-53973427D01*
X162646495Y-54052312D01*
X162756159Y-54110929D01*
X162875152Y-54147025D01*
X162967892Y-54156159D01*
X162967901Y-54156159D01*
X162998899Y-54159212D01*
X163029897Y-54156159D01*
X192632108Y-54156159D01*
X192724848Y-54147025D01*
X192843841Y-54110929D01*
X192953505Y-54052312D01*
X193049627Y-53973427D01*
X193128512Y-53877305D01*
X193187129Y-53767641D01*
X193223225Y-53648648D01*
X193235413Y-53524900D01*
X193223225Y-53401152D01*
X193187129Y-53282159D01*
X193128512Y-53172495D01*
X193049627Y-53076373D01*
X192953505Y-52997488D01*
X192843841Y-52938871D01*
X192724848Y-52902775D01*
X192632108Y-52893641D01*
X163260376Y-52893641D01*
X161289335Y-50922600D01*
X169817740Y-50922600D01*
X169817740Y-51532200D01*
X169839615Y-51704297D01*
X169894644Y-51868819D01*
X169980712Y-52019444D01*
X170094512Y-52150384D01*
X170231670Y-52256607D01*
X170386916Y-52334031D01*
X170539321Y-52376650D01*
X170677340Y-52322667D01*
X170677340Y-50922600D01*
X169817740Y-50922600D01*
X161289335Y-50922600D01*
X160629735Y-50263000D01*
X169817740Y-50263000D01*
X169817740Y-50872600D01*
X170677340Y-50872600D01*
X170677340Y-49472533D01*
X170539321Y-49418550D01*
X170386916Y-49461169D01*
X170231670Y-49538593D01*
X170094512Y-49644816D01*
X169980712Y-49775756D01*
X169894644Y-49926381D01*
X169839615Y-50090903D01*
X169817740Y-50263000D01*
X160629735Y-50263000D01*
X160190441Y-49823707D01*
X160118405Y-49764589D01*
X160008741Y-49705972D01*
X159889748Y-49669876D01*
X159766000Y-49657688D01*
X159642252Y-49669876D01*
X159523259Y-49705972D01*
X159413595Y-49764589D01*
X159317473Y-49843473D01*
X159238589Y-49939595D01*
X159179972Y-50049259D01*
X159143876Y-50168252D01*
X159131688Y-50292000D01*
X154420484Y-50292000D01*
X154392760Y-50283590D01*
X154255611Y-50270082D01*
X152746589Y-50270082D01*
X152609440Y-50283590D01*
X152433471Y-50336970D01*
X152271297Y-50423653D01*
X152129151Y-50540310D01*
X152100959Y-50574662D01*
X152100959Y-49427805D01*
X152169094Y-49359670D01*
X152271297Y-49443547D01*
X152433471Y-49530230D01*
X152609440Y-49583610D01*
X152746589Y-49597118D01*
X154255611Y-49597118D01*
X154392760Y-49583610D01*
X154568729Y-49530230D01*
X154730903Y-49443547D01*
X154873049Y-49326890D01*
X154989706Y-49184744D01*
X155018909Y-49130108D01*
X170667981Y-49130108D01*
X170680055Y-49252701D01*
X170727771Y-49409998D01*
X170755342Y-49461580D01*
X170727340Y-49472533D01*
X170727340Y-50872600D01*
X170747340Y-50872600D01*
X170747340Y-50922600D01*
X170727340Y-50922600D01*
X170727340Y-52322667D01*
X170865359Y-52376650D01*
X171017764Y-52334031D01*
X171173010Y-52256607D01*
X171310168Y-52150384D01*
X171423968Y-52019444D01*
X171510036Y-51868819D01*
X171524538Y-51825462D01*
X171525332Y-51828079D01*
X171602817Y-51973043D01*
X171707095Y-52100106D01*
X171834158Y-52204384D01*
X171979122Y-52281869D01*
X172136419Y-52329585D01*
X172300000Y-52345696D01*
X172463582Y-52329585D01*
X172620879Y-52281869D01*
X172765843Y-52204384D01*
X172892906Y-52100106D01*
X172997184Y-51973043D01*
X173074669Y-51828079D01*
X173098831Y-51748430D01*
X173122992Y-51828079D01*
X173200477Y-51973043D01*
X173304755Y-52100106D01*
X173431818Y-52204384D01*
X173576782Y-52281869D01*
X173734079Y-52329585D01*
X173897660Y-52345696D01*
X174061242Y-52329585D01*
X174218539Y-52281869D01*
X174363503Y-52204384D01*
X174490566Y-52100106D01*
X174594844Y-51973043D01*
X174672329Y-51828079D01*
X174720045Y-51670782D01*
X174732119Y-51548189D01*
X174732119Y-50919259D01*
X179097008Y-50919259D01*
X179121376Y-50916859D01*
X179131543Y-50916859D01*
X179141515Y-50914876D01*
X179189748Y-50910125D01*
X179236128Y-50896056D01*
X179252265Y-50892846D01*
X179267465Y-50886550D01*
X179308741Y-50874029D01*
X179346786Y-50853693D01*
X179365982Y-50845742D01*
X179383257Y-50834199D01*
X179418405Y-50815412D01*
X179449213Y-50790129D01*
X179468324Y-50777359D01*
X179484576Y-50761107D01*
X179514527Y-50736527D01*
X179539107Y-50706576D01*
X179555359Y-50690324D01*
X179568129Y-50671213D01*
X179593412Y-50640405D01*
X179612199Y-50605257D01*
X179623742Y-50587982D01*
X179631693Y-50568786D01*
X179652029Y-50530741D01*
X179664550Y-50489465D01*
X179670846Y-50474265D01*
X179674056Y-50458128D01*
X179688125Y-50411748D01*
X179692876Y-50363515D01*
X179694859Y-50353543D01*
X179694859Y-50343376D01*
X179700313Y-50288000D01*
X179694859Y-50232624D01*
X179694859Y-50230457D01*
X179694436Y-50228332D01*
X179688125Y-50164252D01*
X179652029Y-50045259D01*
X179593412Y-49935595D01*
X179514527Y-49839473D01*
X179418405Y-49760588D01*
X179308741Y-49701971D01*
X179189748Y-49665875D01*
X179097008Y-49656741D01*
X174443832Y-49656741D01*
X174363502Y-49590816D01*
X174218538Y-49513331D01*
X174061241Y-49465615D01*
X173897660Y-49449504D01*
X173848527Y-49454343D01*
X173872229Y-49409999D01*
X173919945Y-49252702D01*
X173932019Y-49130109D01*
X173932019Y-47828931D01*
X173919945Y-47706338D01*
X173872229Y-47549041D01*
X173794744Y-47404077D01*
X173690466Y-47277014D01*
X173563403Y-47172736D01*
X173418439Y-47095251D01*
X173261142Y-47047535D01*
X173097560Y-47031424D01*
X172933979Y-47047535D01*
X172776682Y-47095251D01*
X172631718Y-47172736D01*
X172504655Y-47277014D01*
X172400377Y-47404077D01*
X172322892Y-47549041D01*
X172300001Y-47624503D01*
X172277109Y-47549041D01*
X172199624Y-47404077D01*
X172095346Y-47277014D01*
X171968283Y-47172736D01*
X171823319Y-47095251D01*
X171666022Y-47047535D01*
X171502440Y-47031424D01*
X171338859Y-47047535D01*
X171181562Y-47095251D01*
X171036598Y-47172736D01*
X170909535Y-47277014D01*
X170805257Y-47404077D01*
X170727772Y-47549041D01*
X170680056Y-47706338D01*
X170667982Y-47828931D01*
X170667981Y-49130108D01*
X155018909Y-49130108D01*
X155076389Y-49022570D01*
X155129769Y-48846601D01*
X155147793Y-48663600D01*
X155129769Y-48480599D01*
X155076389Y-48304630D01*
X154989706Y-48142456D01*
X154873049Y-48000310D01*
X154730903Y-47883653D01*
X154568729Y-47796970D01*
X154392760Y-47743590D01*
X154255611Y-47730082D01*
X152746589Y-47730082D01*
X152609440Y-47743590D01*
X152433471Y-47796970D01*
X152271297Y-47883653D01*
X152129151Y-48000310D01*
X152012494Y-48142456D01*
X151925811Y-48304630D01*
X151872431Y-48480599D01*
X151854407Y-48663600D01*
X151868988Y-48811647D01*
X151599483Y-49081153D01*
X151588042Y-49090542D01*
X151555573Y-49130108D01*
X151550572Y-49136202D01*
X151522727Y-49188295D01*
X151505581Y-49244818D01*
X151499791Y-49303600D01*
X151501241Y-49318321D01*
X151501242Y-65805551D01*
X151313497Y-46123600D01*
X151854407Y-46123600D01*
X151872431Y-46306601D01*
X151925811Y-46482570D01*
X152012494Y-46644744D01*
X152129151Y-46786890D01*
X152271297Y-46903547D01*
X152433471Y-46990230D01*
X152609440Y-47043610D01*
X152746589Y-47057118D01*
X154255611Y-47057118D01*
X154392760Y-47043610D01*
X154568729Y-46990230D01*
X154730903Y-46903547D01*
X154873049Y-46786890D01*
X154989706Y-46644744D01*
X155076389Y-46482570D01*
X155129769Y-46306601D01*
X155147793Y-46123600D01*
X155129769Y-45940599D01*
X155076389Y-45764630D01*
X154989706Y-45602456D01*
X154873049Y-45460310D01*
X154730903Y-45343653D01*
X154568729Y-45256970D01*
X154392760Y-45203590D01*
X154255611Y-45190082D01*
X152746589Y-45190082D01*
X152609440Y-45203590D01*
X152433471Y-45256970D01*
X152271297Y-45343653D01*
X152129151Y-45460310D01*
X152012494Y-45602456D01*
X151925811Y-45764630D01*
X151872431Y-45940599D01*
X151854407Y-46123600D01*
X151313497Y-46123600D01*
X151284689Y-43103601D01*
X164003838Y-43103601D01*
X163817965Y-43140574D01*
G37*
X163817965Y-43140574D02*
X163578923Y-43239588D01*
X163363790Y-43383335D01*
X163180835Y-43566290D01*
X163037088Y-43781423D01*
X162938074Y-44020465D01*
X162887596Y-44274231D01*
X162887596Y-44532969D01*
X162938074Y-44786735D01*
X163037088Y-45025777D01*
X163180835Y-45240910D01*
X163363790Y-45423865D01*
X163578923Y-45567612D01*
X163817965Y-45666626D01*
X164071731Y-45717104D01*
X164330469Y-45717104D01*
X164584235Y-45666626D01*
X164823277Y-45567612D01*
X165038410Y-45423865D01*
X165221365Y-45240910D01*
X165365112Y-45025777D01*
X165464126Y-44786735D01*
X165514604Y-44532969D01*
X165514604Y-44274231D01*
X165464126Y-44020465D01*
X165368947Y-43790680D01*
X167176934Y-43790680D01*
X167176934Y-46686280D01*
X167181275Y-46730360D01*
X167194133Y-46772746D01*
X167215013Y-46811809D01*
X167243112Y-46846048D01*
X167277351Y-46874147D01*
X167316414Y-46895027D01*
X167358800Y-46907885D01*
X167402880Y-46912226D01*
X170298480Y-46912226D01*
X170342560Y-46907885D01*
X170384946Y-46895027D01*
X170424009Y-46874147D01*
X170458248Y-46846048D01*
X170486347Y-46811809D01*
X170507227Y-46772746D01*
X170520085Y-46730360D01*
X170524426Y-46686280D01*
X170524426Y-43790680D01*
X174075574Y-43790680D01*
X174075574Y-46686280D01*
X174079915Y-46730360D01*
X174092773Y-46772746D01*
X174113653Y-46811809D01*
X174141752Y-46846048D01*
X174175991Y-46874147D01*
X174215054Y-46895027D01*
X174257440Y-46907885D01*
X174301520Y-46912226D01*
X177197120Y-46912226D01*
X177241200Y-46907885D01*
X177283586Y-46895027D01*
X177322649Y-46874147D01*
X177356888Y-46846048D01*
X177384987Y-46811809D01*
X177405867Y-46772746D01*
X177418725Y-46730360D01*
X177423066Y-46686280D01*
X177423066Y-44474231D01*
X190387596Y-44474231D01*
X190387596Y-44732969D01*
X190438074Y-44986735D01*
X190537088Y-45225777D01*
X190680835Y-45440910D01*
X190863790Y-45623865D01*
X191078923Y-45767612D01*
X191317965Y-45866626D01*
X191571731Y-45917104D01*
X191830469Y-45917104D01*
X192084235Y-45866626D01*
X192323277Y-45767612D01*
X192538410Y-45623865D01*
X192721365Y-45440910D01*
X192865112Y-45225777D01*
X192964126Y-44986735D01*
X193014604Y-44732969D01*
X193014604Y-44474231D01*
X192964126Y-44220465D01*
X192865112Y-43981423D01*
X192721365Y-43766290D01*
X192538410Y-43583335D01*
X192323277Y-43439588D01*
X192084235Y-43340574D01*
X191830469Y-43290096D01*
X191571731Y-43290096D01*
X191317965Y-43340574D01*
X191078923Y-43439588D01*
X190863790Y-43583335D01*
X190680835Y-43766290D01*
X190537088Y-43981423D01*
X190438074Y-44220465D01*
X190387596Y-44474231D01*
X177423066Y-44474231D01*
X177423066Y-43790680D01*
X177418725Y-43746600D01*
X177405867Y-43704214D01*
X177384987Y-43665151D01*
X177356888Y-43630912D01*
X177322649Y-43602813D01*
X177283586Y-43581933D01*
X177241200Y-43569075D01*
X177197120Y-43564734D01*
X174301520Y-43564734D01*
X174257440Y-43569075D01*
X174215054Y-43581933D01*
X174175991Y-43602813D01*
X174141752Y-43630912D01*
X174113653Y-43665151D01*
X174092773Y-43704214D01*
X174079915Y-43746600D01*
X174075574Y-43790680D01*
X170524426Y-43790680D01*
X170520085Y-43746600D01*
X170507227Y-43704214D01*
X170486347Y-43665151D01*
X170458248Y-43630912D01*
X170424009Y-43602813D01*
X170384946Y-43581933D01*
X170342560Y-43569075D01*
X170298480Y-43564734D01*
X167402880Y-43564734D01*
X167358800Y-43569075D01*
X167316414Y-43581933D01*
X167277351Y-43602813D01*
X167243112Y-43630912D01*
X167215013Y-43665151D01*
X167194133Y-43704214D01*
X167181275Y-43746600D01*
X167176934Y-43790680D01*
X165368947Y-43790680D01*
X165365112Y-43781423D01*
X165221365Y-43566290D01*
X165038410Y-43383335D01*
X164823277Y-43239588D01*
X164584235Y-43140574D01*
X164398362Y-43103601D01*
X193617260Y-43103601D01*
X192527406Y-104828960D01*
X177301080Y-104903599D01*
X151995162Y-104903599D01*
X151851887Y-102564842D01*
X151729070Y-89689427D01*
X152480141Y-89689427D01*
X152480141Y-104510574D01*
X155479859Y-104510574D01*
X155479859Y-103811656D01*
X167577582Y-103811656D01*
X167577582Y-103995544D01*
X167613456Y-104175897D01*
X167683827Y-104345787D01*
X167785989Y-104498683D01*
X167916017Y-104628711D01*
X168068913Y-104730873D01*
X168238803Y-104801244D01*
X168419156Y-104837118D01*
X168603044Y-104837118D01*
X168783397Y-104801244D01*
X168953287Y-104730873D01*
X169106183Y-104628711D01*
X169236211Y-104498683D01*
X169338373Y-104345787D01*
X169408744Y-104175897D01*
X169444618Y-103995544D01*
X169444618Y-103811656D01*
X170117582Y-103811656D01*
X170117582Y-103995544D01*
X170153456Y-104175897D01*
X170223827Y-104345787D01*
X170325989Y-104498683D01*
X170456017Y-104628711D01*
X170608913Y-104730873D01*
X170778803Y-104801244D01*
X170959156Y-104837118D01*
X171143044Y-104837118D01*
X171323397Y-104801244D01*
X171493287Y-104730873D01*
X171646183Y-104628711D01*
X171776211Y-104498683D01*
X171878373Y-104345787D01*
X171948744Y-104175897D01*
X171984618Y-103995544D01*
X171984618Y-103811656D01*
X172657582Y-103811656D01*
X172657582Y-103995544D01*
X172693456Y-104175897D01*
X172763827Y-104345787D01*
X172865989Y-104498683D01*
X172996017Y-104628711D01*
X173148913Y-104730873D01*
X173318803Y-104801244D01*
X173499156Y-104837118D01*
X173683044Y-104837118D01*
X173863397Y-104801244D01*
X174033287Y-104730873D01*
X174186183Y-104628711D01*
X174316211Y-104498683D01*
X174418373Y-104345787D01*
X174488744Y-104175897D01*
X174524618Y-103995544D01*
X174524618Y-103811656D01*
X175197582Y-103811656D01*
X175197582Y-103995544D01*
X175233456Y-104175897D01*
X175303827Y-104345787D01*
X175405989Y-104498683D01*
X175536017Y-104628711D01*
X175688913Y-104730873D01*
X175858803Y-104801244D01*
X176039156Y-104837118D01*
X176223044Y-104837118D01*
X176403397Y-104801244D01*
X176573287Y-104730873D01*
X176726183Y-104628711D01*
X176856211Y-104498683D01*
X176958373Y-104345787D01*
X177028744Y-104175897D01*
X177064618Y-103995544D01*
X177064618Y-103811656D01*
X177028744Y-103631303D01*
X176958373Y-103461413D01*
X176856211Y-103308517D01*
X176726183Y-103178489D01*
X176573287Y-103076327D01*
X176403397Y-103005956D01*
X176243903Y-102974231D01*
X183787596Y-102974231D01*
X183787596Y-103232969D01*
X183838074Y-103486735D01*
X183937088Y-103725777D01*
X184080835Y-103940910D01*
X184263790Y-104123865D01*
X184478923Y-104267612D01*
X184717965Y-104366626D01*
X184971731Y-104417104D01*
X185230469Y-104417104D01*
X185484235Y-104366626D01*
X185723277Y-104267612D01*
X185938410Y-104123865D01*
X186121365Y-103940910D01*
X186265112Y-103725777D01*
X186364126Y-103486735D01*
X186414604Y-103232969D01*
X186414604Y-103123600D01*
X188354407Y-103123600D01*
X188372431Y-103306601D01*
X188425811Y-103482570D01*
X188512494Y-103644744D01*
X188629151Y-103786890D01*
X188771297Y-103903547D01*
X188933471Y-103990230D01*
X189109440Y-104043610D01*
X189246589Y-104057118D01*
X190755611Y-104057118D01*
X190892760Y-104043610D01*
X191068729Y-103990230D01*
X191230903Y-103903547D01*
X191373049Y-103786890D01*
X191489706Y-103644744D01*
X191576389Y-103482570D01*
X191629769Y-103306601D01*
X191647793Y-103123600D01*
X191629769Y-102940599D01*
X191576389Y-102764630D01*
X191489706Y-102602456D01*
X191373049Y-102460310D01*
X191230903Y-102343653D01*
X191068729Y-102256970D01*
X190892760Y-102203590D01*
X190755611Y-102190082D01*
X189246589Y-102190082D01*
X189109440Y-102203590D01*
X188933471Y-102256970D01*
X188771297Y-102343653D01*
X188629151Y-102460310D01*
X188512494Y-102602456D01*
X188425811Y-102764630D01*
X188372431Y-102940599D01*
X188354407Y-103123600D01*
X186414604Y-103123600D01*
X186414604Y-102974231D01*
X186364126Y-102720465D01*
X186265112Y-102481423D01*
X186121365Y-102266290D01*
X185938410Y-102083335D01*
X185723277Y-101939588D01*
X185484235Y-101840574D01*
X185230469Y-101790096D01*
X184971731Y-101790096D01*
X184717965Y-101840574D01*
X184478923Y-101939588D01*
X184263790Y-102083335D01*
X184080835Y-102266290D01*
X183937088Y-102481423D01*
X183838074Y-102720465D01*
X183787596Y-102974231D01*
X176243903Y-102974231D01*
X176223044Y-102970082D01*
X176039156Y-102970082D01*
X175858803Y-103005956D01*
X175688913Y-103076327D01*
X175536017Y-103178489D01*
X175405989Y-103308517D01*
X175303827Y-103461413D01*
X175233456Y-103631303D01*
X175197582Y-103811656D01*
X174524618Y-103811656D01*
X174488744Y-103631303D01*
X174418373Y-103461413D01*
X174316211Y-103308517D01*
X174186183Y-103178489D01*
X174033287Y-103076327D01*
X173863397Y-103005956D01*
X173683044Y-102970082D01*
X173499156Y-102970082D01*
X173318803Y-103005956D01*
X173148913Y-103076327D01*
X172996017Y-103178489D01*
X172865989Y-103308517D01*
X172763827Y-103461413D01*
X172693456Y-103631303D01*
X172657582Y-103811656D01*
X171984618Y-103811656D01*
X171948744Y-103631303D01*
X171878373Y-103461413D01*
X171776211Y-103308517D01*
X171646183Y-103178489D01*
X171493287Y-103076327D01*
X171323397Y-103005956D01*
X171143044Y-102970082D01*
X170959156Y-102970082D01*
X170778803Y-103005956D01*
X170608913Y-103076327D01*
X170456017Y-103178489D01*
X170325989Y-103308517D01*
X170223827Y-103461413D01*
X170153456Y-103631303D01*
X170117582Y-103811656D01*
X169444618Y-103811656D01*
X169408744Y-103631303D01*
X169338373Y-103461413D01*
X169236211Y-103308517D01*
X169106183Y-103178489D01*
X168953287Y-103076327D01*
X168783397Y-103005956D01*
X168603044Y-102970082D01*
X168419156Y-102970082D01*
X168238803Y-103005956D01*
X168068913Y-103076327D01*
X167916017Y-103178489D01*
X167785989Y-103308517D01*
X167683827Y-103461413D01*
X167613456Y-103631303D01*
X167577582Y-103811656D01*
X155479859Y-103811656D01*
X155479859Y-100762121D01*
X188325117Y-100762121D01*
X188374092Y-100936933D01*
X188460670Y-101109305D01*
X188579212Y-101261474D01*
X188725163Y-101387593D01*
X188892914Y-101482815D01*
X189076019Y-101543481D01*
X189267441Y-101567259D01*
X189976100Y-101567259D01*
X189976100Y-100608600D01*
X190026100Y-100608600D01*
X190026100Y-101567259D01*
X190734759Y-101567259D01*
X190926181Y-101543481D01*
X191109286Y-101482815D01*
X191277037Y-101387593D01*
X191422988Y-101261474D01*
X191541530Y-101109305D01*
X191628108Y-100936933D01*
X191677083Y-100762121D01*
X191624326Y-100608600D01*
X190026100Y-100608600D01*
X189976100Y-100608600D01*
X188377874Y-100608600D01*
X188325117Y-100762121D01*
X155479859Y-100762121D01*
X155479859Y-100405079D01*
X188325117Y-100405079D01*
X188377874Y-100558600D01*
X189976100Y-100558600D01*
X189976100Y-99599941D01*
X190026100Y-99599941D01*
X190026100Y-100558600D01*
X191624326Y-100558600D01*
X191677083Y-100405079D01*
X191628108Y-100230267D01*
X191541530Y-100057895D01*
X191422988Y-99905726D01*
X191277037Y-99779607D01*
X191109286Y-99684385D01*
X190926181Y-99623719D01*
X190734759Y-99599941D01*
X190026100Y-99599941D01*
X189976100Y-99599941D01*
X189267441Y-99599941D01*
X189076019Y-99623719D01*
X188892914Y-99684385D01*
X188725163Y-99779607D01*
X188579212Y-99905726D01*
X188460670Y-100057895D01*
X188374092Y-100230267D01*
X188325117Y-100405079D01*
X155479859Y-100405079D01*
X155479859Y-97449379D01*
X171550582Y-97449379D01*
X171550582Y-97557821D01*
X171571738Y-97664180D01*
X171613237Y-97764368D01*
X171673485Y-97854535D01*
X171750165Y-97931215D01*
X171840332Y-97991463D01*
X171940520Y-98032962D01*
X172046879Y-98054118D01*
X172155321Y-98054118D01*
X172261680Y-98032962D01*
X172361868Y-97991463D01*
X172452035Y-97931215D01*
X172528715Y-97854535D01*
X172562843Y-97803459D01*
X174636379Y-97803459D01*
X174651100Y-97804909D01*
X174709882Y-97799119D01*
X174766406Y-97781973D01*
X174818498Y-97754129D01*
X174864158Y-97716658D01*
X174873547Y-97705217D01*
X175716475Y-96862290D01*
X175858803Y-96921244D01*
X176039156Y-96957118D01*
X176223044Y-96957118D01*
X176403397Y-96921244D01*
X176573287Y-96850873D01*
X176726183Y-96748711D01*
X176856211Y-96618683D01*
X176958373Y-96465787D01*
X177028744Y-96295897D01*
X177064618Y-96115544D01*
X177064618Y-95931656D01*
X177028744Y-95751303D01*
X176958373Y-95581413D01*
X176856211Y-95428517D01*
X176726183Y-95298489D01*
X176573287Y-95196327D01*
X176403397Y-95125956D01*
X176223044Y-95090082D01*
X176039156Y-95090082D01*
X175858803Y-95125956D01*
X175688913Y-95196327D01*
X175536017Y-95298489D01*
X175405989Y-95428517D01*
X175303827Y-95581413D01*
X175233456Y-95751303D01*
X175197582Y-95931656D01*
X175197582Y-96115544D01*
X175233456Y-96295897D01*
X175292410Y-96438225D01*
X174526895Y-97203741D01*
X172562843Y-97203741D01*
X172528715Y-97152665D01*
X172452035Y-97075985D01*
X172361868Y-97015737D01*
X172261680Y-96974238D01*
X172155321Y-96953082D01*
X172046879Y-96953082D01*
X171940520Y-96974238D01*
X171840332Y-97015737D01*
X171750165Y-97075985D01*
X171673485Y-97152665D01*
X171613237Y-97242832D01*
X171571738Y-97343020D01*
X171550582Y-97449379D01*
X155479859Y-97449379D01*
X155479859Y-95931656D01*
X167577582Y-95931656D01*
X167577582Y-96115544D01*
X167613456Y-96295897D01*
X167683827Y-96465787D01*
X167785989Y-96618683D01*
X167916017Y-96748711D01*
X168068913Y-96850873D01*
X168238803Y-96921244D01*
X168419156Y-96957118D01*
X168603044Y-96957118D01*
X168783397Y-96921244D01*
X168953287Y-96850873D01*
X169106183Y-96748711D01*
X169236211Y-96618683D01*
X169338373Y-96465787D01*
X169408744Y-96295897D01*
X169444618Y-96115544D01*
X169444618Y-95931656D01*
X170117582Y-95931656D01*
X170117582Y-96115544D01*
X170153456Y-96295897D01*
X170223827Y-96465787D01*
X170325989Y-96618683D01*
X170456017Y-96748711D01*
X170608913Y-96850873D01*
X170778803Y-96921244D01*
X170959156Y-96957118D01*
X171143044Y-96957118D01*
X171323397Y-96921244D01*
X171493287Y-96850873D01*
X171646183Y-96748711D01*
X171703553Y-96691341D01*
X172958714Y-96691341D01*
X173030533Y-96837687D01*
X173200125Y-96931406D01*
X173384741Y-96990238D01*
X173577289Y-97011923D01*
X173770366Y-96995628D01*
X173956555Y-96941978D01*
X174128700Y-96853034D01*
X174151667Y-96837687D01*
X174223486Y-96691341D01*
X173591100Y-96058955D01*
X172958714Y-96691341D01*
X171703553Y-96691341D01*
X171776211Y-96618683D01*
X171878373Y-96465787D01*
X171948744Y-96295897D01*
X171984618Y-96115544D01*
X171984618Y-96009789D01*
X172602777Y-96009789D01*
X172619072Y-96202866D01*
X172672722Y-96389055D01*
X172761666Y-96561200D01*
X172777013Y-96584167D01*
X172923359Y-96655986D01*
X173555745Y-96023600D01*
X173626455Y-96023600D01*
X174258841Y-96655986D01*
X174405187Y-96584167D01*
X174498906Y-96414575D01*
X174557738Y-96229959D01*
X174579423Y-96037411D01*
X174563128Y-95844334D01*
X174509478Y-95658145D01*
X174420534Y-95486000D01*
X174405187Y-95463033D01*
X174258841Y-95391214D01*
X173626455Y-96023600D01*
X173555745Y-96023600D01*
X172923359Y-95391214D01*
X172777013Y-95463033D01*
X172683294Y-95632625D01*
X172624462Y-95817241D01*
X172602777Y-96009789D01*
X171984618Y-96009789D01*
X171984618Y-95931656D01*
X171948744Y-95751303D01*
X171878373Y-95581413D01*
X171776211Y-95428517D01*
X171703553Y-95355859D01*
X172958714Y-95355859D01*
X173591100Y-95988245D01*
X174223486Y-95355859D01*
X174151667Y-95209513D01*
X173982075Y-95115794D01*
X173797459Y-95056962D01*
X173604911Y-95035277D01*
X173411834Y-95051572D01*
X173225645Y-95105222D01*
X173053500Y-95194166D01*
X173030533Y-95209513D01*
X172958714Y-95355859D01*
X171703553Y-95355859D01*
X171646183Y-95298489D01*
X171493287Y-95196327D01*
X171323397Y-95125956D01*
X171143044Y-95090082D01*
X170959156Y-95090082D01*
X170778803Y-95125956D01*
X170608913Y-95196327D01*
X170456017Y-95298489D01*
X170325989Y-95428517D01*
X170223827Y-95581413D01*
X170153456Y-95751303D01*
X170117582Y-95931656D01*
X169444618Y-95931656D01*
X169408744Y-95751303D01*
X169338373Y-95581413D01*
X169236211Y-95428517D01*
X169106183Y-95298489D01*
X168953287Y-95196327D01*
X168783397Y-95125956D01*
X168603044Y-95090082D01*
X168419156Y-95090082D01*
X168238803Y-95125956D01*
X168068913Y-95196327D01*
X167916017Y-95298489D01*
X167785989Y-95428517D01*
X167683827Y-95581413D01*
X167613456Y-95751303D01*
X167577582Y-95931656D01*
X155479859Y-95931656D01*
X155479859Y-94449379D01*
X167850582Y-94449379D01*
X167850582Y-94557821D01*
X167871738Y-94664180D01*
X167913237Y-94764368D01*
X167973485Y-94854535D01*
X168050165Y-94931215D01*
X168140332Y-94991463D01*
X168240520Y-95032962D01*
X168346879Y-95054118D01*
X168455321Y-95054118D01*
X168561680Y-95032962D01*
X168661868Y-94991463D01*
X168752035Y-94931215D01*
X168828715Y-94854535D01*
X168862843Y-94803459D01*
X178139357Y-94803459D01*
X178173485Y-94854535D01*
X178250165Y-94931215D01*
X178340332Y-94991463D01*
X178440520Y-95032962D01*
X178546879Y-95054118D01*
X178655321Y-95054118D01*
X178761680Y-95032962D01*
X178861868Y-94991463D01*
X178952035Y-94931215D01*
X179028715Y-94854535D01*
X179088963Y-94764368D01*
X179130462Y-94664180D01*
X179151618Y-94557821D01*
X179151618Y-94449379D01*
X179130462Y-94343020D01*
X179088963Y-94242832D01*
X179028715Y-94152665D01*
X178952035Y-94075985D01*
X178861868Y-94015737D01*
X178761680Y-93974238D01*
X178655321Y-93953082D01*
X178546879Y-93953082D01*
X178440520Y-93974238D01*
X178340332Y-94015737D01*
X178250165Y-94075985D01*
X178173485Y-94152665D01*
X178139357Y-94203741D01*
X168862843Y-94203741D01*
X168828715Y-94152665D01*
X168752035Y-94075985D01*
X168661868Y-94015737D01*
X168561680Y-93974238D01*
X168455321Y-93953082D01*
X168346879Y-93953082D01*
X168240520Y-93974238D01*
X168140332Y-94015737D01*
X168050165Y-94075985D01*
X167973485Y-94152665D01*
X167913237Y-94242832D01*
X167871738Y-94343020D01*
X167850582Y-94449379D01*
X155479859Y-94449379D01*
X155479859Y-89689427D01*
X152480141Y-89689427D01*
X151729070Y-89689427D01*
X151715028Y-88217283D01*
X178636241Y-88217283D01*
X178636241Y-88369917D01*
X178666019Y-88519618D01*
X178724429Y-88660633D01*
X178809228Y-88787544D01*
X178917156Y-88895472D01*
X179044067Y-88980271D01*
X179185082Y-89038681D01*
X179334783Y-89068459D01*
X179487417Y-89068459D01*
X179637118Y-89038681D01*
X179778133Y-88980271D01*
X179905044Y-88895472D01*
X180012972Y-88787544D01*
X180097771Y-88660633D01*
X180156181Y-88519618D01*
X180185959Y-88369917D01*
X180185959Y-88217283D01*
X182416241Y-88217283D01*
X182416241Y-88369917D01*
X182446019Y-88519618D01*
X182504429Y-88660633D01*
X182589228Y-88787544D01*
X182697156Y-88895472D01*
X182824067Y-88980271D01*
X182965082Y-89038681D01*
X183114783Y-89068459D01*
X183267417Y-89068459D01*
X183417118Y-89038681D01*
X183558133Y-88980271D01*
X183685044Y-88895472D01*
X183792972Y-88787544D01*
X183877771Y-88660633D01*
X183936181Y-88519618D01*
X183965959Y-88369917D01*
X183965959Y-88227283D01*
X185606241Y-88227283D01*
X185606241Y-88379917D01*
X185636019Y-88529618D01*
X185694429Y-88670633D01*
X185779228Y-88797544D01*
X185887156Y-88905472D01*
X186014067Y-88990271D01*
X186155082Y-89048681D01*
X186304783Y-89078459D01*
X186457417Y-89078459D01*
X186607118Y-89048681D01*
X186748133Y-88990271D01*
X186875044Y-88905472D01*
X186982972Y-88797544D01*
X187067771Y-88670633D01*
X187126181Y-88529618D01*
X187155959Y-88379917D01*
X187155959Y-88227283D01*
X189386241Y-88227283D01*
X189386241Y-88379917D01*
X189416019Y-88529618D01*
X189474429Y-88670633D01*
X189559228Y-88797544D01*
X189667156Y-88905472D01*
X189794067Y-88990271D01*
X189935082Y-89048681D01*
X190084783Y-89078459D01*
X190237417Y-89078459D01*
X190387118Y-89048681D01*
X190528133Y-88990271D01*
X190655044Y-88905472D01*
X190762972Y-88797544D01*
X190847771Y-88670633D01*
X190906181Y-88529618D01*
X190935959Y-88379917D01*
X190935959Y-88227283D01*
X190906181Y-88077582D01*
X190847771Y-87936567D01*
X190762972Y-87809656D01*
X190655044Y-87701728D01*
X190528133Y-87616929D01*
X190387118Y-87558519D01*
X190237417Y-87528741D01*
X190084783Y-87528741D01*
X189935082Y-87558519D01*
X189794067Y-87616929D01*
X189667156Y-87701728D01*
X189559228Y-87809656D01*
X189474429Y-87936567D01*
X189416019Y-88077582D01*
X189386241Y-88227283D01*
X187155959Y-88227283D01*
X187126181Y-88077582D01*
X187067771Y-87936567D01*
X186982972Y-87809656D01*
X186875044Y-87701728D01*
X186748133Y-87616929D01*
X186607118Y-87558519D01*
X186457417Y-87528741D01*
X186304783Y-87528741D01*
X186155082Y-87558519D01*
X186014067Y-87616929D01*
X185887156Y-87701728D01*
X185779228Y-87809656D01*
X185694429Y-87936567D01*
X185636019Y-88077582D01*
X185606241Y-88227283D01*
X183965959Y-88227283D01*
X183965959Y-88217283D01*
X183936181Y-88067582D01*
X183877771Y-87926567D01*
X183792972Y-87799656D01*
X183685044Y-87691728D01*
X183558133Y-87606929D01*
X183417118Y-87548519D01*
X183267417Y-87518741D01*
X183114783Y-87518741D01*
X182965082Y-87548519D01*
X182824067Y-87606929D01*
X182697156Y-87691728D01*
X182589228Y-87799656D01*
X182504429Y-87926567D01*
X182446019Y-88067582D01*
X182416241Y-88217283D01*
X180185959Y-88217283D01*
X180156181Y-88067582D01*
X180097771Y-87926567D01*
X180012972Y-87799656D01*
X179905044Y-87691728D01*
X179778133Y-87606929D01*
X179637118Y-87548519D01*
X179487417Y-87518741D01*
X179334783Y-87518741D01*
X179185082Y-87548519D01*
X179044067Y-87606929D01*
X178917156Y-87691728D01*
X178809228Y-87799656D01*
X178724429Y-87926567D01*
X178666019Y-88067582D01*
X178636241Y-88217283D01*
X151715028Y-88217283D01*
X151678970Y-84437283D01*
X178636241Y-84437283D01*
X178636241Y-84589917D01*
X178666019Y-84739618D01*
X178724429Y-84880633D01*
X178809228Y-85007544D01*
X178917156Y-85115472D01*
X179044067Y-85200271D01*
X179185082Y-85258681D01*
X179334783Y-85288459D01*
X179487417Y-85288459D01*
X179637118Y-85258681D01*
X179778133Y-85200271D01*
X179905044Y-85115472D01*
X180012972Y-85007544D01*
X180097771Y-84880633D01*
X180156181Y-84739618D01*
X180185959Y-84589917D01*
X180185959Y-84437283D01*
X182416241Y-84437283D01*
X182416241Y-84589917D01*
X182446019Y-84739618D01*
X182504429Y-84880633D01*
X182589228Y-85007544D01*
X182697156Y-85115472D01*
X182824067Y-85200271D01*
X182965082Y-85258681D01*
X183114783Y-85288459D01*
X183267417Y-85288459D01*
X183417118Y-85258681D01*
X183558133Y-85200271D01*
X183685044Y-85115472D01*
X183792972Y-85007544D01*
X183877771Y-84880633D01*
X183936181Y-84739618D01*
X183965959Y-84589917D01*
X183965959Y-84447283D01*
X185606241Y-84447283D01*
X185606241Y-84599917D01*
X185636019Y-84749618D01*
X185694429Y-84890633D01*
X185779228Y-85017544D01*
X185887156Y-85125472D01*
X186014067Y-85210271D01*
X186155082Y-85268681D01*
X186304783Y-85298459D01*
X186457417Y-85298459D01*
X186607118Y-85268681D01*
X186748133Y-85210271D01*
X186875044Y-85125472D01*
X186982972Y-85017544D01*
X187067771Y-84890633D01*
X187126181Y-84749618D01*
X187155959Y-84599917D01*
X187155959Y-84447283D01*
X189386241Y-84447283D01*
X189386241Y-84599917D01*
X189416019Y-84749618D01*
X189474429Y-84890633D01*
X189559228Y-85017544D01*
X189667156Y-85125472D01*
X189794067Y-85210271D01*
X189935082Y-85268681D01*
X190084783Y-85298459D01*
X190237417Y-85298459D01*
X190387118Y-85268681D01*
X190528133Y-85210271D01*
X190655044Y-85125472D01*
X190762972Y-85017544D01*
X190847771Y-84890633D01*
X190906181Y-84749618D01*
X190935959Y-84599917D01*
X190935959Y-84447283D01*
X190906181Y-84297582D01*
X190847771Y-84156567D01*
X190762972Y-84029656D01*
X190655044Y-83921728D01*
X190528133Y-83836929D01*
X190387118Y-83778519D01*
X190237417Y-83748741D01*
X190084783Y-83748741D01*
X189935082Y-83778519D01*
X189794067Y-83836929D01*
X189667156Y-83921728D01*
X189559228Y-84029656D01*
X189474429Y-84156567D01*
X189416019Y-84297582D01*
X189386241Y-84447283D01*
X187155959Y-84447283D01*
X187126181Y-84297582D01*
X187067771Y-84156567D01*
X186982972Y-84029656D01*
X186875044Y-83921728D01*
X186748133Y-83836929D01*
X186607118Y-83778519D01*
X186457417Y-83748741D01*
X186304783Y-83748741D01*
X186155082Y-83778519D01*
X186014067Y-83836929D01*
X185887156Y-83921728D01*
X185779228Y-84029656D01*
X185694429Y-84156567D01*
X185636019Y-84297582D01*
X185606241Y-84447283D01*
X183965959Y-84447283D01*
X183965959Y-84437283D01*
X183936181Y-84287582D01*
X183877771Y-84146567D01*
X183792972Y-84019656D01*
X183685044Y-83911728D01*
X183558133Y-83826929D01*
X183417118Y-83768519D01*
X183267417Y-83738741D01*
X183114783Y-83738741D01*
X182965082Y-83768519D01*
X182824067Y-83826929D01*
X182697156Y-83911728D01*
X182589228Y-84019656D01*
X182504429Y-84146567D01*
X182446019Y-84287582D01*
X182416241Y-84437283D01*
X180185959Y-84437283D01*
X180156181Y-84287582D01*
X180097771Y-84146567D01*
X180012972Y-84019656D01*
X179905044Y-83911728D01*
X179778133Y-83826929D01*
X179637118Y-83768519D01*
X179487417Y-83738741D01*
X179334783Y-83738741D01*
X179185082Y-83768519D01*
X179044067Y-83826929D01*
X178917156Y-83911728D01*
X178809228Y-84019656D01*
X178724429Y-84146567D01*
X178666019Y-84287582D01*
X178636241Y-84437283D01*
X151678970Y-84437283D01*
X151665621Y-83037955D01*
X151746879Y-83054118D01*
X151855321Y-83054118D01*
X151961680Y-83032962D01*
X152061868Y-82991463D01*
X152152035Y-82931215D01*
X152228715Y-82854535D01*
X152262843Y-82803459D01*
X160022691Y-82803459D01*
X159973485Y-82852665D01*
X159913237Y-82942832D01*
X159871738Y-83043020D01*
X159850582Y-83149379D01*
X159850582Y-83257821D01*
X159871738Y-83364180D01*
X159913237Y-83464368D01*
X159973485Y-83554535D01*
X160050165Y-83631215D01*
X160140332Y-83691463D01*
X160240520Y-83732962D01*
X160346879Y-83754118D01*
X160455321Y-83754118D01*
X160561680Y-83732962D01*
X160661868Y-83691463D01*
X160752035Y-83631215D01*
X160828715Y-83554535D01*
X160862843Y-83503459D01*
X185539357Y-83503459D01*
X185573485Y-83554535D01*
X185650165Y-83631215D01*
X185740332Y-83691463D01*
X185840520Y-83732962D01*
X185946879Y-83754118D01*
X186055321Y-83754118D01*
X186161680Y-83732962D01*
X186261868Y-83691463D01*
X186352035Y-83631215D01*
X186428715Y-83554535D01*
X186488963Y-83464368D01*
X186530462Y-83364180D01*
X186551618Y-83257821D01*
X186551618Y-83149379D01*
X186530462Y-83043020D01*
X186488963Y-82942832D01*
X186428715Y-82852665D01*
X186352035Y-82775985D01*
X186261868Y-82715737D01*
X186161680Y-82674238D01*
X186055321Y-82653082D01*
X185946879Y-82653082D01*
X185932084Y-82656025D01*
X185951618Y-82557821D01*
X185951618Y-82449379D01*
X185930462Y-82343020D01*
X185888963Y-82242832D01*
X185862655Y-82203459D01*
X186159716Y-82203459D01*
X186150582Y-82249379D01*
X186150582Y-82357821D01*
X186171738Y-82464180D01*
X186213237Y-82564368D01*
X186273485Y-82654535D01*
X186350165Y-82731215D01*
X186440332Y-82791463D01*
X186540520Y-82832962D01*
X186646879Y-82854118D01*
X186755321Y-82854118D01*
X186861680Y-82832962D01*
X186961868Y-82791463D01*
X187052035Y-82731215D01*
X187128715Y-82654535D01*
X187145593Y-82629276D01*
X187201676Y-82685359D01*
X187304018Y-82753742D01*
X187417735Y-82800846D01*
X187538457Y-82824859D01*
X187661543Y-82824859D01*
X187782265Y-82800846D01*
X187895982Y-82753742D01*
X187998324Y-82685359D01*
X188085359Y-82598324D01*
X188153742Y-82495982D01*
X188200846Y-82382265D01*
X188224859Y-82261543D01*
X188224859Y-82138457D01*
X188200846Y-82017735D01*
X188153742Y-81904018D01*
X188085359Y-81801676D01*
X187998324Y-81714641D01*
X187895982Y-81646258D01*
X187782265Y-81599154D01*
X187661543Y-81575141D01*
X187538457Y-81575141D01*
X187481288Y-81586513D01*
X186759535Y-80864760D01*
X186748584Y-80851416D01*
X186695311Y-80807696D01*
X186634533Y-80775209D01*
X186568584Y-80755204D01*
X186517179Y-80750141D01*
X186517169Y-80750141D01*
X186500000Y-80748450D01*
X186482831Y-80750141D01*
X162360077Y-80750141D01*
X162351742Y-80730018D01*
X162283359Y-80627676D01*
X162196324Y-80540641D01*
X162093982Y-80472258D01*
X161980265Y-80425154D01*
X161859543Y-80401141D01*
X161736457Y-80401141D01*
X161615735Y-80425154D01*
X161502018Y-80472258D01*
X161399676Y-80540641D01*
X161312641Y-80627676D01*
X161244258Y-80730018D01*
X161197154Y-80843735D01*
X161173141Y-80964457D01*
X161173141Y-81087543D01*
X161197154Y-81208265D01*
X161244258Y-81321982D01*
X161312641Y-81424324D01*
X161399676Y-81511359D01*
X161502018Y-81579742D01*
X161615735Y-81626846D01*
X161736457Y-81650859D01*
X161859543Y-81650859D01*
X161980265Y-81626846D01*
X162093982Y-81579742D01*
X162196324Y-81511359D01*
X162257824Y-81449859D01*
X170689265Y-81449859D01*
X170650165Y-81475985D01*
X170573485Y-81552665D01*
X170513237Y-81642832D01*
X170471738Y-81743020D01*
X170450582Y-81849379D01*
X170450582Y-81957821D01*
X170471738Y-82064180D01*
X170513237Y-82164368D01*
X170539545Y-82203741D01*
X152262843Y-82203741D01*
X152228715Y-82152665D01*
X152152035Y-82075985D01*
X152061868Y-82015737D01*
X151961680Y-81974238D01*
X151855321Y-81953082D01*
X151746879Y-81953082D01*
X151655446Y-81971269D01*
X151620897Y-78349379D01*
X152950582Y-78349379D01*
X152950582Y-78457821D01*
X152971738Y-78564180D01*
X153013237Y-78664368D01*
X153073485Y-78754535D01*
X153150165Y-78831215D01*
X153240332Y-78891463D01*
X153340520Y-78932962D01*
X153446879Y-78954118D01*
X153555321Y-78954118D01*
X153661680Y-78932962D01*
X153761868Y-78891463D01*
X153852035Y-78831215D01*
X153928715Y-78754535D01*
X153962843Y-78703459D01*
X157039545Y-78703459D01*
X157013237Y-78742832D01*
X156971738Y-78843020D01*
X156950582Y-78949379D01*
X156950582Y-79057821D01*
X156971738Y-79164180D01*
X157013237Y-79264368D01*
X157073485Y-79354535D01*
X157150165Y-79431215D01*
X157240332Y-79491463D01*
X157340520Y-79532962D01*
X157446879Y-79554118D01*
X157555321Y-79554118D01*
X157661680Y-79532962D01*
X157761868Y-79491463D01*
X157852035Y-79431215D01*
X157928715Y-79354535D01*
X157962843Y-79303459D01*
X176639545Y-79303459D01*
X176613237Y-79342832D01*
X176571738Y-79443020D01*
X176550582Y-79549379D01*
X176550582Y-79657821D01*
X176571738Y-79764180D01*
X176613237Y-79864368D01*
X176673485Y-79954535D01*
X176750165Y-80031215D01*
X176840332Y-80091463D01*
X176940520Y-80132962D01*
X177046879Y-80154118D01*
X177155321Y-80154118D01*
X177261680Y-80132962D01*
X177361868Y-80091463D01*
X177452035Y-80031215D01*
X177528715Y-79954535D01*
X177562843Y-79903459D01*
X184139357Y-79903459D01*
X184173485Y-79954535D01*
X184250165Y-80031215D01*
X184340332Y-80091463D01*
X184440520Y-80132962D01*
X184546879Y-80154118D01*
X184655321Y-80154118D01*
X184761680Y-80132962D01*
X184861868Y-80091463D01*
X184952035Y-80031215D01*
X185028715Y-79954535D01*
X185088963Y-79864368D01*
X185130462Y-79764180D01*
X185151618Y-79657821D01*
X185151618Y-79549379D01*
X185148675Y-79534584D01*
X185246879Y-79554118D01*
X185355321Y-79554118D01*
X185461680Y-79532962D01*
X185561868Y-79491463D01*
X185652035Y-79431215D01*
X185728715Y-79354535D01*
X185788963Y-79264368D01*
X185830462Y-79164180D01*
X185851618Y-79057821D01*
X185851618Y-78949379D01*
X185830462Y-78843020D01*
X185788963Y-78742832D01*
X185762655Y-78703459D01*
X188139357Y-78703459D01*
X188173485Y-78754535D01*
X188250165Y-78831215D01*
X188340332Y-78891463D01*
X188440520Y-78932962D01*
X188546879Y-78954118D01*
X188655321Y-78954118D01*
X188761680Y-78932962D01*
X188861868Y-78891463D01*
X188952035Y-78831215D01*
X189028715Y-78754535D01*
X189088963Y-78664368D01*
X189130462Y-78564180D01*
X189151618Y-78457821D01*
X189151618Y-78349379D01*
X189130462Y-78243020D01*
X189088963Y-78142832D01*
X189028715Y-78052665D01*
X188952035Y-77975985D01*
X188861868Y-77915737D01*
X188761680Y-77874238D01*
X188655321Y-77853082D01*
X188546879Y-77853082D01*
X188440520Y-77874238D01*
X188340332Y-77915737D01*
X188250165Y-77975985D01*
X188173485Y-78052665D01*
X188139357Y-78103741D01*
X185162655Y-78103741D01*
X185188963Y-78064368D01*
X185230462Y-77964180D01*
X185251618Y-77857821D01*
X185251618Y-77749379D01*
X185230462Y-77643020D01*
X185188963Y-77542832D01*
X185128715Y-77452665D01*
X185052035Y-77375985D01*
X184961868Y-77315737D01*
X184861680Y-77274238D01*
X184755321Y-77253082D01*
X184646879Y-77253082D01*
X184540520Y-77274238D01*
X184440332Y-77315737D01*
X184350165Y-77375985D01*
X184273485Y-77452665D01*
X184239357Y-77503741D01*
X178632226Y-77503741D01*
X178661868Y-77491463D01*
X178752035Y-77431215D01*
X178828715Y-77354535D01*
X178888963Y-77264368D01*
X178930462Y-77164180D01*
X178951618Y-77057821D01*
X178951618Y-76949379D01*
X178930462Y-76843020D01*
X178888963Y-76742832D01*
X178828715Y-76652665D01*
X178752035Y-76575985D01*
X178661868Y-76515737D01*
X178561680Y-76474238D01*
X178455321Y-76453082D01*
X178346879Y-76453082D01*
X178240520Y-76474238D01*
X178140332Y-76515737D01*
X178050165Y-76575985D01*
X177973485Y-76652665D01*
X177939357Y-76703741D01*
X155714192Y-76703741D01*
X155688963Y-76642832D01*
X155628715Y-76552665D01*
X155552035Y-76475985D01*
X155461868Y-76415737D01*
X155361680Y-76374238D01*
X155255321Y-76353082D01*
X155146879Y-76353082D01*
X155040520Y-76374238D01*
X154940332Y-76415737D01*
X154850165Y-76475985D01*
X154773485Y-76552665D01*
X154713237Y-76642832D01*
X154671738Y-76743020D01*
X154650582Y-76849379D01*
X154650582Y-76957821D01*
X154671738Y-77064180D01*
X154713237Y-77164368D01*
X154773485Y-77254535D01*
X154850165Y-77331215D01*
X154940332Y-77391463D01*
X155040520Y-77432962D01*
X155146879Y-77454118D01*
X155255321Y-77454118D01*
X155361680Y-77432962D01*
X155461868Y-77391463D01*
X155552035Y-77331215D01*
X155579791Y-77303459D01*
X176169974Y-77303459D01*
X176140332Y-77315737D01*
X176050165Y-77375985D01*
X175973485Y-77452665D01*
X175913237Y-77542832D01*
X175871738Y-77643020D01*
X175850582Y-77749379D01*
X175850582Y-77857821D01*
X175871738Y-77964180D01*
X175913237Y-78064368D01*
X175939545Y-78103741D01*
X169762843Y-78103741D01*
X169728715Y-78052665D01*
X169652035Y-77975985D01*
X169561868Y-77915737D01*
X169461680Y-77874238D01*
X169355321Y-77853082D01*
X169246879Y-77853082D01*
X169140520Y-77874238D01*
X169040332Y-77915737D01*
X168950165Y-77975985D01*
X168873485Y-78052665D01*
X168839357Y-78103741D01*
X163162843Y-78103741D01*
X163128715Y-78052665D01*
X163052035Y-77975985D01*
X162961868Y-77915737D01*
X162861680Y-77874238D01*
X162755321Y-77853082D01*
X162646879Y-77853082D01*
X162540520Y-77874238D01*
X162440332Y-77915737D01*
X162350165Y-77975985D01*
X162273485Y-78052665D01*
X162239357Y-78103741D01*
X153962843Y-78103741D01*
X153928715Y-78052665D01*
X153852035Y-77975985D01*
X153761868Y-77915737D01*
X153661680Y-77874238D01*
X153555321Y-77853082D01*
X153446879Y-77853082D01*
X153340520Y-77874238D01*
X153240332Y-77915737D01*
X153150165Y-77975985D01*
X153073485Y-78052665D01*
X153013237Y-78142832D01*
X152971738Y-78243020D01*
X152950582Y-78349379D01*
X151620897Y-78349379D01*
X151587188Y-74815616D01*
X151588043Y-74816658D01*
X151599479Y-74826043D01*
X152178657Y-75405222D01*
X152188042Y-75416658D01*
X152233702Y-75454129D01*
X152285794Y-75481973D01*
X152342318Y-75499119D01*
X152386379Y-75503459D01*
X152386381Y-75503459D01*
X152401099Y-75504909D01*
X152415818Y-75503459D01*
X159022691Y-75503459D01*
X158973485Y-75552665D01*
X158913237Y-75642832D01*
X158871738Y-75743020D01*
X158850582Y-75849379D01*
X158850582Y-75957821D01*
X158871738Y-76064180D01*
X158913237Y-76164368D01*
X158973485Y-76254535D01*
X159050165Y-76331215D01*
X159140332Y-76391463D01*
X159240520Y-76432962D01*
X159346879Y-76454118D01*
X159455321Y-76454118D01*
X159561680Y-76432962D01*
X159661868Y-76391463D01*
X159752035Y-76331215D01*
X159828715Y-76254535D01*
X159862843Y-76203459D01*
X186139357Y-76203459D01*
X186173485Y-76254535D01*
X186250165Y-76331215D01*
X186340332Y-76391463D01*
X186440520Y-76432962D01*
X186546879Y-76454118D01*
X186655321Y-76454118D01*
X186761680Y-76432962D01*
X186861868Y-76391463D01*
X186952035Y-76331215D01*
X187028715Y-76254535D01*
X187088963Y-76164368D01*
X187130462Y-76064180D01*
X187151618Y-75957821D01*
X187151618Y-75849379D01*
X187130462Y-75743020D01*
X187088963Y-75642832D01*
X187028715Y-75552665D01*
X186952035Y-75475985D01*
X186861868Y-75415737D01*
X186761680Y-75374238D01*
X186655321Y-75353082D01*
X186546879Y-75353082D01*
X186440520Y-75374238D01*
X186340332Y-75415737D01*
X186250165Y-75475985D01*
X186173485Y-75552665D01*
X186139357Y-75603741D01*
X181279509Y-75603741D01*
X181328715Y-75554535D01*
X181388963Y-75464368D01*
X181430462Y-75364180D01*
X181451618Y-75257821D01*
X181451618Y-75149379D01*
X181430462Y-75043020D01*
X181388963Y-74942832D01*
X181328715Y-74852665D01*
X181252035Y-74775985D01*
X181161868Y-74715737D01*
X181061680Y-74674238D01*
X180955321Y-74653082D01*
X180846879Y-74653082D01*
X180740520Y-74674238D01*
X180640332Y-74715737D01*
X180550165Y-74775985D01*
X180473485Y-74852665D01*
X180439357Y-74903741D01*
X152525306Y-74903741D01*
X152100959Y-74479395D01*
X152100959Y-72582457D01*
X164983141Y-72582457D01*
X164983141Y-72705543D01*
X165007154Y-72826265D01*
X165054258Y-72939982D01*
X165122641Y-73042324D01*
X165209676Y-73129359D01*
X165312018Y-73197742D01*
X165425735Y-73244846D01*
X165546457Y-73268859D01*
X165669543Y-73268859D01*
X165790265Y-73244846D01*
X165903982Y-73197742D01*
X166006324Y-73129359D01*
X166093359Y-73042324D01*
X166125742Y-72993859D01*
X170424258Y-72993859D01*
X170456641Y-73042324D01*
X170543676Y-73129359D01*
X170646018Y-73197742D01*
X170759735Y-73244846D01*
X170880457Y-73268859D01*
X171003543Y-73268859D01*
X171124265Y-73244846D01*
X171237982Y-73197742D01*
X171340324Y-73129359D01*
X171427359Y-73042324D01*
X171495742Y-72939982D01*
X171542846Y-72826265D01*
X171566859Y-72705543D01*
X171566859Y-72582457D01*
X171542846Y-72461735D01*
X171495742Y-72348018D01*
X171427359Y-72245676D01*
X171340324Y-72158641D01*
X171237982Y-72090258D01*
X171124265Y-72043154D01*
X171003543Y-72019141D01*
X170880457Y-72019141D01*
X170759735Y-72043154D01*
X170646018Y-72090258D01*
X170543676Y-72158641D01*
X170456641Y-72245676D01*
X170424258Y-72294141D01*
X166125742Y-72294141D01*
X166093359Y-72245676D01*
X166006324Y-72158641D01*
X165903982Y-72090258D01*
X165790265Y-72043154D01*
X165669543Y-72019141D01*
X165546457Y-72019141D01*
X165425735Y-72043154D01*
X165312018Y-72090258D01*
X165209676Y-72158641D01*
X165122641Y-72245676D01*
X165054258Y-72348018D01*
X165007154Y-72461735D01*
X164983141Y-72582457D01*
X152100959Y-72582457D01*
X152100959Y-70749379D01*
X166350582Y-70749379D01*
X166350582Y-70857821D01*
X166371738Y-70964180D01*
X166413237Y-71064368D01*
X166473485Y-71154535D01*
X166550165Y-71231215D01*
X166640332Y-71291463D01*
X166740520Y-71332962D01*
X166846879Y-71354118D01*
X166955321Y-71354118D01*
X167061680Y-71332962D01*
X167161868Y-71291463D01*
X167252035Y-71231215D01*
X167328715Y-71154535D01*
X167335046Y-71145061D01*
X167293154Y-71246194D01*
X167269141Y-71366916D01*
X167269141Y-71490002D01*
X167293154Y-71610724D01*
X167340258Y-71724441D01*
X167408641Y-71826783D01*
X167495676Y-71913818D01*
X167598018Y-71982201D01*
X167711735Y-72029305D01*
X167832457Y-72053318D01*
X167955543Y-72053318D01*
X168076265Y-72029305D01*
X168189982Y-71982201D01*
X168292324Y-71913818D01*
X168379359Y-71826783D01*
X168447742Y-71724441D01*
X168494846Y-71610724D01*
X168506340Y-71552940D01*
X186541145Y-71552940D01*
X186670922Y-71682717D01*
X186680311Y-71694158D01*
X186725971Y-71731629D01*
X186778063Y-71759473D01*
X186834586Y-71776619D01*
X186893369Y-71782409D01*
X186908090Y-71780959D01*
X188063749Y-71780959D01*
X188120618Y-71866070D01*
X188055321Y-71853082D01*
X187946879Y-71853082D01*
X187840520Y-71874238D01*
X187740332Y-71915737D01*
X187650165Y-71975985D01*
X187573485Y-72052665D01*
X187539357Y-72103741D01*
X172562843Y-72103741D01*
X172528715Y-72052665D01*
X172452035Y-71975985D01*
X172361868Y-71915737D01*
X172261680Y-71874238D01*
X172155321Y-71853082D01*
X172046879Y-71853082D01*
X171940520Y-71874238D01*
X171840332Y-71915737D01*
X171750165Y-71975985D01*
X171673485Y-72052665D01*
X171613237Y-72142832D01*
X171571738Y-72243020D01*
X171550582Y-72349379D01*
X171550582Y-72457821D01*
X171571738Y-72564180D01*
X171613237Y-72664368D01*
X171673485Y-72754535D01*
X171750165Y-72831215D01*
X171840332Y-72891463D01*
X171940520Y-72932962D01*
X172046879Y-72954118D01*
X172155321Y-72954118D01*
X172261680Y-72932962D01*
X172361868Y-72891463D01*
X172452035Y-72831215D01*
X172528715Y-72754535D01*
X172562843Y-72703459D01*
X187539357Y-72703459D01*
X187573485Y-72754535D01*
X187650165Y-72831215D01*
X187740332Y-72891463D01*
X187840520Y-72932962D01*
X187946879Y-72954118D01*
X188055321Y-72954118D01*
X188161680Y-72932962D01*
X188261868Y-72891463D01*
X188352035Y-72831215D01*
X188428715Y-72754535D01*
X188488963Y-72664368D01*
X188530462Y-72564180D01*
X188551618Y-72457821D01*
X188551618Y-72349379D01*
X188530462Y-72243020D01*
X188488963Y-72142832D01*
X188450678Y-72085535D01*
X188553357Y-72105959D01*
X188676443Y-72105959D01*
X188797165Y-72081946D01*
X188910882Y-72034842D01*
X189013224Y-71966459D01*
X189100259Y-71879424D01*
X189168642Y-71777082D01*
X189215746Y-71663365D01*
X189239759Y-71542643D01*
X189239759Y-71419557D01*
X189215746Y-71298835D01*
X189168642Y-71185118D01*
X189100259Y-71082776D01*
X189013224Y-70995741D01*
X188910882Y-70927358D01*
X188797165Y-70880254D01*
X188676443Y-70856241D01*
X188553357Y-70856241D01*
X188432635Y-70880254D01*
X188318918Y-70927358D01*
X188216576Y-70995741D01*
X188129541Y-71082776D01*
X188063749Y-71181241D01*
X187702009Y-71181241D01*
X187728715Y-71154535D01*
X187788963Y-71064368D01*
X187830462Y-70964180D01*
X187851618Y-70857821D01*
X187851618Y-70749379D01*
X187830462Y-70643020D01*
X187788963Y-70542832D01*
X187728715Y-70452665D01*
X187652035Y-70375985D01*
X187561868Y-70315737D01*
X187461680Y-70274238D01*
X187355321Y-70253082D01*
X187246879Y-70253082D01*
X187140520Y-70274238D01*
X187040332Y-70315737D01*
X186950165Y-70375985D01*
X186873485Y-70452665D01*
X186839357Y-70503741D01*
X167362843Y-70503741D01*
X167328715Y-70452665D01*
X167252035Y-70375985D01*
X167161868Y-70315737D01*
X167061680Y-70274238D01*
X166955321Y-70253082D01*
X166846879Y-70253082D01*
X166740520Y-70274238D01*
X166640332Y-70315737D01*
X166550165Y-70375985D01*
X166473485Y-70452665D01*
X166413237Y-70542832D01*
X166371738Y-70643020D01*
X166350582Y-70749379D01*
X152100959Y-70749379D01*
X152100959Y-56912538D01*
X152129151Y-56946890D01*
X152271297Y-57063547D01*
X152433471Y-57150230D01*
X152609440Y-57203610D01*
X152746589Y-57217118D01*
X154255611Y-57217118D01*
X154392760Y-57203610D01*
X154568729Y-57150230D01*
X154730903Y-57063547D01*
X154873049Y-56946890D01*
X154989706Y-56804744D01*
X155076389Y-56642570D01*
X155129769Y-56466601D01*
X155147793Y-56283600D01*
X155129769Y-56100599D01*
X155076389Y-55924630D01*
X155019639Y-55818457D01*
X157109141Y-55818457D01*
X157109141Y-55941543D01*
X157133154Y-56062265D01*
X157180258Y-56175982D01*
X157248641Y-56278324D01*
X157335676Y-56365359D01*
X157438018Y-56433742D01*
X157551735Y-56480846D01*
X157672457Y-56504859D01*
X157795543Y-56504859D01*
X157916265Y-56480846D01*
X158029982Y-56433742D01*
X158132324Y-56365359D01*
X158142824Y-56354859D01*
X176692276Y-56354859D01*
X176702776Y-56365359D01*
X176805118Y-56433742D01*
X176918835Y-56480846D01*
X177039557Y-56504859D01*
X177162643Y-56504859D01*
X177283365Y-56480846D01*
X177397082Y-56433742D01*
X177499424Y-56365359D01*
X177586459Y-56278324D01*
X177654842Y-56175982D01*
X177701946Y-56062265D01*
X177725959Y-55941543D01*
X177725959Y-55818457D01*
X177701946Y-55697735D01*
X177654842Y-55584018D01*
X177586459Y-55481676D01*
X177499424Y-55394641D01*
X177397082Y-55326258D01*
X177283365Y-55279154D01*
X177162643Y-55255141D01*
X177039557Y-55255141D01*
X176918835Y-55279154D01*
X176805118Y-55326258D01*
X176702776Y-55394641D01*
X176692276Y-55405141D01*
X158142824Y-55405141D01*
X158132324Y-55394641D01*
X158029982Y-55326258D01*
X157916265Y-55279154D01*
X157795543Y-55255141D01*
X157672457Y-55255141D01*
X157551735Y-55279154D01*
X157438018Y-55326258D01*
X157335676Y-55394641D01*
X157248641Y-55481676D01*
X157180258Y-55584018D01*
X157133154Y-55697735D01*
X157109141Y-55818457D01*
X155019639Y-55818457D01*
X154989706Y-55762456D01*
X154873049Y-55620310D01*
X154730903Y-55503653D01*
X154568729Y-55416970D01*
X154392760Y-55363590D01*
X154255611Y-55350082D01*
X152746589Y-55350082D01*
X152609440Y-55363590D01*
X152433471Y-55416970D01*
X152271297Y-55503653D01*
X152129151Y-55620310D01*
X152100959Y-55654662D01*
X152100959Y-54440266D01*
X152225163Y-54547593D01*
X152392914Y-54642815D01*
X152576019Y-54703481D01*
X152767441Y-54727259D01*
X153476100Y-54727259D01*
X153476100Y-53768600D01*
X153526100Y-53768600D01*
X153526100Y-54727259D01*
X154234759Y-54727259D01*
X154426181Y-54703481D01*
X154609286Y-54642815D01*
X154777037Y-54547593D01*
X154922988Y-54421474D01*
X155041530Y-54269305D01*
X155128108Y-54096933D01*
X155177083Y-53922121D01*
X155124326Y-53768600D01*
X153526100Y-53768600D01*
X153476100Y-53768600D01*
X153456100Y-53768600D01*
X153456100Y-53718600D01*
X153476100Y-53718600D01*
X153476100Y-52759941D01*
X153526100Y-52759941D01*
X153526100Y-53718600D01*
X155124326Y-53718600D01*
X155177083Y-53565079D01*
X155128108Y-53390267D01*
X155041530Y-53217895D01*
X154922988Y-53065726D01*
X154777037Y-52939607D01*
X154609286Y-52844385D01*
X154426181Y-52783719D01*
X154234759Y-52759941D01*
X153526100Y-52759941D01*
X153476100Y-52759941D01*
X152767441Y-52759941D01*
X152576019Y-52783719D01*
X152392914Y-52844385D01*
X152225163Y-52939607D01*
X152100959Y-53046934D01*
X152100959Y-51832538D01*
X152129151Y-51866890D01*
X152271297Y-51983547D01*
X152433471Y-52070230D01*
X152609440Y-52123610D01*
X152746589Y-52137118D01*
X154255611Y-52137118D01*
X154392760Y-52123610D01*
X154568729Y-52070230D01*
X154730903Y-51983547D01*
X154873049Y-51866890D01*
X154989706Y-51724744D01*
X155076389Y-51562570D01*
X155129769Y-51386601D01*
X155147793Y-51203600D01*
X155129769Y-51020599D01*
X155076389Y-50844630D01*
X154989706Y-50682456D01*
X154873049Y-50540310D01*
X154730903Y-50423653D01*
X154568729Y-50336970D01*
X154420484Y-50292000D01*
X159131688Y-50292000D01*
X159143876Y-50415748D01*
X159179972Y-50534741D01*
X159238589Y-50644405D01*
X159297707Y-50716441D01*
X162530607Y-53949342D01*
X162550373Y-53973427D01*
X162646495Y-54052312D01*
X162756159Y-54110929D01*
X162875152Y-54147025D01*
X162967892Y-54156159D01*
X162967901Y-54156159D01*
X162998899Y-54159212D01*
X163029897Y-54156159D01*
X192632108Y-54156159D01*
X192724848Y-54147025D01*
X192843841Y-54110929D01*
X192953505Y-54052312D01*
X193049627Y-53973427D01*
X193128512Y-53877305D01*
X193187129Y-53767641D01*
X193223225Y-53648648D01*
X193235413Y-53524900D01*
X193223225Y-53401152D01*
X193187129Y-53282159D01*
X193128512Y-53172495D01*
X193049627Y-53076373D01*
X192953505Y-52997488D01*
X192843841Y-52938871D01*
X192724848Y-52902775D01*
X192632108Y-52893641D01*
X163260376Y-52893641D01*
X161289335Y-50922600D01*
X169817740Y-50922600D01*
X169817740Y-51532200D01*
X169839615Y-51704297D01*
X169894644Y-51868819D01*
X169980712Y-52019444D01*
X170094512Y-52150384D01*
X170231670Y-52256607D01*
X170386916Y-52334031D01*
X170539321Y-52376650D01*
X170677340Y-52322667D01*
X170677340Y-50922600D01*
X169817740Y-50922600D01*
X161289335Y-50922600D01*
X160629735Y-50263000D01*
X169817740Y-50263000D01*
X169817740Y-50872600D01*
X170677340Y-50872600D01*
X170677340Y-49472533D01*
X170539321Y-49418550D01*
X170386916Y-49461169D01*
X170231670Y-49538593D01*
X170094512Y-49644816D01*
X169980712Y-49775756D01*
X169894644Y-49926381D01*
X169839615Y-50090903D01*
X169817740Y-50263000D01*
X160629735Y-50263000D01*
X160190441Y-49823707D01*
X160118405Y-49764589D01*
X160008741Y-49705972D01*
X159889748Y-49669876D01*
X159766000Y-49657688D01*
X159642252Y-49669876D01*
X159523259Y-49705972D01*
X159413595Y-49764589D01*
X159317473Y-49843473D01*
X159238589Y-49939595D01*
X159179972Y-50049259D01*
X159143876Y-50168252D01*
X159131688Y-50292000D01*
X154420484Y-50292000D01*
X154392760Y-50283590D01*
X154255611Y-50270082D01*
X152746589Y-50270082D01*
X152609440Y-50283590D01*
X152433471Y-50336970D01*
X152271297Y-50423653D01*
X152129151Y-50540310D01*
X152100959Y-50574662D01*
X152100959Y-49427805D01*
X152169094Y-49359670D01*
X152271297Y-49443547D01*
X152433471Y-49530230D01*
X152609440Y-49583610D01*
X152746589Y-49597118D01*
X154255611Y-49597118D01*
X154392760Y-49583610D01*
X154568729Y-49530230D01*
X154730903Y-49443547D01*
X154873049Y-49326890D01*
X154989706Y-49184744D01*
X155018909Y-49130108D01*
X170667981Y-49130108D01*
X170680055Y-49252701D01*
X170727771Y-49409998D01*
X170755342Y-49461580D01*
X170727340Y-49472533D01*
X170727340Y-50872600D01*
X170747340Y-50872600D01*
X170747340Y-50922600D01*
X170727340Y-50922600D01*
X170727340Y-52322667D01*
X170865359Y-52376650D01*
X171017764Y-52334031D01*
X171173010Y-52256607D01*
X171310168Y-52150384D01*
X171423968Y-52019444D01*
X171510036Y-51868819D01*
X171524538Y-51825462D01*
X171525332Y-51828079D01*
X171602817Y-51973043D01*
X171707095Y-52100106D01*
X171834158Y-52204384D01*
X171979122Y-52281869D01*
X172136419Y-52329585D01*
X172300000Y-52345696D01*
X172463582Y-52329585D01*
X172620879Y-52281869D01*
X172765843Y-52204384D01*
X172892906Y-52100106D01*
X172997184Y-51973043D01*
X173074669Y-51828079D01*
X173098831Y-51748430D01*
X173122992Y-51828079D01*
X173200477Y-51973043D01*
X173304755Y-52100106D01*
X173431818Y-52204384D01*
X173576782Y-52281869D01*
X173734079Y-52329585D01*
X173897660Y-52345696D01*
X174061242Y-52329585D01*
X174218539Y-52281869D01*
X174363503Y-52204384D01*
X174490566Y-52100106D01*
X174594844Y-51973043D01*
X174672329Y-51828079D01*
X174720045Y-51670782D01*
X174732119Y-51548189D01*
X174732119Y-50919259D01*
X179097008Y-50919259D01*
X179121376Y-50916859D01*
X179131543Y-50916859D01*
X179141515Y-50914876D01*
X179189748Y-50910125D01*
X179236128Y-50896056D01*
X179252265Y-50892846D01*
X179267465Y-50886550D01*
X179308741Y-50874029D01*
X179346786Y-50853693D01*
X179365982Y-50845742D01*
X179383257Y-50834199D01*
X179418405Y-50815412D01*
X179449213Y-50790129D01*
X179468324Y-50777359D01*
X179484576Y-50761107D01*
X179514527Y-50736527D01*
X179539107Y-50706576D01*
X179555359Y-50690324D01*
X179568129Y-50671213D01*
X179593412Y-50640405D01*
X179612199Y-50605257D01*
X179623742Y-50587982D01*
X179631693Y-50568786D01*
X179652029Y-50530741D01*
X179664550Y-50489465D01*
X179670846Y-50474265D01*
X179674056Y-50458128D01*
X179688125Y-50411748D01*
X179692876Y-50363515D01*
X179694859Y-50353543D01*
X179694859Y-50343376D01*
X179700313Y-50288000D01*
X179694859Y-50232624D01*
X179694859Y-50230457D01*
X179694436Y-50228332D01*
X179688125Y-50164252D01*
X179652029Y-50045259D01*
X179593412Y-49935595D01*
X179514527Y-49839473D01*
X179418405Y-49760588D01*
X179308741Y-49701971D01*
X179189748Y-49665875D01*
X179097008Y-49656741D01*
X174443832Y-49656741D01*
X174363502Y-49590816D01*
X174218538Y-49513331D01*
X174061241Y-49465615D01*
X173897660Y-49449504D01*
X173848527Y-49454343D01*
X173872229Y-49409999D01*
X173919945Y-49252702D01*
X173932019Y-49130109D01*
X173932019Y-47828931D01*
X173919945Y-47706338D01*
X173872229Y-47549041D01*
X173794744Y-47404077D01*
X173690466Y-47277014D01*
X173563403Y-47172736D01*
X173418439Y-47095251D01*
X173261142Y-47047535D01*
X173097560Y-47031424D01*
X172933979Y-47047535D01*
X172776682Y-47095251D01*
X172631718Y-47172736D01*
X172504655Y-47277014D01*
X172400377Y-47404077D01*
X172322892Y-47549041D01*
X172300001Y-47624503D01*
X172277109Y-47549041D01*
X172199624Y-47404077D01*
X172095346Y-47277014D01*
X171968283Y-47172736D01*
X171823319Y-47095251D01*
X171666022Y-47047535D01*
X171502440Y-47031424D01*
X171338859Y-47047535D01*
X171181562Y-47095251D01*
X171036598Y-47172736D01*
X170909535Y-47277014D01*
X170805257Y-47404077D01*
X170727772Y-47549041D01*
X170680056Y-47706338D01*
X170667982Y-47828931D01*
X170667981Y-49130108D01*
X155018909Y-49130108D01*
X155076389Y-49022570D01*
X155129769Y-48846601D01*
X155147793Y-48663600D01*
X155129769Y-48480599D01*
X155076389Y-48304630D01*
X154989706Y-48142456D01*
X154873049Y-48000310D01*
X154730903Y-47883653D01*
X154568729Y-47796970D01*
X154392760Y-47743590D01*
X154255611Y-47730082D01*
X152746589Y-47730082D01*
X152609440Y-47743590D01*
X152433471Y-47796970D01*
X152271297Y-47883653D01*
X152129151Y-48000310D01*
X152012494Y-48142456D01*
X151925811Y-48304630D01*
X151872431Y-48480599D01*
X151854407Y-48663600D01*
X151868988Y-48811647D01*
X151599483Y-49081153D01*
X151588042Y-49090542D01*
X151555573Y-49130108D01*
X151550572Y-49136202D01*
X151522727Y-49188295D01*
X151505581Y-49244818D01*
X151499791Y-49303600D01*
X151501241Y-49318321D01*
X151501242Y-65805551D01*
X151313497Y-46123600D01*
X151854407Y-46123600D01*
X151872431Y-46306601D01*
X151925811Y-46482570D01*
X152012494Y-46644744D01*
X152129151Y-46786890D01*
X152271297Y-46903547D01*
X152433471Y-46990230D01*
X152609440Y-47043610D01*
X152746589Y-47057118D01*
X154255611Y-47057118D01*
X154392760Y-47043610D01*
X154568729Y-46990230D01*
X154730903Y-46903547D01*
X154873049Y-46786890D01*
X154989706Y-46644744D01*
X155076389Y-46482570D01*
X155129769Y-46306601D01*
X155147793Y-46123600D01*
X155129769Y-45940599D01*
X155076389Y-45764630D01*
X154989706Y-45602456D01*
X154873049Y-45460310D01*
X154730903Y-45343653D01*
X154568729Y-45256970D01*
X154392760Y-45203590D01*
X154255611Y-45190082D01*
X152746589Y-45190082D01*
X152609440Y-45203590D01*
X152433471Y-45256970D01*
X152271297Y-45343653D01*
X152129151Y-45460310D01*
X152012494Y-45602456D01*
X151925811Y-45764630D01*
X151872431Y-45940599D01*
X151854407Y-46123600D01*
X151313497Y-46123600D01*
X151284689Y-43103601D01*
X164003838Y-43103601D01*
X163817965Y-43140574D01*
M02*
