G04 #@! TF.GenerationSoftware,KiCad,Pcbnew,(5.1.6)-1*
G04 #@! TF.CreationDate,2021-03-08T10:10:15+01:00*
G04 #@! TF.ProjectId,P_sensor v10.0,505f7365-6e73-46f7-9220-7631302e302e,rev?*
G04 #@! TF.SameCoordinates,Original*
G04 #@! TF.FileFunction,Paste,Top*
G04 #@! TF.FilePolarity,Positive*
%FSLAX46Y46*%
G04 Gerber Fmt 4.6, Leading zero omitted, Abs format (unit mm)*
G04 Created by KiCad (PCBNEW (5.1.6)-1) date 2021-03-08 10:10:15*
%MOMM*%
%LPD*%
G01*
G04 APERTURE LIST*
%ADD10R,2.895600X2.895600*%
%ADD11O,1.219200X2.438400*%
%ADD12R,1.060000X0.650000*%
%ADD13R,1.300000X1.600000*%
%ADD14R,1.600000X1.300000*%
%ADD15R,1.400000X1.000000*%
%ADD16R,1.100000X1.000000*%
%ADD17R,0.304800X1.244600*%
%ADD18R,1.500000X1.500000*%
%ADD19R,1.200000X0.600000*%
%ADD20R,1.000000X1.100000*%
%ADD21R,1.400000X2.700000*%
%ADD22R,1.500000X1.900000*%
%ADD23R,2.400000X2.400000*%
%ADD24R,1.270000X5.080000*%
%ADD25R,1.600000X5.080000*%
G04 APERTURE END LIST*
G36*
G01*
X161702000Y-73911750D02*
X161702000Y-74424250D01*
G75*
G02*
X161483250Y-74643000I-218750J0D01*
G01*
X161045750Y-74643000D01*
G75*
G02*
X160827000Y-74424250I0J218750D01*
G01*
X160827000Y-73911750D01*
G75*
G02*
X161045750Y-73693000I218750J0D01*
G01*
X161483250Y-73693000D01*
G75*
G02*
X161702000Y-73911750I0J-218750D01*
G01*
G37*
G36*
G01*
X163277000Y-73911750D02*
X163277000Y-74424250D01*
G75*
G02*
X163058250Y-74643000I-218750J0D01*
G01*
X162620750Y-74643000D01*
G75*
G02*
X162402000Y-74424250I0J218750D01*
G01*
X162402000Y-73911750D01*
G75*
G02*
X162620750Y-73693000I218750J0D01*
G01*
X163058250Y-73693000D01*
G75*
G02*
X163277000Y-73911750I0J-218750D01*
G01*
G37*
G36*
G01*
X163226000Y-72343750D02*
X163226000Y-72856250D01*
G75*
G02*
X163007250Y-73075000I-218750J0D01*
G01*
X162569750Y-73075000D01*
G75*
G02*
X162351000Y-72856250I0J218750D01*
G01*
X162351000Y-72343750D01*
G75*
G02*
X162569750Y-72125000I218750J0D01*
G01*
X163007250Y-72125000D01*
G75*
G02*
X163226000Y-72343750I0J-218750D01*
G01*
G37*
G36*
G01*
X164801000Y-72343750D02*
X164801000Y-72856250D01*
G75*
G02*
X164582250Y-73075000I-218750J0D01*
G01*
X164144750Y-73075000D01*
G75*
G02*
X163926000Y-72856250I0J218750D01*
G01*
X163926000Y-72343750D01*
G75*
G02*
X164144750Y-72125000I218750J0D01*
G01*
X164582250Y-72125000D01*
G75*
G02*
X164801000Y-72343750I0J-218750D01*
G01*
G37*
G36*
G01*
X168306000Y-72641750D02*
X168306000Y-73154250D01*
G75*
G02*
X168087250Y-73373000I-218750J0D01*
G01*
X167649750Y-73373000D01*
G75*
G02*
X167431000Y-73154250I0J218750D01*
G01*
X167431000Y-72641750D01*
G75*
G02*
X167649750Y-72423000I218750J0D01*
G01*
X168087250Y-72423000D01*
G75*
G02*
X168306000Y-72641750I0J-218750D01*
G01*
G37*
G36*
G01*
X169881000Y-72641750D02*
X169881000Y-73154250D01*
G75*
G02*
X169662250Y-73373000I-218750J0D01*
G01*
X169224750Y-73373000D01*
G75*
G02*
X169006000Y-73154250I0J218750D01*
G01*
X169006000Y-72641750D01*
G75*
G02*
X169224750Y-72423000I218750J0D01*
G01*
X169662250Y-72423000D01*
G75*
G02*
X169881000Y-72641750I0J-218750D01*
G01*
G37*
D10*
X175749320Y-45238480D03*
X168850680Y-45238480D03*
D11*
X170702340Y-50897600D03*
X171502440Y-48479520D03*
X172300000Y-50897600D03*
X173097560Y-48479520D03*
X173897660Y-50897600D03*
D12*
X180256000Y-48448000D03*
X180256000Y-46548000D03*
X182456000Y-46548000D03*
X182456000Y-47498000D03*
X182456000Y-48448000D03*
G36*
G01*
X181452000Y-50294250D02*
X181452000Y-49781750D01*
G75*
G02*
X181670750Y-49563000I218750J0D01*
G01*
X182108250Y-49563000D01*
G75*
G02*
X182327000Y-49781750I0J-218750D01*
G01*
X182327000Y-50294250D01*
G75*
G02*
X182108250Y-50513000I-218750J0D01*
G01*
X181670750Y-50513000D01*
G75*
G02*
X181452000Y-50294250I0J218750D01*
G01*
G37*
G36*
G01*
X179877000Y-50294250D02*
X179877000Y-49781750D01*
G75*
G02*
X180095750Y-49563000I218750J0D01*
G01*
X180533250Y-49563000D01*
G75*
G02*
X180752000Y-49781750I0J-218750D01*
G01*
X180752000Y-50294250D01*
G75*
G02*
X180533250Y-50513000I-218750J0D01*
G01*
X180095750Y-50513000D01*
G75*
G02*
X179877000Y-50294250I0J218750D01*
G01*
G37*
G36*
G01*
X181452000Y-44960250D02*
X181452000Y-44447750D01*
G75*
G02*
X181670750Y-44229000I218750J0D01*
G01*
X182108250Y-44229000D01*
G75*
G02*
X182327000Y-44447750I0J-218750D01*
G01*
X182327000Y-44960250D01*
G75*
G02*
X182108250Y-45179000I-218750J0D01*
G01*
X181670750Y-45179000D01*
G75*
G02*
X181452000Y-44960250I0J218750D01*
G01*
G37*
G36*
G01*
X179877000Y-44960250D02*
X179877000Y-44447750D01*
G75*
G02*
X180095750Y-44229000I218750J0D01*
G01*
X180533250Y-44229000D01*
G75*
G02*
X180752000Y-44447750I0J-218750D01*
G01*
X180752000Y-44960250D01*
G75*
G02*
X180533250Y-45179000I-218750J0D01*
G01*
X180095750Y-45179000D01*
G75*
G02*
X179877000Y-44960250I0J218750D01*
G01*
G37*
D13*
X183581100Y-90603600D03*
X181681100Y-90603600D03*
D14*
X157734000Y-46040000D03*
X157734000Y-47940000D03*
D13*
X160821100Y-94903600D03*
X158921100Y-94903600D03*
X185861100Y-90653600D03*
X187761100Y-90653600D03*
D15*
X159936000Y-45024000D03*
X159936000Y-46924000D03*
X162136000Y-45974000D03*
X162881100Y-94913600D03*
X162881100Y-96813600D03*
X165081100Y-95863600D03*
D13*
X191861100Y-82253600D03*
X189961100Y-82253600D03*
D14*
X190651100Y-80083600D03*
X190651100Y-78183600D03*
D16*
X179741100Y-72503600D03*
X178041100Y-72503600D03*
X179901100Y-79753600D03*
X178201100Y-79753600D03*
D17*
X188617300Y-80854300D03*
X187967300Y-80854300D03*
X187317300Y-80854300D03*
X186667300Y-80854300D03*
X186017300Y-80854300D03*
X185367300Y-80854300D03*
X184717300Y-80854300D03*
X184067300Y-80854300D03*
X183417300Y-80854300D03*
X182767300Y-80854300D03*
X188614900Y-73972900D03*
X187964900Y-73972900D03*
X187314900Y-73972900D03*
X186664900Y-73972900D03*
X182764900Y-73972900D03*
X183414900Y-73972900D03*
X184064900Y-73972900D03*
X184714900Y-73972900D03*
X186016400Y-73973400D03*
X185364900Y-73972900D03*
D16*
X185371100Y-72153600D03*
X183671100Y-72153600D03*
X162651100Y-49653600D03*
X164351100Y-49653600D03*
D18*
X188271100Y-88163600D03*
X188271100Y-84663600D03*
D19*
X184351100Y-96263600D03*
X184351100Y-94363600D03*
X186651100Y-96263600D03*
X186651100Y-94363600D03*
X186651100Y-95313600D03*
D16*
X186051100Y-92753600D03*
X187751100Y-92753600D03*
D20*
X181451100Y-73493600D03*
X181451100Y-71793600D03*
D21*
X156281100Y-80133600D03*
X156281100Y-92633600D03*
X163901100Y-80133600D03*
X163901100Y-92633600D03*
X175911100Y-92653600D03*
X175911100Y-80153600D03*
X168291100Y-92653600D03*
X168291100Y-80153600D03*
D22*
X179651100Y-77699600D03*
X179581100Y-74497600D03*
X174053100Y-77739600D03*
X174023100Y-74507600D03*
D23*
X180701100Y-100103600D03*
X180701100Y-95103600D03*
D24*
X166898100Y-54045600D03*
X164398100Y-54045600D03*
X161858100Y-54045600D03*
X159318100Y-54045600D03*
D25*
X184615740Y-54035375D03*
X187308100Y-54045600D03*
D18*
X181301100Y-88153600D03*
X181301100Y-84653600D03*
M02*
