G04 #@! TF.GenerationSoftware,KiCad,Pcbnew,(5.1.6)-1*
G04 #@! TF.CreationDate,2021-03-08T10:10:15+01:00*
G04 #@! TF.ProjectId,P_sensor v10.0,505f7365-6e73-46f7-9220-7631302e302e,rev?*
G04 #@! TF.SameCoordinates,Original*
G04 #@! TF.FileFunction,Copper,L1,Top*
G04 #@! TF.FilePolarity,Positive*
%FSLAX46Y46*%
G04 Gerber Fmt 4.6, Leading zero omitted, Abs format (unit mm)*
G04 Created by KiCad (PCBNEW (5.1.6)-1) date 2021-03-08 10:10:15*
%MOMM*%
%LPD*%
G01*
G04 APERTURE LIST*
G04 #@! TA.AperFunction,EtchedComponent*
%ADD10C,0.500000*%
G04 #@! TD*
G04 #@! TA.AperFunction,EtchedComponent*
%ADD11C,0.150000*%
G04 #@! TD*
G04 #@! TA.AperFunction,ComponentPad*
%ADD12R,2.895600X2.895600*%
G04 #@! TD*
G04 #@! TA.AperFunction,ComponentPad*
%ADD13O,1.219200X2.438400*%
G04 #@! TD*
G04 #@! TA.AperFunction,SMDPad,CuDef*
%ADD14R,1.060000X0.650000*%
G04 #@! TD*
G04 #@! TA.AperFunction,SMDPad,CuDef*
%ADD15R,1.300000X1.600000*%
G04 #@! TD*
G04 #@! TA.AperFunction,SMDPad,CuDef*
%ADD16R,1.600000X1.300000*%
G04 #@! TD*
G04 #@! TA.AperFunction,SMDPad,CuDef*
%ADD17R,1.400000X1.000000*%
G04 #@! TD*
G04 #@! TA.AperFunction,SMDPad,CuDef*
%ADD18R,1.100000X1.000000*%
G04 #@! TD*
G04 #@! TA.AperFunction,SMDPad,CuDef*
%ADD19R,0.304800X1.244600*%
G04 #@! TD*
G04 #@! TA.AperFunction,SMDPad,CuDef*
%ADD20R,1.500000X1.500000*%
G04 #@! TD*
G04 #@! TA.AperFunction,ComponentPad*
%ADD21O,2.834636X1.417318*%
G04 #@! TD*
G04 #@! TA.AperFunction,SMDPad,CuDef*
%ADD22R,1.200000X0.600000*%
G04 #@! TD*
G04 #@! TA.AperFunction,SMDPad,CuDef*
%ADD23R,1.000000X1.100000*%
G04 #@! TD*
G04 #@! TA.AperFunction,SMDPad,CuDef*
%ADD24R,1.400000X2.700000*%
G04 #@! TD*
G04 #@! TA.AperFunction,ComponentPad*
%ADD25C,1.417318*%
G04 #@! TD*
G04 #@! TA.AperFunction,SMDPad,CuDef*
%ADD26R,1.500000X1.900000*%
G04 #@! TD*
G04 #@! TA.AperFunction,SMDPad,CuDef*
%ADD27R,2.400000X2.400000*%
G04 #@! TD*
G04 #@! TA.AperFunction,SMDPad,CuDef*
%ADD28R,1.270000X5.080000*%
G04 #@! TD*
G04 #@! TA.AperFunction,SMDPad,CuDef*
%ADD29R,1.600000X5.080000*%
G04 #@! TD*
G04 #@! TA.AperFunction,ViaPad*
%ADD30C,0.800000*%
G04 #@! TD*
G04 #@! TA.AperFunction,ViaPad*
%ADD31C,0.651318*%
G04 #@! TD*
G04 #@! TA.AperFunction,ViaPad*
%ADD32C,0.751318*%
G04 #@! TD*
G04 #@! TA.AperFunction,Conductor*
%ADD33C,0.250000*%
G04 #@! TD*
G04 #@! TA.AperFunction,Conductor*
%ADD34C,0.812800*%
G04 #@! TD*
G04 #@! TA.AperFunction,Conductor*
%ADD35C,0.150000*%
G04 #@! TD*
G04 #@! TA.AperFunction,Conductor*
%ADD36C,0.500000*%
G04 #@! TD*
G04 #@! TA.AperFunction,Conductor*
%ADD37C,0.609600*%
G04 #@! TD*
G04 #@! TA.AperFunction,Conductor*
%ADD38C,0.254000*%
G04 #@! TD*
G04 APERTURE END LIST*
D10*
X185351100Y-103103600D02*
G75*
G03*
X185351100Y-103103600I-250000J0D01*
G01*
D11*
X186101100Y-103103600D02*
G75*
G03*
X186101100Y-103103600I-1000000J0D01*
G01*
D10*
X164451100Y-44403600D02*
G75*
G03*
X164451100Y-44403600I-250000J0D01*
G01*
D11*
X165201100Y-44403600D02*
G75*
G03*
X165201100Y-44403600I-1000000J0D01*
G01*
D10*
X191951100Y-44603600D02*
G75*
G03*
X191951100Y-44603600I-250000J0D01*
G01*
D11*
X192701100Y-44603600D02*
G75*
G03*
X192701100Y-44603600I-1000000J0D01*
G01*
G04 #@! TA.AperFunction,SMDPad,CuDef*
G36*
G01*
X161702000Y-73911750D02*
X161702000Y-74424250D01*
G75*
G02*
X161483250Y-74643000I-218750J0D01*
G01*
X161045750Y-74643000D01*
G75*
G02*
X160827000Y-74424250I0J218750D01*
G01*
X160827000Y-73911750D01*
G75*
G02*
X161045750Y-73693000I218750J0D01*
G01*
X161483250Y-73693000D01*
G75*
G02*
X161702000Y-73911750I0J-218750D01*
G01*
G37*
G04 #@! TD.AperFunction*
G04 #@! TA.AperFunction,SMDPad,CuDef*
G36*
G01*
X163277000Y-73911750D02*
X163277000Y-74424250D01*
G75*
G02*
X163058250Y-74643000I-218750J0D01*
G01*
X162620750Y-74643000D01*
G75*
G02*
X162402000Y-74424250I0J218750D01*
G01*
X162402000Y-73911750D01*
G75*
G02*
X162620750Y-73693000I218750J0D01*
G01*
X163058250Y-73693000D01*
G75*
G02*
X163277000Y-73911750I0J-218750D01*
G01*
G37*
G04 #@! TD.AperFunction*
G04 #@! TA.AperFunction,SMDPad,CuDef*
G36*
G01*
X163226000Y-72343750D02*
X163226000Y-72856250D01*
G75*
G02*
X163007250Y-73075000I-218750J0D01*
G01*
X162569750Y-73075000D01*
G75*
G02*
X162351000Y-72856250I0J218750D01*
G01*
X162351000Y-72343750D01*
G75*
G02*
X162569750Y-72125000I218750J0D01*
G01*
X163007250Y-72125000D01*
G75*
G02*
X163226000Y-72343750I0J-218750D01*
G01*
G37*
G04 #@! TD.AperFunction*
G04 #@! TA.AperFunction,SMDPad,CuDef*
G36*
G01*
X164801000Y-72343750D02*
X164801000Y-72856250D01*
G75*
G02*
X164582250Y-73075000I-218750J0D01*
G01*
X164144750Y-73075000D01*
G75*
G02*
X163926000Y-72856250I0J218750D01*
G01*
X163926000Y-72343750D01*
G75*
G02*
X164144750Y-72125000I218750J0D01*
G01*
X164582250Y-72125000D01*
G75*
G02*
X164801000Y-72343750I0J-218750D01*
G01*
G37*
G04 #@! TD.AperFunction*
G04 #@! TA.AperFunction,SMDPad,CuDef*
G36*
G01*
X168306000Y-72641750D02*
X168306000Y-73154250D01*
G75*
G02*
X168087250Y-73373000I-218750J0D01*
G01*
X167649750Y-73373000D01*
G75*
G02*
X167431000Y-73154250I0J218750D01*
G01*
X167431000Y-72641750D01*
G75*
G02*
X167649750Y-72423000I218750J0D01*
G01*
X168087250Y-72423000D01*
G75*
G02*
X168306000Y-72641750I0J-218750D01*
G01*
G37*
G04 #@! TD.AperFunction*
G04 #@! TA.AperFunction,SMDPad,CuDef*
G36*
G01*
X169881000Y-72641750D02*
X169881000Y-73154250D01*
G75*
G02*
X169662250Y-73373000I-218750J0D01*
G01*
X169224750Y-73373000D01*
G75*
G02*
X169006000Y-73154250I0J218750D01*
G01*
X169006000Y-72641750D01*
G75*
G02*
X169224750Y-72423000I218750J0D01*
G01*
X169662250Y-72423000D01*
G75*
G02*
X169881000Y-72641750I0J-218750D01*
G01*
G37*
G04 #@! TD.AperFunction*
D12*
X175749320Y-45238480D03*
X168850680Y-45238480D03*
D13*
X170702340Y-50897600D03*
X171502440Y-48479520D03*
X172300000Y-50897600D03*
X173097560Y-48479520D03*
X173897660Y-50897600D03*
D14*
X180256000Y-48448000D03*
X180256000Y-46548000D03*
X182456000Y-46548000D03*
X182456000Y-47498000D03*
X182456000Y-48448000D03*
G04 #@! TA.AperFunction,SMDPad,CuDef*
G36*
G01*
X181452000Y-50294250D02*
X181452000Y-49781750D01*
G75*
G02*
X181670750Y-49563000I218750J0D01*
G01*
X182108250Y-49563000D01*
G75*
G02*
X182327000Y-49781750I0J-218750D01*
G01*
X182327000Y-50294250D01*
G75*
G02*
X182108250Y-50513000I-218750J0D01*
G01*
X181670750Y-50513000D01*
G75*
G02*
X181452000Y-50294250I0J218750D01*
G01*
G37*
G04 #@! TD.AperFunction*
G04 #@! TA.AperFunction,SMDPad,CuDef*
G36*
G01*
X179877000Y-50294250D02*
X179877000Y-49781750D01*
G75*
G02*
X180095750Y-49563000I218750J0D01*
G01*
X180533250Y-49563000D01*
G75*
G02*
X180752000Y-49781750I0J-218750D01*
G01*
X180752000Y-50294250D01*
G75*
G02*
X180533250Y-50513000I-218750J0D01*
G01*
X180095750Y-50513000D01*
G75*
G02*
X179877000Y-50294250I0J218750D01*
G01*
G37*
G04 #@! TD.AperFunction*
G04 #@! TA.AperFunction,SMDPad,CuDef*
G36*
G01*
X181452000Y-44960250D02*
X181452000Y-44447750D01*
G75*
G02*
X181670750Y-44229000I218750J0D01*
G01*
X182108250Y-44229000D01*
G75*
G02*
X182327000Y-44447750I0J-218750D01*
G01*
X182327000Y-44960250D01*
G75*
G02*
X182108250Y-45179000I-218750J0D01*
G01*
X181670750Y-45179000D01*
G75*
G02*
X181452000Y-44960250I0J218750D01*
G01*
G37*
G04 #@! TD.AperFunction*
G04 #@! TA.AperFunction,SMDPad,CuDef*
G36*
G01*
X179877000Y-44960250D02*
X179877000Y-44447750D01*
G75*
G02*
X180095750Y-44229000I218750J0D01*
G01*
X180533250Y-44229000D01*
G75*
G02*
X180752000Y-44447750I0J-218750D01*
G01*
X180752000Y-44960250D01*
G75*
G02*
X180533250Y-45179000I-218750J0D01*
G01*
X180095750Y-45179000D01*
G75*
G02*
X179877000Y-44960250I0J218750D01*
G01*
G37*
G04 #@! TD.AperFunction*
D15*
X183581100Y-90603600D03*
X181681100Y-90603600D03*
D16*
X157734000Y-46040000D03*
X157734000Y-47940000D03*
D15*
X160821100Y-94903600D03*
X158921100Y-94903600D03*
X185861100Y-90653600D03*
X187761100Y-90653600D03*
D17*
X159936000Y-45024000D03*
X159936000Y-46924000D03*
X162136000Y-45974000D03*
X162881100Y-94913600D03*
X162881100Y-96813600D03*
X165081100Y-95863600D03*
D15*
X191861100Y-82253600D03*
X189961100Y-82253600D03*
D16*
X190651100Y-80083600D03*
X190651100Y-78183600D03*
D18*
X179741100Y-72503600D03*
X178041100Y-72503600D03*
X179901100Y-79753600D03*
X178201100Y-79753600D03*
D19*
X188617300Y-80854300D03*
X187967300Y-80854300D03*
X187317300Y-80854300D03*
X186667300Y-80854300D03*
X186017300Y-80854300D03*
X185367300Y-80854300D03*
X184717300Y-80854300D03*
X184067300Y-80854300D03*
X183417300Y-80854300D03*
X182767300Y-80854300D03*
X188614900Y-73972900D03*
X187964900Y-73972900D03*
X187314900Y-73972900D03*
X186664900Y-73972900D03*
X182764900Y-73972900D03*
X183414900Y-73972900D03*
X184064900Y-73972900D03*
X184714900Y-73972900D03*
X186016400Y-73973400D03*
X185364900Y-73972900D03*
D18*
X185371100Y-72153600D03*
X183671100Y-72153600D03*
X162651100Y-49653600D03*
X164351100Y-49653600D03*
D20*
X188271100Y-88163600D03*
X188271100Y-84663600D03*
D21*
X190001100Y-100583600D03*
X190001100Y-103123600D03*
D22*
X184351100Y-96263600D03*
X184351100Y-94363600D03*
X186651100Y-96263600D03*
X186651100Y-94363600D03*
X186651100Y-95313600D03*
D18*
X186051100Y-92753600D03*
X187751100Y-92753600D03*
D23*
X181451100Y-73493600D03*
X181451100Y-71793600D03*
D24*
X156281100Y-80133600D03*
X156281100Y-92633600D03*
X163901100Y-80133600D03*
X163901100Y-92633600D03*
X175911100Y-92653600D03*
X175911100Y-80153600D03*
X168291100Y-92653600D03*
X168291100Y-80153600D03*
D25*
X176131100Y-96023600D03*
X173591100Y-96023600D03*
X171051100Y-96023600D03*
X168511100Y-96023600D03*
X176131100Y-103903600D03*
X173591100Y-103903600D03*
X171051100Y-103903600D03*
X168511100Y-103903600D03*
D26*
X179651100Y-77699600D03*
X179581100Y-74497600D03*
X174053100Y-77739600D03*
X174023100Y-74507600D03*
D27*
X180701100Y-100103600D03*
X180701100Y-95103600D03*
D21*
X153501100Y-46123600D03*
X153501100Y-48663600D03*
X153501100Y-51203600D03*
X153501100Y-53743600D03*
X153501100Y-56283600D03*
D28*
X166898100Y-54045600D03*
X164398100Y-54045600D03*
X161858100Y-54045600D03*
X159318100Y-54045600D03*
D29*
X184615740Y-54035375D03*
X187308100Y-54045600D03*
D20*
X181301100Y-88153600D03*
X181301100Y-84653600D03*
D30*
X159766000Y-50292000D03*
X192601100Y-53524900D03*
D31*
X177801100Y-78403600D03*
X188601100Y-78403600D03*
X184101100Y-78403600D03*
X169301100Y-78403600D03*
X153501100Y-78403600D03*
X162701100Y-78403600D03*
X168401100Y-94503600D03*
X178601100Y-94503600D03*
X184601100Y-79603600D03*
X177101100Y-79603600D03*
D30*
X177101100Y-55880000D03*
X157734000Y-55880000D03*
D31*
X186601100Y-75903600D03*
X159401100Y-75903600D03*
X180901100Y-75203600D03*
X155201100Y-76903600D03*
X178401100Y-77003600D03*
X171001100Y-81903600D03*
X186701100Y-82303600D03*
X186001100Y-83203600D03*
X160401100Y-83203600D03*
X185401100Y-82503600D03*
X151801100Y-82503600D03*
X188001100Y-72403600D03*
X172101100Y-72403600D03*
X172101100Y-97503600D03*
X187301100Y-70803600D03*
X166901100Y-70803600D03*
X176401100Y-77803600D03*
X184701100Y-77803600D03*
X185301100Y-79003600D03*
X157501100Y-79003600D03*
X182601100Y-100103600D03*
X188701100Y-83403600D03*
X181801100Y-74603600D03*
X186401100Y-71803600D03*
X190801100Y-77003600D03*
X184801100Y-92703600D03*
D32*
X185401100Y-95303600D03*
D31*
X182201100Y-85903600D03*
D30*
X183388000Y-45212000D03*
X183896000Y-47498000D03*
X185674000Y-50038000D03*
X161798000Y-48006000D03*
X161290000Y-72898000D03*
X179070000Y-50292000D03*
X165608000Y-72644000D03*
X170942000Y-72644000D03*
X188614900Y-71481100D03*
X167894000Y-71428459D03*
X187600000Y-82200000D03*
X161798000Y-81026000D03*
D33*
X159736000Y-45024000D02*
X158786000Y-45974000D01*
X159936000Y-45024000D02*
X159736000Y-45024000D01*
X158784000Y-46040000D02*
X157734000Y-46040000D01*
X158786000Y-46038000D02*
X158784000Y-46040000D01*
X158786000Y-45974000D02*
X158786000Y-46038000D01*
D34*
X192601100Y-90703600D02*
X192601100Y-82403600D01*
X187901100Y-102203600D02*
X188301100Y-102603600D01*
X188301100Y-102603600D02*
X189481100Y-102603600D01*
X189481100Y-102603600D02*
X190001100Y-103123600D01*
X187901100Y-92803600D02*
X187901100Y-94303600D01*
X187901100Y-94303600D02*
X187901100Y-96303600D01*
X187901100Y-96303600D02*
X187901100Y-102203600D01*
D35*
X191861100Y-82253600D02*
X192011100Y-82403600D01*
X192011100Y-82403600D02*
X192601100Y-82403600D01*
D34*
X192601100Y-90703600D02*
X190551100Y-92753600D01*
X190551100Y-92753600D02*
X187751100Y-92753600D01*
X186491100Y-96303600D02*
X186601100Y-96303600D01*
X186601100Y-96303600D02*
X187901100Y-96303600D01*
D35*
X186651100Y-96263600D02*
X186611100Y-96303600D01*
X186611100Y-96303600D02*
X186601100Y-96303600D01*
X187901100Y-92803600D02*
X187851100Y-92753600D01*
X187851100Y-92753600D02*
X187751100Y-92753600D01*
D34*
X186511100Y-94303600D02*
X187901100Y-94303600D01*
D35*
X186651100Y-94363600D02*
X186591100Y-94303600D01*
X186591100Y-94303600D02*
X186511100Y-94303600D01*
X186511100Y-94303600D02*
X186501100Y-94303600D01*
X186511100Y-94303600D02*
X186571100Y-94363600D01*
X186571100Y-94363600D02*
X186651100Y-94363600D01*
D34*
X192601100Y-47567100D02*
X191770000Y-46736000D01*
X192601100Y-48952900D02*
X192601100Y-47567100D01*
X160020000Y-47008000D02*
X159936000Y-46924000D01*
D36*
X191582000Y-46548000D02*
X191770000Y-46736000D01*
X182456000Y-46548000D02*
X191582000Y-46548000D01*
D34*
X159936000Y-50122000D02*
X159766000Y-50292000D01*
X159936000Y-46924000D02*
X159936000Y-50122000D01*
X192601100Y-52508900D02*
X192601100Y-48952900D01*
X192601100Y-53524900D02*
X192601100Y-52508900D01*
X192601100Y-82403600D02*
X192601100Y-53524900D01*
D37*
X164398100Y-54045600D02*
X164398100Y-49806600D01*
X164398100Y-49806600D02*
X164401100Y-49803600D01*
X164401100Y-49803600D02*
X164401100Y-49703600D01*
X164401100Y-49703600D02*
X164351100Y-49653600D01*
D36*
X163576000Y-45974000D02*
X162136000Y-45974000D01*
X164351100Y-46749100D02*
X163576000Y-45974000D01*
X164351100Y-49653600D02*
X164351100Y-46749100D01*
D35*
X160821100Y-94903600D02*
X162871100Y-94903600D01*
X162871100Y-94903600D02*
X162881100Y-94913600D01*
X178101100Y-72563600D02*
X178041100Y-72503600D01*
X162881100Y-96813600D02*
X163491100Y-96813600D01*
X163491100Y-96813600D02*
X164001100Y-96303600D01*
X164001100Y-96303600D02*
X164001100Y-92733600D01*
X164001100Y-92733600D02*
X163901100Y-92633600D01*
X168291100Y-92653600D02*
X168291100Y-80153600D01*
X180701100Y-95103600D02*
X180701100Y-95503600D01*
X184101100Y-74003600D02*
X184070400Y-73972900D01*
X184070400Y-73972900D02*
X184064900Y-73972900D01*
X184101100Y-78403600D02*
X184101100Y-74003600D01*
X168291100Y-80153600D02*
X168901100Y-79543600D01*
X168901100Y-79543600D02*
X168901100Y-78903600D01*
X168901100Y-78903600D02*
X169301100Y-78503600D01*
X169301100Y-78503600D02*
X169301100Y-78403600D01*
X163851100Y-80153600D02*
X163801100Y-80103600D01*
X153501100Y-56283600D02*
X153501100Y-78403600D01*
X178201100Y-79753600D02*
X177801100Y-79353600D01*
X177801100Y-79353600D02*
X177801100Y-78403600D01*
X177801100Y-78403600D02*
X177801100Y-72743600D01*
X177801100Y-72743600D02*
X178041100Y-72503600D01*
X181451100Y-71793600D02*
X183311100Y-71793600D01*
X183311100Y-71793600D02*
X183671100Y-72153600D01*
X184064900Y-73972900D02*
X184064900Y-72547400D01*
X184064900Y-72547400D02*
X183671100Y-72153600D01*
X163851100Y-80153600D02*
X163851100Y-80103600D01*
X163851100Y-80103600D02*
X163851100Y-79553600D01*
X163851100Y-79553600D02*
X162701100Y-78403600D01*
X163901100Y-80133600D02*
X163881100Y-80133600D01*
X163881100Y-80133600D02*
X163851100Y-80103600D01*
X188617300Y-80854300D02*
X188601100Y-80838100D01*
X188601100Y-80838100D02*
X188601100Y-78403600D01*
X184351100Y-96263600D02*
X184191100Y-96103600D01*
X184191100Y-96103600D02*
X181101100Y-96103600D01*
X181101100Y-96103600D02*
X180601100Y-95603600D01*
X180601100Y-95603600D02*
X180601100Y-95103600D01*
X180601100Y-95103600D02*
X180701100Y-95103600D01*
X164001100Y-92733600D02*
X164081100Y-92653600D01*
X164081100Y-92653600D02*
X168291100Y-92653600D01*
X168291100Y-92653600D02*
X168401100Y-92763600D01*
X168401100Y-92763600D02*
X168401100Y-94503600D01*
X178601100Y-94503600D02*
X180601100Y-94503600D01*
X180601100Y-94503600D02*
X180601100Y-95103600D01*
X169301100Y-73040400D02*
X169443500Y-72898000D01*
X169301100Y-78403600D02*
X169301100Y-73040400D01*
X168511100Y-96023600D02*
X168351100Y-95863600D01*
X168351100Y-95863600D02*
X165081100Y-95863600D01*
X184717300Y-80854300D02*
X184717300Y-79719800D01*
X184717300Y-79719800D02*
X184601100Y-79603600D01*
D33*
X157226000Y-48448000D02*
X157734000Y-47940000D01*
D36*
X157734000Y-47940000D02*
X157734000Y-55880000D01*
D35*
X177101100Y-55880000D02*
X177101100Y-79603600D01*
X186601100Y-75903600D02*
X186601100Y-73909100D01*
X186601100Y-73909100D02*
X186664900Y-73972900D01*
X159401100Y-94423600D02*
X159401100Y-75903600D01*
X159401100Y-94423600D02*
X158921100Y-94903600D01*
X187967300Y-80854300D02*
X188001100Y-80888100D01*
X188001100Y-80888100D02*
X188001100Y-81503600D01*
X188001100Y-81503600D02*
X188201100Y-81703600D01*
X188201100Y-81703600D02*
X190001100Y-81703600D01*
X190001100Y-81703600D02*
X189901100Y-81803600D01*
X189901100Y-81803600D02*
X189901100Y-82203600D01*
X189961100Y-82253600D02*
X189911100Y-82203600D01*
X189911100Y-82203600D02*
X189901100Y-82203600D01*
X189961100Y-82253600D02*
X190301100Y-81913600D01*
X190301100Y-81913600D02*
X190301100Y-80603600D01*
X190301100Y-80603600D02*
X190651100Y-80253600D01*
X190651100Y-80253600D02*
X190651100Y-80083600D01*
X179741100Y-74337600D02*
X179741100Y-72503600D01*
X179581100Y-74497600D02*
X179741100Y-74337600D01*
X183414900Y-73972900D02*
X183401100Y-73986700D01*
X183401100Y-73986700D02*
X183401100Y-74903600D01*
X183401100Y-74903600D02*
X183101100Y-75203600D01*
X183101100Y-75203600D02*
X180901100Y-75203600D01*
X180901100Y-75203600D02*
X180001100Y-75203600D01*
X180001100Y-75203600D02*
X179601100Y-74803600D01*
X179601100Y-74803600D02*
X179601100Y-74403600D01*
X179601100Y-74403600D02*
X179581100Y-74423600D01*
X179581100Y-74423600D02*
X179581100Y-74497600D01*
X180001100Y-75203600D02*
X179601100Y-75203600D01*
X179801100Y-77849600D02*
X179651100Y-77699600D01*
X182767300Y-80854300D02*
X182701100Y-80788100D01*
X182701100Y-80788100D02*
X182701100Y-80303600D01*
X182701100Y-80303600D02*
X182501100Y-80103600D01*
X182501100Y-80103600D02*
X180001100Y-80103600D01*
X180001100Y-80103600D02*
X179701100Y-79803600D01*
X179701100Y-79803600D02*
X179851100Y-79803600D01*
X154301100Y-46103600D02*
X155201100Y-47003600D01*
X155201100Y-47003600D02*
X155201100Y-76903600D01*
X154301100Y-46103600D02*
X153501100Y-46103600D01*
X153401100Y-46103600D02*
X153501100Y-46103600D01*
X153501100Y-46103600D02*
X153501100Y-46123600D01*
X178401100Y-77003600D02*
X178955100Y-77003600D01*
X178955100Y-77003600D02*
X179651100Y-77699600D01*
X179801100Y-77849600D02*
X179801100Y-79653600D01*
X179801100Y-79653600D02*
X179901100Y-79753600D01*
X179851100Y-79803600D02*
X179901100Y-79753600D01*
X171001100Y-95973600D02*
X171001100Y-81903600D01*
X171051100Y-96023600D02*
X171001100Y-95973600D01*
X186667300Y-80854300D02*
X186667300Y-82269800D01*
X186667300Y-82269800D02*
X186701100Y-82303600D01*
X186017300Y-80854300D02*
X186001100Y-80870500D01*
X186001100Y-80870500D02*
X186001100Y-83203600D01*
X159318100Y-54045600D02*
X159318100Y-74620600D01*
X159318100Y-74620600D02*
X160401100Y-75703600D01*
X160401100Y-75703600D02*
X160401100Y-83203600D01*
X185367300Y-80854300D02*
X185401100Y-80888100D01*
X185401100Y-80888100D02*
X185401100Y-82503600D01*
X153501100Y-51203600D02*
X153201100Y-51503600D01*
X153201100Y-51503600D02*
X152201100Y-51503600D01*
X152201100Y-51503600D02*
X151801100Y-51903600D01*
X151801100Y-51903600D02*
X151801100Y-82503600D01*
X185301100Y-90603600D02*
X185301100Y-83403600D01*
X185301100Y-90603600D02*
X185351100Y-90653600D01*
X185351100Y-90653600D02*
X185861100Y-90653600D01*
X185301100Y-83403600D02*
X184101100Y-82203600D01*
X184101100Y-82203600D02*
X184101100Y-80903600D01*
X184101100Y-80903600D02*
X184067300Y-80869800D01*
X184067300Y-80869800D02*
X184067300Y-80854300D01*
X183417300Y-80854300D02*
X183401100Y-80870500D01*
X184301100Y-83303600D02*
X184301100Y-89903600D01*
X183601100Y-90603600D02*
X183581100Y-90603600D01*
X184301100Y-83303600D02*
X183417300Y-82419800D01*
X183417300Y-82419800D02*
X183417300Y-80854300D01*
X183601100Y-90603600D02*
X184301100Y-89903600D01*
X187964900Y-73972900D02*
X187964900Y-72439800D01*
X187964900Y-72439800D02*
X188001100Y-72403600D01*
X172101100Y-72403600D02*
X172101100Y-97503600D01*
X187314900Y-73972900D02*
X187314900Y-70817400D01*
X187314900Y-70817400D02*
X187301100Y-70803600D01*
X166901100Y-70803600D02*
X166901100Y-54048600D01*
X166901100Y-54048600D02*
X166898100Y-54045600D01*
X175911100Y-92653600D02*
X175911100Y-80153600D01*
X175911100Y-80153600D02*
X176401100Y-79663600D01*
X176401100Y-79663600D02*
X176401100Y-77803600D01*
X184701100Y-77803600D02*
X184701100Y-73986700D01*
X184714900Y-73972900D02*
X184701100Y-73986700D01*
X156281100Y-92633600D02*
X156281100Y-80133600D01*
X185364900Y-78867400D02*
X185364900Y-73972900D01*
X156281100Y-80133600D02*
X156301100Y-80113600D01*
X156301100Y-79403600D02*
X156301100Y-80113600D01*
X185364900Y-78867400D02*
X185301100Y-78931200D01*
X185301100Y-78931200D02*
X185301100Y-79003600D01*
X157501100Y-79003600D02*
X156701100Y-79003600D01*
X156701100Y-79003600D02*
X156301100Y-79403600D01*
X181301100Y-88153600D02*
X181301100Y-90203600D01*
X181301100Y-90203600D02*
X181701100Y-90603600D01*
X181701100Y-90603600D02*
X181681100Y-90603600D01*
X188271100Y-90643600D02*
X188271100Y-88163600D01*
X188271100Y-90643600D02*
X188211100Y-90703600D01*
X188211100Y-90703600D02*
X187801100Y-90703600D01*
X187801100Y-90703600D02*
X187761100Y-90663600D01*
X187761100Y-90663600D02*
X187761100Y-90653600D01*
X180701100Y-100103600D02*
X182601100Y-100103600D01*
X188271100Y-84663600D02*
X188211100Y-84603600D01*
X181451100Y-73493600D02*
X181801100Y-73843600D01*
X181801100Y-73843600D02*
X181801100Y-74603600D01*
X182764900Y-73972900D02*
X182635600Y-73843600D01*
X182635600Y-73843600D02*
X181801100Y-73843600D01*
X185371100Y-72153600D02*
X185721100Y-71803600D01*
X185721100Y-71803600D02*
X186401100Y-71803600D01*
X190651100Y-78183600D02*
X190801100Y-78033600D01*
X190801100Y-78033600D02*
X190801100Y-77003600D01*
X186051100Y-92753600D02*
X186101100Y-92703600D01*
X186101100Y-92703600D02*
X184801100Y-92703600D01*
X188211100Y-84603600D02*
X188701100Y-84113600D01*
X188701100Y-84113600D02*
X188701100Y-83403600D01*
D34*
X186651100Y-95313600D02*
X186641100Y-95303600D01*
X186641100Y-95303600D02*
X185401100Y-95303600D01*
D35*
X181301100Y-84653600D02*
X181301100Y-85003600D01*
X181301100Y-85003600D02*
X182201100Y-85903600D01*
D36*
X183896000Y-47498000D02*
X182456000Y-47498000D01*
D33*
X181889500Y-50038000D02*
X185674000Y-50038000D01*
X187308100Y-51672100D02*
X187308100Y-54045600D01*
X185674000Y-50038000D02*
X187308100Y-51672100D01*
X161264500Y-72923500D02*
X161290000Y-72898000D01*
X161264500Y-74168000D02*
X161264500Y-72923500D01*
X180314500Y-46489500D02*
X180256000Y-46548000D01*
X180314500Y-44704000D02*
X180314500Y-46489500D01*
D36*
X180256000Y-46548000D02*
X180051000Y-46548000D01*
D34*
X180256000Y-46548000D02*
X179766000Y-46548000D01*
X179766000Y-46548000D02*
X179070000Y-47244000D01*
X179070000Y-50292000D02*
X179070000Y-47244000D01*
D33*
X165564000Y-72600000D02*
X165608000Y-72644000D01*
X164363500Y-72600000D02*
X165564000Y-72600000D01*
X173982029Y-50372369D02*
X173897660Y-50288000D01*
X173982029Y-69603971D02*
X173982029Y-50372369D01*
X170942000Y-72644000D02*
X173982029Y-69603971D01*
D36*
X180256000Y-49979500D02*
X180314500Y-50038000D01*
X180256000Y-48448000D02*
X180256000Y-49979500D01*
D35*
X183136000Y-48448000D02*
X182456000Y-48448000D01*
X186260269Y-48448000D02*
X183136000Y-48448000D01*
X188614900Y-50802631D02*
X186260269Y-48448000D01*
X188614900Y-73972900D02*
X188614900Y-71481100D01*
X188614900Y-71481100D02*
X188614900Y-50802631D01*
X167894000Y-72872500D02*
X167868500Y-72898000D01*
X167894000Y-71428459D02*
X167894000Y-72872500D01*
D33*
X187317300Y-81917300D02*
X187600000Y-82200000D01*
X187317300Y-80854300D02*
X187317300Y-81917300D01*
X161798000Y-75209500D02*
X162839500Y-74168000D01*
X161798000Y-81026000D02*
X161798000Y-75209500D01*
X162839500Y-72651000D02*
X162788500Y-72600000D01*
X162839500Y-74168000D02*
X162839500Y-72651000D01*
D38*
G36*
X162545593Y-43901408D02*
G01*
X162479430Y-44234030D01*
X162479430Y-44573170D01*
X162531696Y-44835928D01*
X161436000Y-44835928D01*
X161311518Y-44848188D01*
X161274072Y-44859547D01*
X161274072Y-44524000D01*
X161261812Y-44399518D01*
X161225502Y-44279820D01*
X161166537Y-44169506D01*
X161087185Y-44072815D01*
X160990494Y-43993463D01*
X160880180Y-43934498D01*
X160760482Y-43898188D01*
X160636000Y-43885928D01*
X159236000Y-43885928D01*
X159111518Y-43898188D01*
X158991820Y-43934498D01*
X158881506Y-43993463D01*
X158784815Y-44072815D01*
X158705463Y-44169506D01*
X158646498Y-44279820D01*
X158610188Y-44399518D01*
X158597928Y-44524000D01*
X158597928Y-44758224D01*
X158534000Y-44751928D01*
X156934000Y-44751928D01*
X156809518Y-44764188D01*
X156689820Y-44800498D01*
X156579506Y-44859463D01*
X156482815Y-44938815D01*
X156403463Y-45035506D01*
X156344498Y-45145820D01*
X156308188Y-45265518D01*
X156295928Y-45390000D01*
X156295928Y-46690000D01*
X156308188Y-46814482D01*
X156344498Y-46934180D01*
X156374335Y-46990000D01*
X156344498Y-47045820D01*
X156308188Y-47165518D01*
X156295928Y-47290000D01*
X156295928Y-48590000D01*
X156308188Y-48714482D01*
X156344498Y-48834180D01*
X156403463Y-48944494D01*
X156482815Y-49041185D01*
X156579506Y-49120537D01*
X156689820Y-49179502D01*
X156809518Y-49215812D01*
X156849000Y-49219701D01*
X156849001Y-55341544D01*
X156816795Y-55389744D01*
X156738774Y-55578102D01*
X156699000Y-55778061D01*
X156699000Y-55981939D01*
X156738774Y-56181898D01*
X156816795Y-56370256D01*
X156930063Y-56539774D01*
X157074226Y-56683937D01*
X157243744Y-56797205D01*
X157432102Y-56875226D01*
X157632061Y-56915000D01*
X157835939Y-56915000D01*
X158035898Y-56875226D01*
X158103027Y-56847420D01*
X158152563Y-56940094D01*
X158231915Y-57036785D01*
X158328606Y-57116137D01*
X158438920Y-57175102D01*
X158558618Y-57211412D01*
X158608100Y-57216285D01*
X158608101Y-74585715D01*
X158604665Y-74620600D01*
X158618374Y-74759784D01*
X158658972Y-74893619D01*
X158724901Y-75016963D01*
X158746093Y-75042785D01*
X158813626Y-75125075D01*
X158824163Y-75133723D01*
X158788716Y-75157408D01*
X158654908Y-75291216D01*
X158549775Y-75448557D01*
X158477359Y-75623386D01*
X158440441Y-75808983D01*
X158440441Y-75998217D01*
X158477359Y-76183814D01*
X158549775Y-76358643D01*
X158654908Y-76515984D01*
X158691101Y-76552177D01*
X158691100Y-93465528D01*
X158271100Y-93465528D01*
X158146618Y-93477788D01*
X158026920Y-93514098D01*
X157916606Y-93573063D01*
X157819915Y-93652415D01*
X157740563Y-93749106D01*
X157681598Y-93859420D01*
X157645288Y-93979118D01*
X157633028Y-94103600D01*
X157633028Y-95703600D01*
X157645288Y-95828082D01*
X157681598Y-95947780D01*
X157740563Y-96058094D01*
X157819915Y-96154785D01*
X157916606Y-96234137D01*
X158026920Y-96293102D01*
X158146618Y-96329412D01*
X158271100Y-96341672D01*
X159571100Y-96341672D01*
X159695582Y-96329412D01*
X159815280Y-96293102D01*
X159871100Y-96263265D01*
X159926920Y-96293102D01*
X160046618Y-96329412D01*
X160171100Y-96341672D01*
X161471100Y-96341672D01*
X161543028Y-96334588D01*
X161543028Y-97313600D01*
X161555288Y-97438082D01*
X161591598Y-97557780D01*
X161650563Y-97668094D01*
X161729915Y-97764785D01*
X161826606Y-97844137D01*
X161936920Y-97903102D01*
X162056618Y-97939412D01*
X162181100Y-97951672D01*
X163581100Y-97951672D01*
X163705582Y-97939412D01*
X163825280Y-97903102D01*
X163935594Y-97844137D01*
X164032285Y-97764785D01*
X164111637Y-97668094D01*
X164170602Y-97557780D01*
X164206912Y-97438082D01*
X164219172Y-97313600D01*
X164219172Y-97089619D01*
X164313752Y-96995039D01*
X164381100Y-97001672D01*
X165781100Y-97001672D01*
X165905582Y-96989412D01*
X166025280Y-96953102D01*
X166135594Y-96894137D01*
X166232285Y-96814785D01*
X166311637Y-96718094D01*
X166370602Y-96607780D01*
X166380970Y-96573600D01*
X167284552Y-96573600D01*
X167320365Y-96660061D01*
X167467412Y-96880132D01*
X167654568Y-97067288D01*
X167874639Y-97214335D01*
X168119169Y-97315623D01*
X168378761Y-97367259D01*
X168643439Y-97367259D01*
X168903031Y-97315623D01*
X169147561Y-97214335D01*
X169367632Y-97067288D01*
X169554788Y-96880132D01*
X169701835Y-96660061D01*
X169781100Y-96468699D01*
X169860365Y-96660061D01*
X170007412Y-96880132D01*
X170194568Y-97067288D01*
X170414639Y-97214335D01*
X170659169Y-97315623D01*
X170918761Y-97367259D01*
X171148741Y-97367259D01*
X171140441Y-97408983D01*
X171140441Y-97598217D01*
X171177359Y-97783814D01*
X171249775Y-97958643D01*
X171354908Y-98115984D01*
X171488716Y-98249792D01*
X171646057Y-98354925D01*
X171820886Y-98427341D01*
X172006483Y-98464259D01*
X172195717Y-98464259D01*
X172381314Y-98427341D01*
X172556143Y-98354925D01*
X172713484Y-98249792D01*
X172847292Y-98115984D01*
X172952425Y-97958643D01*
X173024841Y-97783814D01*
X173061759Y-97598217D01*
X173061759Y-97408983D01*
X173028946Y-97244025D01*
X173143682Y-97297473D01*
X173400800Y-97360283D01*
X173665230Y-97371725D01*
X173926812Y-97331359D01*
X174175492Y-97240737D01*
X174278440Y-97185709D01*
X174338952Y-96951057D01*
X173591100Y-96203205D01*
X173576958Y-96217348D01*
X173397353Y-96037743D01*
X173411495Y-96023600D01*
X173770705Y-96023600D01*
X174518557Y-96771452D01*
X174753209Y-96710940D01*
X174863431Y-96474327D01*
X174940365Y-96660061D01*
X175087412Y-96880132D01*
X175274568Y-97067288D01*
X175494639Y-97214335D01*
X175739169Y-97315623D01*
X175998761Y-97367259D01*
X176263439Y-97367259D01*
X176523031Y-97315623D01*
X176767561Y-97214335D01*
X176987632Y-97067288D01*
X177174788Y-96880132D01*
X177321835Y-96660061D01*
X177423123Y-96415531D01*
X177474759Y-96155939D01*
X177474759Y-95891261D01*
X177423123Y-95631669D01*
X177321835Y-95387139D01*
X177174788Y-95167068D01*
X176987632Y-94979912D01*
X176767561Y-94832865D01*
X176523031Y-94731577D01*
X176263439Y-94679941D01*
X175998761Y-94679941D01*
X175739169Y-94731577D01*
X175494639Y-94832865D01*
X175274568Y-94979912D01*
X175087412Y-95167068D01*
X174940365Y-95387139D01*
X174859981Y-95581202D01*
X174808237Y-95439208D01*
X174753209Y-95336260D01*
X174518557Y-95275748D01*
X173770705Y-96023600D01*
X173411495Y-96023600D01*
X173397353Y-96009458D01*
X173576958Y-95829853D01*
X173591100Y-95843995D01*
X174338952Y-95096143D01*
X174278440Y-94861491D01*
X174038518Y-94749727D01*
X173781400Y-94686917D01*
X173516970Y-94675475D01*
X173255388Y-94715841D01*
X173006708Y-94806463D01*
X172903760Y-94861491D01*
X172843249Y-95096141D01*
X172811100Y-95063992D01*
X172811100Y-79091052D01*
X172851915Y-79140785D01*
X172948606Y-79220137D01*
X173058920Y-79279102D01*
X173178618Y-79315412D01*
X173303100Y-79327672D01*
X174573028Y-79327672D01*
X174573028Y-81503600D01*
X174585288Y-81628082D01*
X174621598Y-81747780D01*
X174680563Y-81858094D01*
X174759915Y-81954785D01*
X174856606Y-82034137D01*
X174966920Y-82093102D01*
X175086618Y-82129412D01*
X175201101Y-82140687D01*
X175201100Y-90666513D01*
X175086618Y-90677788D01*
X174966920Y-90714098D01*
X174856606Y-90773063D01*
X174759915Y-90852415D01*
X174680563Y-90949106D01*
X174621598Y-91059420D01*
X174585288Y-91179118D01*
X174573028Y-91303600D01*
X174573028Y-94003600D01*
X174585288Y-94128082D01*
X174621598Y-94247780D01*
X174680563Y-94358094D01*
X174759915Y-94454785D01*
X174856606Y-94534137D01*
X174966920Y-94593102D01*
X175086618Y-94629412D01*
X175211100Y-94641672D01*
X176611100Y-94641672D01*
X176735582Y-94629412D01*
X176855280Y-94593102D01*
X176965594Y-94534137D01*
X177062285Y-94454785D01*
X177141637Y-94358094D01*
X177200602Y-94247780D01*
X177236912Y-94128082D01*
X177249172Y-94003600D01*
X177249172Y-91303600D01*
X177236912Y-91179118D01*
X177200602Y-91059420D01*
X177141637Y-90949106D01*
X177062285Y-90852415D01*
X176965594Y-90773063D01*
X176855280Y-90714098D01*
X176735582Y-90677788D01*
X176621100Y-90666513D01*
X176621100Y-84396888D01*
X178226100Y-84396888D01*
X178226100Y-84630312D01*
X178271639Y-84859252D01*
X178360966Y-85074908D01*
X178490650Y-85268994D01*
X178655706Y-85434050D01*
X178849792Y-85563734D01*
X179065448Y-85653061D01*
X179294388Y-85698600D01*
X179527812Y-85698600D01*
X179756752Y-85653061D01*
X179940155Y-85577093D01*
X179961598Y-85647780D01*
X180020563Y-85758094D01*
X180099915Y-85854785D01*
X180196606Y-85934137D01*
X180306920Y-85993102D01*
X180426618Y-86029412D01*
X180551100Y-86041672D01*
X181015350Y-86038600D01*
X181174100Y-85879850D01*
X181174100Y-84780600D01*
X181154100Y-84780600D01*
X181154100Y-84526600D01*
X181174100Y-84526600D01*
X181174100Y-83427350D01*
X181015350Y-83268600D01*
X180551100Y-83265528D01*
X180426618Y-83277788D01*
X180306920Y-83314098D01*
X180196606Y-83373063D01*
X180099915Y-83452415D01*
X180048900Y-83514577D01*
X179972408Y-83463466D01*
X179756752Y-83374139D01*
X179527812Y-83328600D01*
X179294388Y-83328600D01*
X179065448Y-83374139D01*
X178849792Y-83463466D01*
X178655706Y-83593150D01*
X178490650Y-83758206D01*
X178360966Y-83952292D01*
X178271639Y-84167948D01*
X178226100Y-84396888D01*
X176621100Y-84396888D01*
X176621100Y-82140687D01*
X176735582Y-82129412D01*
X176855280Y-82093102D01*
X176965594Y-82034137D01*
X177062285Y-81954785D01*
X177141637Y-81858094D01*
X177200602Y-81747780D01*
X177236912Y-81628082D01*
X177249172Y-81503600D01*
X177249172Y-80745209D01*
X177296606Y-80784137D01*
X177406920Y-80843102D01*
X177526618Y-80879412D01*
X177651100Y-80891672D01*
X178751100Y-80891672D01*
X178875582Y-80879412D01*
X178995280Y-80843102D01*
X179051100Y-80813265D01*
X179106920Y-80843102D01*
X179226618Y-80879412D01*
X179351100Y-80891672D01*
X180451100Y-80891672D01*
X180575582Y-80879412D01*
X180695280Y-80843102D01*
X180750473Y-80813600D01*
X181976828Y-80813600D01*
X181976828Y-81476600D01*
X181989088Y-81601082D01*
X182025398Y-81720780D01*
X182084363Y-81831094D01*
X182163715Y-81927785D01*
X182260406Y-82007137D01*
X182370720Y-82066102D01*
X182490418Y-82102412D01*
X182614900Y-82114672D01*
X182707300Y-82114672D01*
X182707300Y-82384925D01*
X182703865Y-82419800D01*
X182707300Y-82454675D01*
X182707300Y-82454676D01*
X182717573Y-82558983D01*
X182758172Y-82692819D01*
X182824100Y-82816162D01*
X182912825Y-82924274D01*
X182939917Y-82946508D01*
X183325534Y-83332125D01*
X183307812Y-83328600D01*
X183074388Y-83328600D01*
X182845448Y-83374139D01*
X182629792Y-83463466D01*
X182553300Y-83514577D01*
X182502285Y-83452415D01*
X182405594Y-83373063D01*
X182295280Y-83314098D01*
X182175582Y-83277788D01*
X182051100Y-83265528D01*
X181586850Y-83268600D01*
X181428100Y-83427350D01*
X181428100Y-84526600D01*
X181448100Y-84526600D01*
X181448100Y-84780600D01*
X181428100Y-84780600D01*
X181428100Y-85879850D01*
X181586850Y-86038600D01*
X182051100Y-86041672D01*
X182175582Y-86029412D01*
X182295280Y-85993102D01*
X182405594Y-85934137D01*
X182502285Y-85854785D01*
X182581637Y-85758094D01*
X182640602Y-85647780D01*
X182662045Y-85577093D01*
X182845448Y-85653061D01*
X183074388Y-85698600D01*
X183307812Y-85698600D01*
X183536752Y-85653061D01*
X183591100Y-85630549D01*
X183591101Y-87176651D01*
X183536752Y-87154139D01*
X183307812Y-87108600D01*
X183074388Y-87108600D01*
X182845448Y-87154139D01*
X182662045Y-87230107D01*
X182640602Y-87159420D01*
X182581637Y-87049106D01*
X182502285Y-86952415D01*
X182405594Y-86873063D01*
X182295280Y-86814098D01*
X182175582Y-86777788D01*
X182051100Y-86765528D01*
X180551100Y-86765528D01*
X180426618Y-86777788D01*
X180306920Y-86814098D01*
X180196606Y-86873063D01*
X180099915Y-86952415D01*
X180020563Y-87049106D01*
X179961598Y-87159420D01*
X179940155Y-87230107D01*
X179756752Y-87154139D01*
X179527812Y-87108600D01*
X179294388Y-87108600D01*
X179065448Y-87154139D01*
X178849792Y-87243466D01*
X178655706Y-87373150D01*
X178490650Y-87538206D01*
X178360966Y-87732292D01*
X178271639Y-87947948D01*
X178226100Y-88176888D01*
X178226100Y-88410312D01*
X178271639Y-88639252D01*
X178360966Y-88854908D01*
X178490650Y-89048994D01*
X178655706Y-89214050D01*
X178849792Y-89343734D01*
X179065448Y-89433061D01*
X179294388Y-89478600D01*
X179527812Y-89478600D01*
X179756752Y-89433061D01*
X179972408Y-89343734D01*
X180048900Y-89292623D01*
X180099915Y-89354785D01*
X180196606Y-89434137D01*
X180306920Y-89493102D01*
X180426618Y-89529412D01*
X180456087Y-89532314D01*
X180441598Y-89559420D01*
X180405288Y-89679118D01*
X180393028Y-89803600D01*
X180393028Y-91403600D01*
X180405288Y-91528082D01*
X180441598Y-91647780D01*
X180500563Y-91758094D01*
X180579915Y-91854785D01*
X180676606Y-91934137D01*
X180786920Y-91993102D01*
X180906618Y-92029412D01*
X181031100Y-92041672D01*
X182331100Y-92041672D01*
X182455582Y-92029412D01*
X182575280Y-91993102D01*
X182631100Y-91963265D01*
X182686920Y-91993102D01*
X182806618Y-92029412D01*
X182931100Y-92041672D01*
X184231100Y-92041672D01*
X184355582Y-92029412D01*
X184475280Y-91993102D01*
X184585594Y-91934137D01*
X184682285Y-91854785D01*
X184700583Y-91832489D01*
X184759915Y-91904785D01*
X184856606Y-91984137D01*
X184910525Y-92012958D01*
X184875288Y-92129118D01*
X184863028Y-92253600D01*
X184866100Y-92467850D01*
X185024850Y-92626600D01*
X185924100Y-92626600D01*
X185924100Y-92606600D01*
X186178100Y-92606600D01*
X186178100Y-92626600D01*
X186198100Y-92626600D01*
X186198100Y-92880600D01*
X186178100Y-92880600D01*
X186178100Y-92900600D01*
X185924100Y-92900600D01*
X185924100Y-92880600D01*
X185024850Y-92880600D01*
X184866100Y-93039350D01*
X184863028Y-93253600D01*
X184875288Y-93378082D01*
X184889681Y-93425528D01*
X183751100Y-93425528D01*
X183626618Y-93437788D01*
X183506920Y-93474098D01*
X183396606Y-93533063D01*
X183299915Y-93612415D01*
X183220563Y-93709106D01*
X183161598Y-93819420D01*
X183125288Y-93939118D01*
X183113028Y-94063600D01*
X183113028Y-94663600D01*
X183125288Y-94788082D01*
X183161598Y-94907780D01*
X183220563Y-95018094D01*
X183299915Y-95114785D01*
X183396606Y-95194137D01*
X183506920Y-95253102D01*
X183626618Y-95289412D01*
X183751100Y-95301672D01*
X184951100Y-95301672D01*
X185075582Y-95289412D01*
X185195280Y-95253102D01*
X185305594Y-95194137D01*
X185402285Y-95114785D01*
X185447698Y-95059448D01*
X185574850Y-95186600D01*
X185687422Y-95186600D01*
X185696606Y-95194137D01*
X185806920Y-95253102D01*
X185926618Y-95289412D01*
X186051100Y-95301672D01*
X186206504Y-95301672D01*
X186127861Y-95325528D01*
X186051100Y-95325528D01*
X185926618Y-95337788D01*
X185806920Y-95374098D01*
X185696606Y-95433063D01*
X185687422Y-95440600D01*
X185574850Y-95440600D01*
X185447698Y-95567752D01*
X185402285Y-95512415D01*
X185305594Y-95433063D01*
X185195280Y-95374098D01*
X185075582Y-95337788D01*
X184951100Y-95325528D01*
X183751100Y-95325528D01*
X183626618Y-95337788D01*
X183506920Y-95374098D01*
X183470435Y-95393600D01*
X182539172Y-95393600D01*
X182539172Y-93903600D01*
X182526912Y-93779118D01*
X182490602Y-93659420D01*
X182431637Y-93549106D01*
X182352285Y-93452415D01*
X182255594Y-93373063D01*
X182145280Y-93314098D01*
X182025582Y-93277788D01*
X181901100Y-93265528D01*
X179501100Y-93265528D01*
X179376618Y-93277788D01*
X179256920Y-93314098D01*
X179146606Y-93373063D01*
X179049915Y-93452415D01*
X178970563Y-93549106D01*
X178940926Y-93604551D01*
X178881314Y-93579859D01*
X178695717Y-93542941D01*
X178506483Y-93542941D01*
X178320886Y-93579859D01*
X178146057Y-93652275D01*
X177988716Y-93757408D01*
X177854908Y-93891216D01*
X177749775Y-94048557D01*
X177677359Y-94223386D01*
X177640441Y-94408983D01*
X177640441Y-94598217D01*
X177677359Y-94783814D01*
X177749775Y-94958643D01*
X177854908Y-95115984D01*
X177988716Y-95249792D01*
X178146057Y-95354925D01*
X178320886Y-95427341D01*
X178506483Y-95464259D01*
X178695717Y-95464259D01*
X178863028Y-95430978D01*
X178863028Y-96303600D01*
X178875288Y-96428082D01*
X178911598Y-96547780D01*
X178970563Y-96658094D01*
X179049915Y-96754785D01*
X179146606Y-96834137D01*
X179256920Y-96893102D01*
X179376618Y-96929412D01*
X179501100Y-96941672D01*
X181901100Y-96941672D01*
X182025582Y-96929412D01*
X182145280Y-96893102D01*
X182255594Y-96834137D01*
X182280618Y-96813600D01*
X183164709Y-96813600D01*
X183220563Y-96918094D01*
X183299915Y-97014785D01*
X183396606Y-97094137D01*
X183506920Y-97153102D01*
X183626618Y-97189412D01*
X183751100Y-97201672D01*
X184951100Y-97201672D01*
X185075582Y-97189412D01*
X185195280Y-97153102D01*
X185305594Y-97094137D01*
X185402285Y-97014785D01*
X185481637Y-96918094D01*
X185501100Y-96881682D01*
X185520563Y-96918094D01*
X185599915Y-97014785D01*
X185696606Y-97094137D01*
X185806920Y-97153102D01*
X185926618Y-97189412D01*
X185941994Y-97190926D01*
X186090646Y-97270383D01*
X186286950Y-97329931D01*
X186439948Y-97345000D01*
X186859700Y-97345000D01*
X186859701Y-102152449D01*
X186854663Y-102203600D01*
X186874770Y-102407749D01*
X186934318Y-102604055D01*
X187031019Y-102784969D01*
X187128550Y-102903811D01*
X187128554Y-102903815D01*
X187161158Y-102943543D01*
X187200886Y-102976147D01*
X187528548Y-103303809D01*
X187561157Y-103343543D01*
X187719730Y-103473681D01*
X187900646Y-103570383D01*
X188036338Y-103611545D01*
X188045056Y-103640284D01*
X188169824Y-103873709D01*
X188337734Y-104078307D01*
X188542332Y-104246217D01*
X188724523Y-104343600D01*
X186295908Y-104343600D01*
X186438408Y-104201100D01*
X186626824Y-103919116D01*
X186756607Y-103605792D01*
X186822770Y-103273170D01*
X186822770Y-102934030D01*
X186756607Y-102601408D01*
X186626824Y-102288084D01*
X186438408Y-102006100D01*
X186198600Y-101766292D01*
X185916616Y-101577876D01*
X185603292Y-101448093D01*
X185270670Y-101381930D01*
X184931530Y-101381930D01*
X184598908Y-101448093D01*
X184285584Y-101577876D01*
X184003600Y-101766292D01*
X183763792Y-102006100D01*
X183575376Y-102288084D01*
X183445593Y-102601408D01*
X183379430Y-102934030D01*
X183379430Y-103273170D01*
X183445593Y-103605792D01*
X183575376Y-103919116D01*
X183763792Y-104201100D01*
X183906292Y-104343600D01*
X177403212Y-104343600D01*
X177423123Y-104295531D01*
X177474759Y-104035939D01*
X177474759Y-103771261D01*
X177423123Y-103511669D01*
X177321835Y-103267139D01*
X177174788Y-103047068D01*
X176987632Y-102859912D01*
X176767561Y-102712865D01*
X176523031Y-102611577D01*
X176263439Y-102559941D01*
X175998761Y-102559941D01*
X175739169Y-102611577D01*
X175494639Y-102712865D01*
X175274568Y-102859912D01*
X175087412Y-103047068D01*
X174940365Y-103267139D01*
X174861100Y-103458501D01*
X174781835Y-103267139D01*
X174634788Y-103047068D01*
X174447632Y-102859912D01*
X174227561Y-102712865D01*
X173983031Y-102611577D01*
X173723439Y-102559941D01*
X173458761Y-102559941D01*
X173199169Y-102611577D01*
X172954639Y-102712865D01*
X172734568Y-102859912D01*
X172547412Y-103047068D01*
X172400365Y-103267139D01*
X172321100Y-103458501D01*
X172241835Y-103267139D01*
X172094788Y-103047068D01*
X171907632Y-102859912D01*
X171687561Y-102712865D01*
X171443031Y-102611577D01*
X171183439Y-102559941D01*
X170918761Y-102559941D01*
X170659169Y-102611577D01*
X170414639Y-102712865D01*
X170194568Y-102859912D01*
X170007412Y-103047068D01*
X169860365Y-103267139D01*
X169781100Y-103458501D01*
X169701835Y-103267139D01*
X169554788Y-103047068D01*
X169367632Y-102859912D01*
X169147561Y-102712865D01*
X168903031Y-102611577D01*
X168643439Y-102559941D01*
X168378761Y-102559941D01*
X168119169Y-102611577D01*
X167874639Y-102712865D01*
X167654568Y-102859912D01*
X167467412Y-103047068D01*
X167320365Y-103267139D01*
X167219077Y-103511669D01*
X167167441Y-103771261D01*
X167167441Y-104035939D01*
X167219077Y-104295531D01*
X167238988Y-104343600D01*
X152521905Y-104343600D01*
X152335671Y-101303600D01*
X178863028Y-101303600D01*
X178875288Y-101428082D01*
X178911598Y-101547780D01*
X178970563Y-101658094D01*
X179049915Y-101754785D01*
X179146606Y-101834137D01*
X179256920Y-101893102D01*
X179376618Y-101929412D01*
X179501100Y-101941672D01*
X180415350Y-101938600D01*
X180574100Y-101779850D01*
X180574100Y-100230600D01*
X180828100Y-100230600D01*
X180828100Y-101779850D01*
X180986850Y-101938600D01*
X181901100Y-101941672D01*
X182025582Y-101929412D01*
X182145280Y-101893102D01*
X182255594Y-101834137D01*
X182352285Y-101754785D01*
X182431637Y-101658094D01*
X182490602Y-101547780D01*
X182526912Y-101428082D01*
X182539172Y-101303600D01*
X182536100Y-100389350D01*
X182377350Y-100230600D01*
X180828100Y-100230600D01*
X180574100Y-100230600D01*
X179024850Y-100230600D01*
X178866100Y-100389350D01*
X178863028Y-101303600D01*
X152335671Y-101303600D01*
X152188644Y-98903600D01*
X178863028Y-98903600D01*
X178866100Y-99817850D01*
X179024850Y-99976600D01*
X180574100Y-99976600D01*
X180574100Y-98427350D01*
X180828100Y-98427350D01*
X180828100Y-99976600D01*
X182377350Y-99976600D01*
X182536100Y-99817850D01*
X182539172Y-98903600D01*
X182526912Y-98779118D01*
X182490602Y-98659420D01*
X182431637Y-98549106D01*
X182352285Y-98452415D01*
X182255594Y-98373063D01*
X182145280Y-98314098D01*
X182025582Y-98277788D01*
X181901100Y-98265528D01*
X180986850Y-98268600D01*
X180828100Y-98427350D01*
X180574100Y-98427350D01*
X180415350Y-98268600D01*
X179501100Y-98265528D01*
X179376618Y-98277788D01*
X179256920Y-98314098D01*
X179146606Y-98373063D01*
X179049915Y-98452415D01*
X178970563Y-98549106D01*
X178911598Y-98659420D01*
X178875288Y-98779118D01*
X178863028Y-98903600D01*
X152188644Y-98903600D01*
X151257000Y-83695898D01*
X151257000Y-83295419D01*
X151346057Y-83354925D01*
X151520886Y-83427341D01*
X151706483Y-83464259D01*
X151895717Y-83464259D01*
X152081314Y-83427341D01*
X152256143Y-83354925D01*
X152413484Y-83249792D01*
X152547292Y-83115984D01*
X152652425Y-82958643D01*
X152724841Y-82783814D01*
X152761759Y-82598217D01*
X152761759Y-82408983D01*
X152724841Y-82223386D01*
X152652425Y-82048557D01*
X152547292Y-81891216D01*
X152511100Y-81855024D01*
X152511100Y-57602376D01*
X152529038Y-57607817D01*
X152726435Y-57627259D01*
X152791100Y-57627259D01*
X152791101Y-77755023D01*
X152754908Y-77791216D01*
X152649775Y-77948557D01*
X152577359Y-78123386D01*
X152540441Y-78308983D01*
X152540441Y-78498217D01*
X152577359Y-78683814D01*
X152649775Y-78858643D01*
X152754908Y-79015984D01*
X152888716Y-79149792D01*
X153046057Y-79254925D01*
X153220886Y-79327341D01*
X153406483Y-79364259D01*
X153595717Y-79364259D01*
X153781314Y-79327341D01*
X153956143Y-79254925D01*
X154113484Y-79149792D01*
X154247292Y-79015984D01*
X154352425Y-78858643D01*
X154383508Y-78783600D01*
X154943028Y-78783600D01*
X154943028Y-81483600D01*
X154955288Y-81608082D01*
X154991598Y-81727780D01*
X155050563Y-81838094D01*
X155129915Y-81934785D01*
X155226606Y-82014137D01*
X155336920Y-82073102D01*
X155456618Y-82109412D01*
X155571101Y-82120687D01*
X155571100Y-90646513D01*
X155456618Y-90657788D01*
X155336920Y-90694098D01*
X155226606Y-90753063D01*
X155129915Y-90832415D01*
X155050563Y-90929106D01*
X154991598Y-91039420D01*
X154955288Y-91159118D01*
X154943028Y-91283600D01*
X154943028Y-93983600D01*
X154955288Y-94108082D01*
X154991598Y-94227780D01*
X155050563Y-94338094D01*
X155129915Y-94434785D01*
X155226606Y-94514137D01*
X155336920Y-94573102D01*
X155456618Y-94609412D01*
X155581100Y-94621672D01*
X156981100Y-94621672D01*
X157105582Y-94609412D01*
X157225280Y-94573102D01*
X157335594Y-94514137D01*
X157432285Y-94434785D01*
X157511637Y-94338094D01*
X157570602Y-94227780D01*
X157606912Y-94108082D01*
X157619172Y-93983600D01*
X157619172Y-91283600D01*
X157606912Y-91159118D01*
X157570602Y-91039420D01*
X157511637Y-90929106D01*
X157432285Y-90832415D01*
X157335594Y-90753063D01*
X157225280Y-90694098D01*
X157105582Y-90657788D01*
X156991100Y-90646513D01*
X156991100Y-82120687D01*
X157105582Y-82109412D01*
X157225280Y-82073102D01*
X157335594Y-82014137D01*
X157432285Y-81934785D01*
X157511637Y-81838094D01*
X157570602Y-81727780D01*
X157606912Y-81608082D01*
X157619172Y-81483600D01*
X157619172Y-79959593D01*
X157781314Y-79927341D01*
X157956143Y-79854925D01*
X158113484Y-79749792D01*
X158247292Y-79615984D01*
X158352425Y-79458643D01*
X158424841Y-79283814D01*
X158461759Y-79098217D01*
X158461759Y-78908983D01*
X158424841Y-78723386D01*
X158352425Y-78548557D01*
X158247292Y-78391216D01*
X158113484Y-78257408D01*
X157956143Y-78152275D01*
X157781314Y-78079859D01*
X157595717Y-78042941D01*
X157406483Y-78042941D01*
X157220886Y-78079859D01*
X157046739Y-78151993D01*
X156981100Y-78145528D01*
X155581100Y-78145528D01*
X155456618Y-78157788D01*
X155336920Y-78194098D01*
X155226606Y-78253063D01*
X155129915Y-78332415D01*
X155050563Y-78429106D01*
X154991598Y-78539420D01*
X154955288Y-78659118D01*
X154943028Y-78783600D01*
X154383508Y-78783600D01*
X154424841Y-78683814D01*
X154461759Y-78498217D01*
X154461759Y-78308983D01*
X154424841Y-78123386D01*
X154352425Y-77948557D01*
X154247292Y-77791216D01*
X154211100Y-77755024D01*
X154211100Y-57627259D01*
X154275765Y-57627259D01*
X154473162Y-57607817D01*
X154491100Y-57602375D01*
X154491101Y-76255023D01*
X154454908Y-76291216D01*
X154349775Y-76448557D01*
X154277359Y-76623386D01*
X154240441Y-76808983D01*
X154240441Y-76998217D01*
X154277359Y-77183814D01*
X154349775Y-77358643D01*
X154454908Y-77515984D01*
X154588716Y-77649792D01*
X154746057Y-77754925D01*
X154920886Y-77827341D01*
X155106483Y-77864259D01*
X155295717Y-77864259D01*
X155481314Y-77827341D01*
X155656143Y-77754925D01*
X155813484Y-77649792D01*
X155947292Y-77515984D01*
X156052425Y-77358643D01*
X156124841Y-77183814D01*
X156161759Y-76998217D01*
X156161759Y-76808983D01*
X156124841Y-76623386D01*
X156052425Y-76448557D01*
X155947292Y-76291216D01*
X155911100Y-76255024D01*
X155911100Y-47038474D01*
X155914535Y-47003599D01*
X155909104Y-46948455D01*
X155900827Y-46864416D01*
X155860228Y-46730580D01*
X155794300Y-46607237D01*
X155771948Y-46580001D01*
X155727807Y-46526215D01*
X155727804Y-46526212D01*
X155705574Y-46499125D01*
X155678489Y-46476897D01*
X155538873Y-46337281D01*
X155559919Y-46123600D01*
X155533976Y-45860197D01*
X155457144Y-45606916D01*
X155332376Y-45373491D01*
X155164466Y-45168893D01*
X154959868Y-45000983D01*
X154726443Y-44876215D01*
X154473162Y-44799383D01*
X154275765Y-44779941D01*
X152726435Y-44779941D01*
X152529038Y-44799383D01*
X152275757Y-44876215D01*
X152042332Y-45000983D01*
X151837734Y-45168893D01*
X151669824Y-45373491D01*
X151545056Y-45606916D01*
X151468224Y-45860197D01*
X151442281Y-46123600D01*
X151468224Y-46387003D01*
X151545056Y-46640284D01*
X151669824Y-46873709D01*
X151837734Y-47078307D01*
X152042332Y-47246217D01*
X152275757Y-47370985D01*
X152350309Y-47393600D01*
X152275757Y-47416215D01*
X152042332Y-47540983D01*
X151837734Y-47708893D01*
X151669824Y-47913491D01*
X151545056Y-48146916D01*
X151468224Y-48400197D01*
X151442281Y-48663600D01*
X151468224Y-48927003D01*
X151545056Y-49180284D01*
X151669824Y-49413709D01*
X151837734Y-49618307D01*
X152042332Y-49786217D01*
X152275757Y-49910985D01*
X152350309Y-49933600D01*
X152275757Y-49956215D01*
X152042332Y-50080983D01*
X151837734Y-50248893D01*
X151669824Y-50453491D01*
X151545056Y-50686916D01*
X151468224Y-50940197D01*
X151442281Y-51203600D01*
X151447188Y-51253421D01*
X151323717Y-51376892D01*
X151296625Y-51399126D01*
X151257000Y-51447409D01*
X151257000Y-43663600D01*
X162644096Y-43663600D01*
X162545593Y-43901408D01*
G37*
X162545593Y-43901408D02*
X162479430Y-44234030D01*
X162479430Y-44573170D01*
X162531696Y-44835928D01*
X161436000Y-44835928D01*
X161311518Y-44848188D01*
X161274072Y-44859547D01*
X161274072Y-44524000D01*
X161261812Y-44399518D01*
X161225502Y-44279820D01*
X161166537Y-44169506D01*
X161087185Y-44072815D01*
X160990494Y-43993463D01*
X160880180Y-43934498D01*
X160760482Y-43898188D01*
X160636000Y-43885928D01*
X159236000Y-43885928D01*
X159111518Y-43898188D01*
X158991820Y-43934498D01*
X158881506Y-43993463D01*
X158784815Y-44072815D01*
X158705463Y-44169506D01*
X158646498Y-44279820D01*
X158610188Y-44399518D01*
X158597928Y-44524000D01*
X158597928Y-44758224D01*
X158534000Y-44751928D01*
X156934000Y-44751928D01*
X156809518Y-44764188D01*
X156689820Y-44800498D01*
X156579506Y-44859463D01*
X156482815Y-44938815D01*
X156403463Y-45035506D01*
X156344498Y-45145820D01*
X156308188Y-45265518D01*
X156295928Y-45390000D01*
X156295928Y-46690000D01*
X156308188Y-46814482D01*
X156344498Y-46934180D01*
X156374335Y-46990000D01*
X156344498Y-47045820D01*
X156308188Y-47165518D01*
X156295928Y-47290000D01*
X156295928Y-48590000D01*
X156308188Y-48714482D01*
X156344498Y-48834180D01*
X156403463Y-48944494D01*
X156482815Y-49041185D01*
X156579506Y-49120537D01*
X156689820Y-49179502D01*
X156809518Y-49215812D01*
X156849000Y-49219701D01*
X156849001Y-55341544D01*
X156816795Y-55389744D01*
X156738774Y-55578102D01*
X156699000Y-55778061D01*
X156699000Y-55981939D01*
X156738774Y-56181898D01*
X156816795Y-56370256D01*
X156930063Y-56539774D01*
X157074226Y-56683937D01*
X157243744Y-56797205D01*
X157432102Y-56875226D01*
X157632061Y-56915000D01*
X157835939Y-56915000D01*
X158035898Y-56875226D01*
X158103027Y-56847420D01*
X158152563Y-56940094D01*
X158231915Y-57036785D01*
X158328606Y-57116137D01*
X158438920Y-57175102D01*
X158558618Y-57211412D01*
X158608100Y-57216285D01*
X158608101Y-74585715D01*
X158604665Y-74620600D01*
X158618374Y-74759784D01*
X158658972Y-74893619D01*
X158724901Y-75016963D01*
X158746093Y-75042785D01*
X158813626Y-75125075D01*
X158824163Y-75133723D01*
X158788716Y-75157408D01*
X158654908Y-75291216D01*
X158549775Y-75448557D01*
X158477359Y-75623386D01*
X158440441Y-75808983D01*
X158440441Y-75998217D01*
X158477359Y-76183814D01*
X158549775Y-76358643D01*
X158654908Y-76515984D01*
X158691101Y-76552177D01*
X158691100Y-93465528D01*
X158271100Y-93465528D01*
X158146618Y-93477788D01*
X158026920Y-93514098D01*
X157916606Y-93573063D01*
X157819915Y-93652415D01*
X157740563Y-93749106D01*
X157681598Y-93859420D01*
X157645288Y-93979118D01*
X157633028Y-94103600D01*
X157633028Y-95703600D01*
X157645288Y-95828082D01*
X157681598Y-95947780D01*
X157740563Y-96058094D01*
X157819915Y-96154785D01*
X157916606Y-96234137D01*
X158026920Y-96293102D01*
X158146618Y-96329412D01*
X158271100Y-96341672D01*
X159571100Y-96341672D01*
X159695582Y-96329412D01*
X159815280Y-96293102D01*
X159871100Y-96263265D01*
X159926920Y-96293102D01*
X160046618Y-96329412D01*
X160171100Y-96341672D01*
X161471100Y-96341672D01*
X161543028Y-96334588D01*
X161543028Y-97313600D01*
X161555288Y-97438082D01*
X161591598Y-97557780D01*
X161650563Y-97668094D01*
X161729915Y-97764785D01*
X161826606Y-97844137D01*
X161936920Y-97903102D01*
X162056618Y-97939412D01*
X162181100Y-97951672D01*
X163581100Y-97951672D01*
X163705582Y-97939412D01*
X163825280Y-97903102D01*
X163935594Y-97844137D01*
X164032285Y-97764785D01*
X164111637Y-97668094D01*
X164170602Y-97557780D01*
X164206912Y-97438082D01*
X164219172Y-97313600D01*
X164219172Y-97089619D01*
X164313752Y-96995039D01*
X164381100Y-97001672D01*
X165781100Y-97001672D01*
X165905582Y-96989412D01*
X166025280Y-96953102D01*
X166135594Y-96894137D01*
X166232285Y-96814785D01*
X166311637Y-96718094D01*
X166370602Y-96607780D01*
X166380970Y-96573600D01*
X167284552Y-96573600D01*
X167320365Y-96660061D01*
X167467412Y-96880132D01*
X167654568Y-97067288D01*
X167874639Y-97214335D01*
X168119169Y-97315623D01*
X168378761Y-97367259D01*
X168643439Y-97367259D01*
X168903031Y-97315623D01*
X169147561Y-97214335D01*
X169367632Y-97067288D01*
X169554788Y-96880132D01*
X169701835Y-96660061D01*
X169781100Y-96468699D01*
X169860365Y-96660061D01*
X170007412Y-96880132D01*
X170194568Y-97067288D01*
X170414639Y-97214335D01*
X170659169Y-97315623D01*
X170918761Y-97367259D01*
X171148741Y-97367259D01*
X171140441Y-97408983D01*
X171140441Y-97598217D01*
X171177359Y-97783814D01*
X171249775Y-97958643D01*
X171354908Y-98115984D01*
X171488716Y-98249792D01*
X171646057Y-98354925D01*
X171820886Y-98427341D01*
X172006483Y-98464259D01*
X172195717Y-98464259D01*
X172381314Y-98427341D01*
X172556143Y-98354925D01*
X172713484Y-98249792D01*
X172847292Y-98115984D01*
X172952425Y-97958643D01*
X173024841Y-97783814D01*
X173061759Y-97598217D01*
X173061759Y-97408983D01*
X173028946Y-97244025D01*
X173143682Y-97297473D01*
X173400800Y-97360283D01*
X173665230Y-97371725D01*
X173926812Y-97331359D01*
X174175492Y-97240737D01*
X174278440Y-97185709D01*
X174338952Y-96951057D01*
X173591100Y-96203205D01*
X173576958Y-96217348D01*
X173397353Y-96037743D01*
X173411495Y-96023600D01*
X173770705Y-96023600D01*
X174518557Y-96771452D01*
X174753209Y-96710940D01*
X174863431Y-96474327D01*
X174940365Y-96660061D01*
X175087412Y-96880132D01*
X175274568Y-97067288D01*
X175494639Y-97214335D01*
X175739169Y-97315623D01*
X175998761Y-97367259D01*
X176263439Y-97367259D01*
X176523031Y-97315623D01*
X176767561Y-97214335D01*
X176987632Y-97067288D01*
X177174788Y-96880132D01*
X177321835Y-96660061D01*
X177423123Y-96415531D01*
X177474759Y-96155939D01*
X177474759Y-95891261D01*
X177423123Y-95631669D01*
X177321835Y-95387139D01*
X177174788Y-95167068D01*
X176987632Y-94979912D01*
X176767561Y-94832865D01*
X176523031Y-94731577D01*
X176263439Y-94679941D01*
X175998761Y-94679941D01*
X175739169Y-94731577D01*
X175494639Y-94832865D01*
X175274568Y-94979912D01*
X175087412Y-95167068D01*
X174940365Y-95387139D01*
X174859981Y-95581202D01*
X174808237Y-95439208D01*
X174753209Y-95336260D01*
X174518557Y-95275748D01*
X173770705Y-96023600D01*
X173411495Y-96023600D01*
X173397353Y-96009458D01*
X173576958Y-95829853D01*
X173591100Y-95843995D01*
X174338952Y-95096143D01*
X174278440Y-94861491D01*
X174038518Y-94749727D01*
X173781400Y-94686917D01*
X173516970Y-94675475D01*
X173255388Y-94715841D01*
X173006708Y-94806463D01*
X172903760Y-94861491D01*
X172843249Y-95096141D01*
X172811100Y-95063992D01*
X172811100Y-79091052D01*
X172851915Y-79140785D01*
X172948606Y-79220137D01*
X173058920Y-79279102D01*
X173178618Y-79315412D01*
X173303100Y-79327672D01*
X174573028Y-79327672D01*
X174573028Y-81503600D01*
X174585288Y-81628082D01*
X174621598Y-81747780D01*
X174680563Y-81858094D01*
X174759915Y-81954785D01*
X174856606Y-82034137D01*
X174966920Y-82093102D01*
X175086618Y-82129412D01*
X175201101Y-82140687D01*
X175201100Y-90666513D01*
X175086618Y-90677788D01*
X174966920Y-90714098D01*
X174856606Y-90773063D01*
X174759915Y-90852415D01*
X174680563Y-90949106D01*
X174621598Y-91059420D01*
X174585288Y-91179118D01*
X174573028Y-91303600D01*
X174573028Y-94003600D01*
X174585288Y-94128082D01*
X174621598Y-94247780D01*
X174680563Y-94358094D01*
X174759915Y-94454785D01*
X174856606Y-94534137D01*
X174966920Y-94593102D01*
X175086618Y-94629412D01*
X175211100Y-94641672D01*
X176611100Y-94641672D01*
X176735582Y-94629412D01*
X176855280Y-94593102D01*
X176965594Y-94534137D01*
X177062285Y-94454785D01*
X177141637Y-94358094D01*
X177200602Y-94247780D01*
X177236912Y-94128082D01*
X177249172Y-94003600D01*
X177249172Y-91303600D01*
X177236912Y-91179118D01*
X177200602Y-91059420D01*
X177141637Y-90949106D01*
X177062285Y-90852415D01*
X176965594Y-90773063D01*
X176855280Y-90714098D01*
X176735582Y-90677788D01*
X176621100Y-90666513D01*
X176621100Y-84396888D01*
X178226100Y-84396888D01*
X178226100Y-84630312D01*
X178271639Y-84859252D01*
X178360966Y-85074908D01*
X178490650Y-85268994D01*
X178655706Y-85434050D01*
X178849792Y-85563734D01*
X179065448Y-85653061D01*
X179294388Y-85698600D01*
X179527812Y-85698600D01*
X179756752Y-85653061D01*
X179940155Y-85577093D01*
X179961598Y-85647780D01*
X180020563Y-85758094D01*
X180099915Y-85854785D01*
X180196606Y-85934137D01*
X180306920Y-85993102D01*
X180426618Y-86029412D01*
X180551100Y-86041672D01*
X181015350Y-86038600D01*
X181174100Y-85879850D01*
X181174100Y-84780600D01*
X181154100Y-84780600D01*
X181154100Y-84526600D01*
X181174100Y-84526600D01*
X181174100Y-83427350D01*
X181015350Y-83268600D01*
X180551100Y-83265528D01*
X180426618Y-83277788D01*
X180306920Y-83314098D01*
X180196606Y-83373063D01*
X180099915Y-83452415D01*
X180048900Y-83514577D01*
X179972408Y-83463466D01*
X179756752Y-83374139D01*
X179527812Y-83328600D01*
X179294388Y-83328600D01*
X179065448Y-83374139D01*
X178849792Y-83463466D01*
X178655706Y-83593150D01*
X178490650Y-83758206D01*
X178360966Y-83952292D01*
X178271639Y-84167948D01*
X178226100Y-84396888D01*
X176621100Y-84396888D01*
X176621100Y-82140687D01*
X176735582Y-82129412D01*
X176855280Y-82093102D01*
X176965594Y-82034137D01*
X177062285Y-81954785D01*
X177141637Y-81858094D01*
X177200602Y-81747780D01*
X177236912Y-81628082D01*
X177249172Y-81503600D01*
X177249172Y-80745209D01*
X177296606Y-80784137D01*
X177406920Y-80843102D01*
X177526618Y-80879412D01*
X177651100Y-80891672D01*
X178751100Y-80891672D01*
X178875582Y-80879412D01*
X178995280Y-80843102D01*
X179051100Y-80813265D01*
X179106920Y-80843102D01*
X179226618Y-80879412D01*
X179351100Y-80891672D01*
X180451100Y-80891672D01*
X180575582Y-80879412D01*
X180695280Y-80843102D01*
X180750473Y-80813600D01*
X181976828Y-80813600D01*
X181976828Y-81476600D01*
X181989088Y-81601082D01*
X182025398Y-81720780D01*
X182084363Y-81831094D01*
X182163715Y-81927785D01*
X182260406Y-82007137D01*
X182370720Y-82066102D01*
X182490418Y-82102412D01*
X182614900Y-82114672D01*
X182707300Y-82114672D01*
X182707300Y-82384925D01*
X182703865Y-82419800D01*
X182707300Y-82454675D01*
X182707300Y-82454676D01*
X182717573Y-82558983D01*
X182758172Y-82692819D01*
X182824100Y-82816162D01*
X182912825Y-82924274D01*
X182939917Y-82946508D01*
X183325534Y-83332125D01*
X183307812Y-83328600D01*
X183074388Y-83328600D01*
X182845448Y-83374139D01*
X182629792Y-83463466D01*
X182553300Y-83514577D01*
X182502285Y-83452415D01*
X182405594Y-83373063D01*
X182295280Y-83314098D01*
X182175582Y-83277788D01*
X182051100Y-83265528D01*
X181586850Y-83268600D01*
X181428100Y-83427350D01*
X181428100Y-84526600D01*
X181448100Y-84526600D01*
X181448100Y-84780600D01*
X181428100Y-84780600D01*
X181428100Y-85879850D01*
X181586850Y-86038600D01*
X182051100Y-86041672D01*
X182175582Y-86029412D01*
X182295280Y-85993102D01*
X182405594Y-85934137D01*
X182502285Y-85854785D01*
X182581637Y-85758094D01*
X182640602Y-85647780D01*
X182662045Y-85577093D01*
X182845448Y-85653061D01*
X183074388Y-85698600D01*
X183307812Y-85698600D01*
X183536752Y-85653061D01*
X183591100Y-85630549D01*
X183591101Y-87176651D01*
X183536752Y-87154139D01*
X183307812Y-87108600D01*
X183074388Y-87108600D01*
X182845448Y-87154139D01*
X182662045Y-87230107D01*
X182640602Y-87159420D01*
X182581637Y-87049106D01*
X182502285Y-86952415D01*
X182405594Y-86873063D01*
X182295280Y-86814098D01*
X182175582Y-86777788D01*
X182051100Y-86765528D01*
X180551100Y-86765528D01*
X180426618Y-86777788D01*
X180306920Y-86814098D01*
X180196606Y-86873063D01*
X180099915Y-86952415D01*
X180020563Y-87049106D01*
X179961598Y-87159420D01*
X179940155Y-87230107D01*
X179756752Y-87154139D01*
X179527812Y-87108600D01*
X179294388Y-87108600D01*
X179065448Y-87154139D01*
X178849792Y-87243466D01*
X178655706Y-87373150D01*
X178490650Y-87538206D01*
X178360966Y-87732292D01*
X178271639Y-87947948D01*
X178226100Y-88176888D01*
X178226100Y-88410312D01*
X178271639Y-88639252D01*
X178360966Y-88854908D01*
X178490650Y-89048994D01*
X178655706Y-89214050D01*
X178849792Y-89343734D01*
X179065448Y-89433061D01*
X179294388Y-89478600D01*
X179527812Y-89478600D01*
X179756752Y-89433061D01*
X179972408Y-89343734D01*
X180048900Y-89292623D01*
X180099915Y-89354785D01*
X180196606Y-89434137D01*
X180306920Y-89493102D01*
X180426618Y-89529412D01*
X180456087Y-89532314D01*
X180441598Y-89559420D01*
X180405288Y-89679118D01*
X180393028Y-89803600D01*
X180393028Y-91403600D01*
X180405288Y-91528082D01*
X180441598Y-91647780D01*
X180500563Y-91758094D01*
X180579915Y-91854785D01*
X180676606Y-91934137D01*
X180786920Y-91993102D01*
X180906618Y-92029412D01*
X181031100Y-92041672D01*
X182331100Y-92041672D01*
X182455582Y-92029412D01*
X182575280Y-91993102D01*
X182631100Y-91963265D01*
X182686920Y-91993102D01*
X182806618Y-92029412D01*
X182931100Y-92041672D01*
X184231100Y-92041672D01*
X184355582Y-92029412D01*
X184475280Y-91993102D01*
X184585594Y-91934137D01*
X184682285Y-91854785D01*
X184700583Y-91832489D01*
X184759915Y-91904785D01*
X184856606Y-91984137D01*
X184910525Y-92012958D01*
X184875288Y-92129118D01*
X184863028Y-92253600D01*
X184866100Y-92467850D01*
X185024850Y-92626600D01*
X185924100Y-92626600D01*
X185924100Y-92606600D01*
X186178100Y-92606600D01*
X186178100Y-92626600D01*
X186198100Y-92626600D01*
X186198100Y-92880600D01*
X186178100Y-92880600D01*
X186178100Y-92900600D01*
X185924100Y-92900600D01*
X185924100Y-92880600D01*
X185024850Y-92880600D01*
X184866100Y-93039350D01*
X184863028Y-93253600D01*
X184875288Y-93378082D01*
X184889681Y-93425528D01*
X183751100Y-93425528D01*
X183626618Y-93437788D01*
X183506920Y-93474098D01*
X183396606Y-93533063D01*
X183299915Y-93612415D01*
X183220563Y-93709106D01*
X183161598Y-93819420D01*
X183125288Y-93939118D01*
X183113028Y-94063600D01*
X183113028Y-94663600D01*
X183125288Y-94788082D01*
X183161598Y-94907780D01*
X183220563Y-95018094D01*
X183299915Y-95114785D01*
X183396606Y-95194137D01*
X183506920Y-95253102D01*
X183626618Y-95289412D01*
X183751100Y-95301672D01*
X184951100Y-95301672D01*
X185075582Y-95289412D01*
X185195280Y-95253102D01*
X185305594Y-95194137D01*
X185402285Y-95114785D01*
X185447698Y-95059448D01*
X185574850Y-95186600D01*
X185687422Y-95186600D01*
X185696606Y-95194137D01*
X185806920Y-95253102D01*
X185926618Y-95289412D01*
X186051100Y-95301672D01*
X186206504Y-95301672D01*
X186127861Y-95325528D01*
X186051100Y-95325528D01*
X185926618Y-95337788D01*
X185806920Y-95374098D01*
X185696606Y-95433063D01*
X185687422Y-95440600D01*
X185574850Y-95440600D01*
X185447698Y-95567752D01*
X185402285Y-95512415D01*
X185305594Y-95433063D01*
X185195280Y-95374098D01*
X185075582Y-95337788D01*
X184951100Y-95325528D01*
X183751100Y-95325528D01*
X183626618Y-95337788D01*
X183506920Y-95374098D01*
X183470435Y-95393600D01*
X182539172Y-95393600D01*
X182539172Y-93903600D01*
X182526912Y-93779118D01*
X182490602Y-93659420D01*
X182431637Y-93549106D01*
X182352285Y-93452415D01*
X182255594Y-93373063D01*
X182145280Y-93314098D01*
X182025582Y-93277788D01*
X181901100Y-93265528D01*
X179501100Y-93265528D01*
X179376618Y-93277788D01*
X179256920Y-93314098D01*
X179146606Y-93373063D01*
X179049915Y-93452415D01*
X178970563Y-93549106D01*
X178940926Y-93604551D01*
X178881314Y-93579859D01*
X178695717Y-93542941D01*
X178506483Y-93542941D01*
X178320886Y-93579859D01*
X178146057Y-93652275D01*
X177988716Y-93757408D01*
X177854908Y-93891216D01*
X177749775Y-94048557D01*
X177677359Y-94223386D01*
X177640441Y-94408983D01*
X177640441Y-94598217D01*
X177677359Y-94783814D01*
X177749775Y-94958643D01*
X177854908Y-95115984D01*
X177988716Y-95249792D01*
X178146057Y-95354925D01*
X178320886Y-95427341D01*
X178506483Y-95464259D01*
X178695717Y-95464259D01*
X178863028Y-95430978D01*
X178863028Y-96303600D01*
X178875288Y-96428082D01*
X178911598Y-96547780D01*
X178970563Y-96658094D01*
X179049915Y-96754785D01*
X179146606Y-96834137D01*
X179256920Y-96893102D01*
X179376618Y-96929412D01*
X179501100Y-96941672D01*
X181901100Y-96941672D01*
X182025582Y-96929412D01*
X182145280Y-96893102D01*
X182255594Y-96834137D01*
X182280618Y-96813600D01*
X183164709Y-96813600D01*
X183220563Y-96918094D01*
X183299915Y-97014785D01*
X183396606Y-97094137D01*
X183506920Y-97153102D01*
X183626618Y-97189412D01*
X183751100Y-97201672D01*
X184951100Y-97201672D01*
X185075582Y-97189412D01*
X185195280Y-97153102D01*
X185305594Y-97094137D01*
X185402285Y-97014785D01*
X185481637Y-96918094D01*
X185501100Y-96881682D01*
X185520563Y-96918094D01*
X185599915Y-97014785D01*
X185696606Y-97094137D01*
X185806920Y-97153102D01*
X185926618Y-97189412D01*
X185941994Y-97190926D01*
X186090646Y-97270383D01*
X186286950Y-97329931D01*
X186439948Y-97345000D01*
X186859700Y-97345000D01*
X186859701Y-102152449D01*
X186854663Y-102203600D01*
X186874770Y-102407749D01*
X186934318Y-102604055D01*
X187031019Y-102784969D01*
X187128550Y-102903811D01*
X187128554Y-102903815D01*
X187161158Y-102943543D01*
X187200886Y-102976147D01*
X187528548Y-103303809D01*
X187561157Y-103343543D01*
X187719730Y-103473681D01*
X187900646Y-103570383D01*
X188036338Y-103611545D01*
X188045056Y-103640284D01*
X188169824Y-103873709D01*
X188337734Y-104078307D01*
X188542332Y-104246217D01*
X188724523Y-104343600D01*
X186295908Y-104343600D01*
X186438408Y-104201100D01*
X186626824Y-103919116D01*
X186756607Y-103605792D01*
X186822770Y-103273170D01*
X186822770Y-102934030D01*
X186756607Y-102601408D01*
X186626824Y-102288084D01*
X186438408Y-102006100D01*
X186198600Y-101766292D01*
X185916616Y-101577876D01*
X185603292Y-101448093D01*
X185270670Y-101381930D01*
X184931530Y-101381930D01*
X184598908Y-101448093D01*
X184285584Y-101577876D01*
X184003600Y-101766292D01*
X183763792Y-102006100D01*
X183575376Y-102288084D01*
X183445593Y-102601408D01*
X183379430Y-102934030D01*
X183379430Y-103273170D01*
X183445593Y-103605792D01*
X183575376Y-103919116D01*
X183763792Y-104201100D01*
X183906292Y-104343600D01*
X177403212Y-104343600D01*
X177423123Y-104295531D01*
X177474759Y-104035939D01*
X177474759Y-103771261D01*
X177423123Y-103511669D01*
X177321835Y-103267139D01*
X177174788Y-103047068D01*
X176987632Y-102859912D01*
X176767561Y-102712865D01*
X176523031Y-102611577D01*
X176263439Y-102559941D01*
X175998761Y-102559941D01*
X175739169Y-102611577D01*
X175494639Y-102712865D01*
X175274568Y-102859912D01*
X175087412Y-103047068D01*
X174940365Y-103267139D01*
X174861100Y-103458501D01*
X174781835Y-103267139D01*
X174634788Y-103047068D01*
X174447632Y-102859912D01*
X174227561Y-102712865D01*
X173983031Y-102611577D01*
X173723439Y-102559941D01*
X173458761Y-102559941D01*
X173199169Y-102611577D01*
X172954639Y-102712865D01*
X172734568Y-102859912D01*
X172547412Y-103047068D01*
X172400365Y-103267139D01*
X172321100Y-103458501D01*
X172241835Y-103267139D01*
X172094788Y-103047068D01*
X171907632Y-102859912D01*
X171687561Y-102712865D01*
X171443031Y-102611577D01*
X171183439Y-102559941D01*
X170918761Y-102559941D01*
X170659169Y-102611577D01*
X170414639Y-102712865D01*
X170194568Y-102859912D01*
X170007412Y-103047068D01*
X169860365Y-103267139D01*
X169781100Y-103458501D01*
X169701835Y-103267139D01*
X169554788Y-103047068D01*
X169367632Y-102859912D01*
X169147561Y-102712865D01*
X168903031Y-102611577D01*
X168643439Y-102559941D01*
X168378761Y-102559941D01*
X168119169Y-102611577D01*
X167874639Y-102712865D01*
X167654568Y-102859912D01*
X167467412Y-103047068D01*
X167320365Y-103267139D01*
X167219077Y-103511669D01*
X167167441Y-103771261D01*
X167167441Y-104035939D01*
X167219077Y-104295531D01*
X167238988Y-104343600D01*
X152521905Y-104343600D01*
X152335671Y-101303600D01*
X178863028Y-101303600D01*
X178875288Y-101428082D01*
X178911598Y-101547780D01*
X178970563Y-101658094D01*
X179049915Y-101754785D01*
X179146606Y-101834137D01*
X179256920Y-101893102D01*
X179376618Y-101929412D01*
X179501100Y-101941672D01*
X180415350Y-101938600D01*
X180574100Y-101779850D01*
X180574100Y-100230600D01*
X180828100Y-100230600D01*
X180828100Y-101779850D01*
X180986850Y-101938600D01*
X181901100Y-101941672D01*
X182025582Y-101929412D01*
X182145280Y-101893102D01*
X182255594Y-101834137D01*
X182352285Y-101754785D01*
X182431637Y-101658094D01*
X182490602Y-101547780D01*
X182526912Y-101428082D01*
X182539172Y-101303600D01*
X182536100Y-100389350D01*
X182377350Y-100230600D01*
X180828100Y-100230600D01*
X180574100Y-100230600D01*
X179024850Y-100230600D01*
X178866100Y-100389350D01*
X178863028Y-101303600D01*
X152335671Y-101303600D01*
X152188644Y-98903600D01*
X178863028Y-98903600D01*
X178866100Y-99817850D01*
X179024850Y-99976600D01*
X180574100Y-99976600D01*
X180574100Y-98427350D01*
X180828100Y-98427350D01*
X180828100Y-99976600D01*
X182377350Y-99976600D01*
X182536100Y-99817850D01*
X182539172Y-98903600D01*
X182526912Y-98779118D01*
X182490602Y-98659420D01*
X182431637Y-98549106D01*
X182352285Y-98452415D01*
X182255594Y-98373063D01*
X182145280Y-98314098D01*
X182025582Y-98277788D01*
X181901100Y-98265528D01*
X180986850Y-98268600D01*
X180828100Y-98427350D01*
X180574100Y-98427350D01*
X180415350Y-98268600D01*
X179501100Y-98265528D01*
X179376618Y-98277788D01*
X179256920Y-98314098D01*
X179146606Y-98373063D01*
X179049915Y-98452415D01*
X178970563Y-98549106D01*
X178911598Y-98659420D01*
X178875288Y-98779118D01*
X178863028Y-98903600D01*
X152188644Y-98903600D01*
X151257000Y-83695898D01*
X151257000Y-83295419D01*
X151346057Y-83354925D01*
X151520886Y-83427341D01*
X151706483Y-83464259D01*
X151895717Y-83464259D01*
X152081314Y-83427341D01*
X152256143Y-83354925D01*
X152413484Y-83249792D01*
X152547292Y-83115984D01*
X152652425Y-82958643D01*
X152724841Y-82783814D01*
X152761759Y-82598217D01*
X152761759Y-82408983D01*
X152724841Y-82223386D01*
X152652425Y-82048557D01*
X152547292Y-81891216D01*
X152511100Y-81855024D01*
X152511100Y-57602376D01*
X152529038Y-57607817D01*
X152726435Y-57627259D01*
X152791100Y-57627259D01*
X152791101Y-77755023D01*
X152754908Y-77791216D01*
X152649775Y-77948557D01*
X152577359Y-78123386D01*
X152540441Y-78308983D01*
X152540441Y-78498217D01*
X152577359Y-78683814D01*
X152649775Y-78858643D01*
X152754908Y-79015984D01*
X152888716Y-79149792D01*
X153046057Y-79254925D01*
X153220886Y-79327341D01*
X153406483Y-79364259D01*
X153595717Y-79364259D01*
X153781314Y-79327341D01*
X153956143Y-79254925D01*
X154113484Y-79149792D01*
X154247292Y-79015984D01*
X154352425Y-78858643D01*
X154383508Y-78783600D01*
X154943028Y-78783600D01*
X154943028Y-81483600D01*
X154955288Y-81608082D01*
X154991598Y-81727780D01*
X155050563Y-81838094D01*
X155129915Y-81934785D01*
X155226606Y-82014137D01*
X155336920Y-82073102D01*
X155456618Y-82109412D01*
X155571101Y-82120687D01*
X155571100Y-90646513D01*
X155456618Y-90657788D01*
X155336920Y-90694098D01*
X155226606Y-90753063D01*
X155129915Y-90832415D01*
X155050563Y-90929106D01*
X154991598Y-91039420D01*
X154955288Y-91159118D01*
X154943028Y-91283600D01*
X154943028Y-93983600D01*
X154955288Y-94108082D01*
X154991598Y-94227780D01*
X155050563Y-94338094D01*
X155129915Y-94434785D01*
X155226606Y-94514137D01*
X155336920Y-94573102D01*
X155456618Y-94609412D01*
X155581100Y-94621672D01*
X156981100Y-94621672D01*
X157105582Y-94609412D01*
X157225280Y-94573102D01*
X157335594Y-94514137D01*
X157432285Y-94434785D01*
X157511637Y-94338094D01*
X157570602Y-94227780D01*
X157606912Y-94108082D01*
X157619172Y-93983600D01*
X157619172Y-91283600D01*
X157606912Y-91159118D01*
X157570602Y-91039420D01*
X157511637Y-90929106D01*
X157432285Y-90832415D01*
X157335594Y-90753063D01*
X157225280Y-90694098D01*
X157105582Y-90657788D01*
X156991100Y-90646513D01*
X156991100Y-82120687D01*
X157105582Y-82109412D01*
X157225280Y-82073102D01*
X157335594Y-82014137D01*
X157432285Y-81934785D01*
X157511637Y-81838094D01*
X157570602Y-81727780D01*
X157606912Y-81608082D01*
X157619172Y-81483600D01*
X157619172Y-79959593D01*
X157781314Y-79927341D01*
X157956143Y-79854925D01*
X158113484Y-79749792D01*
X158247292Y-79615984D01*
X158352425Y-79458643D01*
X158424841Y-79283814D01*
X158461759Y-79098217D01*
X158461759Y-78908983D01*
X158424841Y-78723386D01*
X158352425Y-78548557D01*
X158247292Y-78391216D01*
X158113484Y-78257408D01*
X157956143Y-78152275D01*
X157781314Y-78079859D01*
X157595717Y-78042941D01*
X157406483Y-78042941D01*
X157220886Y-78079859D01*
X157046739Y-78151993D01*
X156981100Y-78145528D01*
X155581100Y-78145528D01*
X155456618Y-78157788D01*
X155336920Y-78194098D01*
X155226606Y-78253063D01*
X155129915Y-78332415D01*
X155050563Y-78429106D01*
X154991598Y-78539420D01*
X154955288Y-78659118D01*
X154943028Y-78783600D01*
X154383508Y-78783600D01*
X154424841Y-78683814D01*
X154461759Y-78498217D01*
X154461759Y-78308983D01*
X154424841Y-78123386D01*
X154352425Y-77948557D01*
X154247292Y-77791216D01*
X154211100Y-77755024D01*
X154211100Y-57627259D01*
X154275765Y-57627259D01*
X154473162Y-57607817D01*
X154491100Y-57602375D01*
X154491101Y-76255023D01*
X154454908Y-76291216D01*
X154349775Y-76448557D01*
X154277359Y-76623386D01*
X154240441Y-76808983D01*
X154240441Y-76998217D01*
X154277359Y-77183814D01*
X154349775Y-77358643D01*
X154454908Y-77515984D01*
X154588716Y-77649792D01*
X154746057Y-77754925D01*
X154920886Y-77827341D01*
X155106483Y-77864259D01*
X155295717Y-77864259D01*
X155481314Y-77827341D01*
X155656143Y-77754925D01*
X155813484Y-77649792D01*
X155947292Y-77515984D01*
X156052425Y-77358643D01*
X156124841Y-77183814D01*
X156161759Y-76998217D01*
X156161759Y-76808983D01*
X156124841Y-76623386D01*
X156052425Y-76448557D01*
X155947292Y-76291216D01*
X155911100Y-76255024D01*
X155911100Y-47038474D01*
X155914535Y-47003599D01*
X155909104Y-46948455D01*
X155900827Y-46864416D01*
X155860228Y-46730580D01*
X155794300Y-46607237D01*
X155771948Y-46580001D01*
X155727807Y-46526215D01*
X155727804Y-46526212D01*
X155705574Y-46499125D01*
X155678489Y-46476897D01*
X155538873Y-46337281D01*
X155559919Y-46123600D01*
X155533976Y-45860197D01*
X155457144Y-45606916D01*
X155332376Y-45373491D01*
X155164466Y-45168893D01*
X154959868Y-45000983D01*
X154726443Y-44876215D01*
X154473162Y-44799383D01*
X154275765Y-44779941D01*
X152726435Y-44779941D01*
X152529038Y-44799383D01*
X152275757Y-44876215D01*
X152042332Y-45000983D01*
X151837734Y-45168893D01*
X151669824Y-45373491D01*
X151545056Y-45606916D01*
X151468224Y-45860197D01*
X151442281Y-46123600D01*
X151468224Y-46387003D01*
X151545056Y-46640284D01*
X151669824Y-46873709D01*
X151837734Y-47078307D01*
X152042332Y-47246217D01*
X152275757Y-47370985D01*
X152350309Y-47393600D01*
X152275757Y-47416215D01*
X152042332Y-47540983D01*
X151837734Y-47708893D01*
X151669824Y-47913491D01*
X151545056Y-48146916D01*
X151468224Y-48400197D01*
X151442281Y-48663600D01*
X151468224Y-48927003D01*
X151545056Y-49180284D01*
X151669824Y-49413709D01*
X151837734Y-49618307D01*
X152042332Y-49786217D01*
X152275757Y-49910985D01*
X152350309Y-49933600D01*
X152275757Y-49956215D01*
X152042332Y-50080983D01*
X151837734Y-50248893D01*
X151669824Y-50453491D01*
X151545056Y-50686916D01*
X151468224Y-50940197D01*
X151442281Y-51203600D01*
X151447188Y-51253421D01*
X151323717Y-51376892D01*
X151296625Y-51399126D01*
X151257000Y-51447409D01*
X151257000Y-43663600D01*
X162644096Y-43663600D01*
X162545593Y-43901408D01*
G36*
X192814403Y-92360367D02*
G01*
X192080295Y-104343600D01*
X191277677Y-104343600D01*
X191459868Y-104246217D01*
X191664466Y-104078307D01*
X191832376Y-103873709D01*
X191957144Y-103640284D01*
X192033976Y-103387003D01*
X192059919Y-103123600D01*
X192033976Y-102860197D01*
X191957144Y-102606916D01*
X191832376Y-102373491D01*
X191664466Y-102168893D01*
X191459868Y-102000983D01*
X191226443Y-101876215D01*
X191152391Y-101853752D01*
X191341288Y-101776378D01*
X191561853Y-101630254D01*
X191749672Y-101443908D01*
X191897528Y-101224500D01*
X191999739Y-100980463D01*
X192011067Y-100918290D01*
X191887842Y-100710600D01*
X190128100Y-100710600D01*
X190128100Y-100730600D01*
X189874100Y-100730600D01*
X189874100Y-100710600D01*
X189854100Y-100710600D01*
X189854100Y-100456600D01*
X189874100Y-100456600D01*
X189874100Y-99239941D01*
X190128100Y-99239941D01*
X190128100Y-100456600D01*
X191887842Y-100456600D01*
X192011067Y-100248910D01*
X191999739Y-100186737D01*
X191897528Y-99942700D01*
X191749672Y-99723292D01*
X191561853Y-99536946D01*
X191341288Y-99390822D01*
X191096454Y-99290536D01*
X190836759Y-99239941D01*
X190128100Y-99239941D01*
X189874100Y-99239941D01*
X189165441Y-99239941D01*
X188942500Y-99283375D01*
X188942500Y-96354752D01*
X188947538Y-96303600D01*
X188942500Y-96252448D01*
X188942500Y-94354752D01*
X188947538Y-94303600D01*
X188942500Y-94252448D01*
X188942500Y-93795000D01*
X190499959Y-93795000D01*
X190551100Y-93800037D01*
X190602241Y-93795000D01*
X190602252Y-93795000D01*
X190755250Y-93779931D01*
X190951554Y-93720383D01*
X191132470Y-93623681D01*
X191291043Y-93493543D01*
X191323652Y-93453809D01*
X192819288Y-91958173D01*
X192814403Y-92360367D01*
G37*
X192814403Y-92360367D02*
X192080295Y-104343600D01*
X191277677Y-104343600D01*
X191459868Y-104246217D01*
X191664466Y-104078307D01*
X191832376Y-103873709D01*
X191957144Y-103640284D01*
X192033976Y-103387003D01*
X192059919Y-103123600D01*
X192033976Y-102860197D01*
X191957144Y-102606916D01*
X191832376Y-102373491D01*
X191664466Y-102168893D01*
X191459868Y-102000983D01*
X191226443Y-101876215D01*
X191152391Y-101853752D01*
X191341288Y-101776378D01*
X191561853Y-101630254D01*
X191749672Y-101443908D01*
X191897528Y-101224500D01*
X191999739Y-100980463D01*
X192011067Y-100918290D01*
X191887842Y-100710600D01*
X190128100Y-100710600D01*
X190128100Y-100730600D01*
X189874100Y-100730600D01*
X189874100Y-100710600D01*
X189854100Y-100710600D01*
X189854100Y-100456600D01*
X189874100Y-100456600D01*
X189874100Y-99239941D01*
X190128100Y-99239941D01*
X190128100Y-100456600D01*
X191887842Y-100456600D01*
X192011067Y-100248910D01*
X191999739Y-100186737D01*
X191897528Y-99942700D01*
X191749672Y-99723292D01*
X191561853Y-99536946D01*
X191341288Y-99390822D01*
X191096454Y-99290536D01*
X190836759Y-99239941D01*
X190128100Y-99239941D01*
X189874100Y-99239941D01*
X189165441Y-99239941D01*
X188942500Y-99283375D01*
X188942500Y-96354752D01*
X188947538Y-96303600D01*
X188942500Y-96252448D01*
X188942500Y-94354752D01*
X188947538Y-94303600D01*
X188942500Y-94252448D01*
X188942500Y-93795000D01*
X190499959Y-93795000D01*
X190551100Y-93800037D01*
X190602241Y-93795000D01*
X190602252Y-93795000D01*
X190755250Y-93779931D01*
X190951554Y-93720383D01*
X191132470Y-93623681D01*
X191291043Y-93493543D01*
X191323652Y-93453809D01*
X192819288Y-91958173D01*
X192814403Y-92360367D01*
G36*
X163466101Y-47115680D02*
G01*
X163466100Y-48575227D01*
X163445280Y-48564098D01*
X163325582Y-48527788D01*
X163201100Y-48515528D01*
X162936850Y-48518600D01*
X162778100Y-48677350D01*
X162778100Y-49526600D01*
X162798100Y-49526600D01*
X162798100Y-49780600D01*
X162778100Y-49780600D01*
X162778100Y-50629850D01*
X162936850Y-50788600D01*
X163201100Y-50791672D01*
X163325582Y-50779412D01*
X163445280Y-50743102D01*
X163458301Y-50736142D01*
X163458301Y-50948500D01*
X163408606Y-50975063D01*
X163311915Y-51054415D01*
X163232563Y-51151106D01*
X163173598Y-51261420D01*
X163137288Y-51381118D01*
X163128100Y-51474408D01*
X163118912Y-51381118D01*
X163082602Y-51261420D01*
X163023637Y-51151106D01*
X162944285Y-51054415D01*
X162847594Y-50975063D01*
X162737280Y-50916098D01*
X162617582Y-50879788D01*
X162493100Y-50867528D01*
X162143850Y-50870600D01*
X161985100Y-51029350D01*
X161985100Y-53918600D01*
X162005100Y-53918600D01*
X162005100Y-54172600D01*
X161985100Y-54172600D01*
X161985100Y-57061850D01*
X162143850Y-57220600D01*
X162493100Y-57223672D01*
X162617582Y-57211412D01*
X162737280Y-57175102D01*
X162847594Y-57116137D01*
X162944285Y-57036785D01*
X163023637Y-56940094D01*
X163082602Y-56829780D01*
X163118912Y-56710082D01*
X163128100Y-56616792D01*
X163137288Y-56710082D01*
X163173598Y-56829780D01*
X163232563Y-56940094D01*
X163311915Y-57036785D01*
X163408606Y-57116137D01*
X163518920Y-57175102D01*
X163638618Y-57211412D01*
X163763100Y-57223672D01*
X165033100Y-57223672D01*
X165157582Y-57211412D01*
X165277280Y-57175102D01*
X165387594Y-57116137D01*
X165484285Y-57036785D01*
X165563637Y-56940094D01*
X165622602Y-56829780D01*
X165648100Y-56745724D01*
X165673598Y-56829780D01*
X165732563Y-56940094D01*
X165811915Y-57036785D01*
X165908606Y-57116137D01*
X166018920Y-57175102D01*
X166138618Y-57211412D01*
X166191101Y-57216581D01*
X166191100Y-70155024D01*
X166154908Y-70191216D01*
X166049775Y-70348557D01*
X165977359Y-70523386D01*
X165940441Y-70708983D01*
X165940441Y-70898217D01*
X165977359Y-71083814D01*
X166049775Y-71258643D01*
X166154908Y-71415984D01*
X166288716Y-71549792D01*
X166446057Y-71654925D01*
X166620886Y-71727341D01*
X166806483Y-71764259D01*
X166912817Y-71764259D01*
X166976795Y-71918715D01*
X167051119Y-72029949D01*
X167043885Y-72035885D01*
X166937329Y-72165725D01*
X166858150Y-72313858D01*
X166809392Y-72474592D01*
X166792928Y-72641750D01*
X166792928Y-73154250D01*
X166809392Y-73321408D01*
X166858150Y-73482142D01*
X166937329Y-73630275D01*
X167043885Y-73760115D01*
X167173725Y-73866671D01*
X167321858Y-73945850D01*
X167482592Y-73994608D01*
X167649750Y-74011072D01*
X168087250Y-74011072D01*
X168254408Y-73994608D01*
X168415142Y-73945850D01*
X168563275Y-73866671D01*
X168591101Y-73843835D01*
X168591100Y-77755024D01*
X168554908Y-77791216D01*
X168449775Y-77948557D01*
X168377359Y-78123386D01*
X168368976Y-78165528D01*
X167591100Y-78165528D01*
X167466618Y-78177788D01*
X167346920Y-78214098D01*
X167236606Y-78273063D01*
X167139915Y-78352415D01*
X167060563Y-78449106D01*
X167001598Y-78559420D01*
X166965288Y-78679118D01*
X166953028Y-78803600D01*
X166953028Y-81503600D01*
X166965288Y-81628082D01*
X167001598Y-81747780D01*
X167060563Y-81858094D01*
X167139915Y-81954785D01*
X167236606Y-82034137D01*
X167346920Y-82093102D01*
X167466618Y-82129412D01*
X167581101Y-82140687D01*
X167581100Y-90666513D01*
X167466618Y-90677788D01*
X167346920Y-90714098D01*
X167236606Y-90773063D01*
X167139915Y-90852415D01*
X167060563Y-90949106D01*
X167001598Y-91059420D01*
X166965288Y-91179118D01*
X166953028Y-91303600D01*
X166953028Y-91943600D01*
X165239172Y-91943600D01*
X165239172Y-91283600D01*
X165226912Y-91159118D01*
X165190602Y-91039420D01*
X165131637Y-90929106D01*
X165052285Y-90832415D01*
X164955594Y-90753063D01*
X164845280Y-90694098D01*
X164725582Y-90657788D01*
X164601100Y-90645528D01*
X163201100Y-90645528D01*
X163076618Y-90657788D01*
X162956920Y-90694098D01*
X162846606Y-90753063D01*
X162749915Y-90832415D01*
X162670563Y-90929106D01*
X162611598Y-91039420D01*
X162575288Y-91159118D01*
X162563028Y-91283600D01*
X162563028Y-93775528D01*
X162181100Y-93775528D01*
X162056618Y-93787788D01*
X162027100Y-93796742D01*
X162001637Y-93749106D01*
X161922285Y-93652415D01*
X161825594Y-93573063D01*
X161715280Y-93514098D01*
X161595582Y-93477788D01*
X161471100Y-93465528D01*
X160171100Y-93465528D01*
X160111100Y-93471437D01*
X160111100Y-84123288D01*
X160120886Y-84127341D01*
X160306483Y-84164259D01*
X160495717Y-84164259D01*
X160681314Y-84127341D01*
X160856143Y-84054925D01*
X161013484Y-83949792D01*
X161147292Y-83815984D01*
X161252425Y-83658643D01*
X161324841Y-83483814D01*
X161361759Y-83298217D01*
X161361759Y-83108983D01*
X161324841Y-82923386D01*
X161252425Y-82748557D01*
X161147292Y-82591216D01*
X161111100Y-82555024D01*
X161111100Y-81802811D01*
X161138226Y-81829937D01*
X161307744Y-81943205D01*
X161496102Y-82021226D01*
X161696061Y-82061000D01*
X161899939Y-82061000D01*
X162099898Y-82021226D01*
X162288256Y-81943205D01*
X162457774Y-81829937D01*
X162599573Y-81688138D01*
X162611598Y-81727780D01*
X162670563Y-81838094D01*
X162749915Y-81934785D01*
X162846606Y-82014137D01*
X162956920Y-82073102D01*
X163076618Y-82109412D01*
X163201100Y-82121672D01*
X164601100Y-82121672D01*
X164725582Y-82109412D01*
X164845280Y-82073102D01*
X164955594Y-82014137D01*
X165052285Y-81934785D01*
X165131637Y-81838094D01*
X165190602Y-81727780D01*
X165226912Y-81608082D01*
X165239172Y-81483600D01*
X165239172Y-78783600D01*
X165226912Y-78659118D01*
X165190602Y-78539420D01*
X165131637Y-78429106D01*
X165052285Y-78332415D01*
X164955594Y-78253063D01*
X164845280Y-78194098D01*
X164725582Y-78157788D01*
X164601100Y-78145528D01*
X163629245Y-78145528D01*
X163624841Y-78123386D01*
X163552425Y-77948557D01*
X163447292Y-77791216D01*
X163313484Y-77657408D01*
X163156143Y-77552275D01*
X162981314Y-77479859D01*
X162795717Y-77442941D01*
X162606483Y-77442941D01*
X162558000Y-77452585D01*
X162558000Y-75524301D01*
X162801230Y-75281072D01*
X163058250Y-75281072D01*
X163225408Y-75264608D01*
X163386142Y-75215850D01*
X163534275Y-75136671D01*
X163664115Y-75030115D01*
X163770671Y-74900275D01*
X163849850Y-74752142D01*
X163898608Y-74591408D01*
X163915072Y-74424250D01*
X163915072Y-73911750D01*
X163898608Y-73744592D01*
X163874573Y-73665357D01*
X163977592Y-73696608D01*
X164144750Y-73713072D01*
X164582250Y-73713072D01*
X164749408Y-73696608D01*
X164910142Y-73647850D01*
X165058275Y-73568671D01*
X165089979Y-73542653D01*
X165117744Y-73561205D01*
X165306102Y-73639226D01*
X165506061Y-73679000D01*
X165709939Y-73679000D01*
X165909898Y-73639226D01*
X166098256Y-73561205D01*
X166267774Y-73447937D01*
X166411937Y-73303774D01*
X166525205Y-73134256D01*
X166603226Y-72945898D01*
X166643000Y-72745939D01*
X166643000Y-72542061D01*
X166603226Y-72342102D01*
X166525205Y-72153744D01*
X166411937Y-71984226D01*
X166267774Y-71840063D01*
X166098256Y-71726795D01*
X165909898Y-71648774D01*
X165709939Y-71609000D01*
X165506061Y-71609000D01*
X165306102Y-71648774D01*
X165155530Y-71711143D01*
X165058275Y-71631329D01*
X164910142Y-71552150D01*
X164749408Y-71503392D01*
X164582250Y-71486928D01*
X164144750Y-71486928D01*
X163977592Y-71503392D01*
X163816858Y-71552150D01*
X163668725Y-71631329D01*
X163576000Y-71707426D01*
X163483275Y-71631329D01*
X163335142Y-71552150D01*
X163174408Y-71503392D01*
X163007250Y-71486928D01*
X162569750Y-71486928D01*
X162402592Y-71503392D01*
X162241858Y-71552150D01*
X162093725Y-71631329D01*
X161963885Y-71737885D01*
X161857329Y-71867725D01*
X161778150Y-72015858D01*
X161729392Y-72176592D01*
X161712928Y-72343750D01*
X161712928Y-72856250D01*
X161729392Y-73023408D01*
X161740091Y-73058680D01*
X161702000Y-73054928D01*
X161550250Y-73058000D01*
X161391500Y-73216750D01*
X161391500Y-74041000D01*
X161411500Y-74041000D01*
X161411500Y-74295000D01*
X161391500Y-74295000D01*
X161391500Y-74315000D01*
X161137500Y-74315000D01*
X161137500Y-74295000D01*
X160350750Y-74295000D01*
X160192000Y-74453750D01*
X160191414Y-74489823D01*
X160028100Y-74326509D01*
X160028100Y-73693000D01*
X160188928Y-73693000D01*
X160192000Y-73882250D01*
X160350750Y-74041000D01*
X161137500Y-74041000D01*
X161137500Y-73216750D01*
X160978750Y-73058000D01*
X160827000Y-73054928D01*
X160702518Y-73067188D01*
X160582820Y-73103498D01*
X160472506Y-73162463D01*
X160375815Y-73241815D01*
X160296463Y-73338506D01*
X160237498Y-73448820D01*
X160201188Y-73568518D01*
X160188928Y-73693000D01*
X160028100Y-73693000D01*
X160028100Y-57216285D01*
X160077582Y-57211412D01*
X160197280Y-57175102D01*
X160307594Y-57116137D01*
X160404285Y-57036785D01*
X160483637Y-56940094D01*
X160542602Y-56829780D01*
X160578912Y-56710082D01*
X160588100Y-56616792D01*
X160597288Y-56710082D01*
X160633598Y-56829780D01*
X160692563Y-56940094D01*
X160771915Y-57036785D01*
X160868606Y-57116137D01*
X160978920Y-57175102D01*
X161098618Y-57211412D01*
X161223100Y-57223672D01*
X161572350Y-57220600D01*
X161731100Y-57061850D01*
X161731100Y-54172600D01*
X161711100Y-54172600D01*
X161711100Y-53918600D01*
X161731100Y-53918600D01*
X161731100Y-51029350D01*
X161572350Y-50870600D01*
X161223100Y-50867528D01*
X161098618Y-50879788D01*
X160978920Y-50916098D01*
X160868606Y-50975063D01*
X160771915Y-51054415D01*
X160692563Y-51151106D01*
X160633598Y-51261420D01*
X160597288Y-51381118D01*
X160588100Y-51474408D01*
X160578912Y-51381118D01*
X160542602Y-51261420D01*
X160483637Y-51151106D01*
X160434177Y-51090839D01*
X160466211Y-51064550D01*
X160636209Y-50894552D01*
X160675943Y-50861943D01*
X160806081Y-50703370D01*
X160902783Y-50522454D01*
X160962331Y-50326150D01*
X160977400Y-50173152D01*
X160977400Y-50173142D01*
X160979324Y-50153600D01*
X161463028Y-50153600D01*
X161475288Y-50278082D01*
X161511598Y-50397780D01*
X161570563Y-50508094D01*
X161649915Y-50604785D01*
X161746606Y-50684137D01*
X161856920Y-50743102D01*
X161976618Y-50779412D01*
X162101100Y-50791672D01*
X162365350Y-50788600D01*
X162524100Y-50629850D01*
X162524100Y-49780600D01*
X161624850Y-49780600D01*
X161466100Y-49939350D01*
X161463028Y-50153600D01*
X160979324Y-50153600D01*
X160982437Y-50122001D01*
X160977400Y-50070859D01*
X160977400Y-49153600D01*
X161463028Y-49153600D01*
X161466100Y-49367850D01*
X161624850Y-49526600D01*
X162524100Y-49526600D01*
X162524100Y-48677350D01*
X162365350Y-48518600D01*
X162101100Y-48515528D01*
X161976618Y-48527788D01*
X161856920Y-48564098D01*
X161746606Y-48623063D01*
X161649915Y-48702415D01*
X161570563Y-48799106D01*
X161511598Y-48909420D01*
X161475288Y-49029118D01*
X161463028Y-49153600D01*
X160977400Y-49153600D01*
X160977400Y-47961536D01*
X160990494Y-47954537D01*
X161087185Y-47875185D01*
X161166537Y-47778494D01*
X161225502Y-47668180D01*
X161261812Y-47548482D01*
X161274072Y-47424000D01*
X161274072Y-47088453D01*
X161311518Y-47099812D01*
X161436000Y-47112072D01*
X162836000Y-47112072D01*
X162960482Y-47099812D01*
X163080180Y-47063502D01*
X163190494Y-47004537D01*
X163280826Y-46930404D01*
X163466101Y-47115680D01*
G37*
X163466101Y-47115680D02*
X163466100Y-48575227D01*
X163445280Y-48564098D01*
X163325582Y-48527788D01*
X163201100Y-48515528D01*
X162936850Y-48518600D01*
X162778100Y-48677350D01*
X162778100Y-49526600D01*
X162798100Y-49526600D01*
X162798100Y-49780600D01*
X162778100Y-49780600D01*
X162778100Y-50629850D01*
X162936850Y-50788600D01*
X163201100Y-50791672D01*
X163325582Y-50779412D01*
X163445280Y-50743102D01*
X163458301Y-50736142D01*
X163458301Y-50948500D01*
X163408606Y-50975063D01*
X163311915Y-51054415D01*
X163232563Y-51151106D01*
X163173598Y-51261420D01*
X163137288Y-51381118D01*
X163128100Y-51474408D01*
X163118912Y-51381118D01*
X163082602Y-51261420D01*
X163023637Y-51151106D01*
X162944285Y-51054415D01*
X162847594Y-50975063D01*
X162737280Y-50916098D01*
X162617582Y-50879788D01*
X162493100Y-50867528D01*
X162143850Y-50870600D01*
X161985100Y-51029350D01*
X161985100Y-53918600D01*
X162005100Y-53918600D01*
X162005100Y-54172600D01*
X161985100Y-54172600D01*
X161985100Y-57061850D01*
X162143850Y-57220600D01*
X162493100Y-57223672D01*
X162617582Y-57211412D01*
X162737280Y-57175102D01*
X162847594Y-57116137D01*
X162944285Y-57036785D01*
X163023637Y-56940094D01*
X163082602Y-56829780D01*
X163118912Y-56710082D01*
X163128100Y-56616792D01*
X163137288Y-56710082D01*
X163173598Y-56829780D01*
X163232563Y-56940094D01*
X163311915Y-57036785D01*
X163408606Y-57116137D01*
X163518920Y-57175102D01*
X163638618Y-57211412D01*
X163763100Y-57223672D01*
X165033100Y-57223672D01*
X165157582Y-57211412D01*
X165277280Y-57175102D01*
X165387594Y-57116137D01*
X165484285Y-57036785D01*
X165563637Y-56940094D01*
X165622602Y-56829780D01*
X165648100Y-56745724D01*
X165673598Y-56829780D01*
X165732563Y-56940094D01*
X165811915Y-57036785D01*
X165908606Y-57116137D01*
X166018920Y-57175102D01*
X166138618Y-57211412D01*
X166191101Y-57216581D01*
X166191100Y-70155024D01*
X166154908Y-70191216D01*
X166049775Y-70348557D01*
X165977359Y-70523386D01*
X165940441Y-70708983D01*
X165940441Y-70898217D01*
X165977359Y-71083814D01*
X166049775Y-71258643D01*
X166154908Y-71415984D01*
X166288716Y-71549792D01*
X166446057Y-71654925D01*
X166620886Y-71727341D01*
X166806483Y-71764259D01*
X166912817Y-71764259D01*
X166976795Y-71918715D01*
X167051119Y-72029949D01*
X167043885Y-72035885D01*
X166937329Y-72165725D01*
X166858150Y-72313858D01*
X166809392Y-72474592D01*
X166792928Y-72641750D01*
X166792928Y-73154250D01*
X166809392Y-73321408D01*
X166858150Y-73482142D01*
X166937329Y-73630275D01*
X167043885Y-73760115D01*
X167173725Y-73866671D01*
X167321858Y-73945850D01*
X167482592Y-73994608D01*
X167649750Y-74011072D01*
X168087250Y-74011072D01*
X168254408Y-73994608D01*
X168415142Y-73945850D01*
X168563275Y-73866671D01*
X168591101Y-73843835D01*
X168591100Y-77755024D01*
X168554908Y-77791216D01*
X168449775Y-77948557D01*
X168377359Y-78123386D01*
X168368976Y-78165528D01*
X167591100Y-78165528D01*
X167466618Y-78177788D01*
X167346920Y-78214098D01*
X167236606Y-78273063D01*
X167139915Y-78352415D01*
X167060563Y-78449106D01*
X167001598Y-78559420D01*
X166965288Y-78679118D01*
X166953028Y-78803600D01*
X166953028Y-81503600D01*
X166965288Y-81628082D01*
X167001598Y-81747780D01*
X167060563Y-81858094D01*
X167139915Y-81954785D01*
X167236606Y-82034137D01*
X167346920Y-82093102D01*
X167466618Y-82129412D01*
X167581101Y-82140687D01*
X167581100Y-90666513D01*
X167466618Y-90677788D01*
X167346920Y-90714098D01*
X167236606Y-90773063D01*
X167139915Y-90852415D01*
X167060563Y-90949106D01*
X167001598Y-91059420D01*
X166965288Y-91179118D01*
X166953028Y-91303600D01*
X166953028Y-91943600D01*
X165239172Y-91943600D01*
X165239172Y-91283600D01*
X165226912Y-91159118D01*
X165190602Y-91039420D01*
X165131637Y-90929106D01*
X165052285Y-90832415D01*
X164955594Y-90753063D01*
X164845280Y-90694098D01*
X164725582Y-90657788D01*
X164601100Y-90645528D01*
X163201100Y-90645528D01*
X163076618Y-90657788D01*
X162956920Y-90694098D01*
X162846606Y-90753063D01*
X162749915Y-90832415D01*
X162670563Y-90929106D01*
X162611598Y-91039420D01*
X162575288Y-91159118D01*
X162563028Y-91283600D01*
X162563028Y-93775528D01*
X162181100Y-93775528D01*
X162056618Y-93787788D01*
X162027100Y-93796742D01*
X162001637Y-93749106D01*
X161922285Y-93652415D01*
X161825594Y-93573063D01*
X161715280Y-93514098D01*
X161595582Y-93477788D01*
X161471100Y-93465528D01*
X160171100Y-93465528D01*
X160111100Y-93471437D01*
X160111100Y-84123288D01*
X160120886Y-84127341D01*
X160306483Y-84164259D01*
X160495717Y-84164259D01*
X160681314Y-84127341D01*
X160856143Y-84054925D01*
X161013484Y-83949792D01*
X161147292Y-83815984D01*
X161252425Y-83658643D01*
X161324841Y-83483814D01*
X161361759Y-83298217D01*
X161361759Y-83108983D01*
X161324841Y-82923386D01*
X161252425Y-82748557D01*
X161147292Y-82591216D01*
X161111100Y-82555024D01*
X161111100Y-81802811D01*
X161138226Y-81829937D01*
X161307744Y-81943205D01*
X161496102Y-82021226D01*
X161696061Y-82061000D01*
X161899939Y-82061000D01*
X162099898Y-82021226D01*
X162288256Y-81943205D01*
X162457774Y-81829937D01*
X162599573Y-81688138D01*
X162611598Y-81727780D01*
X162670563Y-81838094D01*
X162749915Y-81934785D01*
X162846606Y-82014137D01*
X162956920Y-82073102D01*
X163076618Y-82109412D01*
X163201100Y-82121672D01*
X164601100Y-82121672D01*
X164725582Y-82109412D01*
X164845280Y-82073102D01*
X164955594Y-82014137D01*
X165052285Y-81934785D01*
X165131637Y-81838094D01*
X165190602Y-81727780D01*
X165226912Y-81608082D01*
X165239172Y-81483600D01*
X165239172Y-78783600D01*
X165226912Y-78659118D01*
X165190602Y-78539420D01*
X165131637Y-78429106D01*
X165052285Y-78332415D01*
X164955594Y-78253063D01*
X164845280Y-78194098D01*
X164725582Y-78157788D01*
X164601100Y-78145528D01*
X163629245Y-78145528D01*
X163624841Y-78123386D01*
X163552425Y-77948557D01*
X163447292Y-77791216D01*
X163313484Y-77657408D01*
X163156143Y-77552275D01*
X162981314Y-77479859D01*
X162795717Y-77442941D01*
X162606483Y-77442941D01*
X162558000Y-77452585D01*
X162558000Y-75524301D01*
X162801230Y-75281072D01*
X163058250Y-75281072D01*
X163225408Y-75264608D01*
X163386142Y-75215850D01*
X163534275Y-75136671D01*
X163664115Y-75030115D01*
X163770671Y-74900275D01*
X163849850Y-74752142D01*
X163898608Y-74591408D01*
X163915072Y-74424250D01*
X163915072Y-73911750D01*
X163898608Y-73744592D01*
X163874573Y-73665357D01*
X163977592Y-73696608D01*
X164144750Y-73713072D01*
X164582250Y-73713072D01*
X164749408Y-73696608D01*
X164910142Y-73647850D01*
X165058275Y-73568671D01*
X165089979Y-73542653D01*
X165117744Y-73561205D01*
X165306102Y-73639226D01*
X165506061Y-73679000D01*
X165709939Y-73679000D01*
X165909898Y-73639226D01*
X166098256Y-73561205D01*
X166267774Y-73447937D01*
X166411937Y-73303774D01*
X166525205Y-73134256D01*
X166603226Y-72945898D01*
X166643000Y-72745939D01*
X166643000Y-72542061D01*
X166603226Y-72342102D01*
X166525205Y-72153744D01*
X166411937Y-71984226D01*
X166267774Y-71840063D01*
X166098256Y-71726795D01*
X165909898Y-71648774D01*
X165709939Y-71609000D01*
X165506061Y-71609000D01*
X165306102Y-71648774D01*
X165155530Y-71711143D01*
X165058275Y-71631329D01*
X164910142Y-71552150D01*
X164749408Y-71503392D01*
X164582250Y-71486928D01*
X164144750Y-71486928D01*
X163977592Y-71503392D01*
X163816858Y-71552150D01*
X163668725Y-71631329D01*
X163576000Y-71707426D01*
X163483275Y-71631329D01*
X163335142Y-71552150D01*
X163174408Y-71503392D01*
X163007250Y-71486928D01*
X162569750Y-71486928D01*
X162402592Y-71503392D01*
X162241858Y-71552150D01*
X162093725Y-71631329D01*
X161963885Y-71737885D01*
X161857329Y-71867725D01*
X161778150Y-72015858D01*
X161729392Y-72176592D01*
X161712928Y-72343750D01*
X161712928Y-72856250D01*
X161729392Y-73023408D01*
X161740091Y-73058680D01*
X161702000Y-73054928D01*
X161550250Y-73058000D01*
X161391500Y-73216750D01*
X161391500Y-74041000D01*
X161411500Y-74041000D01*
X161411500Y-74295000D01*
X161391500Y-74295000D01*
X161391500Y-74315000D01*
X161137500Y-74315000D01*
X161137500Y-74295000D01*
X160350750Y-74295000D01*
X160192000Y-74453750D01*
X160191414Y-74489823D01*
X160028100Y-74326509D01*
X160028100Y-73693000D01*
X160188928Y-73693000D01*
X160192000Y-73882250D01*
X160350750Y-74041000D01*
X161137500Y-74041000D01*
X161137500Y-73216750D01*
X160978750Y-73058000D01*
X160827000Y-73054928D01*
X160702518Y-73067188D01*
X160582820Y-73103498D01*
X160472506Y-73162463D01*
X160375815Y-73241815D01*
X160296463Y-73338506D01*
X160237498Y-73448820D01*
X160201188Y-73568518D01*
X160188928Y-73693000D01*
X160028100Y-73693000D01*
X160028100Y-57216285D01*
X160077582Y-57211412D01*
X160197280Y-57175102D01*
X160307594Y-57116137D01*
X160404285Y-57036785D01*
X160483637Y-56940094D01*
X160542602Y-56829780D01*
X160578912Y-56710082D01*
X160588100Y-56616792D01*
X160597288Y-56710082D01*
X160633598Y-56829780D01*
X160692563Y-56940094D01*
X160771915Y-57036785D01*
X160868606Y-57116137D01*
X160978920Y-57175102D01*
X161098618Y-57211412D01*
X161223100Y-57223672D01*
X161572350Y-57220600D01*
X161731100Y-57061850D01*
X161731100Y-54172600D01*
X161711100Y-54172600D01*
X161711100Y-53918600D01*
X161731100Y-53918600D01*
X161731100Y-51029350D01*
X161572350Y-50870600D01*
X161223100Y-50867528D01*
X161098618Y-50879788D01*
X160978920Y-50916098D01*
X160868606Y-50975063D01*
X160771915Y-51054415D01*
X160692563Y-51151106D01*
X160633598Y-51261420D01*
X160597288Y-51381118D01*
X160588100Y-51474408D01*
X160578912Y-51381118D01*
X160542602Y-51261420D01*
X160483637Y-51151106D01*
X160434177Y-51090839D01*
X160466211Y-51064550D01*
X160636209Y-50894552D01*
X160675943Y-50861943D01*
X160806081Y-50703370D01*
X160902783Y-50522454D01*
X160962331Y-50326150D01*
X160977400Y-50173152D01*
X160977400Y-50173142D01*
X160979324Y-50153600D01*
X161463028Y-50153600D01*
X161475288Y-50278082D01*
X161511598Y-50397780D01*
X161570563Y-50508094D01*
X161649915Y-50604785D01*
X161746606Y-50684137D01*
X161856920Y-50743102D01*
X161976618Y-50779412D01*
X162101100Y-50791672D01*
X162365350Y-50788600D01*
X162524100Y-50629850D01*
X162524100Y-49780600D01*
X161624850Y-49780600D01*
X161466100Y-49939350D01*
X161463028Y-50153600D01*
X160979324Y-50153600D01*
X160982437Y-50122001D01*
X160977400Y-50070859D01*
X160977400Y-49153600D01*
X161463028Y-49153600D01*
X161466100Y-49367850D01*
X161624850Y-49526600D01*
X162524100Y-49526600D01*
X162524100Y-48677350D01*
X162365350Y-48518600D01*
X162101100Y-48515528D01*
X161976618Y-48527788D01*
X161856920Y-48564098D01*
X161746606Y-48623063D01*
X161649915Y-48702415D01*
X161570563Y-48799106D01*
X161511598Y-48909420D01*
X161475288Y-49029118D01*
X161463028Y-49153600D01*
X160977400Y-49153600D01*
X160977400Y-47961536D01*
X160990494Y-47954537D01*
X161087185Y-47875185D01*
X161166537Y-47778494D01*
X161225502Y-47668180D01*
X161261812Y-47548482D01*
X161274072Y-47424000D01*
X161274072Y-47088453D01*
X161311518Y-47099812D01*
X161436000Y-47112072D01*
X162836000Y-47112072D01*
X162960482Y-47099812D01*
X163080180Y-47063502D01*
X163190494Y-47004537D01*
X163280826Y-46930404D01*
X163466101Y-47115680D01*
G36*
X188673028Y-83053600D02*
G01*
X188685288Y-83178082D01*
X188715461Y-83277550D01*
X188556850Y-83278600D01*
X188398100Y-83437350D01*
X188398100Y-84536600D01*
X188418100Y-84536600D01*
X188418100Y-84790600D01*
X188398100Y-84790600D01*
X188398100Y-85889850D01*
X188556850Y-86048600D01*
X189021100Y-86051672D01*
X189145582Y-86039412D01*
X189265280Y-86003102D01*
X189375594Y-85944137D01*
X189472285Y-85864785D01*
X189551637Y-85768094D01*
X189610602Y-85657780D01*
X189632045Y-85587093D01*
X189815448Y-85663061D01*
X190044388Y-85708600D01*
X190277812Y-85708600D01*
X190506752Y-85663061D01*
X190722408Y-85573734D01*
X190916494Y-85444050D01*
X191081550Y-85278994D01*
X191211234Y-85084908D01*
X191300561Y-84869252D01*
X191346100Y-84640312D01*
X191346100Y-84406888D01*
X191300561Y-84177948D01*
X191211234Y-83962292D01*
X191081550Y-83768206D01*
X190944419Y-83631075D01*
X190966920Y-83643102D01*
X191086618Y-83679412D01*
X191211100Y-83691672D01*
X191559701Y-83691672D01*
X191559700Y-90272238D01*
X190119739Y-91712200D01*
X188992894Y-91712200D01*
X189000602Y-91697780D01*
X189036912Y-91578082D01*
X189049172Y-91453600D01*
X189049172Y-89853600D01*
X189036912Y-89729118D01*
X189000602Y-89609420D01*
X188981100Y-89572935D01*
X188981100Y-89551672D01*
X189021100Y-89551672D01*
X189145582Y-89539412D01*
X189265280Y-89503102D01*
X189375594Y-89444137D01*
X189472285Y-89364785D01*
X189523300Y-89302623D01*
X189599792Y-89353734D01*
X189815448Y-89443061D01*
X190044388Y-89488600D01*
X190277812Y-89488600D01*
X190506752Y-89443061D01*
X190722408Y-89353734D01*
X190916494Y-89224050D01*
X191081550Y-89058994D01*
X191211234Y-88864908D01*
X191300561Y-88649252D01*
X191346100Y-88420312D01*
X191346100Y-88186888D01*
X191300561Y-87957948D01*
X191211234Y-87742292D01*
X191081550Y-87548206D01*
X190916494Y-87383150D01*
X190722408Y-87253466D01*
X190506752Y-87164139D01*
X190277812Y-87118600D01*
X190044388Y-87118600D01*
X189815448Y-87164139D01*
X189632045Y-87240107D01*
X189610602Y-87169420D01*
X189551637Y-87059106D01*
X189472285Y-86962415D01*
X189375594Y-86883063D01*
X189265280Y-86824098D01*
X189145582Y-86787788D01*
X189021100Y-86775528D01*
X187521100Y-86775528D01*
X187396618Y-86787788D01*
X187276920Y-86824098D01*
X187166606Y-86883063D01*
X187069915Y-86962415D01*
X186990563Y-87059106D01*
X186931598Y-87169420D01*
X186910155Y-87240107D01*
X186726752Y-87164139D01*
X186497812Y-87118600D01*
X186264388Y-87118600D01*
X186035448Y-87164139D01*
X186011100Y-87174224D01*
X186011100Y-85652976D01*
X186035448Y-85663061D01*
X186264388Y-85708600D01*
X186497812Y-85708600D01*
X186726752Y-85663061D01*
X186910155Y-85587093D01*
X186931598Y-85657780D01*
X186990563Y-85768094D01*
X187069915Y-85864785D01*
X187166606Y-85944137D01*
X187276920Y-86003102D01*
X187396618Y-86039412D01*
X187521100Y-86051672D01*
X187985350Y-86048600D01*
X188144100Y-85889850D01*
X188144100Y-84790600D01*
X188124100Y-84790600D01*
X188124100Y-84536600D01*
X188144100Y-84536600D01*
X188144100Y-83437350D01*
X187985350Y-83278600D01*
X187521100Y-83275528D01*
X187396618Y-83287788D01*
X187276920Y-83324098D01*
X187166606Y-83383063D01*
X187069915Y-83462415D01*
X187018900Y-83524577D01*
X186942408Y-83473466D01*
X186928080Y-83467531D01*
X186961759Y-83298217D01*
X186961759Y-83231231D01*
X186981314Y-83227341D01*
X187156143Y-83154925D01*
X187173235Y-83143504D01*
X187298102Y-83195226D01*
X187498061Y-83235000D01*
X187701939Y-83235000D01*
X187901898Y-83195226D01*
X188090256Y-83117205D01*
X188259774Y-83003937D01*
X188403937Y-82859774D01*
X188517205Y-82690256D01*
X188595226Y-82501898D01*
X188612789Y-82413600D01*
X188673028Y-82413600D01*
X188673028Y-83053600D01*
G37*
X188673028Y-83053600D02*
X188685288Y-83178082D01*
X188715461Y-83277550D01*
X188556850Y-83278600D01*
X188398100Y-83437350D01*
X188398100Y-84536600D01*
X188418100Y-84536600D01*
X188418100Y-84790600D01*
X188398100Y-84790600D01*
X188398100Y-85889850D01*
X188556850Y-86048600D01*
X189021100Y-86051672D01*
X189145582Y-86039412D01*
X189265280Y-86003102D01*
X189375594Y-85944137D01*
X189472285Y-85864785D01*
X189551637Y-85768094D01*
X189610602Y-85657780D01*
X189632045Y-85587093D01*
X189815448Y-85663061D01*
X190044388Y-85708600D01*
X190277812Y-85708600D01*
X190506752Y-85663061D01*
X190722408Y-85573734D01*
X190916494Y-85444050D01*
X191081550Y-85278994D01*
X191211234Y-85084908D01*
X191300561Y-84869252D01*
X191346100Y-84640312D01*
X191346100Y-84406888D01*
X191300561Y-84177948D01*
X191211234Y-83962292D01*
X191081550Y-83768206D01*
X190944419Y-83631075D01*
X190966920Y-83643102D01*
X191086618Y-83679412D01*
X191211100Y-83691672D01*
X191559701Y-83691672D01*
X191559700Y-90272238D01*
X190119739Y-91712200D01*
X188992894Y-91712200D01*
X189000602Y-91697780D01*
X189036912Y-91578082D01*
X189049172Y-91453600D01*
X189049172Y-89853600D01*
X189036912Y-89729118D01*
X189000602Y-89609420D01*
X188981100Y-89572935D01*
X188981100Y-89551672D01*
X189021100Y-89551672D01*
X189145582Y-89539412D01*
X189265280Y-89503102D01*
X189375594Y-89444137D01*
X189472285Y-89364785D01*
X189523300Y-89302623D01*
X189599792Y-89353734D01*
X189815448Y-89443061D01*
X190044388Y-89488600D01*
X190277812Y-89488600D01*
X190506752Y-89443061D01*
X190722408Y-89353734D01*
X190916494Y-89224050D01*
X191081550Y-89058994D01*
X191211234Y-88864908D01*
X191300561Y-88649252D01*
X191346100Y-88420312D01*
X191346100Y-88186888D01*
X191300561Y-87957948D01*
X191211234Y-87742292D01*
X191081550Y-87548206D01*
X190916494Y-87383150D01*
X190722408Y-87253466D01*
X190506752Y-87164139D01*
X190277812Y-87118600D01*
X190044388Y-87118600D01*
X189815448Y-87164139D01*
X189632045Y-87240107D01*
X189610602Y-87169420D01*
X189551637Y-87059106D01*
X189472285Y-86962415D01*
X189375594Y-86883063D01*
X189265280Y-86824098D01*
X189145582Y-86787788D01*
X189021100Y-86775528D01*
X187521100Y-86775528D01*
X187396618Y-86787788D01*
X187276920Y-86824098D01*
X187166606Y-86883063D01*
X187069915Y-86962415D01*
X186990563Y-87059106D01*
X186931598Y-87169420D01*
X186910155Y-87240107D01*
X186726752Y-87164139D01*
X186497812Y-87118600D01*
X186264388Y-87118600D01*
X186035448Y-87164139D01*
X186011100Y-87174224D01*
X186011100Y-85652976D01*
X186035448Y-85663061D01*
X186264388Y-85708600D01*
X186497812Y-85708600D01*
X186726752Y-85663061D01*
X186910155Y-85587093D01*
X186931598Y-85657780D01*
X186990563Y-85768094D01*
X187069915Y-85864785D01*
X187166606Y-85944137D01*
X187276920Y-86003102D01*
X187396618Y-86039412D01*
X187521100Y-86051672D01*
X187985350Y-86048600D01*
X188144100Y-85889850D01*
X188144100Y-84790600D01*
X188124100Y-84790600D01*
X188124100Y-84536600D01*
X188144100Y-84536600D01*
X188144100Y-83437350D01*
X187985350Y-83278600D01*
X187521100Y-83275528D01*
X187396618Y-83287788D01*
X187276920Y-83324098D01*
X187166606Y-83383063D01*
X187069915Y-83462415D01*
X187018900Y-83524577D01*
X186942408Y-83473466D01*
X186928080Y-83467531D01*
X186961759Y-83298217D01*
X186961759Y-83231231D01*
X186981314Y-83227341D01*
X187156143Y-83154925D01*
X187173235Y-83143504D01*
X187298102Y-83195226D01*
X187498061Y-83235000D01*
X187701939Y-83235000D01*
X187901898Y-83195226D01*
X188090256Y-83117205D01*
X188259774Y-83003937D01*
X188403937Y-82859774D01*
X188517205Y-82690256D01*
X188595226Y-82501898D01*
X188612789Y-82413600D01*
X188673028Y-82413600D01*
X188673028Y-83053600D01*
G36*
X190997450Y-47436211D02*
G01*
X191559701Y-47998462D01*
X191559700Y-49004051D01*
X191559701Y-49004061D01*
X191559700Y-52560051D01*
X191559701Y-52560060D01*
X191559700Y-53576051D01*
X191559701Y-53576061D01*
X191559700Y-76906224D01*
X191451100Y-76895528D01*
X190936850Y-76898600D01*
X190778100Y-77057350D01*
X190778100Y-78056600D01*
X190798100Y-78056600D01*
X190798100Y-78310600D01*
X190778100Y-78310600D01*
X190778100Y-78330600D01*
X190524100Y-78330600D01*
X190524100Y-78310600D01*
X190504100Y-78310600D01*
X190504100Y-78056600D01*
X190524100Y-78056600D01*
X190524100Y-77057350D01*
X190365350Y-76898600D01*
X189851100Y-76895528D01*
X189726618Y-76907788D01*
X189606920Y-76944098D01*
X189496606Y-77003063D01*
X189399915Y-77082415D01*
X189320563Y-77179106D01*
X189261598Y-77289420D01*
X189225288Y-77409118D01*
X189213028Y-77533600D01*
X189214077Y-77658001D01*
X189213484Y-77657408D01*
X189056143Y-77552275D01*
X188881314Y-77479859D01*
X188695717Y-77442941D01*
X188506483Y-77442941D01*
X188320886Y-77479859D01*
X188146057Y-77552275D01*
X187988716Y-77657408D01*
X187854908Y-77791216D01*
X187749775Y-77948557D01*
X187677359Y-78123386D01*
X187640441Y-78308983D01*
X187640441Y-78498217D01*
X187677359Y-78683814D01*
X187749775Y-78858643D01*
X187854908Y-79015984D01*
X187891101Y-79052177D01*
X187891101Y-79593928D01*
X187814900Y-79593928D01*
X187690418Y-79606188D01*
X187642300Y-79620784D01*
X187594182Y-79606188D01*
X187469700Y-79593928D01*
X187164900Y-79593928D01*
X187040418Y-79606188D01*
X186992300Y-79620784D01*
X186944182Y-79606188D01*
X186819700Y-79593928D01*
X186514900Y-79593928D01*
X186390418Y-79606188D01*
X186342300Y-79620784D01*
X186294182Y-79606188D01*
X186169700Y-79593928D01*
X186062030Y-79593928D01*
X186152425Y-79458643D01*
X186224841Y-79283814D01*
X186261759Y-79098217D01*
X186261759Y-78908983D01*
X186224841Y-78723386D01*
X186152425Y-78548557D01*
X186074900Y-78432534D01*
X186074900Y-76707379D01*
X186146057Y-76754925D01*
X186320886Y-76827341D01*
X186506483Y-76864259D01*
X186695717Y-76864259D01*
X186881314Y-76827341D01*
X187056143Y-76754925D01*
X187213484Y-76649792D01*
X187347292Y-76515984D01*
X187452425Y-76358643D01*
X187524841Y-76183814D01*
X187561759Y-75998217D01*
X187561759Y-75808983D01*
X187524841Y-75623386D01*
X187452425Y-75448557D01*
X187347292Y-75291216D01*
X187311100Y-75255024D01*
X187311100Y-75233272D01*
X187467300Y-75233272D01*
X187591782Y-75221012D01*
X187639900Y-75206416D01*
X187688018Y-75221012D01*
X187812500Y-75233272D01*
X188117300Y-75233272D01*
X188241782Y-75221012D01*
X188289900Y-75206416D01*
X188338018Y-75221012D01*
X188462500Y-75233272D01*
X188767300Y-75233272D01*
X188891782Y-75221012D01*
X189011480Y-75184702D01*
X189121794Y-75125737D01*
X189218485Y-75046385D01*
X189297837Y-74949694D01*
X189356802Y-74839380D01*
X189393112Y-74719682D01*
X189405372Y-74595200D01*
X189405372Y-73350600D01*
X189393112Y-73226118D01*
X189356802Y-73106420D01*
X189324900Y-73046737D01*
X189324900Y-72234811D01*
X189418837Y-72140874D01*
X189532105Y-71971356D01*
X189610126Y-71782998D01*
X189649900Y-71583039D01*
X189649900Y-71379161D01*
X189610126Y-71179202D01*
X189532105Y-70990844D01*
X189418837Y-70821326D01*
X189324900Y-70727389D01*
X189324900Y-50837505D01*
X189328335Y-50802630D01*
X189324900Y-50767754D01*
X189314627Y-50663447D01*
X189274028Y-50529611D01*
X189208100Y-50406268D01*
X189119375Y-50298156D01*
X189092284Y-50275923D01*
X186786981Y-47970621D01*
X186764744Y-47943525D01*
X186656632Y-47854800D01*
X186533289Y-47788872D01*
X186399453Y-47748273D01*
X186295146Y-47738000D01*
X186295144Y-47738000D01*
X186260269Y-47734565D01*
X186225394Y-47738000D01*
X183575250Y-47738000D01*
X183462250Y-47625000D01*
X183380141Y-47625000D01*
X183340494Y-47592463D01*
X183230180Y-47533498D01*
X183113159Y-47498000D01*
X183230180Y-47462502D01*
X183285373Y-47433000D01*
X190994815Y-47433000D01*
X190997450Y-47436211D01*
G37*
X190997450Y-47436211D02*
X191559701Y-47998462D01*
X191559700Y-49004051D01*
X191559701Y-49004061D01*
X191559700Y-52560051D01*
X191559701Y-52560060D01*
X191559700Y-53576051D01*
X191559701Y-53576061D01*
X191559700Y-76906224D01*
X191451100Y-76895528D01*
X190936850Y-76898600D01*
X190778100Y-77057350D01*
X190778100Y-78056600D01*
X190798100Y-78056600D01*
X190798100Y-78310600D01*
X190778100Y-78310600D01*
X190778100Y-78330600D01*
X190524100Y-78330600D01*
X190524100Y-78310600D01*
X190504100Y-78310600D01*
X190504100Y-78056600D01*
X190524100Y-78056600D01*
X190524100Y-77057350D01*
X190365350Y-76898600D01*
X189851100Y-76895528D01*
X189726618Y-76907788D01*
X189606920Y-76944098D01*
X189496606Y-77003063D01*
X189399915Y-77082415D01*
X189320563Y-77179106D01*
X189261598Y-77289420D01*
X189225288Y-77409118D01*
X189213028Y-77533600D01*
X189214077Y-77658001D01*
X189213484Y-77657408D01*
X189056143Y-77552275D01*
X188881314Y-77479859D01*
X188695717Y-77442941D01*
X188506483Y-77442941D01*
X188320886Y-77479859D01*
X188146057Y-77552275D01*
X187988716Y-77657408D01*
X187854908Y-77791216D01*
X187749775Y-77948557D01*
X187677359Y-78123386D01*
X187640441Y-78308983D01*
X187640441Y-78498217D01*
X187677359Y-78683814D01*
X187749775Y-78858643D01*
X187854908Y-79015984D01*
X187891101Y-79052177D01*
X187891101Y-79593928D01*
X187814900Y-79593928D01*
X187690418Y-79606188D01*
X187642300Y-79620784D01*
X187594182Y-79606188D01*
X187469700Y-79593928D01*
X187164900Y-79593928D01*
X187040418Y-79606188D01*
X186992300Y-79620784D01*
X186944182Y-79606188D01*
X186819700Y-79593928D01*
X186514900Y-79593928D01*
X186390418Y-79606188D01*
X186342300Y-79620784D01*
X186294182Y-79606188D01*
X186169700Y-79593928D01*
X186062030Y-79593928D01*
X186152425Y-79458643D01*
X186224841Y-79283814D01*
X186261759Y-79098217D01*
X186261759Y-78908983D01*
X186224841Y-78723386D01*
X186152425Y-78548557D01*
X186074900Y-78432534D01*
X186074900Y-76707379D01*
X186146057Y-76754925D01*
X186320886Y-76827341D01*
X186506483Y-76864259D01*
X186695717Y-76864259D01*
X186881314Y-76827341D01*
X187056143Y-76754925D01*
X187213484Y-76649792D01*
X187347292Y-76515984D01*
X187452425Y-76358643D01*
X187524841Y-76183814D01*
X187561759Y-75998217D01*
X187561759Y-75808983D01*
X187524841Y-75623386D01*
X187452425Y-75448557D01*
X187347292Y-75291216D01*
X187311100Y-75255024D01*
X187311100Y-75233272D01*
X187467300Y-75233272D01*
X187591782Y-75221012D01*
X187639900Y-75206416D01*
X187688018Y-75221012D01*
X187812500Y-75233272D01*
X188117300Y-75233272D01*
X188241782Y-75221012D01*
X188289900Y-75206416D01*
X188338018Y-75221012D01*
X188462500Y-75233272D01*
X188767300Y-75233272D01*
X188891782Y-75221012D01*
X189011480Y-75184702D01*
X189121794Y-75125737D01*
X189218485Y-75046385D01*
X189297837Y-74949694D01*
X189356802Y-74839380D01*
X189393112Y-74719682D01*
X189405372Y-74595200D01*
X189405372Y-73350600D01*
X189393112Y-73226118D01*
X189356802Y-73106420D01*
X189324900Y-73046737D01*
X189324900Y-72234811D01*
X189418837Y-72140874D01*
X189532105Y-71971356D01*
X189610126Y-71782998D01*
X189649900Y-71583039D01*
X189649900Y-71379161D01*
X189610126Y-71179202D01*
X189532105Y-70990844D01*
X189418837Y-70821326D01*
X189324900Y-70727389D01*
X189324900Y-50837505D01*
X189328335Y-50802630D01*
X189324900Y-50767754D01*
X189314627Y-50663447D01*
X189274028Y-50529611D01*
X189208100Y-50406268D01*
X189119375Y-50298156D01*
X189092284Y-50275923D01*
X186786981Y-47970621D01*
X186764744Y-47943525D01*
X186656632Y-47854800D01*
X186533289Y-47788872D01*
X186399453Y-47748273D01*
X186295146Y-47738000D01*
X186295144Y-47738000D01*
X186260269Y-47734565D01*
X186225394Y-47738000D01*
X183575250Y-47738000D01*
X183462250Y-47625000D01*
X183380141Y-47625000D01*
X183340494Y-47592463D01*
X183230180Y-47533498D01*
X183113159Y-47498000D01*
X183230180Y-47462502D01*
X183285373Y-47433000D01*
X190994815Y-47433000D01*
X190997450Y-47436211D01*
G36*
X179619725Y-43735329D02*
G01*
X179489885Y-43841885D01*
X179383329Y-43971725D01*
X179304150Y-44119858D01*
X179255392Y-44280592D01*
X179238928Y-44447750D01*
X179238928Y-44960250D01*
X179255392Y-45127408D01*
X179304150Y-45288142D01*
X179383329Y-45436275D01*
X179475024Y-45548007D01*
X179365546Y-45581217D01*
X179184630Y-45677919D01*
X179026057Y-45808057D01*
X178993448Y-45847791D01*
X178369786Y-46471453D01*
X178330058Y-46504057D01*
X178297454Y-46543785D01*
X178297450Y-46543789D01*
X178199919Y-46662631D01*
X178103218Y-46843545D01*
X178103218Y-46843546D01*
X178043670Y-47039850D01*
X178030180Y-47176817D01*
X178023563Y-47244000D01*
X178028601Y-47295151D01*
X178028600Y-50343151D01*
X178043669Y-50496149D01*
X178103217Y-50692453D01*
X178199919Y-50873370D01*
X178330057Y-51031943D01*
X178488630Y-51162081D01*
X178669546Y-51258783D01*
X178865850Y-51318331D01*
X179070000Y-51338438D01*
X179274149Y-51318331D01*
X179470453Y-51258783D01*
X179651370Y-51162081D01*
X179753566Y-51078211D01*
X179767858Y-51085850D01*
X179928592Y-51134608D01*
X180095750Y-51151072D01*
X180533250Y-51151072D01*
X180700408Y-51134608D01*
X180861142Y-51085850D01*
X181009275Y-51006671D01*
X181030930Y-50988900D01*
X181097506Y-51043537D01*
X181207820Y-51102502D01*
X181327518Y-51138812D01*
X181452000Y-51151072D01*
X181603750Y-51148000D01*
X181762500Y-50989250D01*
X181762500Y-50165000D01*
X182016500Y-50165000D01*
X182016500Y-50989250D01*
X182175250Y-51148000D01*
X182327000Y-51151072D01*
X182451482Y-51138812D01*
X182571180Y-51102502D01*
X182681494Y-51043537D01*
X182778185Y-50964185D01*
X182857537Y-50867494D01*
X182916502Y-50757180D01*
X182952812Y-50637482D01*
X182965072Y-50513000D01*
X182962000Y-50323750D01*
X182803250Y-50165000D01*
X182016500Y-50165000D01*
X181762500Y-50165000D01*
X181742500Y-50165000D01*
X181742500Y-49911000D01*
X181762500Y-49911000D01*
X181762500Y-49891000D01*
X182016500Y-49891000D01*
X182016500Y-49911000D01*
X182803250Y-49911000D01*
X182962000Y-49752250D01*
X182965072Y-49563000D01*
X182952812Y-49438518D01*
X182944486Y-49411072D01*
X182986000Y-49411072D01*
X183110482Y-49398812D01*
X183230180Y-49362502D01*
X183340494Y-49303537D01*
X183437185Y-49224185D01*
X183491501Y-49158000D01*
X185966178Y-49158000D01*
X187678273Y-50870096D01*
X187593850Y-50870600D01*
X187435100Y-51029350D01*
X187435100Y-53918600D01*
X187455100Y-53918600D01*
X187455100Y-54172600D01*
X187435100Y-54172600D01*
X187435100Y-57061850D01*
X187593850Y-57220600D01*
X187904901Y-57222458D01*
X187904900Y-70051672D01*
X187756143Y-69952275D01*
X187581314Y-69879859D01*
X187395717Y-69842941D01*
X187206483Y-69842941D01*
X187020886Y-69879859D01*
X186846057Y-69952275D01*
X186688716Y-70057408D01*
X186554908Y-70191216D01*
X186449775Y-70348557D01*
X186377359Y-70523386D01*
X186340441Y-70708983D01*
X186340441Y-70898217D01*
X186377359Y-71083814D01*
X186449775Y-71258643D01*
X186554908Y-71415984D01*
X186604901Y-71465977D01*
X186604900Y-72712528D01*
X186553368Y-72712528D01*
X186559172Y-72653600D01*
X186556100Y-72439350D01*
X186397350Y-72280600D01*
X185498100Y-72280600D01*
X185498100Y-72300600D01*
X185244100Y-72300600D01*
X185244100Y-72280600D01*
X185224100Y-72280600D01*
X185224100Y-72026600D01*
X185244100Y-72026600D01*
X185244100Y-71177350D01*
X185498100Y-71177350D01*
X185498100Y-72026600D01*
X186397350Y-72026600D01*
X186556100Y-71867850D01*
X186559172Y-71653600D01*
X186546912Y-71529118D01*
X186510602Y-71409420D01*
X186451637Y-71299106D01*
X186372285Y-71202415D01*
X186275594Y-71123063D01*
X186165280Y-71064098D01*
X186045582Y-71027788D01*
X185921100Y-71015528D01*
X185656850Y-71018600D01*
X185498100Y-71177350D01*
X185244100Y-71177350D01*
X185085350Y-71018600D01*
X184821100Y-71015528D01*
X184696618Y-71027788D01*
X184576920Y-71064098D01*
X184521100Y-71093935D01*
X184465280Y-71064098D01*
X184345582Y-71027788D01*
X184221100Y-71015528D01*
X183121100Y-71015528D01*
X182996618Y-71027788D01*
X182876920Y-71064098D01*
X182840435Y-71083600D01*
X182566138Y-71083600D01*
X182540602Y-70999420D01*
X182481637Y-70889106D01*
X182402285Y-70792415D01*
X182305594Y-70713063D01*
X182195280Y-70654098D01*
X182075582Y-70617788D01*
X181951100Y-70605528D01*
X180951100Y-70605528D01*
X180826618Y-70617788D01*
X180706920Y-70654098D01*
X180596606Y-70713063D01*
X180499915Y-70792415D01*
X180420563Y-70889106D01*
X180361598Y-70999420D01*
X180325288Y-71119118D01*
X180313028Y-71243600D01*
X180313028Y-71367688D01*
X180291100Y-71365528D01*
X179191100Y-71365528D01*
X179066618Y-71377788D01*
X178946920Y-71414098D01*
X178891100Y-71443935D01*
X178835280Y-71414098D01*
X178715582Y-71377788D01*
X178591100Y-71365528D01*
X177811100Y-71365528D01*
X177811100Y-56633711D01*
X177905037Y-56539774D01*
X178018305Y-56370256D01*
X178096326Y-56181898D01*
X178136100Y-55981939D01*
X178136100Y-55778061D01*
X178096326Y-55578102D01*
X178018305Y-55389744D01*
X177905037Y-55220226D01*
X177760874Y-55076063D01*
X177591356Y-54962795D01*
X177402998Y-54884774D01*
X177203039Y-54845000D01*
X176999161Y-54845000D01*
X176799202Y-54884774D01*
X176610844Y-54962795D01*
X176441326Y-55076063D01*
X176297163Y-55220226D01*
X176183895Y-55389744D01*
X176105874Y-55578102D01*
X176066100Y-55778061D01*
X176066100Y-55981939D01*
X176105874Y-56181898D01*
X176183895Y-56370256D01*
X176297163Y-56539774D01*
X176391100Y-56633711D01*
X176391101Y-76842941D01*
X176306483Y-76842941D01*
X176120886Y-76879859D01*
X175946057Y-76952275D01*
X175788716Y-77057408D01*
X175654908Y-77191216D01*
X175549775Y-77348557D01*
X175477359Y-77523386D01*
X175441172Y-77705308D01*
X175441172Y-76789600D01*
X175428912Y-76665118D01*
X175392602Y-76545420D01*
X175333637Y-76435106D01*
X175254285Y-76338415D01*
X175157594Y-76259063D01*
X175047280Y-76200098D01*
X174927582Y-76163788D01*
X174803100Y-76151528D01*
X173303100Y-76151528D01*
X173178618Y-76163788D01*
X173058920Y-76200098D01*
X172948606Y-76259063D01*
X172851915Y-76338415D01*
X172811100Y-76388148D01*
X172811100Y-75895607D01*
X172821915Y-75908785D01*
X172918606Y-75988137D01*
X173028920Y-76047102D01*
X173148618Y-76083412D01*
X173273100Y-76095672D01*
X174773100Y-76095672D01*
X174897582Y-76083412D01*
X175017280Y-76047102D01*
X175127594Y-75988137D01*
X175224285Y-75908785D01*
X175303637Y-75812094D01*
X175362602Y-75701780D01*
X175398912Y-75582082D01*
X175411172Y-75457600D01*
X175411172Y-73557600D01*
X175398912Y-73433118D01*
X175362602Y-73313420D01*
X175303637Y-73203106D01*
X175224285Y-73106415D01*
X175127594Y-73027063D01*
X175017280Y-72968098D01*
X174897582Y-72931788D01*
X174773100Y-72919528D01*
X173273100Y-72919528D01*
X173148618Y-72931788D01*
X173028920Y-72968098D01*
X172918606Y-73027063D01*
X172821915Y-73106415D01*
X172811100Y-73119593D01*
X172811100Y-73052176D01*
X172847292Y-73015984D01*
X172952425Y-72858643D01*
X173024841Y-72683814D01*
X173061759Y-72498217D01*
X173061759Y-72308983D01*
X173024841Y-72123386D01*
X172952425Y-71948557D01*
X172856222Y-71804580D01*
X174493033Y-70167769D01*
X174522030Y-70143972D01*
X174617003Y-70028247D01*
X174687575Y-69896218D01*
X174731032Y-69752957D01*
X174742029Y-69641304D01*
X174742029Y-69641295D01*
X174745705Y-69603972D01*
X174742029Y-69566649D01*
X174742029Y-52424312D01*
X174781983Y-52391523D01*
X174937514Y-52202008D01*
X175053084Y-51985792D01*
X175124252Y-51751184D01*
X175142260Y-51568343D01*
X175142260Y-51495375D01*
X183177668Y-51495375D01*
X183177668Y-56575375D01*
X183189928Y-56699857D01*
X183226238Y-56819555D01*
X183285203Y-56929869D01*
X183364555Y-57026560D01*
X183461246Y-57105912D01*
X183571560Y-57164877D01*
X183691258Y-57201187D01*
X183815740Y-57213447D01*
X185415740Y-57213447D01*
X185540222Y-57201187D01*
X185659920Y-57164877D01*
X185770234Y-57105912D01*
X185866925Y-57026560D01*
X185946277Y-56929869D01*
X185959187Y-56905716D01*
X185977563Y-56940094D01*
X186056915Y-57036785D01*
X186153606Y-57116137D01*
X186263920Y-57175102D01*
X186383618Y-57211412D01*
X186508100Y-57223672D01*
X187022350Y-57220600D01*
X187181100Y-57061850D01*
X187181100Y-54172600D01*
X187161100Y-54172600D01*
X187161100Y-53918600D01*
X187181100Y-53918600D01*
X187181100Y-51029350D01*
X187022350Y-50870600D01*
X186508100Y-50867528D01*
X186383618Y-50879788D01*
X186263920Y-50916098D01*
X186153606Y-50975063D01*
X186056915Y-51054415D01*
X185977563Y-51151106D01*
X185964653Y-51175259D01*
X185946277Y-51140881D01*
X185866925Y-51044190D01*
X185770234Y-50964838D01*
X185659920Y-50905873D01*
X185540222Y-50869563D01*
X185415740Y-50857303D01*
X183815740Y-50857303D01*
X183691258Y-50869563D01*
X183571560Y-50905873D01*
X183461246Y-50964838D01*
X183364555Y-51044190D01*
X183285203Y-51140881D01*
X183226238Y-51251195D01*
X183189928Y-51370893D01*
X183177668Y-51495375D01*
X175142260Y-51495375D01*
X175142260Y-50226857D01*
X175124252Y-50044016D01*
X175053084Y-49809408D01*
X174937514Y-49593192D01*
X174781983Y-49403677D01*
X174592467Y-49248146D01*
X174376251Y-49132576D01*
X174342160Y-49122235D01*
X174342160Y-47808777D01*
X174324152Y-47625936D01*
X174252984Y-47391328D01*
X174212498Y-47315584D01*
X174301520Y-47324352D01*
X177197120Y-47324352D01*
X177321602Y-47312092D01*
X177441300Y-47275782D01*
X177551614Y-47216817D01*
X177648305Y-47137465D01*
X177727657Y-47040774D01*
X177786622Y-46930460D01*
X177822932Y-46810762D01*
X177835192Y-46686280D01*
X177835192Y-43790680D01*
X177822932Y-43666198D01*
X177822144Y-43663600D01*
X179753920Y-43663600D01*
X179619725Y-43735329D01*
G37*
X179619725Y-43735329D02*
X179489885Y-43841885D01*
X179383329Y-43971725D01*
X179304150Y-44119858D01*
X179255392Y-44280592D01*
X179238928Y-44447750D01*
X179238928Y-44960250D01*
X179255392Y-45127408D01*
X179304150Y-45288142D01*
X179383329Y-45436275D01*
X179475024Y-45548007D01*
X179365546Y-45581217D01*
X179184630Y-45677919D01*
X179026057Y-45808057D01*
X178993448Y-45847791D01*
X178369786Y-46471453D01*
X178330058Y-46504057D01*
X178297454Y-46543785D01*
X178297450Y-46543789D01*
X178199919Y-46662631D01*
X178103218Y-46843545D01*
X178103218Y-46843546D01*
X178043670Y-47039850D01*
X178030180Y-47176817D01*
X178023563Y-47244000D01*
X178028601Y-47295151D01*
X178028600Y-50343151D01*
X178043669Y-50496149D01*
X178103217Y-50692453D01*
X178199919Y-50873370D01*
X178330057Y-51031943D01*
X178488630Y-51162081D01*
X178669546Y-51258783D01*
X178865850Y-51318331D01*
X179070000Y-51338438D01*
X179274149Y-51318331D01*
X179470453Y-51258783D01*
X179651370Y-51162081D01*
X179753566Y-51078211D01*
X179767858Y-51085850D01*
X179928592Y-51134608D01*
X180095750Y-51151072D01*
X180533250Y-51151072D01*
X180700408Y-51134608D01*
X180861142Y-51085850D01*
X181009275Y-51006671D01*
X181030930Y-50988900D01*
X181097506Y-51043537D01*
X181207820Y-51102502D01*
X181327518Y-51138812D01*
X181452000Y-51151072D01*
X181603750Y-51148000D01*
X181762500Y-50989250D01*
X181762500Y-50165000D01*
X182016500Y-50165000D01*
X182016500Y-50989250D01*
X182175250Y-51148000D01*
X182327000Y-51151072D01*
X182451482Y-51138812D01*
X182571180Y-51102502D01*
X182681494Y-51043537D01*
X182778185Y-50964185D01*
X182857537Y-50867494D01*
X182916502Y-50757180D01*
X182952812Y-50637482D01*
X182965072Y-50513000D01*
X182962000Y-50323750D01*
X182803250Y-50165000D01*
X182016500Y-50165000D01*
X181762500Y-50165000D01*
X181742500Y-50165000D01*
X181742500Y-49911000D01*
X181762500Y-49911000D01*
X181762500Y-49891000D01*
X182016500Y-49891000D01*
X182016500Y-49911000D01*
X182803250Y-49911000D01*
X182962000Y-49752250D01*
X182965072Y-49563000D01*
X182952812Y-49438518D01*
X182944486Y-49411072D01*
X182986000Y-49411072D01*
X183110482Y-49398812D01*
X183230180Y-49362502D01*
X183340494Y-49303537D01*
X183437185Y-49224185D01*
X183491501Y-49158000D01*
X185966178Y-49158000D01*
X187678273Y-50870096D01*
X187593850Y-50870600D01*
X187435100Y-51029350D01*
X187435100Y-53918600D01*
X187455100Y-53918600D01*
X187455100Y-54172600D01*
X187435100Y-54172600D01*
X187435100Y-57061850D01*
X187593850Y-57220600D01*
X187904901Y-57222458D01*
X187904900Y-70051672D01*
X187756143Y-69952275D01*
X187581314Y-69879859D01*
X187395717Y-69842941D01*
X187206483Y-69842941D01*
X187020886Y-69879859D01*
X186846057Y-69952275D01*
X186688716Y-70057408D01*
X186554908Y-70191216D01*
X186449775Y-70348557D01*
X186377359Y-70523386D01*
X186340441Y-70708983D01*
X186340441Y-70898217D01*
X186377359Y-71083814D01*
X186449775Y-71258643D01*
X186554908Y-71415984D01*
X186604901Y-71465977D01*
X186604900Y-72712528D01*
X186553368Y-72712528D01*
X186559172Y-72653600D01*
X186556100Y-72439350D01*
X186397350Y-72280600D01*
X185498100Y-72280600D01*
X185498100Y-72300600D01*
X185244100Y-72300600D01*
X185244100Y-72280600D01*
X185224100Y-72280600D01*
X185224100Y-72026600D01*
X185244100Y-72026600D01*
X185244100Y-71177350D01*
X185498100Y-71177350D01*
X185498100Y-72026600D01*
X186397350Y-72026600D01*
X186556100Y-71867850D01*
X186559172Y-71653600D01*
X186546912Y-71529118D01*
X186510602Y-71409420D01*
X186451637Y-71299106D01*
X186372285Y-71202415D01*
X186275594Y-71123063D01*
X186165280Y-71064098D01*
X186045582Y-71027788D01*
X185921100Y-71015528D01*
X185656850Y-71018600D01*
X185498100Y-71177350D01*
X185244100Y-71177350D01*
X185085350Y-71018600D01*
X184821100Y-71015528D01*
X184696618Y-71027788D01*
X184576920Y-71064098D01*
X184521100Y-71093935D01*
X184465280Y-71064098D01*
X184345582Y-71027788D01*
X184221100Y-71015528D01*
X183121100Y-71015528D01*
X182996618Y-71027788D01*
X182876920Y-71064098D01*
X182840435Y-71083600D01*
X182566138Y-71083600D01*
X182540602Y-70999420D01*
X182481637Y-70889106D01*
X182402285Y-70792415D01*
X182305594Y-70713063D01*
X182195280Y-70654098D01*
X182075582Y-70617788D01*
X181951100Y-70605528D01*
X180951100Y-70605528D01*
X180826618Y-70617788D01*
X180706920Y-70654098D01*
X180596606Y-70713063D01*
X180499915Y-70792415D01*
X180420563Y-70889106D01*
X180361598Y-70999420D01*
X180325288Y-71119118D01*
X180313028Y-71243600D01*
X180313028Y-71367688D01*
X180291100Y-71365528D01*
X179191100Y-71365528D01*
X179066618Y-71377788D01*
X178946920Y-71414098D01*
X178891100Y-71443935D01*
X178835280Y-71414098D01*
X178715582Y-71377788D01*
X178591100Y-71365528D01*
X177811100Y-71365528D01*
X177811100Y-56633711D01*
X177905037Y-56539774D01*
X178018305Y-56370256D01*
X178096326Y-56181898D01*
X178136100Y-55981939D01*
X178136100Y-55778061D01*
X178096326Y-55578102D01*
X178018305Y-55389744D01*
X177905037Y-55220226D01*
X177760874Y-55076063D01*
X177591356Y-54962795D01*
X177402998Y-54884774D01*
X177203039Y-54845000D01*
X176999161Y-54845000D01*
X176799202Y-54884774D01*
X176610844Y-54962795D01*
X176441326Y-55076063D01*
X176297163Y-55220226D01*
X176183895Y-55389744D01*
X176105874Y-55578102D01*
X176066100Y-55778061D01*
X176066100Y-55981939D01*
X176105874Y-56181898D01*
X176183895Y-56370256D01*
X176297163Y-56539774D01*
X176391100Y-56633711D01*
X176391101Y-76842941D01*
X176306483Y-76842941D01*
X176120886Y-76879859D01*
X175946057Y-76952275D01*
X175788716Y-77057408D01*
X175654908Y-77191216D01*
X175549775Y-77348557D01*
X175477359Y-77523386D01*
X175441172Y-77705308D01*
X175441172Y-76789600D01*
X175428912Y-76665118D01*
X175392602Y-76545420D01*
X175333637Y-76435106D01*
X175254285Y-76338415D01*
X175157594Y-76259063D01*
X175047280Y-76200098D01*
X174927582Y-76163788D01*
X174803100Y-76151528D01*
X173303100Y-76151528D01*
X173178618Y-76163788D01*
X173058920Y-76200098D01*
X172948606Y-76259063D01*
X172851915Y-76338415D01*
X172811100Y-76388148D01*
X172811100Y-75895607D01*
X172821915Y-75908785D01*
X172918606Y-75988137D01*
X173028920Y-76047102D01*
X173148618Y-76083412D01*
X173273100Y-76095672D01*
X174773100Y-76095672D01*
X174897582Y-76083412D01*
X175017280Y-76047102D01*
X175127594Y-75988137D01*
X175224285Y-75908785D01*
X175303637Y-75812094D01*
X175362602Y-75701780D01*
X175398912Y-75582082D01*
X175411172Y-75457600D01*
X175411172Y-73557600D01*
X175398912Y-73433118D01*
X175362602Y-73313420D01*
X175303637Y-73203106D01*
X175224285Y-73106415D01*
X175127594Y-73027063D01*
X175017280Y-72968098D01*
X174897582Y-72931788D01*
X174773100Y-72919528D01*
X173273100Y-72919528D01*
X173148618Y-72931788D01*
X173028920Y-72968098D01*
X172918606Y-73027063D01*
X172821915Y-73106415D01*
X172811100Y-73119593D01*
X172811100Y-73052176D01*
X172847292Y-73015984D01*
X172952425Y-72858643D01*
X173024841Y-72683814D01*
X173061759Y-72498217D01*
X173061759Y-72308983D01*
X173024841Y-72123386D01*
X172952425Y-71948557D01*
X172856222Y-71804580D01*
X174493033Y-70167769D01*
X174522030Y-70143972D01*
X174617003Y-70028247D01*
X174687575Y-69896218D01*
X174731032Y-69752957D01*
X174742029Y-69641304D01*
X174742029Y-69641295D01*
X174745705Y-69603972D01*
X174742029Y-69566649D01*
X174742029Y-52424312D01*
X174781983Y-52391523D01*
X174937514Y-52202008D01*
X175053084Y-51985792D01*
X175124252Y-51751184D01*
X175142260Y-51568343D01*
X175142260Y-51495375D01*
X183177668Y-51495375D01*
X183177668Y-56575375D01*
X183189928Y-56699857D01*
X183226238Y-56819555D01*
X183285203Y-56929869D01*
X183364555Y-57026560D01*
X183461246Y-57105912D01*
X183571560Y-57164877D01*
X183691258Y-57201187D01*
X183815740Y-57213447D01*
X185415740Y-57213447D01*
X185540222Y-57201187D01*
X185659920Y-57164877D01*
X185770234Y-57105912D01*
X185866925Y-57026560D01*
X185946277Y-56929869D01*
X185959187Y-56905716D01*
X185977563Y-56940094D01*
X186056915Y-57036785D01*
X186153606Y-57116137D01*
X186263920Y-57175102D01*
X186383618Y-57211412D01*
X186508100Y-57223672D01*
X187022350Y-57220600D01*
X187181100Y-57061850D01*
X187181100Y-54172600D01*
X187161100Y-54172600D01*
X187161100Y-53918600D01*
X187181100Y-53918600D01*
X187181100Y-51029350D01*
X187022350Y-50870600D01*
X186508100Y-50867528D01*
X186383618Y-50879788D01*
X186263920Y-50916098D01*
X186153606Y-50975063D01*
X186056915Y-51054415D01*
X185977563Y-51151106D01*
X185964653Y-51175259D01*
X185946277Y-51140881D01*
X185866925Y-51044190D01*
X185770234Y-50964838D01*
X185659920Y-50905873D01*
X185540222Y-50869563D01*
X185415740Y-50857303D01*
X183815740Y-50857303D01*
X183691258Y-50869563D01*
X183571560Y-50905873D01*
X183461246Y-50964838D01*
X183364555Y-51044190D01*
X183285203Y-51140881D01*
X183226238Y-51251195D01*
X183189928Y-51370893D01*
X183177668Y-51495375D01*
X175142260Y-51495375D01*
X175142260Y-50226857D01*
X175124252Y-50044016D01*
X175053084Y-49809408D01*
X174937514Y-49593192D01*
X174781983Y-49403677D01*
X174592467Y-49248146D01*
X174376251Y-49132576D01*
X174342160Y-49122235D01*
X174342160Y-47808777D01*
X174324152Y-47625936D01*
X174252984Y-47391328D01*
X174212498Y-47315584D01*
X174301520Y-47324352D01*
X177197120Y-47324352D01*
X177321602Y-47312092D01*
X177441300Y-47275782D01*
X177551614Y-47216817D01*
X177648305Y-47137465D01*
X177727657Y-47040774D01*
X177786622Y-46930460D01*
X177822932Y-46810762D01*
X177835192Y-46686280D01*
X177835192Y-43790680D01*
X177822932Y-43666198D01*
X177822144Y-43663600D01*
X179753920Y-43663600D01*
X179619725Y-43735329D01*
G36*
X182624428Y-74099900D02*
G01*
X182617900Y-74099900D01*
X182617900Y-73845900D01*
X182624428Y-73845900D01*
X182624428Y-74099900D01*
G37*
X182624428Y-74099900D02*
X182617900Y-74099900D01*
X182617900Y-73845900D01*
X182624428Y-73845900D01*
X182624428Y-74099900D01*
G36*
X181578100Y-73366600D02*
G01*
X181598100Y-73366600D01*
X181598100Y-73620600D01*
X181578100Y-73620600D01*
X181578100Y-73640600D01*
X181324100Y-73640600D01*
X181324100Y-73620600D01*
X181304100Y-73620600D01*
X181304100Y-73366600D01*
X181324100Y-73366600D01*
X181324100Y-73346600D01*
X181578100Y-73346600D01*
X181578100Y-73366600D01*
G37*
X181578100Y-73366600D02*
X181598100Y-73366600D01*
X181598100Y-73620600D01*
X181578100Y-73620600D01*
X181578100Y-73640600D01*
X181324100Y-73640600D01*
X181324100Y-73620600D01*
X181304100Y-73620600D01*
X181304100Y-73366600D01*
X181324100Y-73366600D01*
X181324100Y-73346600D01*
X181578100Y-73346600D01*
X181578100Y-73366600D01*
G36*
X153628100Y-53616600D02*
G01*
X153648100Y-53616600D01*
X153648100Y-53870600D01*
X153628100Y-53870600D01*
X153628100Y-53890600D01*
X153374100Y-53890600D01*
X153374100Y-53870600D01*
X153354100Y-53870600D01*
X153354100Y-53616600D01*
X153374100Y-53616600D01*
X153374100Y-53596600D01*
X153628100Y-53596600D01*
X153628100Y-53616600D01*
G37*
X153628100Y-53616600D02*
X153648100Y-53616600D01*
X153648100Y-53870600D01*
X153628100Y-53870600D01*
X153628100Y-53890600D01*
X153374100Y-53890600D01*
X153374100Y-53870600D01*
X153354100Y-53870600D01*
X153354100Y-53616600D01*
X153374100Y-53616600D01*
X153374100Y-53596600D01*
X153628100Y-53596600D01*
X153628100Y-53616600D01*
G36*
X190175376Y-43788084D02*
G01*
X190045593Y-44101408D01*
X189979430Y-44434030D01*
X189979430Y-44773170D01*
X190045593Y-45105792D01*
X190175376Y-45419116D01*
X190338334Y-45663000D01*
X183285373Y-45663000D01*
X183230180Y-45633498D01*
X183110482Y-45597188D01*
X182986000Y-45584928D01*
X182815326Y-45584928D01*
X182857537Y-45533494D01*
X182916502Y-45423180D01*
X182952812Y-45303482D01*
X182965072Y-45179000D01*
X182962000Y-44989750D01*
X182803250Y-44831000D01*
X182016500Y-44831000D01*
X182016500Y-44851000D01*
X181762500Y-44851000D01*
X181762500Y-44831000D01*
X181742500Y-44831000D01*
X181742500Y-44577000D01*
X181762500Y-44577000D01*
X181762500Y-44557000D01*
X182016500Y-44557000D01*
X182016500Y-44577000D01*
X182803250Y-44577000D01*
X182962000Y-44418250D01*
X182965072Y-44229000D01*
X182952812Y-44104518D01*
X182916502Y-43984820D01*
X182857537Y-43874506D01*
X182778185Y-43777815D01*
X182681494Y-43698463D01*
X182616271Y-43663600D01*
X190258554Y-43663600D01*
X190175376Y-43788084D01*
G37*
X190175376Y-43788084D02*
X190045593Y-44101408D01*
X189979430Y-44434030D01*
X189979430Y-44773170D01*
X190045593Y-45105792D01*
X190175376Y-45419116D01*
X190338334Y-45663000D01*
X183285373Y-45663000D01*
X183230180Y-45633498D01*
X183110482Y-45597188D01*
X182986000Y-45584928D01*
X182815326Y-45584928D01*
X182857537Y-45533494D01*
X182916502Y-45423180D01*
X182952812Y-45303482D01*
X182965072Y-45179000D01*
X182962000Y-44989750D01*
X182803250Y-44831000D01*
X182016500Y-44831000D01*
X182016500Y-44851000D01*
X181762500Y-44851000D01*
X181762500Y-44831000D01*
X181742500Y-44831000D01*
X181742500Y-44577000D01*
X181762500Y-44577000D01*
X181762500Y-44557000D01*
X182016500Y-44557000D01*
X182016500Y-44577000D01*
X182803250Y-44577000D01*
X182962000Y-44418250D01*
X182965072Y-44229000D01*
X182952812Y-44104518D01*
X182916502Y-43984820D01*
X182857537Y-43874506D01*
X182778185Y-43777815D01*
X182681494Y-43698463D01*
X182616271Y-43663600D01*
X190258554Y-43663600D01*
X190175376Y-43788084D01*
M02*
