M48
; DRILL file {KiCad (5.1.6)-1} date 03/08/21 10:10:21
; FORMAT={-:-/ absolute / inch / decimal}
; #@! TF.CreationDate,2021-03-08T10:10:21+01:00
; #@! TF.GenerationSoftware,Kicad,Pcbnew,(5.1.6)-1
; #@! TF.FileFunction,Plated,1,16,PTH
FMAT,2
INCH
T1C0.0098
T2C0.0138
T3C0.0157
T4C0.0280
T5C0.0400
T6C0.0760
%
G90
G05
T1
X5.9764Y-3.2482
X6.0434Y-3.0868
X6.1103Y-3.0277
X6.2008Y-3.1104
X6.2756Y-2.9883
X6.315Y-3.2757
X6.4056Y-3.0868
X6.5709Y-2.7875
X6.63Y-3.7206
X6.6654Y-3.0868
X6.7323Y-3.2246
X6.7756Y-2.8505
X6.7756Y-3.8387
X6.9449Y-3.0631
X6.9725Y-3.134
X7.0Y-3.0868
X7.0237Y-3.0316
X7.0315Y-3.7206
X7.1221Y-2.9608
X7.1575Y-2.9371
X7.1733Y-3.382
X7.189Y-3.9411
X7.2481Y-3.0868
X7.2678Y-3.134
X7.2717Y-3.0631
X7.2756Y-3.6497
X7.2953Y-3.1104
X7.2993Y-3.2482
X7.3229Y-3.2757
X7.3386Y-2.8269
X7.3465Y-2.9883
X7.3504Y-3.2403
X7.3741Y-2.7875
X7.4016Y-2.8505
X7.4252Y-3.0868
X7.4292Y-3.2836
X7.5119Y-3.0316
T2
X7.2993Y-3.7521
T3
X6.21Y-2.2
X6.29Y-1.98
X6.35Y-2.87
X6.37Y-1.89
X6.37Y-3.19
X6.52Y-2.86
X6.61Y-2.8121
X6.73Y-2.86
X6.9725Y-2.2
X7.05Y-1.98
X7.22Y-1.78
X7.24Y-1.87
X7.31Y-1.97
X7.3858Y-3.2362
X7.4258Y-2.8142
X7.5827Y-2.1073
T4
X6.7206Y-1.9798
X6.7521Y-1.9326
X6.7835Y-1.9798
X6.8149Y-1.9326
X6.8464Y-1.9798
T5
X7.4804Y-3.96
X7.4804Y-4.06
X6.6343Y-3.7805
X6.6343Y-4.0907
X6.7343Y-3.7805
X6.7343Y-4.0907
X6.8343Y-3.7805
X6.8343Y-4.0907
X6.9343Y-3.7805
X6.9343Y-4.0907
X6.0434Y-1.8159
X6.0434Y-1.9159
X6.0434Y-2.0159
X6.0434Y-2.1159
X6.0434Y-2.2159
T6
X6.6477Y-1.781
X6.9193Y-1.781
T0
M30
