G04 #@! TF.GenerationSoftware,KiCad,Pcbnew,(5.1.6)-1*
G04 #@! TF.CreationDate,2021-03-08T10:10:15+01:00*
G04 #@! TF.ProjectId,P_sensor v10.0,505f7365-6e73-46f7-9220-7631302e302e,rev?*
G04 #@! TF.SameCoordinates,Original*
G04 #@! TF.FileFunction,Legend,Bot*
G04 #@! TF.FilePolarity,Positive*
%FSLAX46Y46*%
G04 Gerber Fmt 4.6, Leading zero omitted, Abs format (unit mm)*
G04 Created by KiCad (PCBNEW (5.1.6)-1) date 2021-03-08 10:10:15*
%MOMM*%
%LPD*%
G01*
G04 APERTURE LIST*
%ADD10C,0.010000*%
%ADD11C,0.152400*%
G04 APERTURE END LIST*
D10*
G36*
X178871666Y-66063966D02*
G01*
X178709710Y-66144684D01*
X178582006Y-66281976D01*
X178495930Y-66470849D01*
X178463742Y-66637221D01*
X178442990Y-66838286D01*
X179396572Y-66838286D01*
X179396572Y-66924107D01*
X179363824Y-67053999D01*
X179273804Y-67157029D01*
X179138848Y-67226865D01*
X178971291Y-67257171D01*
X178783470Y-67241615D01*
X178779743Y-67240825D01*
X178672226Y-67219696D01*
X178599133Y-67208987D01*
X178579953Y-67209462D01*
X178566759Y-67247953D01*
X178549329Y-67314856D01*
X178541453Y-67375014D01*
X178565742Y-67410800D01*
X178638308Y-67438107D01*
X178687292Y-67450928D01*
X178893937Y-67483087D01*
X179104254Y-67482348D01*
X179266171Y-67453646D01*
X179428708Y-67368925D01*
X179557925Y-67228705D01*
X179646016Y-67045425D01*
X179685176Y-66831526D01*
X179686453Y-66783857D01*
X179662014Y-66572430D01*
X179388796Y-66572430D01*
X179354854Y-66602638D01*
X179268763Y-66616606D01*
X179121546Y-66620467D01*
X179070000Y-66620572D01*
X178915028Y-66619449D01*
X178818752Y-66613947D01*
X178767311Y-66600868D01*
X178746838Y-66577011D01*
X178743429Y-66545209D01*
X178771964Y-66463853D01*
X178842187Y-66373542D01*
X178931027Y-66297486D01*
X179015409Y-66258896D01*
X179029216Y-66257715D01*
X179174009Y-66291582D01*
X179295980Y-66383546D01*
X179336146Y-66438762D01*
X179379568Y-66519849D01*
X179388796Y-66572430D01*
X179662014Y-66572430D01*
X179658345Y-66540689D01*
X179575469Y-66341055D01*
X179439997Y-66188551D01*
X179268834Y-66092219D01*
X179060499Y-66044813D01*
X178871666Y-66063966D01*
G37*
X178871666Y-66063966D02*
X178709710Y-66144684D01*
X178582006Y-66281976D01*
X178495930Y-66470849D01*
X178463742Y-66637221D01*
X178442990Y-66838286D01*
X179396572Y-66838286D01*
X179396572Y-66924107D01*
X179363824Y-67053999D01*
X179273804Y-67157029D01*
X179138848Y-67226865D01*
X178971291Y-67257171D01*
X178783470Y-67241615D01*
X178779743Y-67240825D01*
X178672226Y-67219696D01*
X178599133Y-67208987D01*
X178579953Y-67209462D01*
X178566759Y-67247953D01*
X178549329Y-67314856D01*
X178541453Y-67375014D01*
X178565742Y-67410800D01*
X178638308Y-67438107D01*
X178687292Y-67450928D01*
X178893937Y-67483087D01*
X179104254Y-67482348D01*
X179266171Y-67453646D01*
X179428708Y-67368925D01*
X179557925Y-67228705D01*
X179646016Y-67045425D01*
X179685176Y-66831526D01*
X179686453Y-66783857D01*
X179662014Y-66572430D01*
X179388796Y-66572430D01*
X179354854Y-66602638D01*
X179268763Y-66616606D01*
X179121546Y-66620467D01*
X179070000Y-66620572D01*
X178915028Y-66619449D01*
X178818752Y-66613947D01*
X178767311Y-66600868D01*
X178746838Y-66577011D01*
X178743429Y-66545209D01*
X178771964Y-66463853D01*
X178842187Y-66373542D01*
X178931027Y-66297486D01*
X179015409Y-66258896D01*
X179029216Y-66257715D01*
X179174009Y-66291582D01*
X179295980Y-66383546D01*
X179336146Y-66438762D01*
X179379568Y-66519849D01*
X179388796Y-66572430D01*
X179662014Y-66572430D01*
X179658345Y-66540689D01*
X179575469Y-66341055D01*
X179439997Y-66188551D01*
X179268834Y-66092219D01*
X179060499Y-66044813D01*
X178871666Y-66063966D01*
G36*
X177650939Y-66055618D02*
G01*
X177489944Y-66091989D01*
X177420279Y-66126540D01*
X177351327Y-66180757D01*
X177300293Y-66247708D01*
X177264165Y-66338968D01*
X177239935Y-66466108D01*
X177224592Y-66640702D01*
X177215125Y-66874322D01*
X177213904Y-66919929D01*
X177200289Y-67455143D01*
X177314834Y-67455143D01*
X177407533Y-67438425D01*
X177450315Y-67400586D01*
X177472975Y-67370230D01*
X177516934Y-67377770D01*
X177590268Y-67418593D01*
X177732993Y-67472317D01*
X177900727Y-67488364D01*
X178054785Y-67463640D01*
X178072143Y-67457126D01*
X178193296Y-67371597D01*
X178270371Y-67242980D01*
X178295644Y-67102002D01*
X178005425Y-67102002D01*
X177968465Y-67180188D01*
X177881373Y-67255646D01*
X177768893Y-67271296D01*
X177647424Y-67226664D01*
X177598883Y-67190874D01*
X177527784Y-67104172D01*
X177489987Y-66983698D01*
X177482664Y-66931383D01*
X177462753Y-66754732D01*
X177620776Y-66780001D01*
X177807680Y-66828090D01*
X177936673Y-66900760D01*
X178003880Y-66993551D01*
X178005425Y-67102002D01*
X178295644Y-67102002D01*
X178297857Y-67089662D01*
X178270241Y-66930031D01*
X178246400Y-66875806D01*
X178141467Y-66741413D01*
X177986427Y-66650497D01*
X177775866Y-66600219D01*
X177707622Y-66593149D01*
X177588102Y-66582461D01*
X177503713Y-66572826D01*
X177473429Y-66566590D01*
X177484028Y-66530860D01*
X177509773Y-66454588D01*
X177512070Y-66447985D01*
X177584041Y-66337261D01*
X177701340Y-66280226D01*
X177859654Y-66277634D01*
X178054667Y-66330238D01*
X178094881Y-66346270D01*
X178144129Y-66337286D01*
X178178358Y-66283769D01*
X178189235Y-66213448D01*
X178168430Y-66154052D01*
X178155890Y-66143218D01*
X178011118Y-66081849D01*
X177833733Y-66052444D01*
X177650939Y-66055618D01*
G37*
X177650939Y-66055618D02*
X177489944Y-66091989D01*
X177420279Y-66126540D01*
X177351327Y-66180757D01*
X177300293Y-66247708D01*
X177264165Y-66338968D01*
X177239935Y-66466108D01*
X177224592Y-66640702D01*
X177215125Y-66874322D01*
X177213904Y-66919929D01*
X177200289Y-67455143D01*
X177314834Y-67455143D01*
X177407533Y-67438425D01*
X177450315Y-67400586D01*
X177472975Y-67370230D01*
X177516934Y-67377770D01*
X177590268Y-67418593D01*
X177732993Y-67472317D01*
X177900727Y-67488364D01*
X178054785Y-67463640D01*
X178072143Y-67457126D01*
X178193296Y-67371597D01*
X178270371Y-67242980D01*
X178295644Y-67102002D01*
X178005425Y-67102002D01*
X177968465Y-67180188D01*
X177881373Y-67255646D01*
X177768893Y-67271296D01*
X177647424Y-67226664D01*
X177598883Y-67190874D01*
X177527784Y-67104172D01*
X177489987Y-66983698D01*
X177482664Y-66931383D01*
X177462753Y-66754732D01*
X177620776Y-66780001D01*
X177807680Y-66828090D01*
X177936673Y-66900760D01*
X178003880Y-66993551D01*
X178005425Y-67102002D01*
X178295644Y-67102002D01*
X178297857Y-67089662D01*
X178270241Y-66930031D01*
X178246400Y-66875806D01*
X178141467Y-66741413D01*
X177986427Y-66650497D01*
X177775866Y-66600219D01*
X177707622Y-66593149D01*
X177588102Y-66582461D01*
X177503713Y-66572826D01*
X177473429Y-66566590D01*
X177484028Y-66530860D01*
X177509773Y-66454588D01*
X177512070Y-66447985D01*
X177584041Y-66337261D01*
X177701340Y-66280226D01*
X177859654Y-66277634D01*
X178054667Y-66330238D01*
X178094881Y-66346270D01*
X178144129Y-66337286D01*
X178178358Y-66283769D01*
X178189235Y-66213448D01*
X178168430Y-66154052D01*
X178155890Y-66143218D01*
X178011118Y-66081849D01*
X177833733Y-66052444D01*
X177650939Y-66055618D01*
G36*
X176306826Y-66054540D02*
G01*
X176171723Y-66080364D01*
X176098264Y-66112790D01*
X176075574Y-66161166D01*
X176092778Y-66234835D01*
X176093812Y-66237574D01*
X176132897Y-66307918D01*
X176186630Y-66321299D01*
X176213147Y-66315333D01*
X176352061Y-66279693D01*
X176443971Y-66269540D01*
X176509937Y-66285182D01*
X176563180Y-66320474D01*
X176624515Y-66395175D01*
X176620039Y-66469865D01*
X176547859Y-66547821D01*
X176406082Y-66632323D01*
X176373979Y-66648026D01*
X176222914Y-66725823D01*
X176126318Y-66794377D01*
X176070225Y-66868602D01*
X176040674Y-66963417D01*
X176032896Y-67012386D01*
X176042192Y-67182676D01*
X176114233Y-67324971D01*
X176242710Y-67427225D01*
X176252671Y-67432107D01*
X176396914Y-67473585D01*
X176573428Y-67486867D01*
X176747218Y-67470994D01*
X176833043Y-67448026D01*
X176904147Y-67412078D01*
X176922694Y-67358774D01*
X176914308Y-67299323D01*
X176895261Y-67218108D01*
X176880146Y-67176352D01*
X176879908Y-67176098D01*
X176842188Y-67180897D01*
X176763329Y-67207883D01*
X176736309Y-67218810D01*
X176573535Y-67267296D01*
X176449893Y-67258599D01*
X176369423Y-67204136D01*
X176315540Y-67114003D01*
X176326115Y-67029006D01*
X176403630Y-66944537D01*
X176550568Y-66855986D01*
X176559265Y-66851626D01*
X176715671Y-66766327D01*
X176814964Y-66689031D01*
X176869090Y-66605420D01*
X176889989Y-66501178D01*
X176891703Y-66453108D01*
X176861338Y-66292385D01*
X176773529Y-66166949D01*
X176637298Y-66082947D01*
X176461667Y-66046528D01*
X176306826Y-66054540D01*
G37*
X176306826Y-66054540D02*
X176171723Y-66080364D01*
X176098264Y-66112790D01*
X176075574Y-66161166D01*
X176092778Y-66234835D01*
X176093812Y-66237574D01*
X176132897Y-66307918D01*
X176186630Y-66321299D01*
X176213147Y-66315333D01*
X176352061Y-66279693D01*
X176443971Y-66269540D01*
X176509937Y-66285182D01*
X176563180Y-66320474D01*
X176624515Y-66395175D01*
X176620039Y-66469865D01*
X176547859Y-66547821D01*
X176406082Y-66632323D01*
X176373979Y-66648026D01*
X176222914Y-66725823D01*
X176126318Y-66794377D01*
X176070225Y-66868602D01*
X176040674Y-66963417D01*
X176032896Y-67012386D01*
X176042192Y-67182676D01*
X176114233Y-67324971D01*
X176242710Y-67427225D01*
X176252671Y-67432107D01*
X176396914Y-67473585D01*
X176573428Y-67486867D01*
X176747218Y-67470994D01*
X176833043Y-67448026D01*
X176904147Y-67412078D01*
X176922694Y-67358774D01*
X176914308Y-67299323D01*
X176895261Y-67218108D01*
X176880146Y-67176352D01*
X176879908Y-67176098D01*
X176842188Y-67180897D01*
X176763329Y-67207883D01*
X176736309Y-67218810D01*
X176573535Y-67267296D01*
X176449893Y-67258599D01*
X176369423Y-67204136D01*
X176315540Y-67114003D01*
X176326115Y-67029006D01*
X176403630Y-66944537D01*
X176550568Y-66855986D01*
X176559265Y-66851626D01*
X176715671Y-66766327D01*
X176814964Y-66689031D01*
X176869090Y-66605420D01*
X176889989Y-66501178D01*
X176891703Y-66453108D01*
X176861338Y-66292385D01*
X176773529Y-66166949D01*
X176637298Y-66082947D01*
X176461667Y-66046528D01*
X176306826Y-66054540D01*
G36*
X175477658Y-66520786D02*
G01*
X175473021Y-66767049D01*
X175456856Y-66950137D01*
X175425677Y-67079001D01*
X175375996Y-67162592D01*
X175304327Y-67209858D01*
X175207183Y-67229751D01*
X175201285Y-67230210D01*
X175094919Y-67229054D01*
X175021795Y-67195362D01*
X174956356Y-67127640D01*
X174917174Y-67077823D01*
X174890498Y-67028510D01*
X174873928Y-66965066D01*
X174865064Y-66872853D01*
X174861507Y-66737238D01*
X174860858Y-66545216D01*
X174860858Y-66076286D01*
X174570572Y-66076286D01*
X174570572Y-67455143D01*
X174697572Y-67455143D01*
X174784940Y-67447139D01*
X174820258Y-67415595D01*
X174824572Y-67381485D01*
X174827872Y-67335550D01*
X174849380Y-67330891D01*
X174906506Y-67368476D01*
X174932305Y-67387478D01*
X175048853Y-67442826D01*
X175200215Y-67475264D01*
X175355576Y-67481491D01*
X175484118Y-67458207D01*
X175505575Y-67448879D01*
X175577892Y-67391113D01*
X175652748Y-67300918D01*
X175667163Y-67278882D01*
X175698814Y-67220276D01*
X175721632Y-67154088D01*
X175737580Y-67066510D01*
X175748619Y-66943737D01*
X175756711Y-66771961D01*
X175761722Y-66613429D01*
X175776981Y-66076286D01*
X175477715Y-66076286D01*
X175477658Y-66520786D01*
G37*
X175477658Y-66520786D02*
X175473021Y-66767049D01*
X175456856Y-66950137D01*
X175425677Y-67079001D01*
X175375996Y-67162592D01*
X175304327Y-67209858D01*
X175207183Y-67229751D01*
X175201285Y-67230210D01*
X175094919Y-67229054D01*
X175021795Y-67195362D01*
X174956356Y-67127640D01*
X174917174Y-67077823D01*
X174890498Y-67028510D01*
X174873928Y-66965066D01*
X174865064Y-66872853D01*
X174861507Y-66737238D01*
X174860858Y-66545216D01*
X174860858Y-66076286D01*
X174570572Y-66076286D01*
X174570572Y-67455143D01*
X174697572Y-67455143D01*
X174784940Y-67447139D01*
X174820258Y-67415595D01*
X174824572Y-67381485D01*
X174827872Y-67335550D01*
X174849380Y-67330891D01*
X174906506Y-67368476D01*
X174932305Y-67387478D01*
X175048853Y-67442826D01*
X175200215Y-67475264D01*
X175355576Y-67481491D01*
X175484118Y-67458207D01*
X175505575Y-67448879D01*
X175577892Y-67391113D01*
X175652748Y-67300918D01*
X175667163Y-67278882D01*
X175698814Y-67220276D01*
X175721632Y-67154088D01*
X175737580Y-67066510D01*
X175748619Y-66943737D01*
X175756711Y-66771961D01*
X175761722Y-66613429D01*
X175776981Y-66076286D01*
X175477715Y-66076286D01*
X175477658Y-66520786D01*
G36*
X172484555Y-66108422D02*
G01*
X172348600Y-66222603D01*
X172258532Y-66391261D01*
X172218287Y-66606785D01*
X172203546Y-66838286D01*
X173160319Y-66838286D01*
X173135953Y-66919929D01*
X173054189Y-67090382D01*
X172929643Y-67202911D01*
X172765382Y-67255843D01*
X172564478Y-67247504D01*
X172542742Y-67243288D01*
X172409191Y-67220302D01*
X172331027Y-67223004D01*
X172294182Y-67256041D01*
X172284588Y-67324063D01*
X172284572Y-67328579D01*
X172299760Y-67391824D01*
X172357692Y-67432551D01*
X172420643Y-67453235D01*
X172654769Y-67490023D01*
X172884551Y-67474810D01*
X173084091Y-67409786D01*
X173242569Y-67298022D01*
X173346463Y-67147010D01*
X173399327Y-66950082D01*
X173408035Y-66802000D01*
X173381369Y-66554926D01*
X173380663Y-66553048D01*
X173137355Y-66553048D01*
X173116239Y-66592721D01*
X173038457Y-66612932D01*
X172897663Y-66619996D01*
X172803384Y-66620572D01*
X172458133Y-66620572D01*
X172481576Y-66520786D01*
X172525403Y-66426546D01*
X172598660Y-66337488D01*
X172600712Y-66335640D01*
X172719657Y-66273160D01*
X172851481Y-66272864D01*
X172976174Y-66332244D01*
X173034965Y-66390051D01*
X173108149Y-66487596D01*
X173137355Y-66553048D01*
X173380663Y-66553048D01*
X173304447Y-66350518D01*
X173181206Y-66194336D01*
X173015584Y-66091940D01*
X172879502Y-66055679D01*
X172662741Y-66051765D01*
X172484555Y-66108422D01*
G37*
X172484555Y-66108422D02*
X172348600Y-66222603D01*
X172258532Y-66391261D01*
X172218287Y-66606785D01*
X172203546Y-66838286D01*
X173160319Y-66838286D01*
X173135953Y-66919929D01*
X173054189Y-67090382D01*
X172929643Y-67202911D01*
X172765382Y-67255843D01*
X172564478Y-67247504D01*
X172542742Y-67243288D01*
X172409191Y-67220302D01*
X172331027Y-67223004D01*
X172294182Y-67256041D01*
X172284588Y-67324063D01*
X172284572Y-67328579D01*
X172299760Y-67391824D01*
X172357692Y-67432551D01*
X172420643Y-67453235D01*
X172654769Y-67490023D01*
X172884551Y-67474810D01*
X173084091Y-67409786D01*
X173242569Y-67298022D01*
X173346463Y-67147010D01*
X173399327Y-66950082D01*
X173408035Y-66802000D01*
X173381369Y-66554926D01*
X173380663Y-66553048D01*
X173137355Y-66553048D01*
X173116239Y-66592721D01*
X173038457Y-66612932D01*
X172897663Y-66619996D01*
X172803384Y-66620572D01*
X172458133Y-66620572D01*
X172481576Y-66520786D01*
X172525403Y-66426546D01*
X172598660Y-66337488D01*
X172600712Y-66335640D01*
X172719657Y-66273160D01*
X172851481Y-66272864D01*
X172976174Y-66332244D01*
X173034965Y-66390051D01*
X173108149Y-66487596D01*
X173137355Y-66553048D01*
X173380663Y-66553048D01*
X173304447Y-66350518D01*
X173181206Y-66194336D01*
X173015584Y-66091940D01*
X172879502Y-66055679D01*
X172662741Y-66051765D01*
X172484555Y-66108422D01*
G36*
X168953681Y-66054700D02*
G01*
X168786471Y-66107026D01*
X168644183Y-66209065D01*
X168549324Y-66343923D01*
X168497263Y-66496831D01*
X168474683Y-66658153D01*
X168474572Y-66668314D01*
X168474572Y-66838286D01*
X168946286Y-66838286D01*
X169149037Y-66839239D01*
X169288324Y-66844886D01*
X169373254Y-66859407D01*
X169412933Y-66886984D01*
X169416466Y-66931797D01*
X169392961Y-66998028D01*
X169376122Y-67035641D01*
X169284913Y-67153387D01*
X169145781Y-67230549D01*
X168974112Y-67262017D01*
X168785296Y-67242678D01*
X168766972Y-67237998D01*
X168664555Y-67211916D01*
X168610984Y-67211477D01*
X168584610Y-67245098D01*
X168564957Y-67316535D01*
X168556191Y-67381011D01*
X168583295Y-67418194D01*
X168662684Y-67447472D01*
X168679936Y-67452330D01*
X168916602Y-67489859D01*
X169147443Y-67474799D01*
X169346519Y-67409786D01*
X169512809Y-67288177D01*
X169628619Y-67123872D01*
X169691392Y-66928674D01*
X169698568Y-66714386D01*
X169670724Y-66593357D01*
X169417865Y-66593357D01*
X169384282Y-66605090D01*
X169293947Y-66614283D01*
X169162666Y-66619678D01*
X169075819Y-66620572D01*
X168733638Y-66620572D01*
X168767258Y-66502643D01*
X168835217Y-66374322D01*
X168942751Y-66291385D01*
X169071872Y-66263048D01*
X169184902Y-66288655D01*
X169253135Y-66340359D01*
X169327939Y-66424978D01*
X169389408Y-66516473D01*
X169417636Y-66588807D01*
X169417865Y-66593357D01*
X169670724Y-66593357D01*
X169647592Y-66492811D01*
X169577744Y-66342843D01*
X169457844Y-66196159D01*
X169304067Y-66099251D01*
X169131113Y-66052103D01*
X168953681Y-66054700D01*
G37*
X168953681Y-66054700D02*
X168786471Y-66107026D01*
X168644183Y-66209065D01*
X168549324Y-66343923D01*
X168497263Y-66496831D01*
X168474683Y-66658153D01*
X168474572Y-66668314D01*
X168474572Y-66838286D01*
X168946286Y-66838286D01*
X169149037Y-66839239D01*
X169288324Y-66844886D01*
X169373254Y-66859407D01*
X169412933Y-66886984D01*
X169416466Y-66931797D01*
X169392961Y-66998028D01*
X169376122Y-67035641D01*
X169284913Y-67153387D01*
X169145781Y-67230549D01*
X168974112Y-67262017D01*
X168785296Y-67242678D01*
X168766972Y-67237998D01*
X168664555Y-67211916D01*
X168610984Y-67211477D01*
X168584610Y-67245098D01*
X168564957Y-67316535D01*
X168556191Y-67381011D01*
X168583295Y-67418194D01*
X168662684Y-67447472D01*
X168679936Y-67452330D01*
X168916602Y-67489859D01*
X169147443Y-67474799D01*
X169346519Y-67409786D01*
X169512809Y-67288177D01*
X169628619Y-67123872D01*
X169691392Y-66928674D01*
X169698568Y-66714386D01*
X169670724Y-66593357D01*
X169417865Y-66593357D01*
X169384282Y-66605090D01*
X169293947Y-66614283D01*
X169162666Y-66619678D01*
X169075819Y-66620572D01*
X168733638Y-66620572D01*
X168767258Y-66502643D01*
X168835217Y-66374322D01*
X168942751Y-66291385D01*
X169071872Y-66263048D01*
X169184902Y-66288655D01*
X169253135Y-66340359D01*
X169327939Y-66424978D01*
X169389408Y-66516473D01*
X169417636Y-66588807D01*
X169417865Y-66593357D01*
X169670724Y-66593357D01*
X169647592Y-66492811D01*
X169577744Y-66342843D01*
X169457844Y-66196159D01*
X169304067Y-66099251D01*
X169131113Y-66052103D01*
X168953681Y-66054700D01*
G36*
X166340726Y-65725895D02*
G01*
X166334219Y-65814363D01*
X166333715Y-65872832D01*
X166333715Y-66076286D01*
X166152286Y-66076286D01*
X166044885Y-66078664D01*
X165991328Y-66093287D01*
X165972895Y-66131387D01*
X165970858Y-66185143D01*
X165974821Y-66249584D01*
X165999193Y-66281718D01*
X166062692Y-66292778D01*
X166152286Y-66294000D01*
X166333715Y-66294000D01*
X166333715Y-66695529D01*
X166330793Y-66906220D01*
X166319428Y-67054881D01*
X166295722Y-67151911D01*
X166255776Y-67207708D01*
X166195693Y-67232671D01*
X166130568Y-67237429D01*
X166045597Y-67242363D01*
X166013024Y-67270718D01*
X166012738Y-67342824D01*
X166013916Y-67355357D01*
X166026100Y-67428284D01*
X166058132Y-67464127D01*
X166131169Y-67478204D01*
X166188572Y-67481809D01*
X166315086Y-67475156D01*
X166425682Y-67447680D01*
X166447341Y-67437547D01*
X166526428Y-67377983D01*
X166570791Y-67320167D01*
X166582476Y-67260948D01*
X166594510Y-67145014D01*
X166605593Y-66988200D01*
X166614424Y-66806345D01*
X166615583Y-66774786D01*
X166622771Y-66580422D01*
X166629977Y-66447089D01*
X166639674Y-66363285D01*
X166654331Y-66317511D01*
X166676422Y-66298267D01*
X166708418Y-66294053D01*
X166718918Y-66294000D01*
X166780965Y-66281376D01*
X166803570Y-66229168D01*
X166805429Y-66185143D01*
X166795666Y-66107346D01*
X166754163Y-66078886D01*
X166714715Y-66076286D01*
X166658233Y-66069295D01*
X166631808Y-66035222D01*
X166624258Y-65954421D01*
X166624000Y-65916934D01*
X166618505Y-65814649D01*
X166594825Y-65762164D01*
X166542170Y-65737085D01*
X166536657Y-65735660D01*
X166443551Y-65709209D01*
X166391514Y-65691559D01*
X166358329Y-65689649D01*
X166340726Y-65725895D01*
G37*
X166340726Y-65725895D02*
X166334219Y-65814363D01*
X166333715Y-65872832D01*
X166333715Y-66076286D01*
X166152286Y-66076286D01*
X166044885Y-66078664D01*
X165991328Y-66093287D01*
X165972895Y-66131387D01*
X165970858Y-66185143D01*
X165974821Y-66249584D01*
X165999193Y-66281718D01*
X166062692Y-66292778D01*
X166152286Y-66294000D01*
X166333715Y-66294000D01*
X166333715Y-66695529D01*
X166330793Y-66906220D01*
X166319428Y-67054881D01*
X166295722Y-67151911D01*
X166255776Y-67207708D01*
X166195693Y-67232671D01*
X166130568Y-67237429D01*
X166045597Y-67242363D01*
X166013024Y-67270718D01*
X166012738Y-67342824D01*
X166013916Y-67355357D01*
X166026100Y-67428284D01*
X166058132Y-67464127D01*
X166131169Y-67478204D01*
X166188572Y-67481809D01*
X166315086Y-67475156D01*
X166425682Y-67447680D01*
X166447341Y-67437547D01*
X166526428Y-67377983D01*
X166570791Y-67320167D01*
X166582476Y-67260948D01*
X166594510Y-67145014D01*
X166605593Y-66988200D01*
X166614424Y-66806345D01*
X166615583Y-66774786D01*
X166622771Y-66580422D01*
X166629977Y-66447089D01*
X166639674Y-66363285D01*
X166654331Y-66317511D01*
X166676422Y-66298267D01*
X166708418Y-66294053D01*
X166718918Y-66294000D01*
X166780965Y-66281376D01*
X166803570Y-66229168D01*
X166805429Y-66185143D01*
X166795666Y-66107346D01*
X166754163Y-66078886D01*
X166714715Y-66076286D01*
X166658233Y-66069295D01*
X166631808Y-66035222D01*
X166624258Y-65954421D01*
X166624000Y-65916934D01*
X166618505Y-65814649D01*
X166594825Y-65762164D01*
X166542170Y-65737085D01*
X166536657Y-65735660D01*
X166443551Y-65709209D01*
X166391514Y-65691559D01*
X166358329Y-65689649D01*
X166340726Y-65725895D01*
G36*
X164342024Y-65551465D02*
G01*
X164234248Y-65575427D01*
X164178483Y-65617444D01*
X164164564Y-65683647D01*
X164173391Y-65743690D01*
X164197553Y-65853696D01*
X164344910Y-65801705D01*
X164540288Y-65756940D01*
X164702577Y-65770141D01*
X164826373Y-65840142D01*
X164884958Y-65917993D01*
X164917612Y-66012495D01*
X164903136Y-66098125D01*
X164835755Y-66182426D01*
X164709696Y-66272939D01*
X164542514Y-66365325D01*
X164350671Y-66470983D01*
X164217765Y-66565523D01*
X164133932Y-66660918D01*
X164089310Y-66769142D01*
X164074035Y-66902168D01*
X164073633Y-66934508D01*
X164093056Y-67111968D01*
X164158308Y-67246656D01*
X164279865Y-67355091D01*
X164375027Y-67409786D01*
X164565970Y-67472550D01*
X164785746Y-67489338D01*
X165006199Y-67459106D01*
X165081858Y-67435954D01*
X165173114Y-67403709D01*
X165229503Y-67384979D01*
X165236763Y-67383118D01*
X165238713Y-67353423D01*
X165223572Y-67285884D01*
X165199788Y-67210587D01*
X165175810Y-67157617D01*
X165172056Y-67152698D01*
X165124899Y-67147297D01*
X165045489Y-67173917D01*
X165033400Y-67179913D01*
X164929475Y-67214362D01*
X164795464Y-67234902D01*
X164736154Y-67237429D01*
X164612415Y-67230181D01*
X164527699Y-67200502D01*
X164449225Y-67136489D01*
X164444066Y-67131363D01*
X164363622Y-67023312D01*
X164346165Y-66919357D01*
X164393701Y-66815980D01*
X164508232Y-66709665D01*
X164691764Y-66596894D01*
X164772246Y-66555460D01*
X164957847Y-66452275D01*
X165082351Y-66352432D01*
X165155571Y-66243842D01*
X165187322Y-66114414D01*
X165190715Y-66040000D01*
X165162035Y-65849599D01*
X165076510Y-65703890D01*
X164934913Y-65603444D01*
X164738019Y-65548832D01*
X164511976Y-65539425D01*
X164342024Y-65551465D01*
G37*
X164342024Y-65551465D02*
X164234248Y-65575427D01*
X164178483Y-65617444D01*
X164164564Y-65683647D01*
X164173391Y-65743690D01*
X164197553Y-65853696D01*
X164344910Y-65801705D01*
X164540288Y-65756940D01*
X164702577Y-65770141D01*
X164826373Y-65840142D01*
X164884958Y-65917993D01*
X164917612Y-66012495D01*
X164903136Y-66098125D01*
X164835755Y-66182426D01*
X164709696Y-66272939D01*
X164542514Y-66365325D01*
X164350671Y-66470983D01*
X164217765Y-66565523D01*
X164133932Y-66660918D01*
X164089310Y-66769142D01*
X164074035Y-66902168D01*
X164073633Y-66934508D01*
X164093056Y-67111968D01*
X164158308Y-67246656D01*
X164279865Y-67355091D01*
X164375027Y-67409786D01*
X164565970Y-67472550D01*
X164785746Y-67489338D01*
X165006199Y-67459106D01*
X165081858Y-67435954D01*
X165173114Y-67403709D01*
X165229503Y-67384979D01*
X165236763Y-67383118D01*
X165238713Y-67353423D01*
X165223572Y-67285884D01*
X165199788Y-67210587D01*
X165175810Y-67157617D01*
X165172056Y-67152698D01*
X165124899Y-67147297D01*
X165045489Y-67173917D01*
X165033400Y-67179913D01*
X164929475Y-67214362D01*
X164795464Y-67234902D01*
X164736154Y-67237429D01*
X164612415Y-67230181D01*
X164527699Y-67200502D01*
X164449225Y-67136489D01*
X164444066Y-67131363D01*
X164363622Y-67023312D01*
X164346165Y-66919357D01*
X164393701Y-66815980D01*
X164508232Y-66709665D01*
X164691764Y-66596894D01*
X164772246Y-66555460D01*
X164957847Y-66452275D01*
X165082351Y-66352432D01*
X165155571Y-66243842D01*
X165187322Y-66114414D01*
X165190715Y-66040000D01*
X165162035Y-65849599D01*
X165076510Y-65703890D01*
X164934913Y-65603444D01*
X164738019Y-65548832D01*
X164511976Y-65539425D01*
X164342024Y-65551465D01*
G36*
X162897137Y-66098784D02*
G01*
X162787334Y-66154126D01*
X162656266Y-66275200D01*
X162563879Y-66442302D01*
X162513228Y-66638236D01*
X162507367Y-66845805D01*
X162549349Y-67047813D01*
X162606445Y-67172651D01*
X162732494Y-67321569D01*
X162900893Y-67427842D01*
X163093133Y-67486026D01*
X163290709Y-67490678D01*
X163475110Y-67436355D01*
X163485286Y-67431135D01*
X163646394Y-67323132D01*
X163752524Y-67190279D01*
X163812513Y-67042474D01*
X163858840Y-66795384D01*
X163853171Y-66728051D01*
X163567077Y-66728051D01*
X163550888Y-66910149D01*
X163480387Y-67076309D01*
X163385086Y-67185414D01*
X163252553Y-67255190D01*
X163112806Y-67257848D01*
X162982528Y-67194791D01*
X162933172Y-67147361D01*
X162836637Y-66984394D01*
X162798555Y-66797886D01*
X162818794Y-66607129D01*
X162897225Y-66431414D01*
X162938392Y-66377046D01*
X163016726Y-66307792D01*
X163111834Y-66280254D01*
X163176720Y-66277507D01*
X163291671Y-66289272D01*
X163376337Y-66336355D01*
X163432002Y-66392308D01*
X163527824Y-66549082D01*
X163567077Y-66728051D01*
X163853171Y-66728051D01*
X163840435Y-66576815D01*
X163756035Y-66380104D01*
X163664351Y-66259876D01*
X163503062Y-66132392D01*
X163310567Y-66061739D01*
X163103161Y-66049881D01*
X162897137Y-66098784D01*
G37*
X162897137Y-66098784D02*
X162787334Y-66154126D01*
X162656266Y-66275200D01*
X162563879Y-66442302D01*
X162513228Y-66638236D01*
X162507367Y-66845805D01*
X162549349Y-67047813D01*
X162606445Y-67172651D01*
X162732494Y-67321569D01*
X162900893Y-67427842D01*
X163093133Y-67486026D01*
X163290709Y-67490678D01*
X163475110Y-67436355D01*
X163485286Y-67431135D01*
X163646394Y-67323132D01*
X163752524Y-67190279D01*
X163812513Y-67042474D01*
X163858840Y-66795384D01*
X163853171Y-66728051D01*
X163567077Y-66728051D01*
X163550888Y-66910149D01*
X163480387Y-67076309D01*
X163385086Y-67185414D01*
X163252553Y-67255190D01*
X163112806Y-67257848D01*
X162982528Y-67194791D01*
X162933172Y-67147361D01*
X162836637Y-66984394D01*
X162798555Y-66797886D01*
X162818794Y-66607129D01*
X162897225Y-66431414D01*
X162938392Y-66377046D01*
X163016726Y-66307792D01*
X163111834Y-66280254D01*
X163176720Y-66277507D01*
X163291671Y-66289272D01*
X163376337Y-66336355D01*
X163432002Y-66392308D01*
X163527824Y-66549082D01*
X163567077Y-66728051D01*
X163853171Y-66728051D01*
X163840435Y-66576815D01*
X163756035Y-66380104D01*
X163664351Y-66259876D01*
X163503062Y-66132392D01*
X163310567Y-66061739D01*
X163103161Y-66049881D01*
X162897137Y-66098784D01*
G36*
X161283672Y-66580593D02*
G01*
X161274934Y-66816887D01*
X161259001Y-66990009D01*
X161232249Y-67109270D01*
X161191052Y-67183981D01*
X161131786Y-67223455D01*
X161050827Y-67237001D01*
X161027991Y-67237429D01*
X160903396Y-67223525D01*
X160810053Y-67176644D01*
X160744158Y-67089028D01*
X160701911Y-66952921D01*
X160679509Y-66760568D01*
X160673143Y-66513517D01*
X160673143Y-66076286D01*
X160419143Y-66076286D01*
X160418744Y-66629643D01*
X160417134Y-66834700D01*
X160412976Y-67024713D01*
X160406830Y-67182821D01*
X160399256Y-67292164D01*
X160395853Y-67319072D01*
X160384611Y-67407682D01*
X160401741Y-67445913D01*
X160463600Y-67454954D01*
X160500878Y-67455143D01*
X160593514Y-67444696D01*
X160638598Y-67405051D01*
X160649369Y-67374932D01*
X160670345Y-67294721D01*
X160762179Y-67380995D01*
X160890451Y-67456546D01*
X161050661Y-67488001D01*
X161216036Y-67473927D01*
X161359616Y-67413018D01*
X161437382Y-67348551D01*
X161494571Y-67269328D01*
X161534182Y-67163823D01*
X161559214Y-67020509D01*
X161572664Y-66827859D01*
X161577526Y-66575215D01*
X161580286Y-66076286D01*
X161295486Y-66076286D01*
X161283672Y-66580593D01*
G37*
X161283672Y-66580593D02*
X161274934Y-66816887D01*
X161259001Y-66990009D01*
X161232249Y-67109270D01*
X161191052Y-67183981D01*
X161131786Y-67223455D01*
X161050827Y-67237001D01*
X161027991Y-67237429D01*
X160903396Y-67223525D01*
X160810053Y-67176644D01*
X160744158Y-67089028D01*
X160701911Y-66952921D01*
X160679509Y-66760568D01*
X160673143Y-66513517D01*
X160673143Y-66076286D01*
X160419143Y-66076286D01*
X160418744Y-66629643D01*
X160417134Y-66834700D01*
X160412976Y-67024713D01*
X160406830Y-67182821D01*
X160399256Y-67292164D01*
X160395853Y-67319072D01*
X160384611Y-67407682D01*
X160401741Y-67445913D01*
X160463600Y-67454954D01*
X160500878Y-67455143D01*
X160593514Y-67444696D01*
X160638598Y-67405051D01*
X160649369Y-67374932D01*
X160670345Y-67294721D01*
X160762179Y-67380995D01*
X160890451Y-67456546D01*
X161050661Y-67488001D01*
X161216036Y-67473927D01*
X161359616Y-67413018D01*
X161437382Y-67348551D01*
X161494571Y-67269328D01*
X161534182Y-67163823D01*
X161559214Y-67020509D01*
X161572664Y-66827859D01*
X161577526Y-66575215D01*
X161580286Y-66076286D01*
X161295486Y-66076286D01*
X161283672Y-66580593D01*
G36*
X159704284Y-65706434D02*
G01*
X159694907Y-65768836D01*
X159693429Y-65874269D01*
X159693429Y-66076286D01*
X159530143Y-66076286D01*
X159429736Y-66079442D01*
X159382180Y-66097662D01*
X159367781Y-66144076D01*
X159366858Y-66185143D01*
X159371591Y-66252081D01*
X159398921Y-66283785D01*
X159468542Y-66293385D01*
X159530143Y-66294000D01*
X159693429Y-66294000D01*
X159693429Y-66722172D01*
X159691297Y-66925372D01*
X159681934Y-67067021D01*
X159660890Y-67158084D01*
X159623712Y-67209529D01*
X159565951Y-67232322D01*
X159484301Y-67237429D01*
X159402093Y-67243028D01*
X159371934Y-67274326D01*
X159373411Y-67353077D01*
X159373630Y-67355357D01*
X159385755Y-67428245D01*
X159417614Y-67463920D01*
X159490366Y-67477594D01*
X159548286Y-67480915D01*
X159668912Y-67478100D01*
X159771880Y-67461794D01*
X159794827Y-67454274D01*
X159868646Y-67402903D01*
X159922284Y-67312944D01*
X159957901Y-67176121D01*
X159977658Y-66984154D01*
X159983715Y-66730594D01*
X159983715Y-66294000D01*
X160092572Y-66294000D01*
X160169675Y-66285009D01*
X160198094Y-66242598D01*
X160201429Y-66185143D01*
X160192438Y-66108040D01*
X160150026Y-66079621D01*
X160092572Y-66076286D01*
X160025271Y-66071434D01*
X159993642Y-66043652D01*
X159984259Y-65973106D01*
X159983715Y-65915446D01*
X159975847Y-65806339D01*
X159948125Y-65751139D01*
X159920215Y-65736896D01*
X159832581Y-65712154D01*
X159775072Y-65695720D01*
X159728647Y-65687222D01*
X159704284Y-65706434D01*
G37*
X159704284Y-65706434D02*
X159694907Y-65768836D01*
X159693429Y-65874269D01*
X159693429Y-66076286D01*
X159530143Y-66076286D01*
X159429736Y-66079442D01*
X159382180Y-66097662D01*
X159367781Y-66144076D01*
X159366858Y-66185143D01*
X159371591Y-66252081D01*
X159398921Y-66283785D01*
X159468542Y-66293385D01*
X159530143Y-66294000D01*
X159693429Y-66294000D01*
X159693429Y-66722172D01*
X159691297Y-66925372D01*
X159681934Y-67067021D01*
X159660890Y-67158084D01*
X159623712Y-67209529D01*
X159565951Y-67232322D01*
X159484301Y-67237429D01*
X159402093Y-67243028D01*
X159371934Y-67274326D01*
X159373411Y-67353077D01*
X159373630Y-67355357D01*
X159385755Y-67428245D01*
X159417614Y-67463920D01*
X159490366Y-67477594D01*
X159548286Y-67480915D01*
X159668912Y-67478100D01*
X159771880Y-67461794D01*
X159794827Y-67454274D01*
X159868646Y-67402903D01*
X159922284Y-67312944D01*
X159957901Y-67176121D01*
X159977658Y-66984154D01*
X159983715Y-66730594D01*
X159983715Y-66294000D01*
X160092572Y-66294000D01*
X160169675Y-66285009D01*
X160198094Y-66242598D01*
X160201429Y-66185143D01*
X160192438Y-66108040D01*
X160150026Y-66079621D01*
X160092572Y-66076286D01*
X160025271Y-66071434D01*
X159993642Y-66043652D01*
X159984259Y-65973106D01*
X159983715Y-65915446D01*
X159975847Y-65806339D01*
X159948125Y-65751139D01*
X159920215Y-65736896D01*
X159832581Y-65712154D01*
X159775072Y-65695720D01*
X159728647Y-65687222D01*
X159704284Y-65706434D01*
G36*
X157646068Y-66076512D02*
G01*
X157479543Y-66158797D01*
X157340283Y-66294312D01*
X157283642Y-66384715D01*
X157227953Y-66551791D01*
X157207388Y-66751918D01*
X157222170Y-66954519D01*
X157272523Y-67129016D01*
X157278112Y-67140881D01*
X157390619Y-67293379D01*
X157549799Y-67405214D01*
X157739032Y-67471226D01*
X157941699Y-67486257D01*
X158141178Y-67445147D01*
X158191162Y-67424303D01*
X158356180Y-67309298D01*
X158473294Y-67146347D01*
X158538535Y-66945268D01*
X158547146Y-66735014D01*
X158266676Y-66735014D01*
X158252167Y-66922288D01*
X158170147Y-67090256D01*
X158115373Y-67153599D01*
X157984861Y-67248801D01*
X157854479Y-67271636D01*
X157721646Y-67222257D01*
X157664898Y-67180351D01*
X157559632Y-67047646D01*
X157502409Y-66880281D01*
X157494676Y-66699232D01*
X157537881Y-66525473D01*
X157611383Y-66404266D01*
X157733726Y-66304208D01*
X157867187Y-66270235D01*
X157999652Y-66299682D01*
X158119003Y-66389882D01*
X158212401Y-66536523D01*
X158266676Y-66735014D01*
X158547146Y-66735014D01*
X158547930Y-66715875D01*
X158529330Y-66588192D01*
X158457382Y-66393263D01*
X158338938Y-66239517D01*
X158186291Y-66128960D01*
X158011735Y-66063602D01*
X157827562Y-66045450D01*
X157646068Y-66076512D01*
G37*
X157646068Y-66076512D02*
X157479543Y-66158797D01*
X157340283Y-66294312D01*
X157283642Y-66384715D01*
X157227953Y-66551791D01*
X157207388Y-66751918D01*
X157222170Y-66954519D01*
X157272523Y-67129016D01*
X157278112Y-67140881D01*
X157390619Y-67293379D01*
X157549799Y-67405214D01*
X157739032Y-67471226D01*
X157941699Y-67486257D01*
X158141178Y-67445147D01*
X158191162Y-67424303D01*
X158356180Y-67309298D01*
X158473294Y-67146347D01*
X158538535Y-66945268D01*
X158547146Y-66735014D01*
X158266676Y-66735014D01*
X158252167Y-66922288D01*
X158170147Y-67090256D01*
X158115373Y-67153599D01*
X157984861Y-67248801D01*
X157854479Y-67271636D01*
X157721646Y-67222257D01*
X157664898Y-67180351D01*
X157559632Y-67047646D01*
X157502409Y-66880281D01*
X157494676Y-66699232D01*
X157537881Y-66525473D01*
X157611383Y-66404266D01*
X157733726Y-66304208D01*
X157867187Y-66270235D01*
X157999652Y-66299682D01*
X158119003Y-66389882D01*
X158212401Y-66536523D01*
X158266676Y-66735014D01*
X158547146Y-66735014D01*
X158547930Y-66715875D01*
X158529330Y-66588192D01*
X158457382Y-66393263D01*
X158338938Y-66239517D01*
X158186291Y-66128960D01*
X158011735Y-66063602D01*
X157827562Y-66045450D01*
X157646068Y-66076512D01*
G36*
X154727701Y-66079836D02*
G01*
X154637459Y-66135596D01*
X154615470Y-66214413D01*
X154645183Y-66287910D01*
X154678551Y-66315356D01*
X154739716Y-66313845D01*
X154824411Y-66291730D01*
X154928384Y-66267031D01*
X155000086Y-66273426D01*
X155067579Y-66309186D01*
X155142953Y-66379189D01*
X155152981Y-66450634D01*
X155095917Y-66526917D01*
X154970015Y-66611429D01*
X154890634Y-66652951D01*
X154750996Y-66727832D01*
X154662621Y-66792875D01*
X154608318Y-66862339D01*
X154588339Y-66903746D01*
X154553260Y-67064301D01*
X154580695Y-67208888D01*
X154661182Y-67330818D01*
X154785258Y-67423401D01*
X154943461Y-67479948D01*
X155126329Y-67493772D01*
X155324401Y-67458184D01*
X155357286Y-67447311D01*
X155435301Y-67418667D01*
X155474921Y-67401954D01*
X155475378Y-67401631D01*
X155471139Y-67366430D01*
X155448403Y-67290553D01*
X155445629Y-67282509D01*
X155416359Y-67210413D01*
X155381244Y-67189391D01*
X155313787Y-67209595D01*
X155283345Y-67222197D01*
X155118341Y-67268724D01*
X154984262Y-67254606D01*
X154902264Y-67207265D01*
X154837761Y-67127551D01*
X154841485Y-67046074D01*
X154914619Y-66960719D01*
X155058342Y-66869372D01*
X155103998Y-66846062D01*
X155242089Y-66771449D01*
X155328907Y-66705059D01*
X155382029Y-66632179D01*
X155396340Y-66601400D01*
X155429088Y-66445427D01*
X155399759Y-66304327D01*
X155318518Y-66186028D01*
X155195525Y-66098456D01*
X155040944Y-66049538D01*
X154864937Y-66047203D01*
X154727701Y-66079836D01*
G37*
X154727701Y-66079836D02*
X154637459Y-66135596D01*
X154615470Y-66214413D01*
X154645183Y-66287910D01*
X154678551Y-66315356D01*
X154739716Y-66313845D01*
X154824411Y-66291730D01*
X154928384Y-66267031D01*
X155000086Y-66273426D01*
X155067579Y-66309186D01*
X155142953Y-66379189D01*
X155152981Y-66450634D01*
X155095917Y-66526917D01*
X154970015Y-66611429D01*
X154890634Y-66652951D01*
X154750996Y-66727832D01*
X154662621Y-66792875D01*
X154608318Y-66862339D01*
X154588339Y-66903746D01*
X154553260Y-67064301D01*
X154580695Y-67208888D01*
X154661182Y-67330818D01*
X154785258Y-67423401D01*
X154943461Y-67479948D01*
X155126329Y-67493772D01*
X155324401Y-67458184D01*
X155357286Y-67447311D01*
X155435301Y-67418667D01*
X155474921Y-67401954D01*
X155475378Y-67401631D01*
X155471139Y-67366430D01*
X155448403Y-67290553D01*
X155445629Y-67282509D01*
X155416359Y-67210413D01*
X155381244Y-67189391D01*
X155313787Y-67209595D01*
X155283345Y-67222197D01*
X155118341Y-67268724D01*
X154984262Y-67254606D01*
X154902264Y-67207265D01*
X154837761Y-67127551D01*
X154841485Y-67046074D01*
X154914619Y-66960719D01*
X155058342Y-66869372D01*
X155103998Y-66846062D01*
X155242089Y-66771449D01*
X155328907Y-66705059D01*
X155382029Y-66632179D01*
X155396340Y-66601400D01*
X155429088Y-66445427D01*
X155399759Y-66304327D01*
X155318518Y-66186028D01*
X155195525Y-66098456D01*
X155040944Y-66049538D01*
X154864937Y-66047203D01*
X154727701Y-66079836D01*
G36*
X181487894Y-65536062D02*
G01*
X181450335Y-65553396D01*
X181415579Y-65591826D01*
X181379047Y-65659525D01*
X181336161Y-65764662D01*
X181282344Y-65915410D01*
X181213017Y-66119939D01*
X181142469Y-66330286D01*
X181077691Y-66523112D01*
X181020260Y-66693922D01*
X180974492Y-66829901D01*
X180944697Y-66918231D01*
X180935939Y-66944026D01*
X180918422Y-66931307D01*
X180882750Y-66860609D01*
X180833703Y-66742809D01*
X180776061Y-66588781D01*
X180760515Y-66544883D01*
X180689558Y-66343062D01*
X180615935Y-66134960D01*
X180548766Y-65946290D01*
X180500960Y-65813215D01*
X180399170Y-65532000D01*
X180224442Y-65532000D01*
X180119450Y-65534925D01*
X180067904Y-65550936D01*
X180050713Y-65590887D01*
X180048939Y-65631786D01*
X180046307Y-65696903D01*
X180039390Y-65822121D01*
X180028938Y-65995146D01*
X180015700Y-66203684D01*
X180000428Y-66435439D01*
X179995286Y-66511715D01*
X179975583Y-66798522D01*
X179960505Y-67020967D01*
X179950683Y-67187149D01*
X179946752Y-67305168D01*
X179949343Y-67383122D01*
X179959090Y-67429112D01*
X179976625Y-67451236D01*
X180002582Y-67457594D01*
X180037592Y-67456286D01*
X180068996Y-67455143D01*
X180158317Y-67443563D01*
X180210147Y-67415151D01*
X180212911Y-67409786D01*
X180219198Y-67360828D01*
X180227377Y-67251295D01*
X180236745Y-67093136D01*
X180246601Y-66898300D01*
X180256243Y-66678738D01*
X180257129Y-66656857D01*
X180285572Y-65949286D01*
X180555569Y-66702215D01*
X180825567Y-67455143D01*
X181050343Y-67455143D01*
X181289500Y-66728121D01*
X181528657Y-66001098D01*
X181550651Y-66265478D01*
X181561413Y-66409836D01*
X181573891Y-66600520D01*
X181586445Y-66811361D01*
X181596237Y-66992500D01*
X181619828Y-67455143D01*
X181907096Y-67455143D01*
X181886570Y-67282786D01*
X181877220Y-67187165D01*
X181864848Y-67036063D01*
X181850738Y-66846444D01*
X181836176Y-66635271D01*
X181828163Y-66511715D01*
X181813886Y-66293965D01*
X181799370Y-66086286D01*
X181785904Y-65906228D01*
X181774781Y-65771340D01*
X181770101Y-65722500D01*
X181749921Y-65532000D01*
X181589733Y-65532000D01*
X181532834Y-65531654D01*
X181487894Y-65536062D01*
G37*
X181487894Y-65536062D02*
X181450335Y-65553396D01*
X181415579Y-65591826D01*
X181379047Y-65659525D01*
X181336161Y-65764662D01*
X181282344Y-65915410D01*
X181213017Y-66119939D01*
X181142469Y-66330286D01*
X181077691Y-66523112D01*
X181020260Y-66693922D01*
X180974492Y-66829901D01*
X180944697Y-66918231D01*
X180935939Y-66944026D01*
X180918422Y-66931307D01*
X180882750Y-66860609D01*
X180833703Y-66742809D01*
X180776061Y-66588781D01*
X180760515Y-66544883D01*
X180689558Y-66343062D01*
X180615935Y-66134960D01*
X180548766Y-65946290D01*
X180500960Y-65813215D01*
X180399170Y-65532000D01*
X180224442Y-65532000D01*
X180119450Y-65534925D01*
X180067904Y-65550936D01*
X180050713Y-65590887D01*
X180048939Y-65631786D01*
X180046307Y-65696903D01*
X180039390Y-65822121D01*
X180028938Y-65995146D01*
X180015700Y-66203684D01*
X180000428Y-66435439D01*
X179995286Y-66511715D01*
X179975583Y-66798522D01*
X179960505Y-67020967D01*
X179950683Y-67187149D01*
X179946752Y-67305168D01*
X179949343Y-67383122D01*
X179959090Y-67429112D01*
X179976625Y-67451236D01*
X180002582Y-67457594D01*
X180037592Y-67456286D01*
X180068996Y-67455143D01*
X180158317Y-67443563D01*
X180210147Y-67415151D01*
X180212911Y-67409786D01*
X180219198Y-67360828D01*
X180227377Y-67251295D01*
X180236745Y-67093136D01*
X180246601Y-66898300D01*
X180256243Y-66678738D01*
X180257129Y-66656857D01*
X180285572Y-65949286D01*
X180555569Y-66702215D01*
X180825567Y-67455143D01*
X181050343Y-67455143D01*
X181289500Y-66728121D01*
X181528657Y-66001098D01*
X181550651Y-66265478D01*
X181561413Y-66409836D01*
X181573891Y-66600520D01*
X181586445Y-66811361D01*
X181596237Y-66992500D01*
X181619828Y-67455143D01*
X181907096Y-67455143D01*
X181886570Y-67282786D01*
X181877220Y-67187165D01*
X181864848Y-67036063D01*
X181850738Y-66846444D01*
X181836176Y-66635271D01*
X181828163Y-66511715D01*
X181813886Y-66293965D01*
X181799370Y-66086286D01*
X181785904Y-65906228D01*
X181774781Y-65771340D01*
X181770101Y-65722500D01*
X181749921Y-65532000D01*
X181589733Y-65532000D01*
X181532834Y-65531654D01*
X181487894Y-65536062D01*
G36*
X173548608Y-66048808D02*
G01*
X173524029Y-66088684D01*
X173518292Y-66179806D01*
X173518286Y-66185143D01*
X173522682Y-66278257D01*
X173545940Y-66319652D01*
X173603164Y-66330084D01*
X173623918Y-66330286D01*
X173731781Y-66359909D01*
X173823489Y-66441927D01*
X173862728Y-66492234D01*
X173889184Y-66542735D01*
X173905369Y-66608469D01*
X173913796Y-66704474D01*
X173916975Y-66845789D01*
X173917429Y-67004356D01*
X173917429Y-67455143D01*
X174207715Y-67455143D01*
X174207715Y-66076286D01*
X174080715Y-66076286D01*
X173993006Y-66084525D01*
X173957694Y-66116379D01*
X173953715Y-66147764D01*
X173949330Y-66188914D01*
X173925444Y-66193512D01*
X173865962Y-66159346D01*
X173821651Y-66129621D01*
X173719555Y-66073322D01*
X173625908Y-66042180D01*
X173603937Y-66040000D01*
X173548608Y-66048808D01*
G37*
X173548608Y-66048808D02*
X173524029Y-66088684D01*
X173518292Y-66179806D01*
X173518286Y-66185143D01*
X173522682Y-66278257D01*
X173545940Y-66319652D01*
X173603164Y-66330084D01*
X173623918Y-66330286D01*
X173731781Y-66359909D01*
X173823489Y-66441927D01*
X173862728Y-66492234D01*
X173889184Y-66542735D01*
X173905369Y-66608469D01*
X173913796Y-66704474D01*
X173916975Y-66845789D01*
X173917429Y-67004356D01*
X173917429Y-67455143D01*
X174207715Y-67455143D01*
X174207715Y-66076286D01*
X174080715Y-66076286D01*
X173993006Y-66084525D01*
X173957694Y-66116379D01*
X173953715Y-66147764D01*
X173949330Y-66188914D01*
X173925444Y-66193512D01*
X173865962Y-66159346D01*
X173821651Y-66129621D01*
X173719555Y-66073322D01*
X173625908Y-66042180D01*
X173603937Y-66040000D01*
X173548608Y-66048808D01*
G36*
X170308577Y-66065255D02*
G01*
X170232101Y-66093063D01*
X170137147Y-66147406D01*
X170066227Y-66226608D01*
X170016351Y-66340264D01*
X169984527Y-66497970D01*
X169967766Y-66709319D01*
X169963083Y-66956215D01*
X169962286Y-67455143D01*
X170252572Y-67455143D01*
X170252572Y-66970180D01*
X170253609Y-66769948D01*
X170257922Y-66628345D01*
X170267315Y-66531442D01*
X170283594Y-66465310D01*
X170308561Y-66416021D01*
X170327777Y-66389608D01*
X170429166Y-66310639D01*
X170547516Y-66296624D01*
X170666875Y-66347838D01*
X170707793Y-66383065D01*
X170743613Y-66422247D01*
X170768269Y-66464641D01*
X170783840Y-66523808D01*
X170792408Y-66613311D01*
X170796052Y-66746710D01*
X170796854Y-66937569D01*
X170796857Y-66963637D01*
X170796857Y-67455143D01*
X171087143Y-67455143D01*
X171087143Y-66970180D01*
X171088180Y-66769948D01*
X171092493Y-66628345D01*
X171101887Y-66531442D01*
X171118165Y-66465310D01*
X171143132Y-66416021D01*
X171162348Y-66389608D01*
X171259369Y-66313638D01*
X171370163Y-66298192D01*
X171479856Y-66337114D01*
X171573572Y-66424251D01*
X171636434Y-66553449D01*
X171645139Y-66589338D01*
X171654756Y-66673505D01*
X171662334Y-66808500D01*
X171666870Y-66972585D01*
X171667715Y-67078679D01*
X171667715Y-67455143D01*
X171921715Y-67455143D01*
X171921715Y-66076286D01*
X171794715Y-66076286D01*
X171707558Y-66084138D01*
X171672244Y-66115495D01*
X171667715Y-66151491D01*
X171667715Y-66226696D01*
X171573319Y-66152445D01*
X171434680Y-66079882D01*
X171276811Y-66052908D01*
X171121302Y-66070110D01*
X170989745Y-66130072D01*
X170924709Y-66194939D01*
X170870906Y-66271753D01*
X170788525Y-66196697D01*
X170632717Y-66085313D01*
X170477442Y-66042375D01*
X170308577Y-66065255D01*
G37*
X170308577Y-66065255D02*
X170232101Y-66093063D01*
X170137147Y-66147406D01*
X170066227Y-66226608D01*
X170016351Y-66340264D01*
X169984527Y-66497970D01*
X169967766Y-66709319D01*
X169963083Y-66956215D01*
X169962286Y-67455143D01*
X170252572Y-67455143D01*
X170252572Y-66970180D01*
X170253609Y-66769948D01*
X170257922Y-66628345D01*
X170267315Y-66531442D01*
X170283594Y-66465310D01*
X170308561Y-66416021D01*
X170327777Y-66389608D01*
X170429166Y-66310639D01*
X170547516Y-66296624D01*
X170666875Y-66347838D01*
X170707793Y-66383065D01*
X170743613Y-66422247D01*
X170768269Y-66464641D01*
X170783840Y-66523808D01*
X170792408Y-66613311D01*
X170796052Y-66746710D01*
X170796854Y-66937569D01*
X170796857Y-66963637D01*
X170796857Y-67455143D01*
X171087143Y-67455143D01*
X171087143Y-66970180D01*
X171088180Y-66769948D01*
X171092493Y-66628345D01*
X171101887Y-66531442D01*
X171118165Y-66465310D01*
X171143132Y-66416021D01*
X171162348Y-66389608D01*
X171259369Y-66313638D01*
X171370163Y-66298192D01*
X171479856Y-66337114D01*
X171573572Y-66424251D01*
X171636434Y-66553449D01*
X171645139Y-66589338D01*
X171654756Y-66673505D01*
X171662334Y-66808500D01*
X171666870Y-66972585D01*
X171667715Y-67078679D01*
X171667715Y-67455143D01*
X171921715Y-67455143D01*
X171921715Y-66076286D01*
X171794715Y-66076286D01*
X171707558Y-66084138D01*
X171672244Y-66115495D01*
X171667715Y-66151491D01*
X171667715Y-66226696D01*
X171573319Y-66152445D01*
X171434680Y-66079882D01*
X171276811Y-66052908D01*
X171121302Y-66070110D01*
X170989745Y-66130072D01*
X170924709Y-66194939D01*
X170870906Y-66271753D01*
X170788525Y-66196697D01*
X170632717Y-66085313D01*
X170477442Y-66042375D01*
X170308577Y-66065255D01*
G36*
X167362143Y-66068538D02*
G01*
X167213258Y-66141451D01*
X167124751Y-66231411D01*
X167092412Y-66281926D01*
X167069220Y-66337037D01*
X167053296Y-66409971D01*
X167042766Y-66513957D01*
X167035753Y-66662224D01*
X167030381Y-66867999D01*
X167029660Y-66901786D01*
X167018035Y-67455143D01*
X167313429Y-67455143D01*
X167313429Y-66963637D01*
X167314038Y-66765352D01*
X167317252Y-66626074D01*
X167325152Y-66532243D01*
X167339818Y-66470296D01*
X167363331Y-66426673D01*
X167397771Y-66387810D01*
X167402494Y-66383065D01*
X167521296Y-66307678D01*
X167649087Y-66297143D01*
X167769544Y-66348300D01*
X167866348Y-66457986D01*
X167875482Y-66474703D01*
X167902127Y-66552587D01*
X167919351Y-66671085D01*
X167928304Y-66841600D01*
X167930286Y-67017913D01*
X167930286Y-67455143D01*
X168184286Y-67455143D01*
X168184286Y-67043332D01*
X168186543Y-66840921D01*
X168192616Y-66630730D01*
X168201456Y-66443550D01*
X168207753Y-66353904D01*
X168231221Y-66076286D01*
X168098896Y-66076286D01*
X168010866Y-66082288D01*
X167973841Y-66110342D01*
X167966572Y-66170226D01*
X167966572Y-66264166D01*
X167856647Y-66171670D01*
X167702211Y-66082148D01*
X167531252Y-66048271D01*
X167362143Y-66068538D01*
G37*
X167362143Y-66068538D02*
X167213258Y-66141451D01*
X167124751Y-66231411D01*
X167092412Y-66281926D01*
X167069220Y-66337037D01*
X167053296Y-66409971D01*
X167042766Y-66513957D01*
X167035753Y-66662224D01*
X167030381Y-66867999D01*
X167029660Y-66901786D01*
X167018035Y-67455143D01*
X167313429Y-67455143D01*
X167313429Y-66963637D01*
X167314038Y-66765352D01*
X167317252Y-66626074D01*
X167325152Y-66532243D01*
X167339818Y-66470296D01*
X167363331Y-66426673D01*
X167397771Y-66387810D01*
X167402494Y-66383065D01*
X167521296Y-66307678D01*
X167649087Y-66297143D01*
X167769544Y-66348300D01*
X167866348Y-66457986D01*
X167875482Y-66474703D01*
X167902127Y-66552587D01*
X167919351Y-66671085D01*
X167928304Y-66841600D01*
X167930286Y-67017913D01*
X167930286Y-67455143D01*
X168184286Y-67455143D01*
X168184286Y-67043332D01*
X168186543Y-66840921D01*
X168192616Y-66630730D01*
X168201456Y-66443550D01*
X168207753Y-66353904D01*
X168231221Y-66076286D01*
X168098896Y-66076286D01*
X168010866Y-66082288D01*
X167973841Y-66110342D01*
X167966572Y-66170226D01*
X167966572Y-66264166D01*
X167856647Y-66171670D01*
X167702211Y-66082148D01*
X167531252Y-66048271D01*
X167362143Y-66068538D01*
G36*
X161943143Y-67455143D02*
G01*
X162233429Y-67455143D01*
X162233429Y-65459429D01*
X161943143Y-65459429D01*
X161943143Y-67455143D01*
G37*
X161943143Y-67455143D02*
X162233429Y-67455143D01*
X162233429Y-65459429D01*
X161943143Y-65459429D01*
X161943143Y-67455143D01*
G36*
X158822572Y-67455143D02*
G01*
X159112858Y-67455143D01*
X159112858Y-66076286D01*
X158822572Y-66076286D01*
X158822572Y-67455143D01*
G37*
X158822572Y-67455143D02*
X159112858Y-67455143D01*
X159112858Y-66076286D01*
X158822572Y-66076286D01*
X158822572Y-67455143D01*
G36*
X156057657Y-66074290D02*
G01*
X155913191Y-66169765D01*
X155812461Y-66308830D01*
X155781600Y-66382220D01*
X155760520Y-66462538D01*
X155747462Y-66565209D01*
X155740663Y-66705661D01*
X155738364Y-66899318D01*
X155738286Y-66958599D01*
X155738286Y-67455143D01*
X156023087Y-67455143D01*
X156034901Y-66943854D01*
X156040218Y-66740938D01*
X156046644Y-66597829D01*
X156056319Y-66501766D01*
X156071387Y-66439993D01*
X156093989Y-66399750D01*
X156126266Y-66368279D01*
X156132377Y-66363282D01*
X156259300Y-66302648D01*
X156395943Y-66309322D01*
X156525477Y-66381485D01*
X156566288Y-66418712D01*
X156594736Y-66457066D01*
X156613447Y-66509954D01*
X156625046Y-66590781D01*
X156632158Y-66712953D01*
X156637409Y-66889878D01*
X156639169Y-66962057D01*
X156651052Y-67455143D01*
X156935715Y-67455143D01*
X156935715Y-66076286D01*
X156808715Y-66076286D01*
X156723111Y-66082748D01*
X156688023Y-66113246D01*
X156681715Y-66173936D01*
X156677658Y-66238373D01*
X156658851Y-66238623D01*
X156636357Y-66211404D01*
X156559752Y-66148918D01*
X156441712Y-66091164D01*
X156312922Y-66050952D01*
X156225721Y-66040000D01*
X156057657Y-66074290D01*
G37*
X156057657Y-66074290D02*
X155913191Y-66169765D01*
X155812461Y-66308830D01*
X155781600Y-66382220D01*
X155760520Y-66462538D01*
X155747462Y-66565209D01*
X155740663Y-66705661D01*
X155738364Y-66899318D01*
X155738286Y-66958599D01*
X155738286Y-67455143D01*
X156023087Y-67455143D01*
X156034901Y-66943854D01*
X156040218Y-66740938D01*
X156046644Y-66597829D01*
X156056319Y-66501766D01*
X156071387Y-66439993D01*
X156093989Y-66399750D01*
X156126266Y-66368279D01*
X156132377Y-66363282D01*
X156259300Y-66302648D01*
X156395943Y-66309322D01*
X156525477Y-66381485D01*
X156566288Y-66418712D01*
X156594736Y-66457066D01*
X156613447Y-66509954D01*
X156625046Y-66590781D01*
X156632158Y-66712953D01*
X156637409Y-66889878D01*
X156639169Y-66962057D01*
X156651052Y-67455143D01*
X156935715Y-67455143D01*
X156935715Y-66076286D01*
X156808715Y-66076286D01*
X156723111Y-66082748D01*
X156688023Y-66113246D01*
X156681715Y-66173936D01*
X156677658Y-66238373D01*
X156658851Y-66238623D01*
X156636357Y-66211404D01*
X156559752Y-66148918D01*
X156441712Y-66091164D01*
X156312922Y-66050952D01*
X156225721Y-66040000D01*
X156057657Y-66074290D01*
G36*
X158888690Y-65561765D02*
G01*
X158821547Y-65631447D01*
X158786990Y-65711628D01*
X158786286Y-65722766D01*
X158817317Y-65805613D01*
X158891073Y-65871963D01*
X158967715Y-65894857D01*
X159047561Y-65870317D01*
X159092123Y-65837837D01*
X159138832Y-65763571D01*
X159149143Y-65716461D01*
X159119161Y-65636723D01*
X159048759Y-65565701D01*
X158967250Y-65532198D01*
X158961410Y-65532000D01*
X158888690Y-65561765D01*
G37*
X158888690Y-65561765D02*
X158821547Y-65631447D01*
X158786990Y-65711628D01*
X158786286Y-65722766D01*
X158817317Y-65805613D01*
X158891073Y-65871963D01*
X158967715Y-65894857D01*
X159047561Y-65870317D01*
X159092123Y-65837837D01*
X159138832Y-65763571D01*
X159149143Y-65716461D01*
X159119161Y-65636723D01*
X159048759Y-65565701D01*
X158967250Y-65532198D01*
X158961410Y-65532000D01*
X158888690Y-65561765D01*
G36*
X186932626Y-59056175D02*
G01*
X186742120Y-59060331D01*
X186592514Y-59068986D01*
X186467982Y-59083526D01*
X186352699Y-59105332D01*
X186230840Y-59135789D01*
X186218286Y-59139199D01*
X185752202Y-59297879D01*
X185325314Y-59510828D01*
X184927871Y-59783844D01*
X184550125Y-60122720D01*
X184531000Y-60142087D01*
X184193774Y-60533967D01*
X183922913Y-60955210D01*
X183718419Y-61405812D01*
X183580294Y-61885771D01*
X183508539Y-62395082D01*
X183497334Y-62709256D01*
X183526653Y-63220636D01*
X183615085Y-63695188D01*
X183765054Y-64141394D01*
X183978982Y-64567735D01*
X184070548Y-64715572D01*
X184263422Y-64993664D01*
X184439327Y-65206085D01*
X184603141Y-65356368D01*
X184759741Y-65448047D01*
X184914005Y-65484657D01*
X185070810Y-65469730D01*
X185100296Y-65461658D01*
X185277051Y-65374526D01*
X185404293Y-65239858D01*
X185475515Y-65068572D01*
X185484214Y-64871587D01*
X185477576Y-64828443D01*
X185438450Y-64731951D01*
X185353704Y-64597667D01*
X185230808Y-64437281D01*
X185216684Y-64420229D01*
X184956581Y-64059728D01*
X184766548Y-63684357D01*
X184644770Y-63289214D01*
X184589435Y-62869398D01*
X184585429Y-62714272D01*
X184616524Y-62281689D01*
X184711095Y-61882427D01*
X184871070Y-61511850D01*
X185098380Y-61165323D01*
X185346097Y-60886097D01*
X185681275Y-60596643D01*
X186039757Y-60375806D01*
X186422769Y-60223075D01*
X186831535Y-60137934D01*
X187179296Y-60118149D01*
X187615685Y-60154638D01*
X188027233Y-60257315D01*
X188409113Y-60422613D01*
X188756496Y-60646963D01*
X189064553Y-60926797D01*
X189328456Y-61258545D01*
X189543378Y-61638639D01*
X189671919Y-61960424D01*
X189707111Y-62075341D01*
X189730985Y-62184492D01*
X189745556Y-62306346D01*
X189752838Y-62459370D01*
X189754848Y-62662031D01*
X189754770Y-62719857D01*
X189752695Y-62934688D01*
X189746263Y-63096146D01*
X189733150Y-63223400D01*
X189711034Y-63335622D01*
X189677591Y-63451982D01*
X189659318Y-63507560D01*
X189599811Y-63667986D01*
X189531933Y-63826403D01*
X189469758Y-63950116D01*
X189466202Y-63956257D01*
X189367165Y-64125252D01*
X188400511Y-63163790D01*
X188146128Y-62911435D01*
X187937241Y-62706017D01*
X187768468Y-62542723D01*
X187634426Y-62416741D01*
X187529733Y-62323258D01*
X187449006Y-62257462D01*
X187386862Y-62214540D01*
X187337920Y-62189681D01*
X187298324Y-62178335D01*
X187098618Y-62175703D01*
X186920473Y-62235857D01*
X186776065Y-62351241D01*
X186677572Y-62514301D01*
X186657597Y-62575859D01*
X186639914Y-62647578D01*
X186630129Y-62712595D01*
X186632167Y-62776163D01*
X186649957Y-62843538D01*
X186687426Y-62919974D01*
X186748503Y-63010726D01*
X186837114Y-63121048D01*
X186957188Y-63256197D01*
X187112653Y-63421425D01*
X187307435Y-63621989D01*
X187545463Y-63863143D01*
X187830665Y-64150142D01*
X187845266Y-64164818D01*
X188086221Y-64406399D01*
X188314313Y-64633955D01*
X188523861Y-64841899D01*
X188709183Y-65024643D01*
X188864598Y-65176602D01*
X188984425Y-65292187D01*
X189062983Y-65365812D01*
X189090839Y-65389731D01*
X189246060Y-65461359D01*
X189426875Y-65481166D01*
X189606145Y-65447186D01*
X189647571Y-65430042D01*
X189771511Y-65346266D01*
X189914661Y-65206973D01*
X190068479Y-65023701D01*
X190224420Y-64807986D01*
X190373942Y-64571366D01*
X190508500Y-64325379D01*
X190584273Y-64165065D01*
X190674442Y-63946660D01*
X190741486Y-63746259D01*
X190788505Y-63546385D01*
X190818595Y-63329561D01*
X190834856Y-63078309D01*
X190840387Y-62775151D01*
X190840483Y-62719857D01*
X190837168Y-62420041D01*
X190824984Y-62173972D01*
X190800577Y-61963034D01*
X190760591Y-61768614D01*
X190701671Y-61572095D01*
X190620461Y-61354863D01*
X190573904Y-61240954D01*
X190366685Y-60832637D01*
X190097560Y-60445246D01*
X189776301Y-60088377D01*
X189412685Y-59771626D01*
X189016485Y-59504591D01*
X188597476Y-59296867D01*
X188591087Y-59294260D01*
X188377027Y-59211206D01*
X188188757Y-59149507D01*
X188008450Y-59106143D01*
X187818277Y-59078092D01*
X187600410Y-59062334D01*
X187337021Y-59055848D01*
X187179858Y-59055137D01*
X186932626Y-59056175D01*
G37*
X186932626Y-59056175D02*
X186742120Y-59060331D01*
X186592514Y-59068986D01*
X186467982Y-59083526D01*
X186352699Y-59105332D01*
X186230840Y-59135789D01*
X186218286Y-59139199D01*
X185752202Y-59297879D01*
X185325314Y-59510828D01*
X184927871Y-59783844D01*
X184550125Y-60122720D01*
X184531000Y-60142087D01*
X184193774Y-60533967D01*
X183922913Y-60955210D01*
X183718419Y-61405812D01*
X183580294Y-61885771D01*
X183508539Y-62395082D01*
X183497334Y-62709256D01*
X183526653Y-63220636D01*
X183615085Y-63695188D01*
X183765054Y-64141394D01*
X183978982Y-64567735D01*
X184070548Y-64715572D01*
X184263422Y-64993664D01*
X184439327Y-65206085D01*
X184603141Y-65356368D01*
X184759741Y-65448047D01*
X184914005Y-65484657D01*
X185070810Y-65469730D01*
X185100296Y-65461658D01*
X185277051Y-65374526D01*
X185404293Y-65239858D01*
X185475515Y-65068572D01*
X185484214Y-64871587D01*
X185477576Y-64828443D01*
X185438450Y-64731951D01*
X185353704Y-64597667D01*
X185230808Y-64437281D01*
X185216684Y-64420229D01*
X184956581Y-64059728D01*
X184766548Y-63684357D01*
X184644770Y-63289214D01*
X184589435Y-62869398D01*
X184585429Y-62714272D01*
X184616524Y-62281689D01*
X184711095Y-61882427D01*
X184871070Y-61511850D01*
X185098380Y-61165323D01*
X185346097Y-60886097D01*
X185681275Y-60596643D01*
X186039757Y-60375806D01*
X186422769Y-60223075D01*
X186831535Y-60137934D01*
X187179296Y-60118149D01*
X187615685Y-60154638D01*
X188027233Y-60257315D01*
X188409113Y-60422613D01*
X188756496Y-60646963D01*
X189064553Y-60926797D01*
X189328456Y-61258545D01*
X189543378Y-61638639D01*
X189671919Y-61960424D01*
X189707111Y-62075341D01*
X189730985Y-62184492D01*
X189745556Y-62306346D01*
X189752838Y-62459370D01*
X189754848Y-62662031D01*
X189754770Y-62719857D01*
X189752695Y-62934688D01*
X189746263Y-63096146D01*
X189733150Y-63223400D01*
X189711034Y-63335622D01*
X189677591Y-63451982D01*
X189659318Y-63507560D01*
X189599811Y-63667986D01*
X189531933Y-63826403D01*
X189469758Y-63950116D01*
X189466202Y-63956257D01*
X189367165Y-64125252D01*
X188400511Y-63163790D01*
X188146128Y-62911435D01*
X187937241Y-62706017D01*
X187768468Y-62542723D01*
X187634426Y-62416741D01*
X187529733Y-62323258D01*
X187449006Y-62257462D01*
X187386862Y-62214540D01*
X187337920Y-62189681D01*
X187298324Y-62178335D01*
X187098618Y-62175703D01*
X186920473Y-62235857D01*
X186776065Y-62351241D01*
X186677572Y-62514301D01*
X186657597Y-62575859D01*
X186639914Y-62647578D01*
X186630129Y-62712595D01*
X186632167Y-62776163D01*
X186649957Y-62843538D01*
X186687426Y-62919974D01*
X186748503Y-63010726D01*
X186837114Y-63121048D01*
X186957188Y-63256197D01*
X187112653Y-63421425D01*
X187307435Y-63621989D01*
X187545463Y-63863143D01*
X187830665Y-64150142D01*
X187845266Y-64164818D01*
X188086221Y-64406399D01*
X188314313Y-64633955D01*
X188523861Y-64841899D01*
X188709183Y-65024643D01*
X188864598Y-65176602D01*
X188984425Y-65292187D01*
X189062983Y-65365812D01*
X189090839Y-65389731D01*
X189246060Y-65461359D01*
X189426875Y-65481166D01*
X189606145Y-65447186D01*
X189647571Y-65430042D01*
X189771511Y-65346266D01*
X189914661Y-65206973D01*
X190068479Y-65023701D01*
X190224420Y-64807986D01*
X190373942Y-64571366D01*
X190508500Y-64325379D01*
X190584273Y-64165065D01*
X190674442Y-63946660D01*
X190741486Y-63746259D01*
X190788505Y-63546385D01*
X190818595Y-63329561D01*
X190834856Y-63078309D01*
X190840387Y-62775151D01*
X190840483Y-62719857D01*
X190837168Y-62420041D01*
X190824984Y-62173972D01*
X190800577Y-61963034D01*
X190760591Y-61768614D01*
X190701671Y-61572095D01*
X190620461Y-61354863D01*
X190573904Y-61240954D01*
X190366685Y-60832637D01*
X190097560Y-60445246D01*
X189776301Y-60088377D01*
X189412685Y-59771626D01*
X189016485Y-59504591D01*
X188597476Y-59296867D01*
X188591087Y-59294260D01*
X188377027Y-59211206D01*
X188188757Y-59149507D01*
X188008450Y-59106143D01*
X187818277Y-59078092D01*
X187600410Y-59062334D01*
X187337021Y-59055848D01*
X187179858Y-59055137D01*
X186932626Y-59056175D01*
G36*
X180437576Y-60215369D02*
G01*
X180118226Y-60249655D01*
X179848007Y-60312986D01*
X179620614Y-60406630D01*
X179429743Y-60531856D01*
X179339777Y-60612920D01*
X179178812Y-60802934D01*
X179072956Y-61003038D01*
X179016381Y-61229702D01*
X179003264Y-61499397D01*
X179005287Y-61558715D01*
X179030687Y-61815973D01*
X179086335Y-62025403D01*
X179180442Y-62208323D01*
X179321220Y-62386049D01*
X179325968Y-62391217D01*
X179547889Y-62578635D01*
X179822311Y-62717105D01*
X180147659Y-62806076D01*
X180522357Y-62845000D01*
X180632072Y-62846857D01*
X180956857Y-62846857D01*
X180956857Y-64262000D01*
X181900286Y-64262000D01*
X181900286Y-62286570D01*
X181899682Y-61873234D01*
X181897925Y-61496769D01*
X181895099Y-61162171D01*
X181892465Y-60963289D01*
X180956857Y-60963289D01*
X180956857Y-62130244D01*
X180651191Y-62114200D01*
X180485009Y-62101667D01*
X180367590Y-62080937D01*
X180275160Y-62046061D01*
X180198631Y-62000948D01*
X180046403Y-61864421D01*
X179957948Y-61695645D01*
X179929727Y-61503782D01*
X179957805Y-61307633D01*
X180046689Y-61149218D01*
X180193662Y-61031181D01*
X180396006Y-60956163D01*
X180513496Y-60936033D01*
X180651614Y-60927947D01*
X180784476Y-60933039D01*
X180826538Y-60938841D01*
X180956857Y-60963289D01*
X181892465Y-60963289D01*
X181891288Y-60874431D01*
X181886575Y-60638543D01*
X181881045Y-60459499D01*
X181874782Y-60342293D01*
X181867868Y-60291916D01*
X181866784Y-60290435D01*
X181820819Y-60281008D01*
X181715434Y-60268325D01*
X181563638Y-60253681D01*
X181378441Y-60238374D01*
X181248878Y-60228861D01*
X180812358Y-60208861D01*
X180437576Y-60215369D01*
G37*
X180437576Y-60215369D02*
X180118226Y-60249655D01*
X179848007Y-60312986D01*
X179620614Y-60406630D01*
X179429743Y-60531856D01*
X179339777Y-60612920D01*
X179178812Y-60802934D01*
X179072956Y-61003038D01*
X179016381Y-61229702D01*
X179003264Y-61499397D01*
X179005287Y-61558715D01*
X179030687Y-61815973D01*
X179086335Y-62025403D01*
X179180442Y-62208323D01*
X179321220Y-62386049D01*
X179325968Y-62391217D01*
X179547889Y-62578635D01*
X179822311Y-62717105D01*
X180147659Y-62806076D01*
X180522357Y-62845000D01*
X180632072Y-62846857D01*
X180956857Y-62846857D01*
X180956857Y-64262000D01*
X181900286Y-64262000D01*
X181900286Y-62286570D01*
X181899682Y-61873234D01*
X181897925Y-61496769D01*
X181895099Y-61162171D01*
X181892465Y-60963289D01*
X180956857Y-60963289D01*
X180956857Y-62130244D01*
X180651191Y-62114200D01*
X180485009Y-62101667D01*
X180367590Y-62080937D01*
X180275160Y-62046061D01*
X180198631Y-62000948D01*
X180046403Y-61864421D01*
X179957948Y-61695645D01*
X179929727Y-61503782D01*
X179957805Y-61307633D01*
X180046689Y-61149218D01*
X180193662Y-61031181D01*
X180396006Y-60956163D01*
X180513496Y-60936033D01*
X180651614Y-60927947D01*
X180784476Y-60933039D01*
X180826538Y-60938841D01*
X180956857Y-60963289D01*
X181892465Y-60963289D01*
X181891288Y-60874431D01*
X181886575Y-60638543D01*
X181881045Y-60459499D01*
X181874782Y-60342293D01*
X181867868Y-60291916D01*
X181866784Y-60290435D01*
X181820819Y-60281008D01*
X181715434Y-60268325D01*
X181563638Y-60253681D01*
X181378441Y-60238374D01*
X181248878Y-60228861D01*
X180812358Y-60208861D01*
X180437576Y-60215369D01*
G36*
X176589205Y-60406643D02*
G01*
X176555838Y-60511663D01*
X176506170Y-60669856D01*
X176442553Y-60873602D01*
X176367341Y-61115277D01*
X176282887Y-61387262D01*
X176191545Y-61681934D01*
X176095668Y-61991672D01*
X175997609Y-62308854D01*
X175899721Y-62625859D01*
X175804359Y-62935066D01*
X175713874Y-63228852D01*
X175630621Y-63499597D01*
X175556953Y-63739679D01*
X175495223Y-63941477D01*
X175447785Y-64097368D01*
X175416992Y-64199732D01*
X175405197Y-64240946D01*
X175405143Y-64241346D01*
X175439256Y-64248793D01*
X175532909Y-64255047D01*
X175673075Y-64259573D01*
X175846725Y-64261840D01*
X175909609Y-64262000D01*
X176414075Y-64262000D01*
X176490180Y-64008000D01*
X176543422Y-63830307D01*
X176602455Y-63633289D01*
X176642392Y-63500000D01*
X176718497Y-63246000D01*
X177827430Y-63246000D01*
X177967141Y-63754000D01*
X178106853Y-64262000D01*
X178588427Y-64262000D01*
X178799966Y-64259273D01*
X178954116Y-64251365D01*
X179045552Y-64238688D01*
X179070000Y-64224839D01*
X179059664Y-64184169D01*
X179029925Y-64080465D01*
X178982683Y-63920065D01*
X178919844Y-63709309D01*
X178843308Y-63454535D01*
X178754978Y-63162082D01*
X178656757Y-62838289D01*
X178559924Y-62520286D01*
X177686021Y-62520286D01*
X176866584Y-62520286D01*
X177061149Y-61843190D01*
X177121597Y-61630114D01*
X177174393Y-61438815D01*
X177216416Y-61281035D01*
X177244544Y-61168517D01*
X177255654Y-61113003D01*
X177255715Y-61111428D01*
X177262841Y-61067238D01*
X177283927Y-61092985D01*
X177318535Y-61187480D01*
X177366226Y-61349532D01*
X177424278Y-61568995D01*
X177476348Y-61770013D01*
X177529881Y-61971608D01*
X177578416Y-62149724D01*
X177614032Y-62275357D01*
X177686021Y-62520286D01*
X178559924Y-62520286D01*
X178550547Y-62489494D01*
X178471286Y-62230000D01*
X178360659Y-61867943D01*
X178256654Y-61526925D01*
X178161169Y-61213211D01*
X178076102Y-60933065D01*
X178003349Y-60692749D01*
X177944807Y-60498527D01*
X177902373Y-60356663D01*
X177877946Y-60273421D01*
X177872572Y-60253305D01*
X177838255Y-60247050D01*
X177743179Y-60241660D01*
X177599152Y-60237501D01*
X177417986Y-60234940D01*
X177258631Y-60234286D01*
X176644690Y-60234286D01*
X176589205Y-60406643D01*
G37*
X176589205Y-60406643D02*
X176555838Y-60511663D01*
X176506170Y-60669856D01*
X176442553Y-60873602D01*
X176367341Y-61115277D01*
X176282887Y-61387262D01*
X176191545Y-61681934D01*
X176095668Y-61991672D01*
X175997609Y-62308854D01*
X175899721Y-62625859D01*
X175804359Y-62935066D01*
X175713874Y-63228852D01*
X175630621Y-63499597D01*
X175556953Y-63739679D01*
X175495223Y-63941477D01*
X175447785Y-64097368D01*
X175416992Y-64199732D01*
X175405197Y-64240946D01*
X175405143Y-64241346D01*
X175439256Y-64248793D01*
X175532909Y-64255047D01*
X175673075Y-64259573D01*
X175846725Y-64261840D01*
X175909609Y-64262000D01*
X176414075Y-64262000D01*
X176490180Y-64008000D01*
X176543422Y-63830307D01*
X176602455Y-63633289D01*
X176642392Y-63500000D01*
X176718497Y-63246000D01*
X177827430Y-63246000D01*
X177967141Y-63754000D01*
X178106853Y-64262000D01*
X178588427Y-64262000D01*
X178799966Y-64259273D01*
X178954116Y-64251365D01*
X179045552Y-64238688D01*
X179070000Y-64224839D01*
X179059664Y-64184169D01*
X179029925Y-64080465D01*
X178982683Y-63920065D01*
X178919844Y-63709309D01*
X178843308Y-63454535D01*
X178754978Y-63162082D01*
X178656757Y-62838289D01*
X178559924Y-62520286D01*
X177686021Y-62520286D01*
X176866584Y-62520286D01*
X177061149Y-61843190D01*
X177121597Y-61630114D01*
X177174393Y-61438815D01*
X177216416Y-61281035D01*
X177244544Y-61168517D01*
X177255654Y-61113003D01*
X177255715Y-61111428D01*
X177262841Y-61067238D01*
X177283927Y-61092985D01*
X177318535Y-61187480D01*
X177366226Y-61349532D01*
X177424278Y-61568995D01*
X177476348Y-61770013D01*
X177529881Y-61971608D01*
X177578416Y-62149724D01*
X177614032Y-62275357D01*
X177686021Y-62520286D01*
X178559924Y-62520286D01*
X178550547Y-62489494D01*
X178471286Y-62230000D01*
X178360659Y-61867943D01*
X178256654Y-61526925D01*
X178161169Y-61213211D01*
X178076102Y-60933065D01*
X178003349Y-60692749D01*
X177944807Y-60498527D01*
X177902373Y-60356663D01*
X177877946Y-60273421D01*
X177872572Y-60253305D01*
X177838255Y-60247050D01*
X177743179Y-60241660D01*
X177599152Y-60237501D01*
X177417986Y-60234940D01*
X177258631Y-60234286D01*
X176644690Y-60234286D01*
X176589205Y-60406643D01*
G36*
X171667715Y-64262000D02*
G01*
X172640765Y-64262000D01*
X173172719Y-63300130D01*
X173320466Y-63030848D01*
X173468869Y-62756505D01*
X173610764Y-62490625D01*
X173738985Y-62246737D01*
X173846370Y-62038366D01*
X173925752Y-61879039D01*
X173928979Y-61872349D01*
X174153286Y-61406438D01*
X174130578Y-64262000D01*
X175006000Y-64262000D01*
X175006000Y-60234286D01*
X174452643Y-60235049D01*
X173899286Y-60235813D01*
X173365204Y-61187549D01*
X173219901Y-61449218D01*
X173077419Y-61710849D01*
X172944279Y-61960092D01*
X172827001Y-62184600D01*
X172732106Y-62372021D01*
X172666114Y-62510008D01*
X172661501Y-62520286D01*
X172594268Y-62671090D01*
X172538938Y-62794790D01*
X172501507Y-62878010D01*
X172488011Y-62907359D01*
X172487459Y-62873818D01*
X172487577Y-62775655D01*
X172488313Y-62620818D01*
X172489616Y-62417253D01*
X172491436Y-62172906D01*
X172493719Y-61895724D01*
X172496417Y-61593653D01*
X172496601Y-61573859D01*
X172509058Y-60234286D01*
X171667715Y-60234286D01*
X171667715Y-64262000D01*
G37*
X171667715Y-64262000D02*
X172640765Y-64262000D01*
X173172719Y-63300130D01*
X173320466Y-63030848D01*
X173468869Y-62756505D01*
X173610764Y-62490625D01*
X173738985Y-62246737D01*
X173846370Y-62038366D01*
X173925752Y-61879039D01*
X173928979Y-61872349D01*
X174153286Y-61406438D01*
X174130578Y-64262000D01*
X175006000Y-64262000D01*
X175006000Y-60234286D01*
X174452643Y-60235049D01*
X173899286Y-60235813D01*
X173365204Y-61187549D01*
X173219901Y-61449218D01*
X173077419Y-61710849D01*
X172944279Y-61960092D01*
X172827001Y-62184600D01*
X172732106Y-62372021D01*
X172666114Y-62510008D01*
X172661501Y-62520286D01*
X172594268Y-62671090D01*
X172538938Y-62794790D01*
X172501507Y-62878010D01*
X172488011Y-62907359D01*
X172487459Y-62873818D01*
X172487577Y-62775655D01*
X172488313Y-62620818D01*
X172489616Y-62417253D01*
X172491436Y-62172906D01*
X172493719Y-61895724D01*
X172496417Y-61593653D01*
X172496601Y-61573859D01*
X172509058Y-60234286D01*
X171667715Y-60234286D01*
X171667715Y-64262000D01*
G36*
X169962286Y-64262000D02*
G01*
X170905715Y-64262000D01*
X170905715Y-60234286D01*
X169962286Y-60234286D01*
X169962286Y-64262000D01*
G37*
X169962286Y-64262000D02*
X170905715Y-64262000D01*
X170905715Y-60234286D01*
X169962286Y-60234286D01*
X169962286Y-64262000D01*
G36*
X165015047Y-62130215D02*
G01*
X164995619Y-62497956D01*
X164976749Y-62846662D01*
X164958862Y-63169056D01*
X164942382Y-63457864D01*
X164927734Y-63705811D01*
X164915342Y-63905620D01*
X164905631Y-64050017D01*
X164899025Y-64131727D01*
X164897540Y-64144072D01*
X164878998Y-64262000D01*
X165814417Y-64262000D01*
X165838487Y-63726786D01*
X165846107Y-63538962D01*
X165854720Y-63295794D01*
X165863788Y-63014494D01*
X165872771Y-62712272D01*
X165881132Y-62406340D01*
X165886457Y-62193715D01*
X165893567Y-61938700D01*
X165901778Y-61714128D01*
X165910627Y-61528168D01*
X165919656Y-61388992D01*
X165928404Y-61304769D01*
X165936410Y-61283672D01*
X165937553Y-61286572D01*
X165958887Y-61360417D01*
X165993656Y-61483603D01*
X166036058Y-61635497D01*
X166060033Y-61722000D01*
X166095688Y-61846302D01*
X166149415Y-62027412D01*
X166217444Y-62252929D01*
X166296010Y-62510454D01*
X166381344Y-62787587D01*
X166469679Y-63071928D01*
X166487219Y-63128072D01*
X166819123Y-64189429D01*
X167561801Y-64189429D01*
X167598683Y-64071500D01*
X167638510Y-63937874D01*
X167692590Y-63747427D01*
X167757311Y-63513679D01*
X167829061Y-63250148D01*
X167904227Y-62970352D01*
X167979199Y-62687810D01*
X168050363Y-62416041D01*
X168114109Y-62168562D01*
X168166824Y-61958891D01*
X168201242Y-61816297D01*
X168320646Y-61304715D01*
X168342401Y-61613143D01*
X168350120Y-61738037D01*
X168359954Y-61920817D01*
X168371188Y-62146850D01*
X168383110Y-62401508D01*
X168395005Y-62670157D01*
X168401698Y-62828715D01*
X168413133Y-63095307D01*
X168424941Y-63353318D01*
X168436430Y-63588913D01*
X168446913Y-63788256D01*
X168455700Y-63937512D01*
X168460002Y-63998929D01*
X168480764Y-64262000D01*
X169351621Y-64262000D01*
X169328907Y-63998929D01*
X169322595Y-63916522D01*
X169312586Y-63774213D01*
X169299430Y-63580586D01*
X169283676Y-63344224D01*
X169265873Y-63073711D01*
X169246571Y-62777632D01*
X169226317Y-62464570D01*
X169205662Y-62143109D01*
X169185154Y-61821835D01*
X169165342Y-61509329D01*
X169146774Y-61214178D01*
X169130002Y-60944963D01*
X169115572Y-60710271D01*
X169104034Y-60518684D01*
X169095938Y-60378786D01*
X169091832Y-60299163D01*
X169091429Y-60285855D01*
X169081921Y-60266361D01*
X169047095Y-60252650D01*
X168977502Y-60244067D01*
X168863689Y-60239955D01*
X168696207Y-60239658D01*
X168466815Y-60242501D01*
X167842201Y-60252429D01*
X167649378Y-60905572D01*
X167573168Y-61170476D01*
X167491125Y-61467006D01*
X167411032Y-61766316D01*
X167340675Y-62039559D01*
X167311570Y-62157429D01*
X167261910Y-62362451D01*
X167216842Y-62548420D01*
X167179735Y-62701446D01*
X167153956Y-62807637D01*
X167144407Y-62846857D01*
X167129612Y-62888012D01*
X167113224Y-62877890D01*
X167090121Y-62808848D01*
X167071422Y-62738000D01*
X166795680Y-61724057D01*
X166548845Y-60915647D01*
X166330605Y-60234286D01*
X165114010Y-60234286D01*
X165015047Y-62130215D01*
G37*
X165015047Y-62130215D02*
X164995619Y-62497956D01*
X164976749Y-62846662D01*
X164958862Y-63169056D01*
X164942382Y-63457864D01*
X164927734Y-63705811D01*
X164915342Y-63905620D01*
X164905631Y-64050017D01*
X164899025Y-64131727D01*
X164897540Y-64144072D01*
X164878998Y-64262000D01*
X165814417Y-64262000D01*
X165838487Y-63726786D01*
X165846107Y-63538962D01*
X165854720Y-63295794D01*
X165863788Y-63014494D01*
X165872771Y-62712272D01*
X165881132Y-62406340D01*
X165886457Y-62193715D01*
X165893567Y-61938700D01*
X165901778Y-61714128D01*
X165910627Y-61528168D01*
X165919656Y-61388992D01*
X165928404Y-61304769D01*
X165936410Y-61283672D01*
X165937553Y-61286572D01*
X165958887Y-61360417D01*
X165993656Y-61483603D01*
X166036058Y-61635497D01*
X166060033Y-61722000D01*
X166095688Y-61846302D01*
X166149415Y-62027412D01*
X166217444Y-62252929D01*
X166296010Y-62510454D01*
X166381344Y-62787587D01*
X166469679Y-63071928D01*
X166487219Y-63128072D01*
X166819123Y-64189429D01*
X167561801Y-64189429D01*
X167598683Y-64071500D01*
X167638510Y-63937874D01*
X167692590Y-63747427D01*
X167757311Y-63513679D01*
X167829061Y-63250148D01*
X167904227Y-62970352D01*
X167979199Y-62687810D01*
X168050363Y-62416041D01*
X168114109Y-62168562D01*
X168166824Y-61958891D01*
X168201242Y-61816297D01*
X168320646Y-61304715D01*
X168342401Y-61613143D01*
X168350120Y-61738037D01*
X168359954Y-61920817D01*
X168371188Y-62146850D01*
X168383110Y-62401508D01*
X168395005Y-62670157D01*
X168401698Y-62828715D01*
X168413133Y-63095307D01*
X168424941Y-63353318D01*
X168436430Y-63588913D01*
X168446913Y-63788256D01*
X168455700Y-63937512D01*
X168460002Y-63998929D01*
X168480764Y-64262000D01*
X169351621Y-64262000D01*
X169328907Y-63998929D01*
X169322595Y-63916522D01*
X169312586Y-63774213D01*
X169299430Y-63580586D01*
X169283676Y-63344224D01*
X169265873Y-63073711D01*
X169246571Y-62777632D01*
X169226317Y-62464570D01*
X169205662Y-62143109D01*
X169185154Y-61821835D01*
X169165342Y-61509329D01*
X169146774Y-61214178D01*
X169130002Y-60944963D01*
X169115572Y-60710271D01*
X169104034Y-60518684D01*
X169095938Y-60378786D01*
X169091832Y-60299163D01*
X169091429Y-60285855D01*
X169081921Y-60266361D01*
X169047095Y-60252650D01*
X168977502Y-60244067D01*
X168863689Y-60239955D01*
X168696207Y-60239658D01*
X168466815Y-60242501D01*
X167842201Y-60252429D01*
X167649378Y-60905572D01*
X167573168Y-61170476D01*
X167491125Y-61467006D01*
X167411032Y-61766316D01*
X167340675Y-62039559D01*
X167311570Y-62157429D01*
X167261910Y-62362451D01*
X167216842Y-62548420D01*
X167179735Y-62701446D01*
X167153956Y-62807637D01*
X167144407Y-62846857D01*
X167129612Y-62888012D01*
X167113224Y-62877890D01*
X167090121Y-62808848D01*
X167071422Y-62738000D01*
X166795680Y-61724057D01*
X166548845Y-60915647D01*
X166330605Y-60234286D01*
X165114010Y-60234286D01*
X165015047Y-62130215D01*
G36*
X162740306Y-60220238D02*
G01*
X162431606Y-60259780D01*
X162170060Y-60326730D01*
X161950364Y-60421854D01*
X161767217Y-60545918D01*
X161719716Y-60587856D01*
X161531459Y-60811092D01*
X161407149Y-61066776D01*
X161348174Y-61350572D01*
X161355923Y-61658144D01*
X161362496Y-61703385D01*
X161442902Y-62010628D01*
X161578063Y-62270493D01*
X161767437Y-62482597D01*
X162010479Y-62646558D01*
X162306646Y-62761993D01*
X162655394Y-62828519D01*
X162986358Y-62846321D01*
X163322000Y-62846857D01*
X163322000Y-64262000D01*
X164229143Y-64262000D01*
X164229143Y-61414557D01*
X163322135Y-61414557D01*
X163322000Y-61544804D01*
X163322000Y-62121143D01*
X163095215Y-62120941D01*
X162945421Y-62114088D01*
X162800565Y-62096663D01*
X162724104Y-62080671D01*
X162555791Y-62001126D01*
X162414764Y-61872788D01*
X162318161Y-61714318D01*
X162287514Y-61605359D01*
X162286457Y-61396007D01*
X162347580Y-61219618D01*
X162466375Y-61080527D01*
X162638336Y-60983069D01*
X162858955Y-60931580D01*
X162995429Y-60924412D01*
X163114222Y-60924523D01*
X163200111Y-60931097D01*
X163258414Y-60954240D01*
X163294450Y-61004054D01*
X163313536Y-61090642D01*
X163320992Y-61224109D01*
X163322135Y-61414557D01*
X164229143Y-61414557D01*
X164229143Y-60280594D01*
X164002358Y-60258414D01*
X163520379Y-60220321D01*
X163101463Y-60207341D01*
X162740306Y-60220238D01*
G37*
X162740306Y-60220238D02*
X162431606Y-60259780D01*
X162170060Y-60326730D01*
X161950364Y-60421854D01*
X161767217Y-60545918D01*
X161719716Y-60587856D01*
X161531459Y-60811092D01*
X161407149Y-61066776D01*
X161348174Y-61350572D01*
X161355923Y-61658144D01*
X161362496Y-61703385D01*
X161442902Y-62010628D01*
X161578063Y-62270493D01*
X161767437Y-62482597D01*
X162010479Y-62646558D01*
X162306646Y-62761993D01*
X162655394Y-62828519D01*
X162986358Y-62846321D01*
X163322000Y-62846857D01*
X163322000Y-64262000D01*
X164229143Y-64262000D01*
X164229143Y-61414557D01*
X163322135Y-61414557D01*
X163322000Y-61544804D01*
X163322000Y-62121143D01*
X163095215Y-62120941D01*
X162945421Y-62114088D01*
X162800565Y-62096663D01*
X162724104Y-62080671D01*
X162555791Y-62001126D01*
X162414764Y-61872788D01*
X162318161Y-61714318D01*
X162287514Y-61605359D01*
X162286457Y-61396007D01*
X162347580Y-61219618D01*
X162466375Y-61080527D01*
X162638336Y-60983069D01*
X162858955Y-60931580D01*
X162995429Y-60924412D01*
X163114222Y-60924523D01*
X163200111Y-60931097D01*
X163258414Y-60954240D01*
X163294450Y-61004054D01*
X163313536Y-61090642D01*
X163320992Y-61224109D01*
X163322135Y-61414557D01*
X164229143Y-61414557D01*
X164229143Y-60280594D01*
X164002358Y-60258414D01*
X163520379Y-60220321D01*
X163101463Y-60207341D01*
X162740306Y-60220238D01*
G36*
X158423429Y-61032572D02*
G01*
X159983715Y-61032572D01*
X159983715Y-61794572D01*
X158496000Y-61794572D01*
X158496000Y-62592857D01*
X159983715Y-62592857D01*
X159983715Y-63500000D01*
X158314572Y-63500000D01*
X158314572Y-64262000D01*
X160927143Y-64262000D01*
X160927143Y-60234286D01*
X158423429Y-60234286D01*
X158423429Y-61032572D01*
G37*
X158423429Y-61032572D02*
X159983715Y-61032572D01*
X159983715Y-61794572D01*
X158496000Y-61794572D01*
X158496000Y-62592857D01*
X159983715Y-62592857D01*
X159983715Y-63500000D01*
X158314572Y-63500000D01*
X158314572Y-64262000D01*
X160927143Y-64262000D01*
X160927143Y-60234286D01*
X158423429Y-60234286D01*
X158423429Y-61032572D01*
G36*
X156780112Y-60515500D02*
G01*
X156709094Y-60668742D01*
X156619922Y-60859599D01*
X156525658Y-61060172D01*
X156462967Y-61192837D01*
X156275238Y-61588959D01*
X156140068Y-61265408D01*
X156061743Y-61081309D01*
X155968720Y-60867683D01*
X155876867Y-60660828D01*
X155844378Y-60588930D01*
X155683857Y-60236002D01*
X155144761Y-60235144D01*
X154930874Y-60235995D01*
X154780631Y-60239874D01*
X154685141Y-60247584D01*
X154635511Y-60259928D01*
X154622848Y-60277707D01*
X154624025Y-60282133D01*
X154646296Y-60324753D01*
X154700272Y-60421833D01*
X154781233Y-60565065D01*
X154884455Y-60746145D01*
X155005216Y-60956764D01*
X155138795Y-61188617D01*
X155174334Y-61250127D01*
X155309669Y-61484576D01*
X155432785Y-61698530D01*
X155539097Y-61883968D01*
X155624022Y-62032870D01*
X155682976Y-62137215D01*
X155711373Y-62188985D01*
X155713213Y-62192927D01*
X155697221Y-62228688D01*
X155648384Y-62320377D01*
X155570520Y-62461287D01*
X155467442Y-62644716D01*
X155342967Y-62863958D01*
X155200911Y-63112308D01*
X155045089Y-63383064D01*
X154879317Y-63669519D01*
X154707412Y-63964970D01*
X154602735Y-64144072D01*
X154533689Y-64262000D01*
X155629072Y-64262000D01*
X155990172Y-63545358D01*
X156094264Y-63341177D01*
X156186778Y-63164301D01*
X156263129Y-63023114D01*
X156318734Y-62926004D01*
X156349005Y-62881357D01*
X156353208Y-62881311D01*
X156368189Y-62929276D01*
X156408834Y-63032292D01*
X156470550Y-63179444D01*
X156548746Y-63359820D01*
X156638829Y-63562506D01*
X156654500Y-63597301D01*
X156953857Y-64260696D01*
X157492954Y-64261348D01*
X157709693Y-64260241D01*
X157862045Y-64255845D01*
X157958146Y-64247464D01*
X158006136Y-64234399D01*
X158014434Y-64216643D01*
X157992522Y-64174812D01*
X157938975Y-64078227D01*
X157858392Y-63935014D01*
X157755369Y-63753299D01*
X157634505Y-63541208D01*
X157500397Y-63306867D01*
X157448123Y-63215769D01*
X157311140Y-62976312D01*
X157186651Y-62756951D01*
X157079079Y-62565619D01*
X156992848Y-62410248D01*
X156932381Y-62298771D01*
X156902101Y-62239124D01*
X156899429Y-62231646D01*
X156916647Y-62193982D01*
X156965352Y-62101315D01*
X157041119Y-61961708D01*
X157139524Y-61783221D01*
X157256143Y-61573916D01*
X157386551Y-61341855D01*
X157429499Y-61265824D01*
X157564240Y-61027094D01*
X157687580Y-60807617D01*
X157794908Y-60615673D01*
X157881613Y-60459543D01*
X157943082Y-60347509D01*
X157974706Y-60287851D01*
X157977667Y-60281447D01*
X157970700Y-60262690D01*
X157927324Y-60249378D01*
X157838855Y-60240732D01*
X157696610Y-60235971D01*
X157491905Y-60234315D01*
X157452646Y-60234286D01*
X156909528Y-60234286D01*
X156780112Y-60515500D01*
G37*
X156780112Y-60515500D02*
X156709094Y-60668742D01*
X156619922Y-60859599D01*
X156525658Y-61060172D01*
X156462967Y-61192837D01*
X156275238Y-61588959D01*
X156140068Y-61265408D01*
X156061743Y-61081309D01*
X155968720Y-60867683D01*
X155876867Y-60660828D01*
X155844378Y-60588930D01*
X155683857Y-60236002D01*
X155144761Y-60235144D01*
X154930874Y-60235995D01*
X154780631Y-60239874D01*
X154685141Y-60247584D01*
X154635511Y-60259928D01*
X154622848Y-60277707D01*
X154624025Y-60282133D01*
X154646296Y-60324753D01*
X154700272Y-60421833D01*
X154781233Y-60565065D01*
X154884455Y-60746145D01*
X155005216Y-60956764D01*
X155138795Y-61188617D01*
X155174334Y-61250127D01*
X155309669Y-61484576D01*
X155432785Y-61698530D01*
X155539097Y-61883968D01*
X155624022Y-62032870D01*
X155682976Y-62137215D01*
X155711373Y-62188985D01*
X155713213Y-62192927D01*
X155697221Y-62228688D01*
X155648384Y-62320377D01*
X155570520Y-62461287D01*
X155467442Y-62644716D01*
X155342967Y-62863958D01*
X155200911Y-63112308D01*
X155045089Y-63383064D01*
X154879317Y-63669519D01*
X154707412Y-63964970D01*
X154602735Y-64144072D01*
X154533689Y-64262000D01*
X155629072Y-64262000D01*
X155990172Y-63545358D01*
X156094264Y-63341177D01*
X156186778Y-63164301D01*
X156263129Y-63023114D01*
X156318734Y-62926004D01*
X156349005Y-62881357D01*
X156353208Y-62881311D01*
X156368189Y-62929276D01*
X156408834Y-63032292D01*
X156470550Y-63179444D01*
X156548746Y-63359820D01*
X156638829Y-63562506D01*
X156654500Y-63597301D01*
X156953857Y-64260696D01*
X157492954Y-64261348D01*
X157709693Y-64260241D01*
X157862045Y-64255845D01*
X157958146Y-64247464D01*
X158006136Y-64234399D01*
X158014434Y-64216643D01*
X157992522Y-64174812D01*
X157938975Y-64078227D01*
X157858392Y-63935014D01*
X157755369Y-63753299D01*
X157634505Y-63541208D01*
X157500397Y-63306867D01*
X157448123Y-63215769D01*
X157311140Y-62976312D01*
X157186651Y-62756951D01*
X157079079Y-62565619D01*
X156992848Y-62410248D01*
X156932381Y-62298771D01*
X156902101Y-62239124D01*
X156899429Y-62231646D01*
X156916647Y-62193982D01*
X156965352Y-62101315D01*
X157041119Y-61961708D01*
X157139524Y-61783221D01*
X157256143Y-61573916D01*
X157386551Y-61341855D01*
X157429499Y-61265824D01*
X157564240Y-61027094D01*
X157687580Y-60807617D01*
X157794908Y-60615673D01*
X157881613Y-60459543D01*
X157943082Y-60347509D01*
X157974706Y-60287851D01*
X157977667Y-60281447D01*
X157970700Y-60262690D01*
X157927324Y-60249378D01*
X157838855Y-60240732D01*
X157696610Y-60235971D01*
X157491905Y-60234315D01*
X157452646Y-60234286D01*
X156909528Y-60234286D01*
X156780112Y-60515500D01*
D11*
X191271100Y-103758600D02*
X191271100Y-102488600D01*
X191271100Y-102488600D02*
X190636100Y-101853600D01*
X190636100Y-101853600D02*
X189366100Y-101853600D01*
X189366100Y-101853600D02*
X188731100Y-102488600D01*
X190636100Y-104393600D02*
X189366100Y-104393600D01*
X191271100Y-103758600D02*
X190636100Y-104393600D01*
X189366100Y-104393600D02*
X188731100Y-103758600D01*
X188731100Y-102488600D02*
X188731100Y-103758600D01*
X190636100Y-101853600D02*
X191271100Y-101218600D01*
X191271100Y-101218600D02*
X191271100Y-99948600D01*
X191271100Y-99948600D02*
X190636100Y-99313600D01*
X190636100Y-99313600D02*
X189366100Y-99313600D01*
X189366100Y-99313600D02*
X188731100Y-99948600D01*
X188731100Y-99948600D02*
X188731100Y-101218600D01*
X188731100Y-101218600D02*
X189366100Y-101853600D01*
M02*
